/* XPM */ 
static const unsigned char * east_cardinal_clear_xpm[] = {
"24 42 56 1",
" 	c None",
"!	c black",
"#	c #040809",
"$	c #060807",
"%	c #050706",
"&	c #0E0D0B",
"'	c #070604",
"(	c #090401",
")	c #0A0502",
"*	c #080401",
"+	c #0B0300",
",	c #1C1411",
"-	c #0E0905",
".	c #0B0301",
"0	c #070200",
"1	c #090303",
"2	c #130E0B",
"3	c #060503",
"4	c #080403",
"5	c #050402",
"6	c #1C1C1C",
"7	c #050601",
"8	c #0A0B06",
"9	c #070707",
":	c #080806",
";	c #050503",
"<	c #050505",
"=	c #050507",
">	c #060405",
"?	c #060407",
"@	c #0C0A0D",
"A	c #060606",
"B	c #0A0607",
"C	c #070304",
"D	c #070206",
"E	c #0A0605",
"F	c #0B0603",
"G	c #0D0805",
"H	c #0B0706",
"I	c #110900",
"J	c #150B00",
"K	c #150D00",
"L	c #0C0800",
"M	c #F8F13D",
"N	c #1C1200",
"O	c #120E00",
"P	c #090700",
"Q	c #0B0C00",
"R	c #080600",
"S	c #160D00",
"T	c #1C1300",
"U	c #0F0900",
"V	c #130700",
"W	c #1A0E00",
"X	c #221600",
"Y	c #170C00",
"             #          ",
"            $%          ",
"           !&'!         ",
"          !()*!         ",
"         !!+,-!!        ",
"        !!.++0!!*       ",
"           1            ",
"           1            ",
"       *!!2*!!!*        ",
"        **(*3!*         ",
"         *.(3*          ",
"         *(4*           ",
"          5*            ",
"          6             ",
"        789!            ",
"       $:;<!            ",
"       =>?@!            ",
"      !ABCD!            ",
"      !EFGH!            ",
"      !IJKL             ",
"      !MMM!             ",
"     !MMMMM!            ",
"    !MMMMMM!            ",
"   !MMMMMMMM!           ",
"  !!!!!!!!!!!           ",
" !!!!!NM!!!!!!          ",
"!!!!!!MMM!OPQ!!         ",
"     !!MR!              ",
"       ! !STU           ",
"          MMM!!         ",
"           MMMM!!       ",
"           MMMMMM!      ",
"            MMMMMM!!    ",
"            MMMMMMMM!   ",
"             MMMMMMMM!  ",
"             MMMMMMMMM! ",
"              MMMMMMMM!!",
"              MMMMMMMMMV",
"              MMMMMMMMM!",
"              9MMMMMMM! ",
"               !MMMMM!  ",
"                 WXY!   "};