/* XPM */ 
static const unsigned char * grg_cone_xpm[] = {
"25 27 53 1",
" 	c None",
"!	c black",
"#	c #002900",
"$	c #003100",
"%	c #000900",
"&	c #001A00",
"'	c #001C00",
"(	c #5CD925",
")	c #061600",
"*	c #000F00",
"+	c #001E00",
",	c #FF0000",
"-	c #002C00",
".	c #001400",
"0	c #071F07",
"1	c #002D00",
"2	c #001100",
"3	c #000E20",
"4	c #001800",
"5	c #001B00",
"6	c #002A00",
"7	c #002000",
"8	c #001104",
"9	c #000D04",
":	c #000E00",
";	c #001E03",
"<	c #001000",
"=	c #002033",
">	c #001115",
"?	c #001609",
"@	c #001300",
"A	c #001D00",
"B	c #001F00",
"C	c #002300",
"D	c #001323",
"E	c #000015",
"F	c #050811",
"G	c #000302",
"H	c #020018",
"I	c #000D00",
"J	c #001804",
"K	c #002200",
"L	c #001700",
"M	c #031B0E",
"N	c #001002",
"O	c #000C00",
"P	c #000F02",
"Q	c #001003",
"R	c #00070E",
"S	c #003700",
"T	c #001916",
"U	c #002112",
"V	c #001500",
"          #$%            ",
"        &'(()            ",
"       '(((((*           ",
"      +((((((&           ",
"      +,,,(((-           ",
"     .,,,,,,,,0          ",
"     1,,,,,,,,2          ",
"    3((((,,,,,4          ",
"   5(((((((((,,5         ",
"   3(((((6(((((7         ",
"   8(((19 :;(((<         ",
" =>?@3A5   4B2<CA:       ",
"       DE FG             ",
"         H(33IJ          ",
"          (((((36        ",
"           ((((((3       ",
"           (((((((KL     ",
"            ((((((((3M   ",
"             (((((((((34 ",
"              ((((((((((N",
"              ((((((((((I",
"               (((((((((O",
"                ((((((((P",
"                 (((((((Q",
"                 3((((((R",
"                  (((((S ",
"                  3 TUV  "};