/* XPM */ 
static const unsigned char * isol_danger_clear_xpm[] = {
"24 42 36 1",
" 	c None",
"!	c black",
"#	c #080401",
"$	c #060807",
"%	c #050706",
"&	c #0E0D0B",
"'	c #070604",
"(	c #090401",
")	c #0A0502",
"*	c #0B0300",
"+	c #1C1411",
",	c #0E0905",
"-	c #090303",
".	c #130E0B",
"0	c #060503",
"1	c #0B0301",
"2	c #080403",
"3	c #050402",
"4	c #050601",
"5	c #0A0B06",
"6	c #070707",
"7	c #050507",
"8	c #F60824",
"9	c #1C1200",
":	c #120E00",
";	c #090700",
"<	c #0B0C00",
"=	c #080600",
">	c #160D00",
"?	c #1C1300",
"@	c #0F0900",
"A	c #F8F13D",
"B	c #130700",
"C	c #1A0E00",
"D	c #221600",
"E	c #170C00",
"           #!           ",
"          ##$%          ",
"         #!!&'!         ",
"         #!()#!         ",
"          #*+,          ",
"           **           ",
"           -            ",
"          #-            ",
"         #.#!           ",
"        ##(#0!          ",
"        ##1(0#          ",
"         #(2#           ",
"          3#            ",
"          #             ",
"        456!            ",
"       $###!            ",
"       7888!            ",
"      !8888!            ",
"      !8888#            ",
"      !#####            ",
"      !#####            ",
"     !88888!            ",
"    !888888#            ",
"   !88888888!           ",
"  !!!!!!!!!!!           ",
" !!!!!9 !!!!!!          ",
"!!!!!!   !:;<!!         ",
"     !! =!              ",
"       ! !>?@           ",
"          AAA!!         ",
"           AAAA!!       ",
"           AAAAAA!      ",
"            AAAAAA!!    ",
"            AAAAAAAA!   ",
"             AAAAAAAA!  ",
"             AAAAAAAAA! ",
"              AAAAAAAA!!",
"              AAAAAAAAAB",
"              AAAAAAAAA!",
"              6AAAAAAA! ",
"               !AAAAA!  ",
"                 CDE!   "};