/* XPM */ 
static const unsigned char * port_hand_red_cyl_clear_xpm[] = {
"24 26 63 1",
" 	c None",
"!	c black",
"#	c #000F28",
"$	c #06071C",
"%	c #120318",
"&	c #160005",
"'	c #F60824",
"(	c #570000",
")	c #330000",
"*	c #320009",
"+	c #200000",
",	c #1C000B",
"-	c #280817",
".	c #0D000E",
"0	c #060419",
"1	c #130005",
"2	c #220004",
"3	c #0B0012",
"4	c #1F0311",
"5	c #100017",
"6	c #2F0000",
"7	c #480001",
"8	c #2C0000",
"9	c #3B0000",
":	c #0C0703",
";	c #000F05",
"<	c #0A0501",
"=	c #000E20",
">	c #4E0000",
"?	c #000600",
"@	c #17030C",
"A	c #0F1A0C",
"B	c #100621",
"C	c #00111E",
"D	c #15010A",
"E	c #24000A",
"F	c #1D0000",
"G	c #330811",
"H	c #080401",
"I	c #030E00",
"J	c #150000",
"K	c #350003",
"L	c #490002",
"M	c #490011",
"N	c #0F0520",
"O	c #010023",
"P	c #070039",
"Q	c #430003",
"R	c #001A13",
"S	c #250000",
"T	c #001A08",
"U	c #0B0A12",
"V	c #000D19",
"W	c #001723",
"X	c #460013",
"Y	c #00090E",
"Z	c #000C18",
"[	c #200900",
"]	c #140000",
"^	c #4F0000",
"_	c #28000B",
"`	c #370008",
"a	c #130C14",
"    #$%                 ",
"    &''()*+             ",
"    ,''''''-.0          ",
"   1''''''''''23        ",
"   4'''''''''''5        ",
"   6'''''''''''7        ",
"   8'''''''''''9        ",
"  :''''''''''';         ",
"  <''''=>'''''?         ",
"  @'''=  A''''B         ",
"=CDEFGH  IJKLMNOP       ",
"       =K'Q             ",
"         ''=HR          ",
"          ''''HS        ",
"          ''''''T       ",
"           ''''''HHUV   ",
"            ''''''''W   ",
"            '''''''''XY ",
"             ''''''''''Z",
"              '''''''''[",
"              ''''''''']",
"               ''''''''^",
"               ='''''''^",
"                '''''''_",
"                 H''''` ",
"                  HHa=  "};