/* XPM */
static char *rcldef[] = {
/* columns rows colors chars-per-pixel */
"31 28 3 1",
"  c black",
". c #B200FF",
"X c None",
/* pixels */
"XXXXXXXXXXXXXXX.XXXXXXXXXXXXXXX",
"XXXXXXXXXXXXXXX.XXXXXXXXXXXXXXX",
"XXXXXXXXXXXXXX.X.XXXXXXXXXXXXXX",
"XXXXXXXXXXXXXX.X.XXXXXXXXXXXXXX",
"XXXXXXXXXXXXX.XXX.XXXXXXXXXXXXX",
"XXXXXXXXXXXX.XXXXX.XXXXXXXXXXXX",
"XXXXXXXXXXXX.XXXXX.XXXXXXXXXXXX",
"XXXXXXXXXXX.XXXXXXX.XXXXXXXXXXX",
"XXXXXXXXXXX.XX...XX.XXXXXXXXXXX",
"XXXXXXX...X...XXX...X...XXXXXXX",
"XXXXX..XXX.XXXXXXXXX.XXX..XXXXX",
"XXXX.XXXXX.XXXXXXXXX.XXXXX.XXXX",
"XX..XXXXXX.XXXXXXXXX.XXXXXX..XX",
"..XXXXXXX.XXXXXXXXXXX.XXXXXXX..",
"XX..XXXXX.XXXXXXXXXXX.XXXXX..XX",
"XXXX.XXXXX.XXXXXXXXX.XXXXX.XXXX",
"XXXXX..XXX.XXXXXXXXX.XXX..XXXXX",
"XXXXXXX....XXXXXXXXX....XXXXXXX",
"XXXXXXXXXXX...XXX...XXXXXXXXXXX",
"XXXXXXXXXXX.XX...XX.XXXXXXXXXXX",
"XXXXXXXXXXX.XXXXXXX.XXXXXXXXXXX",
"XXXXXXXXXXXX.XXXXX.XXXXXXXXXXXX",
"XXXXXXXXXXXX.XXXXX.XXXXXXXXXXXX",
"XXXXXXXXXXXXX.XXX.XXXXXXXXXXXXX",
"XXXXXXXXXXXXXX.X.XXXXXXXXXXXXXX",
"XXXXXXXXXXXXXX.X.XXXXXXXXXXXXXX",
"XXXXXXXXXXXXXXX.XXXXXXXXXXXXXXX",
"XXXXXXXXXXXXXXX.XXXXXXXXXXXXXXX"
};
