/* XPM */
static char *rdocal_w[] = {
/* columns rows colors chars-per-pixel */
"20 13 3 1",
"  c black",
". c #B200FF",
"X c None",
/* pixels */
"XXXXXXXXXXXXX..XXXXX",
"XXXXXXXXXX...XX...XX",
"XXXXXXX...XXXXXXXX.X",
"XXXXX..XX.XXXXXXXX.X",
"XXXX.XXXX.XXXXXXXX.X",
"XX..XXXX.XXXXXXXXXX.",
"..XXXXXX.XXXXXXXXXX.",
"XX..XXXX.XXXXXXXXXX.",
"XXXX.XXXX.XXXXXXXX.X",
"XXXXX..XX.XXXXXXXX.X",
"XXXXXXX...XXXXXXXX.X",
"XXXXXXXXXX...XX...XX",
"XXXXXXXXXXXXX..XXXXX"
};
