/* XPM */ 
static const unsigned char * south_cardinal_clear_xpm[] = {
"24 42 35 1",
" 	c None",
"!	c black",
"#	c #060807",
"$	c #050706",
"%	c #0E0D0B",
"&	c #070604",
"'	c #090401",
"(	c #0A0502",
")	c #080401",
"*	c #0B0300",
"+	c #1C1411",
",	c #0E0905",
"-	c #090303",
".	c #130E0B",
"0	c #060503",
"1	c #0B0301",
"2	c #080403",
"3	c #050402",
"4	c #050601",
"5	c #0A0B06",
"6	c #070707",
"7	c #F8F13D",
"8	c #050507",
"9	c #1C1200",
":	c #120E00",
";	c #090700",
"<	c #0B0C00",
"=	c #080600",
">	c #160D00",
"?	c #1C1300",
"@	c #0F0900",
"A	c #130700",
"B	c #1A0E00",
"C	c #221600",
"D	c #170C00",
"            !           ",
"        !!!!#$!!!       ",
"         !!!%&!!        ",
"          !'()!         ",
"           *+,          ",
"           **           ",
"           -            ",
"           -            ",
"       )!!.)!!!)        ",
"        ))')0!)         ",
"         )1'0)          ",
"          '2)           ",
"          3)            ",
"          )             ",
"        456!            ",
"       #777!            ",
"       8777!            ",
"      !7777!            ",
"      !7777!            ",
"      !7777)            ",
"      !7777)            ",
"     !77777!            ",
"    !777777!            ",
"   !!!!!!!!!!           ",
"  !!!!!!!!!!!           ",
" !!!!!9 !!!!!!          ",
"!!!!!!   !:;<!!         ",
"     !! =!              ",
"       ! !>?@           ",
"          777!!         ",
"           7777!!       ",
"           777777!      ",
"            777777!!    ",
"            77777777!   ",
"             77777777!  ",
"             777777777! ",
"              77777777!!",
"              777777777A",
"              777777777!",
"              67777777! ",
"               !77777!  ",
"                 BCD!   "};