/* XPM */ 
static const unsigned char * west_cardinal_clear_xpm[] = {
"24 42 33 1",
" 	c None",
"!	c black",
"#	c #080401",
"$	c #060807",
"%	c #050706",
"&	c #0E0D0B",
"'	c #070604",
"(	c #090401",
")	c #0A0502",
"*	c #0B0300",
"+	c #0E0905",
",	c #090303",
"-	c #130E0B",
".	c #060503",
"0	c #0B0301",
"1	c #080403",
"2	c #050402",
"3	c #050601",
"4	c #0A0B06",
"5	c #070707",
"6	c #F8F13D",
"7	c #050507",
"8	c #1C1200",
"9	c #120E00",
":	c #090700",
";	c #080600",
"<	c #160D00",
"=	c #1C1300",
">	c #0F0900",
"?	c #130700",
"@	c #1A0E00",
"A	c #221600",
"B	c #170C00",
"            !           ",
"        #!!#$%!!!       ",
"         !!!&'!!        ",
"          !()#!         ",
"           *#+          ",
"           **           ",
"           ,            ",
"           ,            ",
"          -#            ",
"         #(#.           ",
"        ##0(.           ",
"       ###(1##          ",
"      ####2####         ",
"          #             ",
"        345!            ",
"       $666!            ",
"       7666!            ",
"      !6666!            ",
"      !6666!            ",
"      !#####            ",
"      !#####            ",
"     !#####!            ",
"    !######!            ",
"   !6666666!!           ",
"  !6666!6666!           ",
" !66668 !6666!          ",
"!!!!!!   !9:#!!         ",
"     !! ;!              ",
"       ! !<=>           ",
"          666!!         ",
"           6666!!       ",
"           666666!      ",
"            666666!!    ",
"            66666666!   ",
"             66666666!  ",
"             666666666! ",
"              66666666!!",
"              666666666?",
"              666666666!",
"              56666666! ",
"               !66666!  ",
"                 @AB!   "};