/* XPM */
static char * yachtclub90_xpm[] = {
"16 16 57 1",
" 	c None",
".	c #7A0057",
"+	c #8E0066",
"@	c #94006A",
"#	c #95006A",
"$	c #8F0066",
"%	c #7F005B",
"&	c #82005D",
"*	c #8B0064",
"=	c #870061",
"-	c #8D0065",
";	c #81005D",
">	c #880062",
",	c #85005F",
"'	c #83005D",
")	c #890062",
"!	c #A00072",
"~	c #860060",
"{	c #8A0063",
"]	c #880061",
"^	c #A60077",
"/	c #A40075",
"(	c #910067",
"_	c #760055",
":	c #98006E",
"<	c #A50076",
"[	c #A30075",
"}	c #93006A",
"|	c #870060",
"1	c #780056",
"2	c #9B0070",
"3	c #9C0070",
"4	c #99006D",
"5	c #95006B",
"6	c #81005C",
"7	c #99006E",
"8	c #A20074",
"9	c #A40076",
"0	c #740053",
"a	c #96006B",
"b	c #9A006F",
"c	c #920069",
"d	c #9B006E",
"e	c #94006B",
"f	c #A30074",
"g	c #98006D",
"h	c #8C0065",
"i	c #A00073",
"j	c #9B006F",
"k	c #790057",
"l	c #7B0058",
"m	c #900067",
"n	c #9A006E",
"o	c #9D0070",
"p	c #9E0071",
"q	c #8F0067",
"r	c #A50077",
"     .+@#$%     ",
"   &*=     -;   ",
"  >=        =,  ",
" ')     =!+  ~% ",
" {   {] ^/(   ] ",
"_-   :  <[}   |1",
"-   23  <[4    +",
"5  6[7  <890   5",
"a  7[b  <8[5   c",
"+  8[d  <889,  e",
";  f[g  <9<8@  =",
" h i|   j)k   + ",
"       l{       ",
"  mng:gopg:g7q  ",
"   nr[[[[[/r7   ",
"    =o[[[[3]    "};
