/* XPM */
static char *dummy[]={
"24 24 2 1",
". c #000000",
"# c #000000",
".......###############..",
".......##............#..",
"......##.#.#.#.#.#..#...",
"......##............#...",
"......##..#.#.#.#.#.#...",
".....##.............#...",
".....##..#.#.#.#.#.#....",
".....##............#....",
".....##.#.#.#.#.#..#....",
"....##.............#....",
"....##............#.....",
"....###############.....",
"...##...................",
"...##...................",
"...##...................",
"..##....................",
"..##....................",
"..##....................",
"..##....................",
".##.....................",
".##.....................",
".##.....................",
"##......................",
"##......................"};
