/* XPM */ 
static const unsigned char * isol_post_clear_xpm[] = {
"20 28 19 1",
" 	c None",
"!	c black",
"#	c #000E20",
"$	c #F60824",
"%	c #0F1A0C",
"&	c #030E00",
"'	c #F2FA19",
"(	c #080401",
")	c #001A13",
"*	c #250000",
"+	c #001A08",
",	c #0B0A12",
"-	c #000D19",
".	c #001723",
"0	c #200900",
"1	c #00090E",
"2	c #28000B",
"3	c #370008",
"4	c #130C14",
"  ####              ",
"  #$$#              ",
"  #$$#              ",
"  #$$#              ",
"  #$$#              ",
"  #$$#              ",
"  ####              ",
"  ####              ",
"  ####              ",
"  ####              ",
"  ####              ",
"  #  %              ",
"###  &##            ",
"   ##'#             ",
"     ''#()          ",
"      ''''(*        ",
"      ''''''+       ",
"       ''''''((,-   ",
"        ''''''''.   ",
"        '''''''''01 ",
"         ''''''''''0",
"          '''''''''0",
"          '''''''''0",
"           ''''''''0",
"           #'''''''0",
"            '''''''2",
"             (''''3 ",
"              ((4#  "};