/* XPM */ 
static const unsigned char * north_cardinal_clear_xpm[] = {
"24 42 68 1",
" 	c None",
"!	c black",
"#	c #040809",
"$	c #060807",
"%	c #050706",
"&	c #0E0D0B",
"'	c #070604",
"(	c #090401",
")	c #0A0502",
"*	c #080401",
"+	c #0B0300",
",	c #1C1411",
"-	c #0E0905",
".	c #0B0301",
"0	c #070200",
"1	c #162526",
"2	c #090303",
"3	c #130E0B",
"4	c #060503",
"5	c #19221E",
"6	c #090400",
"7	c #18221F",
"8	c #1A231F",
"9	c #080403",
":	c #161415",
";	c #070707",
"<	c #192423",
"=	c #090502",
">	c #070300",
"?	c #050402",
"@	c #1C1C1C",
"A	c #060604",
"B	c #050601",
"C	c #0A0B06",
"D	c #080806",
"E	c #050503",
"F	c #050505",
"G	c #050507",
"H	c #060405",
"I	c #060407",
"J	c #0C0A0D",
"K	c #060606",
"L	c #0A0607",
"M	c #070304",
"N	c #070206",
"O	c #0A0605",
"P	c #0B0603",
"Q	c #0D0805",
"R	c #0B0706",
"S	c #110900",
"T	c #150B00",
"U	c #150D00",
"V	c #0C0800",
"W	c #F8F13D",
"X	c #120C00",
"Y	c #191100",
"Z	c #1C1200",
"[	c #120E00",
"]	c #090700",
"^	c #0B0C00",
"_	c #080600",
"`	c #160D00",
"a	c #1C1300",
"b	c #0F0900",
"c	c #130700",
"d	c #1A0E00",
"e	c #221600",
"f	c #170C00",
"             #          ",
"            $%          ",
"           !&'!         ",
"          !()*!         ",
"         !!+,-!!        ",
"        !!.++0!!1       ",
"           2            ",
"           2            ",
"          3*            ",
"         *(*4           ",
"        56.(4           ",
"       786(9:;          ",
"      !<=>?!!!!         ",
"          @             ",
"       ABC;!            ",
"       $DEF!            ",
"       GHIJ!            ",
"      !KLMN!            ",
"      !OPQR!            ",
"      !STUV             ",
"      !WWWX             ",
"     !WWWWY             ",
"    !WWWWWW!            ",
"   !WWWWWWW!            ",
"  !WWWW!WWWW!           ",
" !WWW!ZW!!WWW!          ",
"!!!!!!WWW![]^!!         ",
"     !!W_!              ",
"       ! !`ab           ",
"          WWW!!         ",
"           WWWW!!       ",
"           WWWWWW!      ",
"            WWWWWW!!    ",
"            WWWWWWWW!   ",
"             WWWWWWWW!  ",
"             WWWWWWWWW! ",
"              WWWWWWWW!!",
"              WWWWWWWWWc",
"              WWWWWWWWW!",
"              ;WWWWWWW! ",
"               !WWWWW!  ",
"                 def!   "};