/* XPM */
static char *rdocal_n[] = {
/* columns rows colors chars-per-pixel */
"13 20 3 1",
"  c black",
". c #B200FF",
"X c None",
/* pixels */
"XXXXXX.XXXXXX",
"XXXXXX.XXXXXX",
"XXXXX.X.XXXXX",
"XXXXX.X.XXXXX",
"XXXX.XXX.XXXX",
"XXX.XXXXX.XXX",
"XXX.XXXXX.XXX",
"XX.XXXXXXX.XX",
"XX.XX...XX.XX",
"XX...XXX...XX",
"X.XXXXXXXXX.X",
"X.XXXXXXXXX.X",
"X.XXXXXXXXX.X",
".XXXXXXXXXXX.",
".XXXXXXXXXXX.",
"X.XXXXXXXXX.X",
"X.XXXXXXXXX.X",
"X.XXXXXXXXX.X",
"XX...XXX...XX",
"XXXXX...XXXXX"
};
