/* XPM */
static char *rdocal_e[] = {
/* columns rows colors chars-per-pixel */
"20 13 3 1",
"  c black",
". c #B200FF",
"X c None",
/* pixels */
"XXXXX..XXXXXXXXXXXXX",
"XX...XX...XXXXXXXXXX",
"X.XXXXXXXX...XXXXXXX",
"X.XXXXXXXX.XX..XXXXX",
"X.XXXXXXXX.XXXX.XXXX",
".XXXXXXXXXX.XXXX..XX",
".XXXXXXXXXX.XXXXXX..",
".XXXXXXXXXX.XXXX..XX",
"X.XXXXXXXX.XXXX.XXXX",
"X.XXXXXXXX.XX..XXXXX",
"X.XXXXXXXX...XXXXXXX",
"XX...XX...XXXXXXXXXX",
"XXXXX..XXXXXXXXXXXXX"
};
