/* XPM */
static char *dummy[]={
"24 24 3 1",
". c None",
"# c #000000",
"a c #ff0000",
"........................",
"..............#.........",
"..............###.......",
"..............#aa##.....",
".............#aaaaa##...",
".............#aaaaaaa##.",
".............#aaaaaaaaa#",
".............#aaaaaa###.",
".............#aaaa##....",
"............#aa###......",
"............###.........",
"............#...........",
"............#...........",
"...........#............",
"...........#............",
"........######..........",
"......##aaaaaa##........",
".....#aaaaaaaaaa#.......",
"....#aaaaaaaaaaaa#......",
"...#aaaaaaaaaaaaaa#.....",
"...#aaaaaaaaaaaaaa#.....",
"..##################....",
"........................",
"........................"};
