/* XPM */ 
static const unsigned char * rgr_cyl_xpm[] = {
"24 26 56 1",
" 	c None",
"!	c black",
"#	c #000F28",
"$	c #06071C",
"%	c #120318",
"&	c #160005",
"'	c #F60824",
"(	c #570000",
")	c #330000",
"*	c #320009",
"+	c #200000",
",	c #1C000B",
"-	c #280817",
".	c #0D000E",
"0	c #060419",
"1	c #130005",
"2	c #5CD925",
"3	c #220004",
"4	c #0B0012",
"5	c #1F0311",
"6	c #100017",
"7	c #2F0000",
"8	c #200900",
"9	c #2C0000",
":	c #0C0703",
";	c #000F05",
"<	c #0A0501",
"=	c #000E20",
">	c #4E0000",
"?	c #000600",
"@	c #17030C",
"A	c #0F1A0C",
"B	c #100621",
"C	c #00111E",
"D	c #15010A",
"E	c #24000A",
"F	c #1D0000",
"G	c #330811",
"H	c #080401",
"I	c #030E00",
"J	c #150000",
"K	c #350003",
"L	c #0F0520",
"M	c #010023",
"N	c #070039",
"O	c #430003",
"P	c #001A13",
"Q	c #250000",
"R	c #001A08",
"S	c #0B0A12",
"T	c #000D19",
"U	c #001723",
"V	c #00090E",
"W	c #28000B",
"X	c #370008",
"Y	c #130C14",
"    #$%                 ",
"    &''()*+             ",
"    ,''''''-.0          ",
"   1222'''''''34        ",
"   52222222''''6        ",
"   7222222222228        ",
"   9'''222222228        ",
"  :'''''''2222;         ",
"  <''''=>'''''?         ",
"  @'''=  A''''B         ",
"=CDEFGH  IJK88LMN       ",
"       =K'O             ",
"         ''=HP          ",
"          ''''HQ        ",
"          ''''''R       ",
"           ''''''HHST   ",
"            ''''''''U   ",
"            '''''''''8V ",
"             ''''''''''8",
"              '''''''''8",
"              '''''''''8",
"               ''''''''8",
"               ='''''''8",
"                '''''''W",
"                 H''''X ",
"                  HHY=  "};