/* XPM */ 
static const unsigned char * stbd_hnd_green_cone_clear_xpm[] = {
"25 27 52 1",
" 	c None",
"!	c black",
"#	c #002900",
"$	c #003100",
"%	c #000900",
"&	c #001A00",
"'	c #001C00",
"(	c #5CD925",
")	c #061600",
"*	c #000F00",
"+	c #001E00",
",	c #002C00",
"-	c #001400",
".	c #071F07",
"0	c #002D00",
"1	c #001100",
"2	c #000E20",
"3	c #001800",
"4	c #001B00",
"5	c #002A00",
"6	c #002000",
"7	c #001104",
"8	c #000D04",
"9	c #000E00",
":	c #001E03",
";	c #001000",
"<	c #002033",
"=	c #001115",
">	c #001609",
"?	c #001300",
"@	c #001D00",
"A	c #001F00",
"B	c #002300",
"C	c #001323",
"D	c #000015",
"E	c #050811",
"F	c #000302",
"G	c #020018",
"H	c #000D00",
"I	c #001804",
"J	c #002200",
"K	c #001700",
"L	c #031B0E",
"M	c #001002",
"N	c #000C00",
"O	c #000F02",
"P	c #001003",
"Q	c #00070E",
"R	c #003700",
"S	c #001916",
"T	c #002112",
"U	c #001500",
"          #$%            ",
"        &'(()            ",
"       '(((((*           ",
"      +((((((&           ",
"      +((((((,           ",
"     -((((((((.          ",
"     0((((((((1          ",
"    2(((((((((3          ",
"   4(((((((((((4         ",
"   2(((((5(((((6         ",
"   7(((08 9:(((;         ",
" <=>?2@4   3A1;B@9       ",
"       CD EF             ",
"         G(22HI          ",
"          (((((25        ",
"           ((((((2       ",
"           (((((((JK     ",
"            ((((((((2L   ",
"             (((((((((23 ",
"              ((((((((((M",
"              ((((((((((H",
"               (((((((((N",
"                ((((((((O",
"                 (((((((P",
"                 2((((((Q",
"                  (((((R ",
"                  2 STU  "};