/* XPM */
static char *windfarm[] = {
/* columns rows colors chars-per-pixel */
"11 23 3 1 5 20",
"  c black",
". c #252525",
"X c None",
/* pixels */
"XX XXXXXXXX",
"XX XXXXXXXX",
"XXX XXXXXXX",
"XXX XXXXXXX",
"XXXX XXXXXX",
"XXXX  XXXXX",
"XXXXX.     ",
"XXXX  XXXXX",
"XXX X XXXXX",
"XXX X XXXXX",
"XX XX XXXXX",
"XX XX XXXXX",
"XXXXX XXXXX",
"XXXXX XXXXX",
"XXXXX XXXXX",
"XXXXX XXXXX",
"XXXXX XXXXX",
"XXXXX XXXXX",
"XXXX   XXXX",
"XXX  X  XXX",
"    XXX    ",
"XXX  X  XXX",
"XXXX   XXXX"
};
