/* XPM */
static char *dummy[]={
"24 24 3 1",
". c #000000",
"# c #000000",
"a c #ffff00",
".......###############..",
".......##aaaaaaaaaaaa#..",
"......##aaaaaaaaaaaa#...",
"......##aaaaaaaaaaaa#...",
"......##aaaaaaaaaaaa#...",
".....##aaaaaaaaaaaaa#...",
".....##aaaaaaaaaaaa#....",
".....##aaaaaaaaaaaa#....",
".....##aaaaaaaaaaaa#....",
"....##aaaaaaaaaaaaa#....",
"....##aaaaaaaaaaaa#.....",
"....###############.....",
"...##...................",
"...##...................",
"...##...................",
"..##....................",
"..##....................",
"..##....................",
"..##....................",
".##.....................",
".##.....................",
".##.....................",
"##......................",
"##......................"};
