/* XPM */ 
static const unsigned char * anchor___anchor_xpm[] = {
"32 32 169 2",
"  	c None",
"! 	c black",
"# 	c #74ADD7",
"$ 	c #5A7A93",
"% 	c #5B7891",
"& 	c #7E373B",
"' 	c #648EAE",
"( 	c #72515D",
") 	c #863A3F",
"* 	c #C83336",
"+ 	c #D23337",
", 	c #853A3F",
"- 	c #71515D",
". 	c #71A8D0",
"0 	c #AD363B",
"1 	c #CE3336",
"2 	c #D33337",
"3 	c #D43337",
"4 	c #D5383B",
"5 	c #F0BBBC",
"6 	c #F9EAEA",
"7 	c #DD6063",
"8 	c #CD3336",
"9 	c #6590B0",
": 	c #844E5A",
"; 	c #D53337",
"< 	c #EA9B9D",
"= 	c #FEFEFE",
"> 	c #FAD8D9",
"? 	c #F7B5B7",
"@ 	c #FDFBFB",
"A 	c #FBF3F3",
"B 	c #D84447",
"C 	c #834E5A",
"D 	c #6B7C96",
"E 	c #AB373B",
"F 	c #D53237",
"G 	c #D63337",
"H 	c #DA4347",
"I 	c #FBF0F0",
"J 	c #FDF8F8",
"K 	c #EE4146",
"L 	c #ED3237",
"M 	c #F69FA1",
"N 	c #DA464A",
"O 	c #CC3336",
"P 	c #D73337",
"Q 	c #D83337",
"R 	c #DC464A",
"S 	c #FDF9F9",
"T 	c #EF4E52",
"U 	c #F7ACAE",
"V 	c #D93337",
"W 	c #DA373B",
"X 	c #EDA1A2",
"Y 	c #FCE6E6",
"Z 	c #FACFD1",
"[ 	c #FDFCFC",
"] 	c #FAE8E8",
"^ 	c #DB4145",
"_ 	c #DA3337",
"` 	c #DB3337",
"a 	c #DD363A",
"b 	c #F2B9BB",
"c 	c #FAE9E9",
"d 	c #E2585B",
"e 	c #AE363B",
"f 	c #D83E42",
"g 	c #DF5A5D",
"h 	c #E05A5D",
"i 	c #E15A5D",
"j 	c #E25A5D",
"k 	c #E35A5D",
"l 	c #F2B4B5",
"m 	c #DE5A5D",
"n 	c #DB5256",
"o 	c #E26D70",
"p 	c #F6D6D7",
"q 	c #D63237",
"r 	c #E26669",
"s 	c #F9E3E4",
"t 	c #FAE3E4",
"u 	c #FCF2F2",
"v 	c #F2C1C2",
"w 	c #DC3337",
"x 	c #DD3337",
"y 	c #DE3337",
"z 	c #E03337",
"{ 	c #E13337",
"| 	c #F1A2A4",
"} 	c #DF3337",
"~ 	c #C93336",
" !	c #E23337",
"!!	c #E33337",
"#!	c #F3A2A4",
"$!	c #F2A2A4",
"%!	c #E63337",
"&!	c #E53337",
"'!	c #7F373B",
"(!	c #E43337",
")!	c #E26568",
"*!	c #F4A2A4",
"+!	c #DB4246",
",!	c #DC5559",
"-!	c #DC5356",
".!	c #FAE9EA",
"0!	c #E8888A",
"1!	c #DC4448",
"2!	c #E37B7D",
"3!	c #E47B7D",
"4!	c #FDFAFA",
"5!	c #E25D61",
"6!	c #DD4649",
"7!	c #F6D5D5",
"8!	c #FBEEEF",
"9!	c #EE9C9E",
":!	c #E1494D",
";!	c #FCF5F5",
"<!	c #E33E42",
"=!	c #EA8A8D",
">!	c #DE6164",
"?!	c #FBF2F2",
"@!	c #FBEBEB",
"A!	c #E76C6E",
"B!	c #E24043",
"C!	c #E14A4D",
"D!	c #F6CFD0",
"E!	c #FDFDFD",
"F!	c #E77477",
"G!	c #F0A2A4",
"H!	c #E14043",
"I!	c #DE3D41",
"J!	c #F8DDDD",
"K!	c #F8E2E3",
"L!	c #D63E42",
"M!	c #E15256",
"N!	c #EFA2A4",
"O!	c #E04043",
"P!	c #F7D6D7",
"Q!	c #F1BEC0",
"R!	c #E78E90",
"S!	c #F1BFC0",
"T!	c #F5CECE",
"U!	c #DE4549",
"V!	c #F3B9BB",
"W!	c #DF4043",
"X!	c #E9898B",
"Y!	c #EDABAC",
"Z!	c #DE6366",
"[!	c #D94044",
"]!	c #F8DCDC",
"^!	c #F5C9CA",
"_!	c #F6CCCD",
"`!	c #F5CCCD",
"a!	c #F4C9CA",
"b!	c #F6D7D7",
"c!	c #D84044",
"d!	c #AC373B",
"e!	c #F1BFC1",
"f!	c #DE5E61",
"g!	c #D83F43",
"h!	c #E68587",
"i!	c #F8E1E2",
"j!	c #D73F43",
"k!	c #D73C40",
"l!	c #F9E5E5",
"m!	c #D43237",
"n!	c #E58487",
"o!	c #DE6063",
"                                                                ",
"                      # $ $ % & & % $ $ #                       ",
"                  ' ( ) * * * + + * * * , - '                   ",
"              . ( 0 1 2 3 4 5 6 6 5 7 2 2 8 0 ( .               ",
"            9 : 8 2 3 3 ; < = > ? @ A B 3 3 2 8 C 9             ",
"          D E 8 3 3 F G H I J K L M = N G F 3 2 O E D           ",
"        9 E 2 3 ; G P Q R = S T L U = R P G ; ; 3 + E 9         ",
"      . : 8 3 ; P Q Q V W X = Y Z [ ] ^ V Q P G ; 3 O C .       ",
"      ( 8 3 ; P Q V V _ ` a b = = c d ` V V Q P G ; 2 8 (       ",
"    ' e 2 ; f g h h i j k k l = = l k k j h h h m n 3 2 0 '     ",
"    ( 1 3 G o = = = = = = = = = = = = = = = = = = p ; 3 8 -     ",
"  # ) 3 ; q r s s s s t t t u = = u t t t s s s s v G 3 2 , #   ",
"  $ * 3 ; P V _ w x y z { { | = = | { z } y w ` V Q G ; 2 * $   ",
"  $ ~ 3 G Q V _ w y } {  !!!#!= = $! !{ z } x ` V Q P ; 3 * $   ",
"  % ~ 3 G Q V ` x y z { !!%!#!= = #!&! !{ } x w _ V P ; 3 * %   ",
"  '!2 3 G Q V ` x y z { (!%!#!= = #!&! !{ } x w _ V P ; 3 + &   ",
"  '!2 ; P )!V ` x } z  !&!%!*!= = #!%!!!{ z y w _ V +!,!3 + &   ",
"  % ~ 3 -!.!0!` x y z { (!%!#!= = #!&! !{ } x w _ 1!p 2!3 * %   ",
"  $ ~ 3 3!= 4!5!x y z {  !&!#!= = #!!!{ z } x w 6!7!= 2!3 * $   ",
"  $ ~ 3 3!= = 8!9!:!} z {  !$!= = ;!<!{ z y x =!8!= = 2!3 * $   ",
"  # ) 3 >!?!= = = @!A!} z { | = = = B!z } C!D!J = = = 2!2 ) #   ",
"    ( 1 ; 5 E!E!E!E!F!y } z G!= = = H!y x I!J!E!E!E!K!L!1 (     ",
"    ' e 3 >!?!= = .!M!x x y N!= = = O!x w ` P!= = = Q!2 0 '     ",
"      ( 1 3 R!S!= = T!U!w a V!= = = W!w U!X!;!= S!Y!Z!8 (       ",
"      . : 1 ; [!S!= = ]!^!_!= = = = `!a!]!E!E!b!c!3 8 : .       ",
"        9 d!3 ; c!e!= = = = = = = = = = = E!e!f!3 2 E 9         ",
"          D d!1 3 g!h!i!= = = = = = = = i!h!j!3 8 E D           ",
"            9 : 1 3 ; k!h!l!= = = = A 5 k!m!2 8 : 9             ",
"              . ( e 1 3 3 4 n!6 6 n!o!3 3 1 e ( .               ",
"                  ' ( ) ~ ~ ~ 2 2 ~ ~ * ) ( '                   ",
"                      # $ $ % '!'!% $ $ #                       ",
"                                                                "};