/* XPM */ 
static const unsigned char * anchor___mooring_xpm[] = {
"32 32 306 2",
"  	c None",
"! 	c black",
"# 	c #74ADD7",
"$ 	c #5A7A93",
"% 	c #587A91",
"& 	c #217049",
"' 	c #648EAE",
"( 	c #397566",
") 	c #25784E",
"* 	c #12A952",
"+ 	c #12A953",
", 	c #0EB155",
"- 	c #0EA853",
". 	c #24774E",
"0 	c #377566",
"1 	c #71A8D0",
"2 	c #397565",
"3 	c #1A9651",
"4 	c #18AE53",
"5 	c #1CB254",
"6 	c #27B354",
"7 	c #27AF53",
"8 	c #255537",
"9 	c #26352D",
": 	c #25934A",
"; 	c #22B254",
"< 	c #1AB254",
"= 	c #11AD53",
"> 	c #159552",
"? 	c #6590B0",
"@ 	c #338266",
"A 	c #16AD53",
"B 	c #20B254",
"C 	c #29B354",
"D 	c #34B454",
"E 	c #3BB453",
"F 	c #326C3D",
"G 	c #282829",
"H 	c #2F4233",
"I 	c #365B3E",
"J 	c #282929",
"K 	c #282F2B",
"L 	c #33A850",
"M 	c #2FB354",
"N 	c #25B354",
"O 	c #0EAD54",
"P 	c #318266",
"Q 	c #568999",
"R 	c #1B9452",
"S 	c #1BAD53",
"T 	c #35B453",
"U 	c #3FB553",
"V 	c #45B653",
"W 	c #46AB4F",
"X 	c #29312B",
"Y 	c #292B2A",
"Z 	c #4CAD60",
"[ 	c #50B965",
"] 	c #3A6B44",
"^ 	c #42A84F",
"_ 	c #43B553",
"` 	c #3AB453",
"a 	c #12AC53",
"b 	c #169452",
"c 	c #1D9452",
"d 	c #2EB354",
"e 	c #44B653",
"f 	c #4BB752",
"g 	c #4FB752",
"h 	c #50AA4D",
"i 	c #272729",
"j 	c #282B2A",
"k 	c #4AA45C",
"l 	c #376140",
"m 	c #4DAA4E",
"n 	c #4CB752",
"o 	c #48B653",
"p 	c #40B553",
"q 	c #14B154",
"r 	c #1DAD53",
"s 	c #3DB553",
"t 	c #47B653",
"u 	c #55B851",
"v 	c #5AB951",
"w 	c #5CB750",
"x 	c #436B3B",
"y 	c #2C382F",
"z 	c #314836",
"{ 	c #2E372D",
"| 	c #59AF4E",
"} 	c #57B951",
"~ 	c #52B852",
" !	c #3A7565",
"!!	c #18AD53",
"#!	c #2DB354",
"$!	c #3CB553",
"%!	c #50B752",
"&!	c #58B951",
"'!	c #5EBA51",
"(!	c #63BB50",
")!	c #66BC50",
"*!	c #69BB4F",
"+!	c #3E5A35",
",!	c #2F372C",
"-!	c #5DA148",
".!	c #65BC50",
"0!	c #60BA50",
"1!	c #5BB951",
"2!	c #54B852",
"3!	c #1E9651",
"4!	c #23B254",
"5!	c #39B453",
"6!	c #43AE50",
"7!	c #479B4A",
"8!	c #4E9C49",
"9!	c #549E49",
":!	c #589F48",
";!	c #5DA048",
"<!	c #60A147",
"=!	c #64A247",
">!	c #435F36",
"?!	c #62A147",
"@!	c #5FA148",
"A!	c #5B9F48",
"B!	c #569E49",
"C!	c #509D49",
"D!	c #4B9C4A",
"E!	c #439B4A",
"F!	c #3B9F4D",
"G!	c #3A7566",
"H!	c #1DAE53",
"I!	c #30B354",
"J!	c #408D46",
"K!	c #2D4331",
"L!	c #2A784E",
"M!	c #469347",
"N!	c #2F3A2E",
"O!	c #303B2E",
"P!	c #313B2D",
"Q!	c #323B2D",
"R!	c #333C2D",
"S!	c #343C2D",
"T!	c #2D312A",
"U!	c #333B2D",
"V!	c #2F3B2E",
"W!	c #2E3A2E",
"X!	c #325235",
"Y!	c #19A952",
"Z!	c #61BB50",
"[!	c #69BD4F",
"]!	c #71BF4E",
"^!	c #77C04D",
"_!	c #7EC24D",
"`!	c #84C34C",
"a!	c #88C44B",
"b!	c #546F38",
"c!	c #536E38",
"d!	c #86C44B",
"e!	c #82C34C",
"f!	c #7AC14D",
"g!	c #74C04E",
"h!	c #6DBE4F",
"i!	c #5DBA51",
"j!	c #46B653",
"k!	c #1EAA52",
"l!	c #51B852",
"m!	c #5CB951",
"n!	c #64BB50",
"o!	c #75C04E",
"p!	c #7BC14D",
"q!	c #89C54B",
"r!	c #8DC64A",
"s!	c #587037",
"t!	c #566F38",
"u!	c #8BC54A",
"v!	c #80C24C",
"w!	c #78C14D",
"x!	c #68BD4F",
"y!	c #3EB553",
"z!	c #6FBE4F",
"{!	c #87C44B",
"|!	c #94C848",
"}!	c #5A7137",
"~!	c #597037",
" #	c #90C749",
"!#	c #8AC54A",
"##	c #73BF4E",
"$#	c #6ABD4F",
"%#	c #247049",
"&#	c #1BB254",
"'#	c #8EC64A",
"(#	c #96C948",
")#	c #5C7137",
"*#	c #92C849",
"+#	c #277049",
",#	c #49B652",
"-#	c #4A9447",
".#	c #5FBA50",
"0#	c #79C14D",
"1#	c #98CA48",
"2#	c #5D7136",
"3#	c #5B7137",
"4#	c #7DC24D",
"5#	c #4CAC4F",
"6#	c #3D9D4C",
"7#	c #15B154",
"8#	c #237049",
"9#	c #409F4C",
":#	c #2B362D",
";#	c #487C40",
"<#	c #53AC4E",
"=#	c #2F4330",
">#	c #348244",
"?#	c #398344",
"@#	c #292A29",
"A#	c #5A9D47",
"B#	c #91C749",
"C#	c #5CAD4C",
"D#	c #324531",
"E#	c #32B454",
"F#	c #378344",
"G#	c #2C332B",
"H#	c #49703B",
"I#	c #6BAE49",
"J#	c #2C2E2A",
"K#	c #83BC49",
"L#	c #76C04D",
"M#	c #6FBF4F",
"N#	c #4C7C3F",
"O#	c #318244",
"P#	c #2B784E",
"Q#	c #28B354",
"R#	c #38944A",
"S#	c #29302B",
"T#	c #2E352C",
"U#	c #609543",
"V#	c #7DB94A",
"W#	c #6AAE4A",
"X#	c #384A31",
"Y#	c #292C2A",
"Z#	c #2C8244",
"[#	c #3C7566",
"]#	c #22AE53",
"^#	c #305636",
"_#	c #598E42",
"`#	c #4F6D39",
"a#	c #76B74A",
"b#	c #72BF4E",
"c#	c #69B64D",
"d#	c #32402F",
"e#	c #293A2E",
"f#	c #28AB51",
"g#	c #249651",
"h#	c #2AB354",
"i#	c #37944A",
"j#	c #292F2B",
"k#	c #2E362C",
"l#	c #60A649",
"m#	c #4B6D39",
"n#	c #70B64B",
"o#	c #334430",
"p#	c #295336",
"q#	c #3C7565",
"r#	c #1FAE53",
"s#	c #357540",
"t#	c #315335",
"u#	c #364B32",
"v#	c #61AF4C",
"w#	c #6BBD4F",
"x#	c #6EBC4E",
"y#	c #405A35",
"z#	c #68B44C",
"{#	c #5FAE4C",
"|#	c #497C3F",
"}#	c #2A2E2A",
"~#	c #305335",
" $	c #2F613A",
"!$	c #259149",
"#$	c #388266",
"$$	c #27AE53",
"%$	c #42AC50",
"&$	c #384E33",
"'$	c #384C32",
"($	c #374B32",
")$	c #31402F",
"*$	c #3AAB50",
"+$	c #229551",
",$	c #40AC50",
"-$	c #2F5336",
".$	c #36964A",
"0$	c #588999",
"1$	c #3CAC51",
"2$	c #387C42",
"3$	c #2C3B2E",
"4$	c #2B3B2E",
"5$	c #367B42",
"6$	c #37AB51",
"7$	c #3DAE51",
"8$	c #367C42",
"9$	c #2A392E",
":$	c #2D5637",
";$	c #39AE51",
"<$	c #34B052",
"=$	c #2C7B42",
">$	c #27352D",
"?$	c #2F944A",
"                                                                ",
"                      # $ $ % & & % $ $ #                       ",
"                  ' ( ) * * + , , + * - . 0 '                   ",
"              1 2 3 4 5 6 7 8 9 9 8 : ; < = > 0 1               ",
"            ? @ A B C D E F G H I J K L M N < O P ?             ",
"          Q R S C T U V W X Y Z [ ] G ^ _ ` M ; a b Q           ",
"        ? c 5 d E e f g h i j k [ l G m n o p T N q b ?         ",
"      1 @ r d s t g u v w x G y z J { | } ~ f _ T N a P 1       ",
"       !!!#!$!o %!&!'!(!)!*!+!G G ,!-!.!0!1!2!n _ T ; O 0       ",
"    ' 3!4!5!6!7!8!9!:!;!<!=!>!G G >!?!@!A!B!C!D!E!F!M < > '     ",
"    G!H!I!_ J!G G G G G G G G G G G G G G G G G G K!` N = 0     ",
"  # L!N ` o M!N!O!P!Q!Q!R!S!T!G G T!S!U!Q!P!O!V!W!X!_ M < . #   ",
"  $ Y!#!U n } Z![!]!^!_!`!a!b!G G c!d!e!f!g!h!.!i!~ j!T ; - $   ",
"  $ k!D j!l!m!n!h!o!p!`!q!r!s!G G t!u!d!v!w!]!x!0!} f y!6 * $   ",
"  % k!D j!l!i!)!z!^!v!{!r!|!}!G G ~! #!#`!p!##$#Z!} f y!6 + %   ",
"  %#&#D j!l!i!)!z!^!v!{!'#(#)#G G }!*#u!`!p!##$#Z!} f y!6 , &   ",
"  +#; ` ,#-#.#x!]!0#e!q! #1#2#G G 3#|!r!d!4#o!h!n!v 5#6#d 7#8#  ",
"  % k!D 9#:#;#)!z!^!v!{!'#(#3#G G }!*#u!`!p!##$#Z!<#=#>#6 + %   ",
"  $ k!D ?#G @#A#z!^!_!d!u!B#~!G G s!r!a!e!f!##$#C#D#G >#6 * $   ",
"  $ k!E#F#G G G#H#I#0#e!{!u!t!G G J#K#`!4#L#M#N#G#G G O#6 * $   ",
"  # P#Q#R#S#G G G T#U#f!e!d!c!G G G V#_!w!W#X#Y#G G G Z#5 ) #   ",
"    [#]#T ^#G G G G _#o!0#_!`#G G G a#^!b#c#d#G G G e#f#4 (     ",
"    ' g#h#i#j#G G k#l#z!##^!m#G G G n#]!h!)!o#G G G p#B 3 '     ",
"      q#r#D s#t#G G u#v#w#x#y#G G G z#[!{#|#}#G ~# $!$A 2       ",
"      1 #$$$T %$t#G G d#&$'$G G G G ($&$)$G G K!*$d S @ 1       ",
"        ? +$N T ,$~#G G G G G G G G G G G G -$.$d 5 R ?         ",
"          0$+$$$D 1$2$3$G G G G G G G G 4$5$6$#!r c Q           ",
"            ? #$r#h#T 7$8$9$G G G G j#:$;$I!4!!!@ ?             ",
"              1 q#g#]#Q#E#<$=$>$>$=$?$#!N H!3! !1               ",
"                  ' [#P#k!k!k!&#&#k!k!Y!L!G!'                   ",
"                      # $ $ % %#%#% $ $ #                       ",
"                                                                "};