/* XPM */ 
static const unsigned char * anchor___anchorage_xpm[] = {
"32 32 253 2",
"  	c None",
"! 	c black",
"# 	c #74ADD7",
"$ 	c #5A7A93",
"% 	c #5C7A91",
"& 	c #927544",
"' 	c #648EAE",
"( 	c #7E7862",
") 	c #9A7D48",
"* 	c #F0B547",
"+ 	c #FCBD49",
", 	c #F0B448",
"- 	c #7E7863",
". 	c #71A8D0",
"0 	c #7E7962",
"1 	c #CD9F49",
"2 	c #F6BA47",
"3 	c #FDBF48",
"4 	c #FDC147",
"5 	c #F8BD46",
"6 	c #6E5A33",
"7 	c #3C362C",
"8 	c #CD9E40",
"9 	c #FDC047",
": 	c #F6B948",
"; 	c #CD9E49",
"< 	c #6590B0",
"= 	c #958762",
"> 	c #F6B947",
"? 	c #FDC346",
"@ 	c #FEC445",
"A 	c #8F7436",
"B 	c #282829",
"C 	c #4F4629",
"D 	c #736229",
"E 	c #2A2929",
"F 	c #33302A",
"G 	c #EBB643",
"H 	c #FDC246",
"I 	c #F6B848",
"J 	c #708A98",
"K 	c #CB9D49",
"L 	c #F5BA47",
"M 	c #FEC544",
"N 	c #FEC643",
"O 	c #EDBA40",
"P 	c #36322A",
"Q 	c #2D2C29",
"R 	c #EDC029",
"S 	c #FECD29",
"T 	c #8B7429",
"U 	c #E9B741",
"V 	c #FDC445",
"W 	c #F5B948",
"X 	c #CA9C4A",
"Y 	c #CB9E49",
"Z 	c #FDBF47",
"[ 	c #FDC247",
"] 	c #FEC644",
"^ 	c #FEC842",
"_ 	c #FFC941",
"` 	c #EABB3E",
"a 	c #272729",
"b 	c #2C2B29",
"c 	c #DFB529",
"d 	c #7D6929",
"e 	c #EABA3E",
"f 	c #FEC743",
"g 	c #FCBE48",
"h 	c #FEC941",
"i 	c #FFCB40",
"j 	c #FFCD3F",
"k 	c #FACA3D",
"l 	c #8A7531",
"m 	c #403B29",
"n 	c #584D29",
"o 	c #292929",
"p 	c #3F3A2B",
"q 	c #EFC23D",
"r 	c #FFCC3F",
"s 	c #FFCA40",
"t 	c #FFCE3E",
"u 	c #FFD03C",
"v 	c #FFD13B",
"w 	c #FBD03A",
"x 	c #70612E",
"y 	c #3D392A",
"z 	c #D7B337",
"{ 	c #FFD13C",
"| 	c #FFCF3D",
"} 	c #CD9F48",
"~ 	c #F2BD42",
" !	c #D5AA3C",
"!!	c #D5AC3B",
"#!	c #D5AE39",
"$!	c #D5B038",
"%!	c #D5B137",
"&!	c #D5B335",
"'!	c #D5B434",
"(!	c #76672D",
")!	c #D5B334",
"*!	c #D5B236",
"+!	c #D5B138",
",!	c #D5AF39",
"-!	c #D5AD3A",
".!	c #D5AB3C",
"0!	c #D5A83E",
"1!	c #DCAC40",
"2!	c #F6BB47",
"3!	c #C0993B",
"4!	c #51462E",
"5!	c #9A7E48",
"6!	c #C8A03B",
"7!	c #433D2B",
"8!	c #433E2A",
"9!	c #433F2A",
":!	c #433F29",
";!	c #343229",
"<!	c #433E2B",
"=!	c #675730",
">!	c #FFD03D",
"?!	c #FFD23B",
"@!	c #FFD537",
"A!	c #FFD834",
"B!	c #FFDB31",
"C!	c #FFDE2E",
"D!	c #FFDF2B",
"E!	c #897B29",
"F!	c #FFDE2D",
"G!	c #FFDD2F",
"H!	c #FFDA33",
"I!	c #FFD735",
"J!	c #FFD439",
"K!	c #F0B646",
"L!	c #FFCA41",
"M!	c #FFCD3E",
"N!	c #FED13C",
"O!	c #FED439",
"P!	c #FFDA32",
"Q!	c #FFDD2E",
"R!	c #FFE02A",
"S!	c #FFE227",
"T!	c #897D26",
"U!	c #897C28",
"V!	c #FFE129",
"W!	c #FEDE2D",
"X!	c #FFDC30",
"Y!	c #FFD934",
"Z!	c #FED23B",
"[!	c #FECF3D",
"]!	c #FFD438",
"^!	c #FFDF2C",
"_!	c #FFE228",
"`!	c #FFE623",
"a!	c #897E25",
"b!	c #FFE425",
"c!	c #FFD636",
"d!	c #FFD33A",
"e!	c #927644",
"f!	c #FFE327",
"g!	c #FFE721",
"h!	c #897F24",
"i!	c #FFE524",
"j!	c #927643",
"k!	c #C9A23A",
"l!	c #FFD933",
"m!	c #FFE720",
"n!	c #897F23",
"o!	c #897E24",
"p!	c #EEBD3F",
"q!	c #D9AA3F",
"r!	c #DBAC3F",
"s!	c #3D372B",
"t!	c #A48835",
"u!	c #ECBE3D",
"v!	c #51472D",
"w!	c #B28D3B",
"x!	c #B28D3A",
"y!	c #D1AE37",
"z!	c #EAC03B",
"{!	c #53492D",
"|!	c #38342A",
"}!	c #8F7A31",
"~!	c #E6C334",
" #	c #313028",
"!#	c #F2D52A",
"##	c #FFD835",
"$#	c #FFD538",
"%#	c #A18833",
"&#	c #B28C3B",
"'#	c #9A7E47",
"(#	c #CDA03E",
")#	c #34312A",
"*#	c #3B382A",
"+#	c #C2A631",
",#	c #897A2A",
"-#	c #F1D22E",
".#	c #E6C235",
"0#	c #594F2C",
"1#	c #2E2C29",
"2#	c #B18B3C",
"3#	c #6E5B31",
"4#	c #B99D32",
"5#	c #89792C",
"6#	c #F1CF32",
"7#	c #F3CB38",
"8#	c #4A432B",
"9#	c #443C2D",
":#	c #F1B845",
";#	c #CDA048",
"<#	c #34302A",
"=#	c #3D382A",
">#	c #DDB837",
"?#	c #89772E",
"@#	c #F1CC34",
"A#	c #51482C",
"B#	c #6A5732",
"C#	c #9E7E38",
"D#	c #6A5831",
"E#	c #5A502D",
"F#	c #EBC239",
"G#	c #FBD238",
"H#	c #70622D",
"I#	c #F1C938",
"J#	c #EBC13A",
"K#	c #A38834",
"L#	c #312F29",
"M#	c #695831",
"N#	c #7F6734",
"O#	c #CA9C40",
"P#	c #958861",
"Q#	c #F6BB46",
"R#	c #F0BB42",
"S#	c #4B442C",
"T#	c #5F532D",
"U#	c #5B512D",
"V#	c #50462E",
"W#	c #EFBA43",
"X#	c #CB9E48",
"Y#	c #EFBB42",
"Z#	c #CFA23F",
"[#	c #708B98",
"]#	c #F0BB43",
"^#	c #A78539",
"_#	c #463E2C",
"`#	c #F0BA43",
"a#	c #F4BD43",
"b#	c #413A2C",
"c#	c #6E5B32",
"d#	c #F4BD44",
"e#	c #F8BF45",
"f#	c #A7843A",
"g#	c #CDA040",
"                                                                ",
"                      # $ $ % & & % $ $ #                       ",
"                  ' ( ) * * * + + * * , ) - '                   ",
"              . 0 1 2 3 4 5 6 7 7 6 8 9 3 : ; - .               ",
"            < = > 3 4 ? @ A B C D E F G H 9 3 I = <             ",
"          J K L 4 ? M N O P Q R S T B U M V H 9 W X J           ",
"        < Y Z [ @ ] ^ _ ` a b c S d B e ^ f M ? 9 g X <         ",
"      . = L [ @ N h i j k l B m n o p q r s ^ M ? 9 W = .       ",
"      0 2 [ V f _ r t u v w x B B y z { | j i ^ M ? 9 I -       ",
"    ' } 9 V ~  !!!#!$!%!&!'!(!B B (!)!*!+!,!-!.!0!1!H 3 ; '     ",
"    ( 2!H ] 3!B B B B B B B B B B B B B B B B B B 4!V 9 : -     ",
"  # 5!9 V f 6!7!7!8!8!9!:!:!;!B B ;!:!:!8!8!<!7!7!=!M H 3 ) #   ",
"  $ * [ M ^ r >!?!@!A!B!C!D!E!B B E!F!G!H!I!J!{ t s N ? 9 , $   ",
"  $ K!? N L!M!N!O!I!P!Q!R!S!T!B B U!V!W!X!Y!@!Z![!r ^ M 4 * $   ",
"  % K!? N L!t v ]!A!X!^!_!`!a!B B a!b!R!Q!P!c!d!>!r ^ M 4 * %   ",
"  e!3 ? N L!t v ]!A!X!^!f!g!h!B B a!i!V!Q!P!c!d!>!r ^ M 4 + &   ",
"  j!9 V f k!| ?!@!l!G!R!b!m!n!B B o!`!_!F!B!I!J!u j p!q!H g &   ",
"  % K!? r!s!t!v ]!A!X!^!f!g!o!B B a!i!V!Q!P!c!d!>!u!v!w!4 * %   ",
"  $ K!? x!B b y!]!A!B!F!V!b!a!B B T!S!D!G!H!c!d!z!{!B w!4 * $   ",
"  $ K!? x!B B |!}!~!l!G!^!V!U!B B  #!#C!B!##$#%#|!B B &#4 * $   ",
"  # '#4 (#)#B B B *#+#H!G!F!,#B B B -#B!Y!.#0#1#B B B 2#3 ) #   ",
"    0 2!? 3#B B B B 4#I!l!B!5#B B B 6#A!c!7#8#B B B 9#:#2 (     ",
"    ' ;#4 (#<#B B =#>#]!c!A!?#B B B @#@!J!v A#B B B B#3 1 '     ",
"      0 2!? C#D#B B E#F#d!G#H#B B B I#?!J#K#L#B M#N#O#> 0       ",
"      . P#Q#? R#D#B B S#T#U#B B B B U#T#S#B B V#W#[ L = .       ",
"        < X#9 ? Y#M#B B B B B B B B B B B B M#Z#[ Z K <         ",
"          [#X#Q#? ]#^#_#B B B B B B B B _#^#`#[ L Y J           ",
"            < P#2!4 ? a#^#b#B B B B F c#d#H 9 2 = <             ",
"              . 0 ;#2!4 ? e#f#7 7 f#g#[ 9 2!} 0 .               ",
"                  ' 0 '#K!K!K!3 3 K!K!* 5!( '                   ",
"                      # $ $ % e!e!% $ $ #                       ",
"                                                                "};