/* XPM */ 
static const unsigned char * boat___marina_xpm[] = {
"32 32 287 2",
"  	c None",
"! 	c black",
"# 	c #74ADD7",
"$ 	c #5A7A93",
"% 	c #597890",
"& 	c #323235",
"' 	c #648EAE",
"( 	c #414E59",
") 	c #333538",
"* 	c #282829",
"+ 	c #71A8D0",
", 	c #2D2E30",
"- 	c #6590B0",
". 	c #3E4A54",
"0 	c #5A7B95",
"1 	c #2D2F31",
"2 	c #282828",
"3 	c #272729",
"4 	c #395E6F",
"5 	c #2B3236",
"6 	c #36525D",
"7 	c #3A535D",
"8 	c #3C535D",
"9 	c #3E545E",
": 	c #3F545E",
"; 	c #41545E",
"< 	c #40545E",
"= 	c #3D535D",
"> 	c #3B535D",
"? 	c #38525D",
"@ 	c #35525D",
"A 	c #2A3236",
"B 	c #377A93",
"C 	c #1486A4",
"D 	c #67CDF5",
"E 	c #72D0F5",
"F 	c #7BD2F6",
"G 	c #85D4F6",
"H 	c #8AD6F7",
"I 	c #91D8F7",
"J 	c #8ED7F7",
"K 	c #88D5F7",
"L 	c #80D3F6",
"M 	c #77D1F6",
"N 	c #6DCFF5",
"O 	c #61CCF5",
"P 	c #1285A4",
"Q 	c #367993",
"R 	c #17A2C9",
"S 	c #1E8CAB",
"T 	c #7ED3F6",
"U 	c #99DAF8",
"V 	c #9FDCF8",
"W 	c #9CDBF8",
"X 	c #95D9F7",
"Y 	c #83D4F6",
"Z 	c #78D1F6",
"[ 	c #168BAB",
"] 	c #12A0C8",
"^ 	c #377992",
"_ 	c #16BEED",
"` 	c #2B8DAB",
"a 	c #7DD3F6",
"b 	c #89D6F7",
"c 	c #9DDCF8",
"d 	c #A4DEF8",
"e 	c #ABE0F9",
"f 	c #7B9CAB",
"g 	c #51636C",
"h 	c #A8DFF8",
"i 	c #A0DDF8",
"j 	c #99DBF8",
"k 	c #8FD7F7",
"l 	c #218CAB",
"m 	c #09BCED",
"n 	c #24809B",
"o 	c #24C4F3",
"p 	c #378EAB",
"q 	c #86D5F7",
"r 	c #9EDCF8",
"s 	c #B1E2F9",
"t 	c #B2DCF1",
"u 	c #3E464A",
"v 	c #AEDBF0",
"w 	c #ACE0F9",
"x 	c #A3DDF8",
"y 	c #12C2F3",
"z 	c #217F9A",
"{ 	c #11B8E6",
"| 	c #30C5F3",
"} 	c #3C8FAC",
"~ 	c #9BDBF8",
" !	c #A6DEF8",
"!!	c #B2E2F9",
"#!	c #BCE6FA",
"$!	c #B9DCED",
"%!	c #B6DAEC",
"&!	c #B8E4F9",
"'!	c #318DAB",
"(!	c #1FC3F3",
")!	c #08B7E6",
"*!	c #16B9E6",
"+!	c #3CC6F3",
",!	c #4390AC",
"-!	c #42555E",
".!	c #AEE1F9",
"0!	c #BBE5FA",
"1!	c #C5E9FA",
"2!	c #C9E6F5",
"3!	c #8B989F",
"4!	c #5A6267",
"5!	c #C5E5F5",
"6!	c #C0E7FA",
"7!	c #B4E3F9",
"8!	c #3B8EAB",
"9!	c #27C4F3",
":!	c #09B7E6",
";!	c #587A93",
"<!	c #16B9E7",
"=!	c #43555E",
">!	c #98DAF8",
"?!	c #98CBE2",
"@!	c #677C87",
"A!	c #6D7E87",
"B!	c #707F87",
"C!	c #768288",
"D!	c #788085",
"E!	c #768085",
"F!	c #738087",
"G!	c #6E7F87",
"H!	c #6A7D87",
"I!	c #647B87",
"J!	c #91C9E2",
"K!	c #09B8E7",
"L!	c #227790",
"M!	c #13C2F3",
"N!	c #8CBBD0",
"O!	c #86B9CF",
"P!	c #06C0F2",
"Q!	c #21768F",
"R!	c #237790",
"S!	c #1EC3F3",
"T!	c #44C7F4",
"U!	c #4790AC",
"V!	c #44555E",
"W!	c #AAE0F8",
"X!	c #C6E9FA",
"Y!	c #D3EEFB",
"Z!	c #E0F3FC",
"[!	c #E6F1F6",
"]!	c #E0EEF5",
"^!	c #DAF0FB",
"_!	c #CCEBFB",
"`!	c #BFE6FA",
"a!	c #3F8FAC",
"b!	c #32C5F3",
"c!	c #0DC1F2",
"d!	c #217790",
"e!	c #A7DFF8",
"f!	c #C2E8FA",
"g!	c #CFEDFB",
"h!	c #DDF1FC",
"i!	c #DBEDF5",
"j!	c #D6EFFB",
"k!	c #C8EAFA",
"l!	c #ADE1F9",
"m!	c #BFE7FA",
"n!	c #C9EAFB",
"o!	c #D4EEFB",
"p!	c #D7EBF5",
"q!	c #D4EAF5",
"r!	c #CEECFB",
"s!	c #C3E8FA",
"t!	c #39C6F3",
"u!	c #408FAC",
"v!	c #7BB3CD",
"w!	c #404B51",
"x!	c #9CC9DF",
"y!	c #CAE6F4",
"z!	c #C7E5F4",
"{!	c #668898",
"|!	c #74B2CD",
"}!	c #26809B",
"~!	c #29C4F3",
" #	c #73AEC8",
"!#	c #3D474C",
"##	c #9CC9DE",
"$#	c #BDE1F3",
"%#	c #99C8DE",
"&#	c #627E8C",
"'#	c #2A2C2E",
"(#	c #6FADC8",
")#	c #2F8DAB",
"*#	c #15C2F3",
"+#	c #227F9B",
",#	c #397A92",
"-#	c #1EBFED",
".#	c #308DAB",
"0#	c #6CACC8",
"1#	c #353B3E",
"2#	c #82A5B5",
"3#	c #B0DDF2",
"4#	c #748C98",
"5#	c #7EA3B5",
"6#	c #67ABC7",
"7#	c #248CAB",
"8#	c #10BDED",
"9#	c #1DA3C9",
":#	c #258CAB",
";#	c #74CAED",
"<#	c #3C5059",
"=#	c #7196A8",
">#	c #A2D9F2",
"?#	c #617A86",
"@#	c #92CEE8",
"A#	c #333A3E",
"B#	c #2E363A",
"C#	c #65B5D5",
"D#	c #1D8CAB",
"E#	c #14A1C9",
"F#	c #397A93",
"G#	c #1886A4",
"H#	c #61A5C0",
"I#	c #394C55",
"J#	c #3D494F",
"K#	c #7DADC2",
"L#	c #7AA8BD",
"M#	c #4E646E",
"N#	c #7BACC2",
"O#	c #465862",
"P#	c #2B2D2F",
"Q#	c #466877",
"R#	c #52889E",
"S#	c #377993",
"T#	c #357B94",
"U#	c #2396B8",
"V#	c #359DBF",
"W#	c #4AAACD",
"X#	c #72C9ED",
"Y#	c #466876",
"Z#	c #456876",
"[#	c #6EC9ED",
"]#	c #5BCBF4",
"^#	c #41A9CD",
"_#	c #2C9CBF",
"`#	c #1695B7",
"a#	c #337A94",
"b#	c #1AA1C6",
"c#	c #3DC6F4",
"d#	c #51C9F4",
"e#	c #5DCBF4",
"f#	c #66CDF5",
"g#	c #6BC9ED",
"h#	c #5997B0",
"i#	c #35464E",
"j#	c #2D3539",
"k#	c #5696B0",
"l#	c #67C8ED",
"m#	c #62CCF5",
"n#	c #57CAF4",
"o#	c #48C8F4",
"p#	c #31C5F3",
"q#	c #14C2F3",
"r#	c #149FC6",
"s#	c #568BAA",
"t#	c #26BFEC",
"u#	c #3BC6F3",
"v#	c #4BC8F4",
"w#	c #5FCCF5",
"x#	c #68CAF1",
"y#	c #5095AF",
"z#	c #314249",
"{#	c #5BAECE",
"|#	c #52C9F4",
"}#	c #43C7F4",
"~#	c #16BDEC",
" $	c #15A0C6",
"!$	c #3489A7",
"#$	c #18BEEC",
"$$	c #2BC4F3",
"%$	c #3DC6F3",
"&$	c #4CC8F4",
"'$	c #45C7F4",
"($	c #35C5F3",
")$	c #21C3F3",
"*$	c #10BDEC",
"+$	c #3088A7",
"                                                                ",
"                      # $ $ % & & % $ $ #                       ",
"                  ' ( ) * * * * * * * * ) ( '                   ",
"              + ( , * * * * * * * * * * * * , ( +               ",
"            - . * * * * * * * * * * * * * * * * . -             ",
"          0 1 * * * 2 * * * * * * * * * * * * * * 1 0           ",
"        - 1 * * * * * * * 3 * * * * * * * * * * * * 1 -         ",
"      + 4 * * 5 6 7 8 9 : ; ; ; ; ; < 9 = > ? @ A * * 4 +       ",
"      B C * * 6 D E F G H I I I I I J K L M N O @ * * P Q       ",
"    ' R S * * 7 E T K I U V V V V V W X J Y Z N ? * * [ ] '     ",
"    ^ _ ` * * 8 a b X c d e f g g f h i j k Y M > * * l m ^     ",
"  # n o p * * 9 q X r h s t u * * u v w x j J L = * * ` y z #   ",
"  $ { | } * 3 ; k ~  !!!#!$!* * * * %!&!w i X K 9 * * '!(!)!$   ",
"  $ *!+!,!* * -!X x .!0!1!2!3!* * 4!5!6!7!h W J < * * 8!9!:!$   ",
"  ;!<!+!,!2 * =!>!?!@!A!B!C!D!* * E!F!G!H!I!J!I ; * * 8!9!K!;!  ",
"  L!M!+!,!* * =!>!N!* * * * * * * * * * * * O!I ; * * 8!9!P!Q!  ",
"  R!S!T!U!* * V!W W!&!X!Y!Z![!* * ]!^!_!`!s x X -!* * a!b!c!d!  ",
"  ;!<!+!,!* * =!>!e!7!f!g!h!]!* * i!j!k!0!l!V I ; * * 8!9!K!;!  ",
"  $ *!+!,!* * =!>! !s m!n!o!p!* * q!r!s!&!e V I ; * * 8!9!:!$   ",
"  $ *!t!u!* * ; v!w!x!&!6!n!y!* * z!1!#!s d {!|!: * * p 9!:!$   ",
"  # }!~!8!* * <  #* !###&!m!$#* * $#0!!!%#&#'#(#9 * * )#*#+##   ",
"    ,#-#.#* * = 0#* 2 1#2#s 3#* * 4#.!5#1#* * 6#8 * 2 7#8#^     ",
"    ' 9#:#* * > ;#<#* * =# !>#* * ?#x @#A#* B#C#7 * * D#E#'     ",
"      F#G#* * ? N H#I#* J#K#L#* * M#N#O#P#Q#R#D 6 * * C S#      ",
"      + T#U#V#W#O N X#Y#* * * * * * * * Z#[#D ]#^#_#`#a#+       ",
"        - b#o c#d#e#f#g#h#i#* * * * j#k#l#m#n#o#p#q#r#-         ",
"          s#b#t#u#v#n#w#f#x#y#z#z#y#{#O ]#|#}#p#~# $s#          ",
"            - !$#$$$%$v#|#n#n#n#n#n#n#&$'$($)$*$+$-             ",
"              + F#9#-#~!t!+!+!+!+!+!+!| o _ R B +               ",
"                  ' ,#}!*!*!<!M!M!<!*!{ n ^ '                   ",
"                      # $ $ ;!L!L!;!$ $ #                       ",
"                                                                "};