/* XPM */ 
static const unsigned char * boat___loft_xpm[] = {
"32 32 277 2",
"  	c None",
"! 	c black",
"# 	c #74ADD7",
"$ 	c #5A7A93",
"% 	c #587A93",
"& 	c #21768F",
"' 	c #648EAE",
"( 	c #377992",
") 	c #227F9B",
"* 	c #09B7E6",
"+ 	c #09B8E7",
", 	c #06C0F2",
"- 	c #08B7E6",
". 	c #217F9A",
"0 	c #71A8D0",
"1 	c #377993",
"2 	c #14A1C9",
"3 	c #10BDED",
"4 	c #15C2F3",
"5 	c #27C4F3",
"6 	c #1FC3F3",
"7 	c #12C2F3",
"8 	c #09BCED",
"9 	c #12A0C8",
": 	c #367993",
"; 	c #6590B0",
"< 	c #3088A7",
"= 	c #0CBCEC",
"> 	c #1CC3F3",
"? 	c #2BC4F3",
"@ 	c #3BC6F3",
"A 	c #46C7F4",
"B 	c #4AC5EF",
"C 	c #3C6D7F",
"D 	c #4BC8F4",
"E 	c #3EC6F3",
"F 	c #34C5F3",
"G 	c #24C4F3",
"H 	c #11C2F3",
"I 	c #07BBEC",
"J 	c #2F88A7",
"K 	c #568BAA",
"L 	c #149FC6",
"M 	c #15BDEC",
"N 	c #29C4F3",
"O 	c #3CC6F3",
"P 	c #4CC8F4",
"Q 	c #56CAF4",
"R 	c #57ABCB",
"S 	c #829299",
"T 	c #838587",
"U 	c #60CCF5",
"V 	c #57CAF4",
"W 	c #52C9F4",
"X 	c #45C7F4",
"Y 	c #33C5F3",
"Z 	c #0ABBEC",
"[ 	c #139FC6",
"] 	c #15A0C6",
"^ 	c #14C2F3",
"_ 	c #31C5F3",
"` 	c #55CAF4",
"a 	c #5FCCF5",
"b 	c #60ADCB",
"c 	c #B0B8BB",
"d 	c #C4C3C3",
"e 	c #777576",
"f 	c #5E7078",
"g 	c #5EA2BD",
"h 	c #71CEF3",
"i 	c #71D0F5",
"j 	c #69CEF5",
"k 	c #62CCF5",
"l 	c #5BCBF4",
"m 	c #4DC8F4",
"n 	c #3CC6F4",
"o 	c #23C4F3",
"p 	c #0AC1F2",
"q 	c #16BDEC",
"r 	c #48C8F4",
"s 	c #58CAF4",
"t 	c #65CDF5",
"u 	c #5A98B2",
"v 	c #536F7C",
"w 	c #768E99",
"x 	c #72B0CB",
"y 	c #6B8795",
"z 	c #D1D0D0",
"{ 	c #769BAC",
"| 	c #72BBD9",
"} 	c #79D2F6",
"~ 	c #72D0F5",
" !	c #377A93",
"!!	c #10BDEC",
"#!	c #67CDF5",
"$!	c #7BD2F6",
"%!	c #85D4F6",
"&!	c #8AD6F7",
"'!	c #91D8F7",
"(!	c #628393",
")!	c #FEFEFE",
"*!	c #E6E6E6",
"+!	c #A7AFB3",
",!	c #75ADC5",
"-!	c #7DCEF0",
".!	c #77D1F6",
"0!	c #6DCFF5",
"1!	c #61CCF5",
"2!	c #17A2C9",
"3!	c #21C3F3",
"4!	c #43C7F4",
"5!	c #7ED3F6",
"6!	c #88D5F7",
"7!	c #99DAF8",
"8!	c #9FDCF8",
"9!	c #789EB0",
":!	c #698593",
";!	c #C9C9C9",
"<!	c #80A1B0",
"=!	c #80CFF0",
">!	c #78D1F6",
"?!	c #16BEED",
"@!	c #35C5F3",
"A!	c #7DD3F6",
"B!	c #89D6F7",
"C!	c #95D9F7",
"D!	c #9DDCF8",
"E!	c #A4DEF8",
"F!	c #A6D8F0",
"G!	c #4B5257",
"H!	c #9BC4D8",
"I!	c #B8B7B7",
"J!	c #E7E6E6",
"K!	c #81A1B0",
"L!	c #24809B",
"M!	c #6ACEF5",
"N!	c #7AD2F6",
"O!	c #86D5F7",
"P!	c #9EDCF8",
"Q!	c #A8DFF8",
"R!	c #B1E2F9",
"S!	c #A8CEE1",
"T!	c #464547",
"U!	c #BBE5FA",
"V!	c #979596",
"W!	c #11B8E6",
"X!	c #30C5F3",
"Y!	c #81D4F6",
"Z!	c #8FD7F7",
"[!	c #9BDBF8",
"]!	c #A6DEF8",
"^!	c #B2E2F9",
"_!	c #BBE4F8",
"`!	c #828F96",
"a!	c #959596",
"b!	c #C8EAFB",
"c!	c #16B9E6",
"d!	c #79D1F6",
"e!	c #A3DDF8",
"f!	c #AEE1F9",
"g!	c #B3D2E2",
"h!	c #AFAEAF",
"i!	c #969596",
"j!	c #D6EFFB",
"k!	c #AAB2B6",
"l!	c #73B9D6",
"m!	c #16B9E7",
"n!	c #98DAF8",
"o!	c #A7DFF8",
"p!	c #B4E3F9",
"q!	c #C1E7F9",
"r!	c #838F95",
"s!	c #E3F4FC",
"t!	c #7C8E96",
"u!	c #227790",
"v!	c #13C2F3",
"w!	c #AFD0E1",
"x!	c #B0AFB0",
"y!	c #F0F9FD",
"z!	c #237790",
"{!	c #1EC3F3",
"|!	c #44C7F4",
"}!	c #5CCBF4",
"~!	c #6ECFF5",
" #	c #8ED7F7",
"!#	c #9CDBF8",
"##	c #AAE0F8",
"$#	c #B8E4F9",
"%#	c #818D95",
"&#	c #F9FCFE",
"'#	c #7B8C94",
"(#	c #51C9F4",
")#	c #32C5F3",
"*#	c #0DC1F2",
"+#	c #217790",
",#	c #9FC7DA",
"-#	c #B5B4B5",
".#	c #EAF6FD",
"0#	c #D4D4D4",
"1#	c #519CB9",
"2#	c #9DD0E8",
"3#	c #9AA4AA",
"4#	c #F9F9F9",
"5#	c #DDF1FC",
"6#	c #FBFBFB",
"7#	c #798E97",
"8#	c #39C6F3",
"9#	c #66CDF5",
":#	c #75D1F5",
";#	c #82D4F6",
"<#	c #92D8F7",
"=#	c #84A9BA",
">#	c #D6D6D6",
"?#	c #CFEDFB",
"@#	c #A1ACB0",
"A#	c #43B3D9",
"B#	c #26809B",
"C#	c #84C9E7",
"D#	c #939EA5",
"E#	c #C2E8FA",
"F#	c #DDDDDD",
"G#	c #3491B0",
"H#	c #397A92",
"I#	c #1EBFED",
"J#	c #3DC6F3",
"K#	c #76D1F5",
"L#	c #75909D",
"M#	c #F4F4F4",
"N#	c #949496",
"O#	c #7F97A4",
"P#	c #EDEDED",
"Q#	c #FDFDFD",
"R#	c #F8F8F8",
"S#	c #6E8E99",
"T#	c #1DA3C9",
"U#	c #5DCBF4",
"V#	c #69A6BF",
"W#	c #C9CCCE",
"X#	c #6D8693",
"Y#	c #EDECED",
"Z#	c #637980",
"[#	c #397A93",
"]#	c #18BEEC",
"^#	c #4AA7C9",
"_#	c #BBC0C2",
"`#	c #E0DFDF",
"a#	c #7A7879",
"b#	c #777C7F",
"c#	c #CAC9CA",
"d#	c #A6ADB2",
"e#	c #7A8B94",
"f#	c #798B94",
"g#	c #768A94",
"h#	c #748A94",
"i#	c #6D93A3",
"j#	c #5BAAC9",
"k#	c #4FA8C9",
"l#	c #41A6C9",
"m#	c #28A3C8",
"n#	c #12A0C7",
"o#	c #3489A7",
"p#	c #27B4DE",
"q#	c #577B89",
"r#	c #C5C4C4",
"s#	c #909FA5",
"t#	c #768B94",
"u#	c #788B94",
"v#	c #769EB0",
"w#	c #72ABC4",
"x#	c #7DBEDB",
"y#	c #1B93B4",
"z#	c #259ABB",
"{#	c #389BBC",
"|#	c #479DBC",
"}#	c #5ABEE4",
"~#	c #1AA1C6",
" $	c #26BFEC",
"                                                                ",
"                      # $ $ % & & % $ $ #                       ",
"                  ' ( ) * * + , , + * - . ( '                   ",
"              0 1 2 3 4 5 5 5 5 5 5 5 6 7 8 9 : 0               ",
"            ; < = > ? @ A B C D D D D E F G H I J ;             ",
"          K L M N O P Q R S T U U U U V W X Y 6 Z [ K           ",
"        ; ] ^ _ A ` a b c d e f g h i j k l m n o p [ ;         ",
"      0 < q _ r s t u v w x x y z { | } ~ j a W n o Z J 0       ",
"       !!!_ r l #!~ $!%!&!'!'!(!)!*!+!,!-!.!0!1!W n 6 I :       ",
"    ' 2!3!4!V #!~ 5!6!'!7!8!9!:!)!)!)!;!<!=!>!0!a m Y H 9 '     ",
"    ( ?!@!W k i A!B!C!D!E!F!G!H!I!)!)!)!J!K!=!.!j l X G 8 (     ",
"  # L!G X l M!N!O!C!P!Q!R!S!T!U!V!)!)!)!)!J!<!-!~ k W F 7 . #   ",
"  $ W!X!P 1!~ Y!Z![!]!^!_!`!a!b!V!)!)!)!)!)!;!,!} j V E 6 - $   ",
"  $ c!O V j d!O!C!e!f!U!g!h!i!j!V!)!)!)!)!)!)!k!l!i U D 5 * $   ",
"  % m!O V j N!&!n!o!p!q!r!)!i!s!V!)!)!)!)!)!)!)!t!h U D 5 + %   ",
"  u!v!O V j N!&!n!o!p!w!x!)!i!y!V!)!)!)!)!)!)!)!z g U D 5 , &   ",
"  z!{!|!}!~!5! #!###$#%#)!)!V!&#V!)!)!)!)!)!)!)!)!'#t (#)#*#+#  ",
"  % m!O V j N!&!n!o!,#-#)!)!i!.#V!)!)!)!)!)!)!)!)!0#1#D 5 + %   ",
"  $ c!O V j N!&!n!2#3#4#)!)!i!5#V!)!)!)!)!)!)!)!)!6#7#D 5 * $   ",
"  $ c!8#W 9#:#;#<#=#>#)!)!)!a!?#V!)!)!)!)!)!)!)!)!)!@#A#5 * $   ",
"  # B#N D a ~!5!C#D#)!)!)!)!a!E#V!)!)!)!)!)!)!)!)!)!F#G#4 ) #   ",
"    H#I#J#V 9#K#L#M#)!)!)!)!N#O#P#)!)!)!)!)!Q#Q#Q#Q#R#S#3 (     ",
"    ' T#? D U#V#W#)!)!)!)!)!N#X#)!)!)!)!)!Q#Y#d d d d Z#2 '     ",
"      [#]#@ ^#_#)!)!)!)!)!`#a#b#c#d#e#f#g#h#i#j#k#l#m#n#1       ",
"      0 o#p#q#r#z s#t#u#f#v#w#w#w#x#O!Y!N!i #!l r _ M < 0       ",
"        ; y#z#{#|#}#9#~!:#N!N!N!N!N!d!~ M!k V r _ ^ L ;         ",
"          K ~# $@ D V a 9#j j j j j j 1!l W 4!_ q ] K           ",
"            ; o#]#? J#D W V V V V V V P X @!3!!!< ;             ",
"              0 [#T#I#N 8#O O O O O O X!G ?!2! !0               ",
"                  ' H#B#c!c!m!v!v!m!c!W!L!( '                   ",
"                      # $ $ % u!u!% $ $ #                       ",
"                                                                "};