/* XPM */ 
static const unsigned char * boat___repairs_xpm[] = {
"32 32 381 2",
"  	c None",
"! 	c black",
"# 	c #74ADD7",
"$ 	c #5A7A93",
"% 	c #587A93",
"& 	c #21768F",
"' 	c #648EAE",
"( 	c #377992",
") 	c #227F9B",
"* 	c #09B7E6",
"+ 	c #09B8E7",
", 	c #06C0F2",
"- 	c #08B7E6",
". 	c #217F9A",
"0 	c #71A8D0",
"1 	c #377993",
"2 	c #14A1C9",
"3 	c #10BDED",
"4 	c #15C2F3",
"5 	c #27C4F3",
"6 	c #1FC3F3",
"7 	c #12C2F3",
"8 	c #09BCED",
"9 	c #12A0C8",
": 	c #367993",
"; 	c #6590B0",
"< 	c #3088A7",
"= 	c #0CBCEC",
"> 	c #1CC3F3",
"? 	c #2BC4F3",
"@ 	c #3BC6F3",
"A 	c #46C7F4",
"B 	c #4BC8F4",
"C 	c #3EC6F3",
"D 	c #34C5F3",
"E 	c #24C4F3",
"F 	c #11C2F3",
"G 	c #07BBEC",
"H 	c #2F88A7",
"I 	c #568BAA",
"J 	c #149FC6",
"K 	c #3CBDE0",
"L 	c #67C4DE",
"M 	c #ACC4CC",
"N 	c #A6C5D0",
"O 	c #73C8E7",
"P 	c #5CCBF4",
"Q 	c #60CCF5",
"R 	c #57CAF4",
"S 	c #52C9F4",
"T 	c #45C7F4",
"U 	c #33C5F3",
"V 	c #0ABBEC",
"W 	c #35A2C0",
"X 	c #15A0C6",
"Y 	c #14C2F3",
"Z 	c #92CCDD",
"[ 	c #DEDFDE",
"] 	c #DFDFDF",
"^ 	c #E1E2E1",
"_ 	c #CED7DA",
"` 	c #78CEF0",
"a 	c #71D0F5",
"b 	c #69CEF5",
"c 	c #62CCF5",
"d 	c #5BCBF4",
"e 	c #4DC8F4",
"f 	c #3CC6F4",
"g 	c #42ADCD",
"h 	c #809196",
"i 	c #48A3BD",
"j 	c #16BDEC",
"k 	c #4FC6EB",
"l 	c #59CAF1",
"m 	c #B4DAE7",
"n 	c #E0E1E0",
"o 	c #EAEBEA",
"p 	c #EBECEC",
"q 	c #ACD5E6",
"r 	c #81D4F6",
"s 	c #7FD3F6",
"t 	c #79D2F6",
"u 	c #72D0F5",
"v 	c #5FCCF5",
"w 	c #72C2DF",
"x 	c #889194",
"y 	c #7AA7B5",
"z 	c #19BDE9",
"{ 	c #377A93",
"| 	c #10BDEC",
"} 	c #31C5F3",
"~ 	c #ACD4E2",
" !	c #BAD0D9",
"!!	c #9CCCDF",
"#!	c #D5D4D5",
"$!	c #EBEBEB",
"%!	c #F1F3F3",
"&!	c #E9EFF2",
"'!	c #99DAF6",
"(!	c #91D8F7",
")!	c #8ED7F7",
"*!	c #88D5F7",
"+!	c #80D3F6",
",!	c #77D1F6",
"-!	c #85C6E0",
".!	c #CFD6D8",
"0!	c #A0C2CF",
"1!	c #46C5EE",
"2!	c #17A2C9",
"3!	c #21C3F3",
"4!	c #43C7F4",
"5!	c #7DD0EF",
"6!	c #DFE0DF",
"7!	c #D8D8D8",
"8!	c #DDDEDD",
"9!	c #E2E3E3",
":!	c #F2F4F4",
";!	c #C7E6F3",
"<!	c #9FDCF8",
"=!	c #9CDBF8",
">!	c #95D9F7",
"?!	c #92C9E1",
"@!	c #CCD1D3",
"A!	c #AECAD5",
"B!	c #65C9EF",
"C!	c #16BEED",
"D!	c #35C5F3",
"E!	c #6ECEF3",
"F!	c #CEDFE4",
"G!	c #D4D5D4",
"H!	c #B8B8B9",
"I!	c #B3B4B5",
"J!	c #EDEEEE",
"K!	c #EBEEEF",
"L!	c #B2E2F8",
"M!	c #ADE1F9",
"N!	c #A8DFF8",
"O!	c #A0DDF8",
"P!	c #A0CCE0",
"Q!	c #D2D6D8",
"R!	c #B5CCD5",
"S!	c #7BCFF1",
"T!	c #24809B",
"U!	c #6ACEF5",
"V!	c #A6D8EC",
"W!	c #DBDCDB",
"X!	c #C1C1C1",
"Y!	c #AFB0B0",
"Z!	c #949494",
"[!	c #E5E6E6",
"]!	c #EFEFEF",
"^!	c #D5EAF4",
"_!	c #BBE5FA",
"`!	c #B4E3F9",
"a!	c #AED2E2",
"b!	c #CCCFD0",
"c!	c #B9CBD3",
"d!	c #90D4F2",
"e!	c #11B8E6",
"f!	c #30C5F3",
"g!	c #4CC8F4",
"h!	c #61CCF5",
"i!	c #96D6F1",
"j!	c #DCDEDE",
"k!	c #BBBBBB",
"l!	c #9E9E9E",
"m!	c #B5B5B5",
"n!	c #F3F2F1",
"o!	c #E8F4F7",
"p!	c #C8EAFB",
"q!	c #C7E9FB",
"r!	c #BBD6E3",
"s!	c #D7D9DA",
"t!	c #BFCED4",
"u!	c #A1DAF3",
"v!	c #16B9E6",
"w!	c #3CC6F3",
"x!	c #79D1F6",
"y!	c #86D5F7",
"z!	c #B8DFF1",
"{!	c #D3D3D3",
"|!	c #ECF2F2",
"}!	c #EEEEEE",
"~!	c #DCAFAF",
" #	c #E09992",
"!#	c #D5EAF5",
"##	c #C7DBE4",
"$#	c #D8DADB",
"%#	c #C4CED3",
"&#	c #B4E0F5",
"'#	c #16B9E7",
"(#	c #7AD2F6",
")#	c #8AD6F7",
"*#	c #98DAF8",
"+#	c #ACE0F7",
",#	c #CFE8F4",
"-#	c #E4EDF1",
".#	c #ECF0F0",
"0#	c #E2B6AF",
"1#	c #D34A37",
"2#	c #C4403C",
"3#	c #CE7870",
"4#	c #D8D7D7",
"5#	c #C7CED1",
"6#	c #C5E7F7",
"7#	c #227790",
"8#	c #13C2F3",
"9#	c #A7DFF8",
":#	c #C2E8FA",
";#	c #CEDAE4",
"<#	c #993631",
"=#	c #993532",
">#	c #9A3232",
"?#	c #C5413B",
"@#	c #AF6562",
"A#	c #B0B0B7",
"B#	c #237790",
"C#	c #1EC3F3",
"D#	c #44C7F4",
"E#	c #6ECFF5",
"F#	c #7ED3F6",
"G#	c #AAE0F8",
"H#	c #B8E4F9",
"I#	c #C6E9FA",
"J#	c #CBE4F1",
"K#	c #585657",
"L#	c #722E2E",
"M#	c #8B2F31",
"N#	c #AC3435",
"O#	c #A9423C",
"P#	c #A9ABB4",
"Q#	c #BFE6FA",
"R#	c #B1E2F9",
"S#	c #A3DDF8",
"T#	c #76D1F6",
"U#	c #65CDF5",
"V#	c #51C9F4",
"W#	c #32C5F3",
"X#	c #0DC1F2",
"Y#	c #217790",
"Z#	c #94AFBD",
"[#	c #4D5459",
"]#	c #343131",
"^#	c #5C2E2F",
"_#	c #903032",
"`#	c #8C2F31",
"a#	c #9E3133",
"b#	c #AC4A43",
"c#	c #A3A8B3",
"d#	c #A6DEF8",
"e#	c #586B75",
"f#	c #2D2E2F",
"g#	c #383838",
"h#	c #393A3A",
"i#	c #313131",
"j#	c #573333",
"k#	c #923031",
"l#	c #852F30",
"m#	c #892F30",
"n#	c #872F30",
"o#	c #7E3938",
"p#	c #A8ABB9",
"q#	c #39C6F3",
"r#	c #66CDF5",
"s#	c #75D1F5",
"t#	c #82D4F6",
"u#	c #88C8E5",
"v#	c #45545C",
"w#	c #323435",
"x#	c #4A4A4A",
"y#	c #434444",
"z#	c #343535",
"{#	c #414344",
"|#	c #A0B1BB",
"}#	c #B2888F",
"~#	c #943131",
" $	c #842F30",
"!$	c #873031",
"#$	c #984443",
"$$	c #818996",
"%$	c #85C7E5",
"&$	c #7BD2F6",
"'$	c #26809B",
"($	c #29C4F3",
")$	c #76C3E3",
"*$	c #3F5059",
"+$	c #2E2E2F",
",$	c #484848",
"-$	c #373838",
".$	c #2F3030",
"0$	c #353637",
"1$	c #80949E",
"2$	c #BFDCEE",
"3$	c #A4585D",
"4$	c #842F2F",
"5$	c #8B2F30",
"6$	c #883031",
"7$	c #903D3A",
"8$	c #6E595D",
"9$	c #74C2E3",
":$	c #56CAF4",
";$	c #397A92",
"<$	c #1EBFED",
"=$	c #3DC6F3",
">$	c #60BEE2",
"?$	c #394F59",
"@$	c #474747",
"A$	c #373738",
"B$	c #29292A",
"C$	c #576267",
"D$	c #91B3C3",
"E$	c #B2D6EB",
"F$	c #9C575E",
"G$	c #862F2F",
"H$	c #8A2F30",
"I$	c #873130",
"J$	c #66555B",
"K$	c #5FBDE2",
"L$	c #1DA3C9",
"M$	c #48B9E1",
"N$	c #344F59",
"O$	c #2F2F2F",
"P$	c #3C3C3C",
"Q$	c #2C2C2C",
"R$	c #48545A",
"S$	c #89B1C4",
"T$	c #9FCFE8",
"U$	c #85555C",
"V$	c #802E2F",
"W$	c #872E30",
"X$	c #973732",
"Y$	c #8A3331",
"Z$	c #575C68",
"[$	c #397A93",
"]$	c #18BEEC",
"^$	c #3293B2",
"_$	c #2E2E2E",
"`$	c #2D2D2E",
"a$	c #3A3D3E",
"b$	c #78ABC1",
"c$	c #8DC8E5",
"d$	c #82555D",
"e$	c #882F30",
"f$	c #9D3732",
"g$	c #C35A44",
"h$	c #A8605C",
"i$	c #95403C",
"j$	c #41A4C3",
"k$	c #3489A7",
"l$	c #289DBF",
"m$	c #484F51",
"n$	c #39393A",
"o$	c #292929",
"p$	c #2B2B2C",
"q$	c #3C3F41",
"r$	c #6295AA",
"s$	c #7AC3E4",
"t$	c #88555F",
"u$	c #AA3434",
"v$	c #AB615D",
"w$	c #7B92A8",
"x$	c #C54037",
"y$	c #4592AF",
"z$	c #1AA1C6",
"{$	c #2C95B3",
"|$	c #3D4447",
"}$	c #3B4A50",
"~$	c #5AA9C8",
" %	c #6AA3C1",
"!%	c #833437",
"#%	c #A83E35",
"$%	c #C34138",
"%%	c #B75B51",
"&%	c #2794B5",
"'%	c #2C8FAA",
"(%	c #435C64",
")%	c #4994AE",
"*%	c #529FC0",
"+%	c #795A67",
",%	c #97474D",
"-%	c #646D7A",
"                                                                ",
"                      # $ $ % & & % $ $ #                       ",
"                  ' ( ) * * + , , + * - . ( '                   ",
"              0 1 2 3 4 5 5 5 5 5 5 5 6 7 8 9 : 0               ",
"            ; < = > ? @ A B B B B B B C D E F G H ;             ",
"          I J K L M N O P Q Q Q Q Q Q R S T U 6 V W I           ",
"        ; X Y Z [ ] ^ _ ` a a a a a a b c d e f g h i ;         ",
"      0 < j k l m n o p q r r r r r s t u b v w x y z H 0       ",
"      { | } ~  !!!#!$!%!&!'!(!(!(!(!)!*!+!,!-!.!0!1!6 G :       ",
"    ' 2!3!4!5!6!7!8!9!:!%!;!<!<!<!<!=!>!)!?!@!A!B!e U F 9 '     ",
"    ( C!D!S E!F!^ G!H!I!J!K!L!M!M!M!N!O!P!Q!R!S!b d T E 8 (     ",
"  # T!E T d U!V!W!X!Y!Z![!]!^!_!_!_!`!a!b!c!d!+!u c S D 7 . #   ",
"  $ e!f!g!h!u i!j!k!l!m!]!]!n!o!p!q!r!s!t!u!>!*!t b R C 6 - $   ",
"  $ v!w!R b x!y!z!K!{![!|!}!~! #!###$#%#&#N!=!)!s a Q B 5 * $   ",
"  % '#w!R b (#)#*#+#,#-#.#0#1#2#3#4#5#6#_!M!<!(!r a Q B 5 + %   ",
"  7#8#w!R b (#)#*#9#`!:#;#<#=#>#?#@#A#p!_!M!<!(!r a Q B 5 , &   ",
"  B#C#D#P E#F#)!=!G#H#I#J#K#L#M#>#N#O#P#Q#R#S#>!y!T#U#V#W#X#Y#  ",
"  % '#w!R b (#)#*#9#`!Z#[#]#^#_#M#`#a#b#c#M!<!(!r a Q B 5 + %   ",
"  $ v!w!R b (#)#*#d#e#f#g#h#i#j#k#l#m#n#o#p#<!(!r a Q B 5 * $   ",
"  $ v!q#S r#s#t#u#v#w#x#y#z#{#|#}#~# $m#!$#$$$%$&$E#P A 5 * $   ",
"  # '$($B v E#)$*$+$,$-$.$0$1$:#2$3$~#4$5$6$7$8$9$r#:$@ 4 ) #   ",
"    ;$<$=$R >$?$+$@$A$B$+$C$D$`!`!E$F$G$H$`#6$I$J$K$g!? 3 (     ",
"    ' L$? M$N$O$@$P$Q$B$R$S$9#9#9#9#T$U$V$W$H$X$Y$Z$w!> 2 '     ",
"      [$]$^$O$@$h#_$`$a$b$*#*#*#*#*#>!c$d$e$f$g$h$i$j$= 1       ",
"      0 k$l$m$n$o$p$q$r$t#)#)#)#)#)#y!r s$t$u$v$w$x$y$< 0       ",
"        ; z${$|$O$}$~$E#s#(#(#(#(#(#x!u U! %!%#%$%%%&%;         ",
"          I z$'%(%)%R v r#b b b b b b h!d S *%+%,%-%I           ",
"            ; k$]$? =$B S R R R R R R g!T D!3!| < ;             ",
"              0 [$L$<$($q#w!w!w!w!w!w!f!E C!2!{ 0               ",
"                  ' ;$'$v!v!'#8#8#'#v!e!T!( '                   ",
"                      # $ $ % 7#7#% $ $ #                       ",
"                                                                "};