/* XPM */ 
static const unsigned char * bouy___type_b_xpm[] = {
"32 32 5 1",
" 	c None",
"!	c black",
"#	c #373435",
"$	c #FEFEFE",
"%	c white",
"                                ",
"                      #         ",
"                      #         ",
"                     ##         ",
"                    #$#         ",
"                    #$#         ",
"                   #$$#         ",
"                  #$$#          ",
"                  #$$#          ",
"                 #$$$#          ",
"                #$$$$#          ",
"                #$$$$#          ",
"                #$$$$#          ",
"                #$$$$#          ",
"               #$$$$#           ",
"               #$$$$#           ",
"               #$$$#            ",
"               #$$$#            ",
"               #$$#             ",
"               #$#              ",
"              #$#               ",
"              #$#               ",
"              ##                ",
"              #                 ",
"           !!!!                 ",
"          !$$$!                 ",
"         !$$$$$!                ",
"         !$$$$$!                ",
"         !$$$$%!                ",
"          !$$%!                 ",
"           !!!                  ",
"                                "};