/* XPM */ 
static const unsigned char * dive___spearfish_xpm[] = {
"32 32 208 2",
"  	c None",
"! 	c black",
"# 	c #74ADD7",
"$ 	c #5A7A93",
"% 	c #5B7891",
"& 	c #7E373B",
"' 	c #648EAE",
"( 	c #72515D",
") 	c #863A3F",
"* 	c #C83336",
"+ 	c #D23337",
", 	c #853A3F",
"- 	c #71515D",
". 	c #71A8D0",
"0 	c #7F8B96",
"1 	c #B24D51",
"2 	c #CE3336",
"3 	c #D33337",
"4 	c #D43337",
"5 	c #CD3336",
"6 	c #AD363B",
"7 	c #6590B0",
"8 	c #95A1AB",
"9 	c #F7F7F7",
": 	c #F5D7D7",
"; 	c #D94A4D",
"< 	c #D53337",
"= 	c #834E5A",
"> 	c #7091AB",
"? 	c #CCCDCE",
"@ 	c #F6F6F6",
"A 	c #FDFDFD",
"B 	c #F6D6D7",
"C 	c #DB4A4D",
"D 	c #D73337",
"E 	c #D63337",
"F 	c #D53237",
"G 	c #CC3336",
"H 	c #AB373B",
"I 	c #6B7C96",
"J 	c #FEFEFE",
"K 	c #F6D7D7",
"L 	c #DD494D",
"M 	c #D93337",
"N 	c #D83337",
"O 	c #F7D7D8",
"P 	c #DD484C",
"Q 	c #DA3337",
"R 	c #F7D8D9",
"S 	c #DF474B",
"T 	c #DC3337",
"U 	c #DB3337",
"V 	c #F8DADB",
"W 	c #E04649",
"X 	c #DD3337",
"Y 	c #DD3237",
"Z 	c #F8DCDC",
"[ 	c #E24347",
"] 	c #DF3337",
"^ 	c #DE3337",
"_ 	c #E3E3E3",
"` 	c #D4D5D5",
"a 	c #BCBCBD",
"b 	c #E2E2E2",
"c 	c #F0F0F0",
"d 	c #F9DBDB",
"e 	c #E34448",
"f 	c #E03337",
"g 	c #B93235",
"h 	c #C33135",
"i 	c #C43135",
"j 	c #A93033",
"k 	c #704344",
"l 	c #7A7A7B",
"m 	c #686868",
"n 	c #2D2E2F",
"o 	c #3A3B3C",
"p 	c #2C2C2D",
"q 	c #282829",
"r 	c #525253",
"s 	c #7E7E7E",
"t 	c #755758",
"u 	c #6F2C2E",
"v 	c #6E2C2E",
"w 	c #6D2C2E",
"x 	c #6C2C2E",
"y 	c #854546",
"z 	c #DF6465",
"{ 	c #363637",
"| 	c #323233",
"} 	c #292A2A",
"~ 	c #29292A",
" !	c #2E2F30",
"!!	c #454748",
"#!	c #626567",
"$!	c #86898C",
"%!	c #96999C",
"&!	c #787C7F",
"'!	c #5D605F",
"(!	c #484849",
")!	c #2D2D2F",
"*!	c #2F2F30",
"+!	c #2F3031",
",!	c #282929",
"-!	c #464B42",
".!	c #E1CFBD",
"0!	c #D6373B",
"1!	c #2E292A",
"2!	c #2D2829",
"3!	c #363334",
"4!	c #303031",
"5!	c #2D2D2E",
"6!	c #424445",
"7!	c #6A6F72",
"8!	c #979B9E",
"9!	c #BEC4C7",
":!	c #9EA3A6",
";!	c #92989B",
"<!	c #6B6D6E",
"=!	c #303132",
">!	c #333434",
"?!	c #47523A",
"@!	c #C9BFAC",
"A!	c #DB5355",
"B!	c #7F373B",
"C!	c #BD3134",
"D!	c #832D30",
"E!	c #2C2E2F",
"F!	c #454749",
"G!	c #454547",
"H!	c #969696",
"I!	c #5D5D5E",
"J!	c #3F4830",
"K!	c #657C3B",
"L!	c #B6BCB4",
"M!	c #464849",
"N!	c #81716F",
"O!	c #DC5254",
"P!	c #C43235",
"Q!	c #802F31",
"R!	c #802D2F",
"S!	c #C44245",
"T!	c #9D9D9D",
"U!	c #878889",
"V!	c #8E8F90",
"W!	c #CADDAF",
"X!	c #97CA49",
"Y!	c #597138",
"Z!	c #37393A",
"[!	c #2E2E30",
"]!	c #4A2A2B",
"^!	c #C93336",
"_!	c #E44448",
"`!	c #F9DADB",
"a!	c #C9C9C9",
"b!	c #C3C4C4",
"c!	c #FCFEFE",
"d!	c #C3DBA2",
"e!	c #CBE193",
"f!	c #808478",
"g!	c #2A2D2E",
"h!	c #292A2B",
"i!	c #772D2F",
"j!	c #E13337",
"k!	c #E54548",
"l!	c #FDFDFB",
"m!	c #C5C7C1",
"n!	c #CBDBBC",
"o!	c #95A08B",
"p!	c #999E92",
"q!	c #595A58",
"r!	c #3C3C3D",
"s!	c #28292A",
"t!	c #292829",
"u!	c #9B2F32",
"v!	c #FBFCF7",
"w!	c #DDEECB",
"x!	c #8EB16E",
"y!	c #C0CAB5",
"z!	c #EFEFEF",
"{!	c #BCBCBC",
"|!	c #3E292A",
"}!	c #BA3134",
"~!	c #FDFDFC",
" #	c #D0DBC4",
"!#	c #E3EADB",
"##	c #585858",
"$#	c #6C393D",
"%#	c #D63237",
"&#	c #E34347",
"'#	c #F9DCDC",
"(#	c #5F5F5F",
")#	c #442A2B",
"*#	c #414E59",
"+#	c #AE363B",
",#	c #E14649",
"-#	c #7F7F7F",
".#	c #343434",
"0#	c #666667",
"1#	c #726869",
"2#	c #A64C50",
"3#	c #E0474B",
"4#	c #F3F3F3",
"5#	c #D7D7D7",
"6#	c #844E5A",
"7#	c #DE484C",
"8#	c #AC373B",
"9#	c #D93237",
"                                                                ",
"                      # $ $ % & & % $ $ #                       ",
"                  ' ( ) * * * + + * * * , - '                   ",
"              . 0 1 2 3 4 4 4 4 4 4 4 3 3 5 6 ( .               ",
"            7 8 9 : ; 4 < < < < < < < < 4 4 3 5 = 7             ",
"          > ? @ A A B C D D D D D D D E E F 4 3 G H I           ",
"        7 ? J J J J J K L M M M M M M N D E < < 4 + H 7         ",
"      . 8 @ J J J J J J O P Q Q Q Q M M M N D E < 4 G = .       ",
"      0 9 A A J J J J J J R S T T T U U M M N D E < 3 5 (       ",
"    ' 1 : A J J J J J J J J V W X Y X T U Q M N D < 4 3 6 '     ",
"    ( 2 ; B J J J J J J J J J Z [ ] ] ^ X T Q M N E < 4 5 -     ",
"  # ) 4 < C K J 9 _ ` a b b b c d e f ] ^ Y U M M D E 4 3 , #   ",
"  $ g h i j k l m n o p q q q r s t u u v v w w x y z < 3 * $   ",
"  $ q q q { | } q ~  !!!#!$!%!&!'!(!)!)!)!)!*!+!,!-!.!0!4 * $   ",
"  % 1!2!2!3!4!~ q q 5!6!7!8!9!:!;!<!p p p =! !>!q ?!@!A!4 * %   ",
"  B!3 4 E C!D!x E!F!G!q q m H!I!q q q J!K!L!M!o p N!O!< 4 + &   ",
"  B!3 < D N M P!Q!R!S!d J J J J J T!U!V!W!X!Y!Z![!]!N E 4 + &   ",
"  % ^!4 E N M U X ^ f _!`!J J J J a!b!c!d!e!f!g!h!~ i!< 4 * %   ",
"  $ ^!4 E N M U X ^ f j!k!`!J J J l!m!n!o!p!q!r!q s!t!u!4 * $   ",
"  $ ^!4 E N M Q T X ] f j!k!`!J J J v!w!x!y!z!{!q q s!|!}!* $   ",
"  # ) 4 < D N M U X ^ ] f j!_!d J J J ~! #!#J @ ##q q q |!$##   ",
"    ( 2 < %#N M Q T Y ^ ] f f &#'#J J J J J A A (#q q s!)#*#    ",
"    ' +#4 < D N M Q T X X ^ ^ ^ ,#V J J J A J J -#.#0#1#2#'     ",
"      ( 2 4 E D N M Q U T X X X X 3#R J J J J J 4#5#J 9 0       ",
"      . 6#2 < E D N M M Q U U U U U 7#O J A A J J J @ 8 .       ",
"        7 8#4 < E D N N M M M M M 9#M L K A J J J J ? 7         ",
"          I 8#2 4 < E D N N N N N N N D C B J J @ ? >           ",
"            7 6#2 4 < < E E E E E E E < < ; : 9 8 7             ",
"              . ( +#2 4 4 4 4 4 4 4 4 4 4 2 1 0 .               ",
"                  ' ( ) ^!^!^!3 3 ^!^!* ) ( '                   ",
"                      # $ $ % B!B!% $ $ #                       ",
"                                                                "};