/* XPM */ 
static const unsigned char * dive___scuba_xpm[] = {
"32 32 270 2",
"  	c None",
"! 	c black",
"# 	c #74ADD7",
"$ 	c #5A7A93",
"% 	c #5B7891",
"& 	c #7E373B",
"' 	c #648EAE",
"( 	c #72515D",
") 	c #863A3F",
"* 	c #C83336",
"+ 	c #D23337",
", 	c #853A3F",
"- 	c #71515D",
". 	c #71A8D0",
"0 	c #7F8B96",
"1 	c #B24D51",
"2 	c #CE3336",
"3 	c #D33337",
"4 	c #D43337",
"5 	c #CD3336",
"6 	c #AD363B",
"7 	c #6590B0",
"8 	c #95A1AB",
"9 	c #F7F7F7",
": 	c #F5D7D7",
"; 	c #D94A4D",
"< 	c #D53337",
"= 	c #CB3236",
"> 	c #3E292A",
"? 	c #993032",
"@ 	c #D33236",
"A 	c #BF3135",
"B 	c #983032",
"C 	c #973032",
"D 	c #A13033",
"E 	c #834E5A",
"F 	c #7091AB",
"G 	c #CCCDCE",
"H 	c #F6F6F6",
"I 	c #FDFDFD",
"J 	c #EBCBCC",
"K 	c #A13133",
"L 	c #AE3E40",
"M 	c #962E31",
"N 	c #282829",
"O 	c #482C2C",
"P 	c #462C2C",
"Q 	c #472C2C",
"R 	c #742E2F",
"S 	c #512C2C",
"T 	c #622D2E",
"U 	c #5B2D2D",
"V 	c #542D2D",
"W 	c #9B363A",
"X 	c #6B7C96",
"Y 	c #FEFEFE",
"Z 	c #858483",
"[ 	c #302D2C",
"] 	c #5E5C59",
"^ 	c #606060",
"_ 	c #5E5E5F",
"` 	c #9B494C",
"a 	c #4A2C2C",
"b 	c #2C2B2A",
"c 	c #7B2E30",
"d 	c #C23235",
"e 	c #D63337",
"f 	c #CC3236",
"g 	c #682D2E",
"h 	c #5C2D2D",
"i 	c #AB373B",
"j 	c #949393",
"k 	c #656362",
"l 	c #888785",
"m 	c #CFC964",
"n 	c #F9EF41",
"o 	c #DB474B",
"p 	c #C83235",
"q 	c #8D2F31",
"r 	c #6A2D2E",
"s 	c #532C2C",
"t 	c #6F2E2F",
"u 	c #CE3236",
"v 	c #592D2D",
"w 	c #A33133",
"x 	c #FEFBD1",
"y 	c #FEF32B",
"z 	c #FFF212",
"{ 	c #F5C01B",
"| 	c #E14D31",
"} 	c #DB3337",
"~ 	c #C93235",
" !	c #AD3033",
"!!	c #8F2F31",
"#!	c #712E2F",
"$!	c #5D2D2D",
"%!	c #9D3032",
"&!	c #FEFBD0",
"'!	c #FEF32C",
"(!	c #FAD816",
")!	c #DF3B35",
"*!	c #DC3337",
"+!	c #DA3337",
",!	c #4D2C2C",
"-!	c #B13134",
".!	c #D03236",
"0!	c #5A2D2D",
"1!	c #A83033",
"2!	c #F6D6D7",
"3!	c #FEF665",
"4!	c #E13F34",
"5!	c #DE3337",
"6!	c #DD3337",
"7!	c #752E2F",
"8!	c #DB4A4D",
"9!	c #F6D7D7",
":!	c #E23F34",
";!	c #DF3337",
"<!	c #B83134",
"=!	c #3E2B2B",
">!	c #522C2C",
"?!	c #A53033",
"@!	c #D73337",
"A!	c #DD494D",
"B!	c #F7D7D8",
"C!	c #FFF112",
"D!	c #E4493E",
"E!	c #E03337",
"F!	c #9B3032",
"G!	c #5C2E2E",
"H!	c #C13336",
"I!	c #C93336",
"J!	c #D83337",
"K!	c #D93337",
"L!	c #DE484C",
"M!	c #F7D8D9",
"N!	c #FFF211",
"O!	c #F9D9CB",
"P!	c #E34548",
"Q!	c #DC3236",
"R!	c #BD3134",
"S!	c #653838",
"T!	c #B63F42",
"U!	c #E0474B",
"V!	c #F8DADB",
"W!	c #FEFDEE",
"X!	c #F9DADB",
"Y!	c #A34143",
"Z!	c #652D2E",
"[!	c #7F373B",
"]!	c #E14649",
"^!	c #F9DCDC",
"_!	c #B9B36E",
"`!	c #938B1E",
"a!	c #938C1F",
"b!	c #A29A2D",
"c!	c #A59C2F",
"d!	c #B1A83B",
"e!	c #D1CFC8",
"f!	c #B3B3B2",
"g!	c #E34347",
"h!	c #725353",
"i!	c #2F2B2B",
"j!	c #393532",
"k!	c #484443",
"l!	c #959290",
"m!	c #9B9896",
"n!	c #6A6665",
"o!	c #A7A5A4",
"p!	c #6A4D4D",
"q!	c #C84447",
"r!	c #755D2B",
"s!	c #C7BC41",
"t!	c #AC9247",
"u!	c #C5393C",
"v!	c #6D2D2F",
"w!	c #2E2B2B",
"x!	c #353130",
"y!	c #494443",
"z!	c #534E4D",
"{!	c #5C5755",
"|!	c #686463",
"}!	c #6F6F6E",
"~!	c #F6DADA",
" #	c #E0C445",
"!#	c #D7CC36",
"##	c #827957",
"$#	c #85393A",
"%#	c #EBA520",
"&#	c #F1E513",
"'#	c #F3E715",
"(#	c #F5E817",
")#	c #F8F7E9",
"*#	c #868584",
"+#	c #5C5A59",
",#	c #EFEEEE",
"-#	c #98978F",
".#	c #928A3A",
"0#	c #554F31",
"1#	c #643131",
"2#	c #B83235",
"3#	c #F4AE1F",
"4#	c #BEBDBD",
"5#	c #715D5B",
"6#	c #7A8F3D",
"7#	c #918E7F",
"8#	c #F9F9F9",
"9#	c #989695",
":#	c #A4383A",
";#	c #D23236",
"<#	c #F3AE1F",
"=#	c #898888",
">#	c #78716F",
"?#	c #976B54",
"@#	c #83807B",
"A#	c #F8F8F8",
"B#	c #EFD0D1",
"C#	c #D63237",
"D#	c #DD3237",
"E#	c #403F3E",
"F#	c #4D4C4B",
"G#	c #41554A",
"H#	c #7B7877",
"I#	c #AE363B",
"J#	c #F2AE1F",
"K#	c #6C6C6B",
"L#	c #795E5C",
"M#	c #A0653D",
"N#	c #A7A591",
"O#	c #A76949",
"P#	c #8B8752",
"Q#	c #7C7642",
"R#	c #716B35",
"S#	c #6F6833",
"T#	c #69632E",
"U#	c #F0D8D6",
"V#	c #C1C1C1",
"W#	c #696867",
"X#	c #8B7A78",
"Y#	c #E3E3E2",
"Z#	c #844E5A",
"[#	c #915555",
"]#	c #686764",
"^#	c #5B5554",
"_#	c #4E4A47",
"`#	c #45413D",
"a#	c #2F2C2B",
"b#	c #D3484B",
"c#	c #EDECEC",
"d#	c #AC373B",
"e#	c #7E4242",
"f#	c #656361",
"g#	c #5A5554",
"h#	c #393635",
"i#	c #CE3337",
"j#	c #703433",
"k#	c #51413E",
"l#	c #68504F",
"m#	c #484440",
"n#	c #4E403C",
"o#	c #4B3333",
"p#	c #4A4544",
"q#	c #CD3437",
"r#	c #793434",
"s#	c #9E3335",
"t#	c #D13337",
"u#	c #743C3B",
"v#	c #953939",
"w#	c #5B4343",
"x#	c #CC3437",
"                                                                ",
"                      # $ $ % & & % $ $ #                       ",
"                  ' ( ) * * * + + * * * , - '                   ",
"              . 0 1 2 3 4 4 4 4 4 4 4 3 3 5 6 ( .               ",
"            7 8 9 : ; 4 < = > > ? @ < < A B C D E 7             ",
"          F G H I I J K L M N N O P Q R S T T U V W X           ",
"        7 G Y Y Y Y Z [ ] ^ _ _ ` a b c d e < f g h i 7         ",
"      . 8 H Y Y Y Y j k l m n n o p q r s t u e f v w E .       ",
"      0 9 I I Y Y Y Y Y x y z z { | } ~  !!!#!u e $!%!5 (       ",
"    ' 1 : I Y Y Y Y Y &!'!z z z z (!)!*!} +!,!-!.!0!1!3 6 '     ",
"    ( 2 ; 2!Y Y Y Y Y 3!z z z z z z 4!5!6!*!,!-!7!U < 4 5 -     ",
"  # ) 4 < 8!9!Y Y Y Y 3!z z z z z z :!;!5!<!=!-!>!?!e 4 3 , #   ",
"  $ * 4 < @!A!B!Y Y Y 3!C!z C!z z z D!E!;!F!g ~ G!H!e < 3 * $   ",
"  $ I!4 e J!K!L!M!Y Y 3!z N!z z z z O!P!Q!a R!} S!T!@!< 4 * $   ",
"  % I!4 e J!K!} U!V!Y 3!z z z z z z W!X!Y!Z!6!*!S!T!@!< 4 * %   ",
"  [!3 4 e J!K!} 6!]!^!_!`!a!b!c!c!d!e!Y f!Z!6!*!S!T!@!< 4 + &   ",
"  [!3 < @!J!K!} 6!;!g!h!i!j!k!l!m!n!o!Y f!p!q!r!s!t!u!e 4 + &   ",
"  % I!4 e J!K!} 6!5!E!v!w!x!y!z!{!|!o!Y f!}!~! #!###$#< 4 * %   ",
"  $ I!4 e J!K!} 6!5!E!%#&#&#'#'#'#(#)#Y *#+#,#-#.#0#1#2#4 * $   ",
"  $ I!4 e J!K!+!*!6!;!3#z z z z z z W!4#5#6#7#8#9#:#;#< 4 * $   ",
"  # ) 4 < @!J!K!} 6!5!<#C!z z z z z W!=#>#?#@#Y A#B#8!4 3 ) #   ",
"    ( 2 < C#J!K!+!*!D#<#z z z z z z W!E#F#G#H#I I I 2!; 2 (     ",
"    ' I#4 < @!J!K!+!*!J#C!z C!z z z W!K#L#M#N#Y Y Y Y : 1 '     ",
"      ( 2 4 e @!J!K!+!O#P#Q#R#S#T#T#U#V#W#X#Y#Y Y Y Y 9 0       ",
"      . Z#2 < e @!J!K![#]#^#_#`#a#a#b#B!c#H I Y Y Y H 8 .       ",
"        7 d#4 < e @!J![#]#^#_#`#a#a#u A!9!I Y Y Y Y G 7         ",
"          X d#2 4 < e e#f#g#_#`#a#h#i#@!8!2!Y Y H G F           ",
"            7 Z#2 4 < j#k#l#m#n#o#p#q#< < ; : 9 8 7             ",
"              . ( I#2 r#s#t#u#v#4 w#x#4 4 2 1 0 .               ",
"                  ' ( ) I!I!I!3 3 I!I!* ) ( '                   ",
"                      # $ $ % [![!% $ $ #                       ",
"                                                                "};