/* XPM */ 
static const unsigned char * dive___snorkelling_xpm[] = {
"32 32 389 2",
"  	c None",
"! 	c black",
"# 	c #74ADD7",
"$ 	c #5A7A93",
"% 	c #5B7891",
"& 	c #7E373B",
"' 	c #648EAE",
"( 	c #72515D",
") 	c #863A3F",
"* 	c #C83336",
"+ 	c #D23337",
", 	c #853A3F",
"- 	c #71515D",
". 	c #71A8D0",
"0 	c #7F8B96",
"1 	c #B24D51",
"2 	c #CE3336",
"3 	c #D33337",
"4 	c #D43337",
"5 	c #CD3336",
"6 	c #AD363B",
"7 	c #6590B0",
"8 	c #95A1AB",
"9 	c #F7F7F7",
": 	c #F5D7D7",
"; 	c #D94A4D",
"< 	c #D53337",
"= 	c #834E5A",
"> 	c #7091AB",
"? 	c #CCCDCE",
"@ 	c #F6F6F6",
"A 	c #FDFDFD",
"B 	c #F6D6D7",
"C 	c #DB4A4D",
"D 	c #D73337",
"E 	c #D63337",
"F 	c #D53237",
"G 	c #CC3336",
"H 	c #AB373B",
"I 	c #6B7C96",
"J 	c #FEFEFE",
"K 	c #EFD0D1",
"L 	c #B53F44",
"M 	c #B94348",
"N 	c #B94448",
"O 	c #C24D51",
"P 	c #C33D42",
"Q 	c #D9D9DA",
"R 	c #909093",
"S 	c #6E6F73",
"T 	c #65676C",
"U 	c #7E8086",
"V 	c #9B9DA4",
"W 	c #A6A8AF",
"X 	c #96989E",
"Y 	c #7F8187",
"Z 	c #6D6267",
"[ 	c #7D595F",
"] 	c #A33A3E",
"^ 	c #F1F1F2",
"_ 	c #7F8081",
"` 	c #3F4042",
"a 	c #353639",
"b 	c #434447",
"c 	c #616268",
"d 	c #707176",
"e 	c #77787B",
"f 	c #7B7C81",
"g 	c #86878B",
"h 	c #808183",
"i 	c #8A8C91",
"j 	c #5B5D62",
"k 	c #424345",
"l 	c #373738",
"m 	c #6A3436",
"n 	c #F4F4F4",
"o 	c #757677",
"p 	c #2F3032",
"q 	c #333436",
"r 	c #4A4C50",
"s 	c #5E6064",
"t 	c #606063",
"u 	c #5F5F63",
"v 	c #6B6D71",
"w 	c #636468",
"x 	c #707278",
"y 	c #7A7C82",
"z 	c #66686E",
"{ 	c #505155",
"| 	c #363637",
"} 	c #353536",
"~ 	c #6E383A",
" !	c #C0373A",
"!!	c #C84F52",
"#!	c #C8BABB",
"$!	c #898887",
"%!	c #555453",
"&!	c #666463",
"'!	c #6E6B69",
"(!	c #757270",
")!	c #4E4E4F",
"*!	c #414245",
"+!	c #37393C",
",!	c #303133",
"-!	c #2F3031",
".!	c #2D2F30",
"0!	c #333537",
"1!	c #494A4C",
"2!	c #5E5E60",
"3!	c #6E6C6C",
"4!	c #62605E",
"5!	c #666361",
"6!	c #767370",
"7!	c #706564",
"8!	c #985656",
"9!	c #C43A3D",
":!	c #783538",
";!	c #6D635F",
"<!	c #74706B",
"=!	c #7C7771",
">!	c #736E67",
"?!	c #6F6A64",
"@!	c #585653",
"A!	c #615F5C",
"B!	c #4D4C4C",
"C!	c #4E4E4D",
"D!	c #6C6A6A",
"E!	c #535353",
"F!	c #404143",
"G!	c #747270",
"H!	c #726F6C",
"I!	c #797572",
"J!	c #86827F",
"K!	c #635F5D",
"L!	c #999591",
"M!	c #9C9995",
"N!	c #9E9A95",
"O!	c #8B817E",
"P!	c #854546",
"Q!	c #7D3B40",
"R!	c #A03437",
"S!	c #4E4848",
"T!	c #565553",
"U!	c #41403E",
"V!	c #353434",
"W!	c #433A3A",
"X!	c #9B9A99",
"Y!	c #B7B6B6",
"Z!	c #B4B3B2",
"[!	c #565451",
"]!	c #7B7A77",
"^!	c #3F3F3F",
"_!	c #666260",
"`!	c #7F5050",
"a!	c #A93D3F",
"b!	c #A83D3F",
"c!	c #A73D3F",
"d!	c #A63D3F",
"e!	c #A53D3F",
"f!	c #593636",
"g!	c #2B2C2C",
"h!	c #383737",
"i!	c #4B4947",
"j!	c #595857",
"k!	c #81383A",
"l!	c #5D3A3C",
"m!	c #7F7D79",
"n!	c #313131",
"o!	c #292A2A",
"p!	c #B64649",
"q!	c #F7D8D9",
"r!	c #F2F2F2",
"s!	c #4D4A48",
"t!	c #6E6B67",
"u!	c #8B8784",
"v!	c #989693",
"w!	c #EACBCB",
"x!	c #E34548",
"y!	c #E03337",
"z!	c #DF3337",
"{!	c #DD3337",
"|!	c #DB3337",
"}!	c #B13034",
"~!	c #2C2D2D",
" #	c #3C3D3D",
"!#	c #757372",
"##	c #8E8D8C",
"$#	c #2D2E2F",
"%#	c #282A2A",
"&#	c #B33034",
"'#	c #E0474B",
"(#	c #F8DADB",
")#	c #EFEFEF",
"*#	c #7C7976",
"+#	c #6B6964",
",#	c #C2BFB9",
"-#	c #A9A8A8",
".#	c #F9DADB",
"0#	c #E34448",
"1#	c #DC3337",
"2#	c #B23034",
"3#	c #2C2C2D",
"4#	c #646260",
"5#	c #585756",
"6#	c #7F373B",
"7#	c #7F7372",
"8#	c #999796",
"9#	c #E14649",
":#	c #F9DCDC",
";#	c #A8A6A4",
"<#	c #96928D",
"=#	c #353432",
">#	c #9D9B95",
"?#	c #A1A09E",
"@#	c #F9DBDB",
"A#	c #E24347",
"B#	c #2D2D2D",
"C#	c #30302F",
"D#	c #696765",
"E#	c #786D6B",
"F#	c #8D8281",
"G#	c #A3A1A0",
"H#	c #3E3E3D",
"I#	c #2F3030",
"J#	c #E34347",
"K#	c #EEEEEE",
"L#	c #726F6B",
"M#	c #656361",
"N#	c #3E4044",
"O#	c #4D5054",
"P#	c #535251",
"Q#	c #ABA8A4",
"R#	c #CCCBCB",
"S#	c #474543",
"T#	c #363635",
"U#	c #353636",
"V#	c #6E6B68",
"W#	c #605655",
"X#	c #848280",
"Y#	c #C3C1BD",
"Z#	c #343535",
"[#	c #3D3E3D",
"]#	c #B73538",
"^#	c #DE3337",
"_#	c #E44448",
"`#	c #9E7D7C",
"a#	c #9F9B93",
"b#	c #383838",
"c#	c #69696D",
"d#	c #55585C",
"e#	c #2A2A2B",
"f#	c #9C9A94",
"g#	c #A3A19F",
"h#	c #DF474B",
"i#	c #892E31",
"j#	c #93908C",
"k#	c #474747",
"l#	c #873A3C",
"m#	c #D2CFCB",
"n#	c #505052",
"o#	c #353635",
"p#	c #663636",
"q#	c #B03C3E",
"r#	c #8C847E",
"s#	c #7C7974",
"t#	c #2B2B2C",
"u#	c #6A6A6E",
"v#	c #373739",
"w#	c #535250",
"x#	c #BCB9B5",
"y#	c #A5A4A4",
"z#	c #5A4242",
"{#	c #4F4E4D",
"|#	c #827F7E",
"}#	c #9B4E50",
"~#	c #A13437",
" $	c #8C8584",
"!$	c #989795",
"#$	c #313232",
"$$	c #3C3938",
"%$	c #8F2F31",
"&$	c #C93538",
"'$	c #706764",
"($	c #938F88",
")$	c #2E2E2E",
"*$	c #4A4B4E",
"+$	c #292929",
",$	c #A19F9B",
"-$	c #B4B2AF",
".$	c #BEBEBE",
"0$	c #A1A2A2",
"1$	c #2E2F2F",
"2$	c #303030",
"3$	c #7C7977",
"4$	c #847C7C",
"5$	c #A4383A",
"6$	c #AB3D40",
"7$	c #D0C6C2",
"8$	c #696868",
"9$	c #363638",
":$	c #363737",
";$	c #432B2B",
"<$	c #C03336",
"=$	c #8B5957",
">$	c #88847E",
"?$	c #3D3C3C",
"@$	c #282829",
"A$	c #2F2F31",
"B$	c #878480",
"C$	c #7D7C7B",
"D$	c #A5A5A6",
"E$	c #484848",
"F$	c #444343",
"G$	c #93908D",
"H$	c #7F5254",
"I$	c #AE7C7A",
"J$	c #B9B6B3",
"K$	c #595859",
"L$	c #343435",
"M$	c #2B2C2B",
"N$	c #6C5B58",
"O$	c #97918A",
"P$	c #494746",
"Q$	c #2A2B2C",
"R$	c #303033",
"S$	c #57585C",
"T$	c #4D4F53",
"U$	c #424346",
"V$	c #29292B",
"W$	c #3A3A39",
"X$	c #9F9E9A",
"Y$	c #6C6C6A",
"Z$	c #2A2B2B",
"[$	c #404041",
"]$	c #7D7B79",
"^$	c #926466",
"_$	c #C8373A",
"`$	c #AE363B",
"a$	c #CC3539",
"b$	c #AE706F",
"c$	c #BBADAB",
"d$	c #757474",
"e$	c #6F6D6C",
"f$	c #847F79",
"g$	c #555352",
"h$	c #2C2C2E",
"i$	c #2B2B2D",
"j$	c #313235",
"k$	c #323437",
"l$	c #303134",
"m$	c #3A3B3E",
"n$	c #505053",
"o$	c #A09E9B",
"p$	c #949291",
"q$	c #6A6B6F",
"r$	c #918F8D",
"s$	c #ABAAAB",
"t$	c #ECCDCE",
"u$	c #D24C4E",
"v$	c #BC7C7C",
"w$	c #735151",
"x$	c #434448",
"y$	c #494A4E",
"z$	c #3C3C3F",
"{$	c #434242",
"|$	c #979696",
"}$	c #969698",
"~$	c #D0CFD0",
" %	c #844E5A",
"!%	c #CD3236",
"#%	c #6A2C2E",
"$%	c #35292A",
"%%	c #483235",
"&%	c #573235",
"'%	c #594246",
"(%	c #3F4043",
")%	c #38393A",
"*%	c #787879",
"+%	c #F1F1F1",
",%	c #AC373B",
"-%	c #B53134",
".%	c #A73135",
"0%	c #C63236",
"1%	c #D93337",
"2%	c #D93237",
"3%	c #BD9EA0",
"4%	c #D3D3D4",
"5%	c #D83337",
"6%	c #C93336",
"                                                                ",
"                      # $ $ % & & % $ $ #                       ",
"                  ' ( ) * * * + + * * * , - '                   ",
"              . 0 1 2 3 4 4 4 4 4 4 4 3 3 5 6 ( .               ",
"            7 8 9 : ; 4 < < < < < < < < 4 4 3 5 = 7             ",
"          > ? @ A A B C D D D D D D D E E F 4 3 G H I           ",
"        7 ? J J J J J K L M N O O O O O P E < < 4 + H 7         ",
"      . 8 @ J J J Q R S T U V W W W X Y Z [ ] G < 4 G = .       ",
"      0 9 A A ^ _ ` a b c d e f g h i Y j k l m G < 3 5 (       ",
"    ' 1 : A n o p p q r c s t u v w x y z { | } ~  !4 3 6 '     ",
"    ( 2 !!#!$!%!&!'!(!)!*!+!,!-!.!,!0!1!2!3!4!5!6!7!8!9!5 -     ",
"  # ) :!;!<!=!>!>!>!?!@!A!B!C!D!E!F!G!H!I!J!I!K!L!M!N!O!P!Q!#   ",
"  $ R!S!T!U!V!W!X!Y!Y!Y!Y!Z![!]!^!_!`!a!b!c!d!e!f!g!h!i!j!k!$   ",
"  $ l!m!n!o!o!p!q!J J J J r!s!t!u!v!w!x!y!z!{!|!}!o!o!~!4! #$   ",
"  % !###$#%#o!&#'#(#J J J )#H!*#+#,#-#.#0#z!{!1#2#o!o!3#4#5#%   ",
"  6#7#8#$#o!o!&#{!9#:#J J ;#<#=#=#>#?#@ @#A#{!1#2#B#C#3#D#E#&   ",
"  6#F#G#$#H#I#&#{!z!J#@#K#L#M#N#O#P#Q#R#J :#9#1#2#S#T#U#V#W#&   ",
"  % X#Y#Z#o![#]#{!^#y!_#`#a#b#c#d#e#f#g#n J (#h#i#o!o!^!j#k#%   ",
"  $ l#m#n#o!o#p#{!^#y!q#r#s#t#u#d#v#w#x#y#J J q!z#o!o!{#|#}#$   ",
"  $ ~# $!$g!#$$$%${!&$'$($)$t#u#d#*$+$,$-$.$J 0$1$o!2$3$4$5$$   ",
"  # ) 6$7$8$9$:$;$<$=$>$?$@$A$u#d#*$@$V!B$C$D$E$o!o!F$G$H$) #   ",
"    ( 2 I$J$K$L$M$N$O$P$@$Q$R$S$T$U$V$@$W$X$Y$1$Z$[$]$^$_$(     ",
"    ' `$a$b$c$d$e$f$g$h$i$j$j$j$k$j$l$j$m$n$o$p$q$r$s$t$1 '     ",
"      ( 2 4 u$v$w$2$Z$,!j$j$j$j$j$j$j$x$y$z${$|$}$~$J 9 0       ",
"      .  %2 < E !%#%$%3#%%&%&%&%&%&%&%'%(%)%*%+%J J @ 8 .       ",
"        7 ,%4 < E D -%.%0%1%1%1%1%2%1%0%3%4%J J J J ? 7         ",
"          I ,%2 4 < E D 5%5%5%5%5%5%5%D C B J J @ ? >           ",
"            7  %2 4 < < E E E E E E E < < ; : 9 8 7             ",
"              . ( `$2 4 4 4 4 4 4 4 4 4 4 2 1 0 .               ",
"                  ' ( ) 6%6%6%3 3 6%6%* ) ( '                   ",
"                      # $ $ % 6#6#% $ $ #                       ",
"                                                                "};