/* XPM */ 
static const unsigned char * dive___wreck_xpm[] = {
"32 32 213 2",
"  	c None",
"! 	c black",
"# 	c #74ADD7",
"$ 	c #5A7A93",
"% 	c #5B7891",
"& 	c #7E373B",
"' 	c #648EAE",
"( 	c #72515D",
") 	c #863A3F",
"* 	c #C83336",
"+ 	c #D23337",
", 	c #853A3F",
"- 	c #71515D",
". 	c #71A8D0",
"0 	c #7F8B96",
"1 	c #B24D51",
"2 	c #CE3336",
"3 	c #D33337",
"4 	c #D43337",
"5 	c #CD3336",
"6 	c #AD363B",
"7 	c #6590B0",
"8 	c #95A1AB",
"9 	c #F7F7F7",
": 	c #F5D7D7",
"; 	c #D94A4D",
"< 	c #D53337",
"= 	c #9F3336",
"> 	c #653133",
"? 	c #9C3336",
"@ 	c #834E5A",
"A 	c #7091AB",
"B 	c #CCCDCE",
"C 	c #F6F6F6",
"D 	c #FDFDFD",
"E 	c #F6D6D7",
"F 	c #DB4A4D",
"G 	c #D73337",
"H 	c #7C3234",
"I 	c #2A292A",
"J 	c #5F3233",
"K 	c #CF3336",
"L 	c #CC3336",
"M 	c #AB373B",
"N 	c #6B7C96",
"O 	c #FEFEFE",
"P 	c #F6D7D7",
"Q 	c #DD494D",
"R 	c #D93337",
"S 	c #C03336",
"T 	c #7C3134",
"U 	c #A93336",
"V 	c #C23336",
"W 	c #3A2D2E",
"X 	c #29292A",
"Y 	c #803234",
"Z 	c #F7D7D8",
"[ 	c #DD484C",
"] 	c #DA3337",
"^ 	c #853335",
"_ 	c #2B2A2B",
"` 	c #453031",
"a 	c #292829",
"b 	c #3E2D2F",
"c 	c #C53336",
"d 	c #D63337",
"e 	c #F7D8D9",
"f 	c #DF474B",
"g 	c #C63336",
"h 	c #583032",
"i 	c #2C2A2B",
"j 	c #282829",
"k 	c #403031",
"l 	c #793134",
"m 	c #BE3336",
"n 	c #F8DADB",
"o 	c #E04649",
"p 	c #DD3337",
"q 	c #793335",
"r 	c #3D2D2F",
"s 	c #933336",
"t 	c #EBCCCD",
"u 	c #F8DCDC",
"v 	c #E24347",
"w 	c #533031",
"x 	c #5E3032",
"y 	c #873234",
"z 	c #4C2F31",
"{ 	c #3C2D2F",
"| 	c #BA3336",
"} 	c #D83337",
"~ 	c #A33336",
" !	c #6E6C6D",
"!!	c #CCCCCC",
"#!	c #ECCECF",
"$!	c #343132",
"%!	c #2C2B2C",
"&!	c #AF3236",
"'!	c #DE3337",
"(!	c #DD3237",
")!	c #BD3336",
"*!	c #2A2A2B",
"+!	c #6C6B6B",
",!	c #969595",
"-!	c #EDEDED",
".!	c #939192",
"0!	c #352D2E",
"1!	c #D23336",
"2!	c #DF3337",
"3!	c #DC3337",
"4!	c #DB3337",
"5!	c #C93336",
"6!	c #412D2F",
"7!	c #3C3B3C",
"8!	c #898788",
"9!	c #C9C8C8",
":!	c #F8F8F8",
";!	c #2F2E2F",
"<!	c #8B6B6C",
"=!	c #E34548",
">!	c #E03337",
"?!	c #523031",
"@!	c #676566",
"A!	c #939292",
"B!	c #C2C1C1",
"C!	c #313031",
"D!	c #F1F1F1",
"E!	c #F9DADB",
"F!	c #E34448",
"G!	c #7F373B",
"H!	c #2F2D2E",
"I!	c #908E8F",
"J!	c #F9DBDB",
"K!	c #AA3336",
"L!	c #F4F4F4",
"M!	c #F9DCDC",
"N!	c #E14649",
"O!	c #353334",
"P!	c #5D5C5C",
"Q!	c #C1C0C0",
"R!	c #3E2D2E",
"S!	c #3D3C3C",
"T!	c #573032",
"U!	c #763133",
"V!	c #2B2B2C",
"W!	c #2D2C2D",
"X!	c #502F30",
"Y!	c #555455",
"Z!	c #2E2D2E",
"[!	c #3C2E2F",
"]!	c #8D3336",
"^!	c #D63237",
"_!	c #BC3336",
"`!	c #693234",
"a!	c #A83235",
"b!	c #C33336",
"c!	c #C43336",
"d!	c #6B3133",
"e!	c #6F5152",
"f!	c #747373",
"g!	c #D7D6D6",
"h!	c #DDDDDD",
"i!	c #EEEEEE",
"j!	c #BFBEBE",
"k!	c #8C8B8B",
"l!	c #DECCCD",
"m!	c #AE363B",
"n!	c #A73336",
"o!	c #B63336",
"p!	c #D63336",
"q!	c #AD3336",
"r!	c #B13336",
"s!	c #C9C9C9",
"t!	c #C4C3C3",
"u!	c #D6D6D6",
"v!	c #BC9C9D",
"w!	c #9C363B",
"x!	c #53515C",
"y!	c #472E30",
"z!	c #382C2D",
"{!	c #583133",
"|!	c #522F31",
"}!	c #2E2B2C",
"~!	c #5A3233",
" #	c #5C4546",
"!#	c #605E5F",
"##	c #302F30",
"$#	c #575656",
"%#	c #615F60",
"&#	c #424F5A",
"'#	c #3E4A54",
"(#	c #3F3537",
")#	c #322B2C",
"*#	c #422E2F",
"+#	c #3B2C2E",
",#	c #3A2C2D",
"-#	c #432E2F",
".#	c #2E2F32",
"0#	c #83373B",
"1#	c #9B3336",
"2#	c #613032",
"3#	c #5C3032",
"4#	c #A43336",
"5#	c #4B2F31",
"6#	c #733133",
"7#	c #B73336",
"8#	c #B69596",
"9#	c #BDBCBD",
":#	c #6A6969",
";#	c #636162",
"<#	c #8B8C8E",
"=#	c #5B7C96",
">#	c #844E5A",
"                                                                ",
"                      # $ $ % & & % $ $ #                       ",
"                  ' ( ) * * * + + * * * , - '                   ",
"              . 0 1 2 3 4 4 4 4 4 4 4 3 3 5 6 ( .               ",
"            7 8 9 : ; 4 < < < < < < < = > ? * 5 @ 7             ",
"          A B C D D E F G G G G G G G H I J K 3 L M N           ",
"        7 B O O O O O P Q R R S T U V W X Y < < 4 + M 7         ",
"      . 8 C O O O O O O Z [ ] ^ X _ ` a b c G d < 4 L @ .       ",
"      0 9 D D O O O O O O e f g h i X j k l m G d < 3 5 (       ",
"    ' 1 : D O O O O O O O O n o p q _ a X X r s G < 4 3 6 '     ",
"    ( 2 ; t 9 O O O O O O O O u v w j x y z { | } d < 4 5 -     ",
"  # ) 4 < ~  !!!9 O O O O O O O #!$!%!&!'!(!)!R R G d 4 3 , #   ",
"  $ * 4 < ~ *!%!+!,!-!O O O O O .!j 0!1!2!'!3!4!R } d < 3 * $   ",
"  $ 5!4 d V 6!j j a 7!8!9!:!O O ;!j <!=!>!2!p 4!R } G < 4 * $   ",
"  % 5!4 d } ?!j j j j j %!@!A!B!_ C!D!E!F!2!p 3!] R G < 4 * %   ",
"  G!3 4 d } ?!j j j j j j j j H!j I!O O J!v p 3!] R G < 4 + &   ",
"  G!3 < G } K!_ j j j j j j j j j H!,!L!O M!N!3!] R } d 4 + &   ",
"  % 5!4 d } U _ j j j j j j j j j j j O!P!Q!n f ] R G < 4 * %   ",
"  $ 5!4 d } )!R!j j j j j j j j j j j j j ;!S!<!* R G < 4 * $   ",
"  $ 5!4 d } R T!j j j j j j j j j j j j j j j a W Y ~ < 4 * $   ",
"  # ) 4 < G } U!X V!W!W!X!W!W!j j j %!W!Y!W!V!j a Z![!]!3 ) #   ",
"    ( 2 < ^!} _!`!a!V b!1!c!V d!e!f!g!h!i!h!j!f!k!h!l!; 2 (     ",
"    ' m!c!n!o!} R ] 3!p!q!r!'!'!N!n O s!t!L!O O O O u!v!w!'     ",
"      x!y!_ z!T!{!{!h |!_ }!h h ~! #!###_ $#!#%#%#!#7!V!&#      ",
"      . '#j j j j a j j j j j j X j j j j j j j j j j '#.       ",
"        7 (#)#*!j j *!*!*#+#*!*!j X *!,#-#*!*!j j *!.#7         ",
"          N 0#1#2#3#~ ~ c!| 4#4#5#6#4#7#c!8#9#:#;#<#=#          ",
"            7 >#2 4 < < d d d d d d d < < ; : 9 8 7             ",
"              . ( m!2 4 4 4 4 4 4 4 4 4 4 2 1 0 .               ",
"                  ' ( ) 5!5!5!3 3 5!5!* ) ( '                   ",
"                      # $ $ % G!G!% $ $ #                       ",
"                                                                "};