/* XPM */ 
static const unsigned char * farm___oyster_xpm[] = {
"32 32 192 2",
"  	c None",
"! 	c black",
"# 	c #74ADD7",
"$ 	c #5A7A93",
"% 	c #5C7A90",
"& 	c #938033",
"' 	c #648EAE",
"( 	c #7E7F58",
") 	c #9B8A36",
"* 	c #F2CB25",
"+ 	c #F2CC25",
", 	c #FFD624",
"- 	c #9B8936",
". 	c #71A8D0",
"0 	c #7F8058",
"1 	c #CFB12D",
"2 	c #F8D124",
"3 	c #F4CE24",
"4 	c #AB9325",
"5 	c #6B5F27",
"6 	c #3C3828",
"7 	c #766727",
"8 	c #D6B624",
"9 	c #796A27",
": 	c #675B27",
"; 	c #AB9326",
"< 	c #EBC625",
"= 	c #7F7F58",
"> 	c #6590B0",
"? 	c #969153",
"@ 	c #FFD723",
"A 	c #F2CD23",
"B 	c #675C27",
"C 	c #282829",
"D 	c #968325",
"E 	c #635827",
"F 	c #F0CB24",
"G 	c #F8D025",
"H 	c #708D94",
"I 	c #CCAF2E",
"J 	c #F7D124",
"K 	c #FFD823",
"L 	c #DBBB24",
"M 	c #7F6F26",
"N 	c #736626",
"O 	c #B19825",
"P 	c #F7D025",
"Q 	c #CCB02E",
"R 	c #EECA23",
"S 	c #6E6127",
"T 	c #554E27",
"U 	c #272729",
"V 	c #5F5627",
"W 	c #554D27",
"X 	c #B79D25",
"Y 	c #716426",
"Z 	c #413C28",
"[ 	c #6C6126",
"] 	c #544D27",
"^ 	c #312F28",
"_ 	c #343228",
"` 	c #7E6E26",
"a 	c #D0B324",
"b 	c #413D27",
"c 	c #444027",
"d 	c #D0B224",
"e 	c #CFB22D",
"f 	c #FFD922",
"g 	c #AB9424",
"h 	c #847827",
"i 	c #B89F24",
"j 	c #F1CD23",
"k 	c #FFD724",
"l 	c #F8D224",
"m 	c #BEA424",
"n 	c #524C27",
"o 	c #615926",
"p 	c #524B27",
"q 	c #6C6026",
"r 	c #B99F24",
"s 	c #F8D125",
"t 	c #CDB024",
"u 	c #615A25",
"v 	c #524D26",
"w 	c #363428",
"x 	c #726526",
"y 	c #E1C123",
"z 	c #3D3928",
"{ 	c #6C6225",
"| 	c #323128",
"} 	c #565125",
"~ 	c #484327",
" !	c #383528",
"!!	c #D7B824",
"#!	c #FED823",
"$!	c #FFDA22",
"%!	c #8F7E25",
"&!	c #2A2A28",
"'!	c #565026",
"(!	c #2C2B28",
")!	c #635C25",
"*!	c #F2CD25",
"+!	c #FFDC21",
",!	c #908024",
"-!	c #2D2C28",
".!	c #817623",
"0!	c #3A3827",
"1!	c #292928",
"2!	c #907F25",
"3!	c #FFDB21",
"4!	c #938133",
"5!	c #FFDE20",
"6!	c #E4C820",
"7!	c #4C4826",
"8!	c #383627",
"9!	c #918124",
":!	c #FFDD20",
";!	c #FFDA21",
"<!	c #FFDC20",
"=!	c #FFDE1F",
">!	c #FFE01E",
"?!	c #E5CC1F",
"@!	c #464227",
"A!	c #E5CB1F",
"B!	c #FFDF1F",
"C!	c #FFE01F",
"D!	c #FFE11E",
"E!	c #E4CC1E",
"F!	c #796F24",
"G!	c #635D24",
"H!	c #504C25",
"I!	c #615C23",
"J!	c #474327",
"K!	c #E4CB1F",
"L!	c #FFE31D",
"M!	c #FCE21C",
"N!	c #9D9021",
"O!	c #302F28",
"P!	c #2D2D28",
"Q!	c #9D8F22",
"R!	c #F5DB1D",
"S!	c #FFE21D",
"T!	c #F1D91C",
"U!	c #948821",
"V!	c #4A4726",
"W!	c #4A4626",
"X!	c #E3CC1E",
"Y!	c #BBA920",
"Z!	c #333228",
"[!	c #4F4A26",
"]!	c #6C6424",
"^!	c #675F25",
"_!	c #F2D71E",
"`!	c #7E8058",
"a!	c #EDD21E",
"b!	c #796E24",
"c!	c #6D6425",
"d!	c #827723",
"e!	c #A39421",
"f!	c #AA9A21",
"g!	c #E7CD1F",
"h!	c #D2B921",
"i!	c #C0AB21",
"j!	c #C0AC21",
"k!	c #E6CD1F",
"l!	c #C0AA21",
"m!	c #F2D420",
"n!	c #7F8057",
"o!	c #BCA523",
"p!	c #363328",
"q!	c #504B26",
"r!	c #504A26",
"s!	c #4F4927",
"t!	c #BCA423",
"u!	c #969152",
"v!	c #FFD822",
"w!	c #F2CF22",
"x!	c #D5B723",
"y!	c #CCB02D",
"z!	c #D2B324",
"{!	c #323028",
"|!	c #4B4527",
"}!	c #CBAE24",
"~!	c #524A27",
" #	c #474227",
"!#	c #E1C322",
"##	c #B29925",
"$#	c #7A6B26",
"%#	c #433E28",
"&#	c #B69E24",
"'#	c #B69D24",
"(#	c #7A6A27",
"                                                                ",
"                      # $ $ % & & % $ $ #                       ",
"                  ' ( ) * * + , , + * * - ( '                   ",
"              . 0 1 2 3 4 5 6 7 8 9 6 : ; < 1 = .               ",
"            > ? 2 @ A B C C C C D C C C C E F G ? >             ",
"          H I J K L M C C C C C N C C C C C O @ P I H           ",
"        > Q @ R S 6 T C C U C C C C C C C V W X @ , I >         ",
"      . ? J K Y C C Z C C C C C [ C C C C ] ^ _ ` @ P ? .       ",
"      0 2 K a _ C C C C C C C C b C C C C c C C _ d @ G =       ",
"    ' e @ f g C C C C [ C C C C h C C C C C C C C i j k 1 '     ",
"    ( l K m T n C C C C C C C C C C C C o C C C p q r @ s (     ",
"  # ) @ t _ C [ n C C C u C C C C C C v w C C n [ C x K k - #   ",
"  $ + K y z U C { v C C | } C C [ C C u C C ~ { U C  !!!@ * $   ",
"  $ + #!$!%!&!C C '!C C C C C C C C } | C (!)!C C &!%!f @ * $   ",
"  % *!K $!+!,!-!C C C C C C C C C C C C &!.!0!C 1!2!3!f @ + %   ",
"  4!k K $!+!5!6!c C C C C C C C [ C C C 7!8!C C 9!:!3!f @ , &   ",
"  4!@ f ;!<!=!>!?!@!C C C C C C C C C C C C @!A!B!:!3!$!K , 4!  ",
"  % *!K $!+!5!C!D!E!F!C G!H!I!C C C [ C C J!K!>!B!:!3!f @ + %   ",
"  $ + K $!+!5!C!D!L!M!N!O!P!C C C C C C Q!R!S!>!B!:!3!f @ * $   ",
"  $ + K $!3!:!B!D!S!L!T!U!V!C C C C W!O!X!L!D!C!5!<!;!f @ * $   ",
"  # ) @ f 3!<!=!C!D!S!Y!&!Z![!C C C ]!&!^!_!D!B!:!3!$!K k ) #   ",
"    `!l K $!3!:!B!>!a!b!c!c!d!e!e!f!c!c!c!g!B!5!<!3!f K 2 (     ",
"    ' e K f ;!+!:!h!i!j!k!L!L!L!L!L!S!k!i!l!m!:!3!$!K @ 1 '     ",
"      n!l K f 3!o!p!C C q!g!D!D!D!D!g!r!C C s!t!$!f K 2 0       ",
"      . u!J v!w!p C C C C n C!C!C!C!n C C C C p!x!K J ? .       ",
"        > y!@ z!{!C C C C |!5!5!5!5!|!C C C C {!z!@ I >         ",
"          H y!J }!~!C C  #!#+!+!+!+!!# #C C {!##J Q H           ",
"            > u!l $#%#%#&#$!$!$!$!$!$!'#%#%#(#2 ? >             ",
"              . n!e l @ K K K K K K K K @ l e 0 .               ",
"                  ' `!) + + *!k k *!+ + ) ( '                   ",
"                      # $ $ % 4!4!% $ $ #                       ",
"                                                                "};