/* XPM */ 
static const unsigned char * farm___fish_xpm[] = {
"32 32 279 2",
"  	c None",
"! 	c black",
"# 	c #74ADD7",
"$ 	c #5A7A93",
"% 	c #5C7A90",
"& 	c #938033",
"' 	c #648EAE",
"( 	c #7E7F58",
") 	c #9B8A36",
"* 	c #F2CB25",
"+ 	c #F2CC25",
", 	c #FFD624",
"- 	c #9B8936",
". 	c #71A8D0",
"0 	c #7F8058",
"1 	c #CFB12D",
"2 	c #F8D124",
"3 	c #FFD724",
"4 	c #FFD723",
"5 	c #F8D125",
"6 	c #7F7F58",
"7 	c #6590B0",
"8 	c #969153",
"9 	c #FFD823",
": 	c #FFD922",
"; 	c #F8D025",
"< 	c #708D94",
"= 	c #CCAF2E",
"> 	c #F7D124",
"? 	c #E1C123",
"@ 	c #927F25",
"A 	c #E4C422",
"B 	c #FFDB21",
"C 	c #FFDA22",
"D 	c #F7D025",
"E 	c #CCB02E",
"F 	c #827326",
"G 	c #282829",
"H 	c #8B7B25",
"I 	c #FFDD20",
"J 	c #968424",
"K 	c #B49E23",
"L 	c #FFD822",
"M 	c #CCAE2D",
"N 	c #638EAF",
"O 	c #C2A823",
"P 	c #373528",
"Q 	c #2C2B28",
"R 	c #5F5726",
"S 	c #C7AF22",
"T 	c #E4C820",
"U 	c #5C5426",
"V 	c #706525",
"W 	c #FADA20",
"X 	c #FFDC21",
"Y 	c #D7B724",
"Z 	c #8F7B26",
"[ 	c #959052",
"] 	c #F0CD23",
"^ 	c #786A26",
"_ 	c #5F5627",
"` 	c #383528",
"a 	c #444027",
"b 	c #6D6325",
"c 	c #FADB1F",
"d 	c #FFDE1F",
"e 	c #DABC23",
"f 	c #413C28",
"g 	c #AC9425",
"h 	c #CFB22D",
"i 	c #F0CB24",
"j 	c #786926",
"k 	c #544C27",
"l 	c #605826",
"m 	c #665D26",
"n 	c #C3AC22",
"o 	c #F6D620",
"p 	c #F4D321",
"q 	c #746826",
"r 	c #514A27",
"s 	c #D9B825",
"t 	c #635827",
"u 	c #5B5327",
"v 	c #635927",
"w 	c #554D27",
"x 	c #2B2A28",
"y 	c #302F28",
"z 	c #433F27",
"{ 	c #756A25",
"| 	c #786B26",
"} 	c #8F7D26",
"~ 	c #363328",
" !	c #272729",
"!!	c #645C25",
"#!	c #C6B120",
"$!	c #FFE11E",
"%!	c #E9CD20",
"&!	c #544E27",
"'!	c #4D4727",
"(!	c #F8D422",
")!	c #FED823",
"*!	c #E1C322",
"+!	c #A49123",
",!	c #4E4927",
"-!	c #353328",
".!	c #333128",
"0!	c #2F2E28",
"1!	c #353427",
"2!	c #A1951F",
"3!	c #373527",
"4!	c #756C24",
"5!	c #FDE31C",
"6!	c #FFE31D",
"7!	c #FFE21E",
"8!	c #FEE01E",
"9!	c #EACD20",
":!	c #534C27",
";!	c #B29B24",
"<!	c #F2CD25",
"=!	c #FFDE20",
">!	c #FFE01F",
"?!	c #ECD21E",
"@!	c #4E4926",
"A!	c #9D9120",
"B!	c #9D921F",
"C!	c #D3C31A",
"D!	c #FFEB16",
"E!	c #FFEA17",
"F!	c #D6C41B",
"G!	c #393727",
"H!	c #E0CA1D",
"I!	c #FFE41C",
"J!	c #FFE21D",
"K!	c #FFE01E",
"L!	c #FFDF1F",
"M!	c #ECCD21",
"N!	c #625826",
"O!	c #D7B923",
"P!	c #938133",
"Q!	c #A69721",
"R!	c #434027",
"S!	c #FFE819",
"T!	c #FFED15",
"U!	c #FFEE14",
"V!	c #FFE918",
"W!	c #C9B61E",
"X!	c #FFDA21",
"Y!	c #FFDC20",
"Z!	c #C9B320",
"[!	c #EDD51D",
"]!	c #CAB81D",
"^!	c #D6C51B",
"_!	c #FFEB17",
"`!	c #FFF012",
"a!	c #FFEF13",
"b!	c #FFEC16",
"c!	c #D6C41C",
"d!	c #BBAB1F",
"e!	c #978624",
"f!	c #7D7224",
"g!	c #9D8F22",
"h!	c #706824",
"i!	c #FCE619",
"j!	c #C6B81B",
"k!	c #615C24",
"l!	c #706823",
"m!	c #2A2A28",
"n!	c #8C7F23",
"o!	c #968723",
"p!	c #BAA223",
"q!	c #8F7E25",
"r!	c #292928",
"s!	c #403E27",
"t!	c #343327",
"u!	c #F8E417",
"v!	c #726B22",
"w!	c #323128",
"x!	c #887924",
"y!	c #8F7F24",
"z!	c #7D6F26",
"{!	c #756D23",
"|!	c #2E2E28",
"}!	c #857C22",
"~!	c #655C26",
" #	c #6B6026",
"!#	c #8E7D25",
"##	c #E7C722",
"$#	c #C3AA23",
"%#	c #605726",
"&#	c #393628",
"'#	c #746925",
"(#	c #746A25",
")#	c #6A6125",
"*#	c #766C24",
"+#	c #FDE51B",
",#	c #A49620",
"-#	c #FFE71A",
".#	c #E4CF1C",
"0#	c #7B7123",
"1#	c #565126",
"2#	c #7D7025",
"3#	c #E4C621",
"4#	c #F9D721",
"5#	c #A28D25",
"6#	c #E3C223",
"7#	c #7E8058",
"8#	c #F8D224",
"9#	c #756925",
":#	c #CDB820",
";#	c #C4B120",
"<#	c #FDE41C",
"=#	c #EED61D",
">#	c #FFE51C",
"?#	c #AB9A21",
"@#	c #D2B821",
"A#	c #F6D521",
"B#	c #F9D522",
"C#	c #F2CD23",
"D#	c #ECCB22",
"E#	c #998724",
"F#	c #312F28",
"G#	c #514B27",
"H#	c #8A7D24",
"I#	c #4D4827",
"J#	c #EED41E",
"K#	c #DBC41F",
"L#	c #C9B420",
"M#	c #C4B020",
"N#	c #4C4727",
"O#	c #363428",
"P#	c #A08E23",
"Q#	c #897925",
"R#	c #F2D022",
"S#	c #7F7026",
"T#	c #7F8057",
"U#	c #E4C124",
"V#	c #A38D25",
"W#	c #4A4427",
"X#	c #2E2D28",
"Y#	c #585226",
"Z#	c #918323",
"[#	c #444127",
"]#	c #C7B220",
"^#	c #5C5526",
"_#	c #716526",
"`#	c #6F6326",
"a#	c #A08A26",
"b#	c #5B6154",
"c#	c #454127",
"d#	c #918224",
"e#	c #423E27",
"f#	c #4C4527",
"g#	c #4F4828",
"h#	c #998426",
"i#	c #B8A02E",
"j#	c #C0A425",
"k#	c #6A5E27",
"l#	c #3C3828",
"m#	c #9C8924",
"n#	c #A69223",
"o#	c #A18F24",
"p#	c #C9B022",
"q#	c #E2C621",
"r#	c #C0A822",
"s#	c #4C4627",
"t#	c #756826",
"u#	c #C0A624",
"v#	c #C7AA24",
"w#	c #F2CD24",
"x#	c #5D562F",
"y#	c #628DAE",
"z#	c #CCB02D",
"{#	c #A18C25",
"|#	c #DBBD22",
"}#	c #B9A124",
"~#	c #C3A923",
" $	c #EDC923",
"!$	c #E5C225",
"#$	c #969152",
"                                                                ",
"                      # $ $ % & & % $ $ #                       ",
"                  ' ( ) * * + , , + * * - ( '                   ",
"              . 0 1 2 3 4 4 4 4 4 4 4 4 3 5 1 6 .               ",
"            7 8 2 4 9 9 : : : : : : : 9 9 4 3 ; 8 7             ",
"          < = > 9 9 ? @ A B B B B B B C C : 9 4 D = <           ",
"        7 E 4 9 : C F G H I I I I I J K B C : L 4 , M N         ",
"      . 8 > 9 : C O P G Q R S T T U V W I X B C L Y Z [ .       ",
"      0 2 9 ] ^ _ ` G G G G G a a G b c d I X B e f g ; 6       ",
"    ' h i j k G G G G G G G G G G G G l m n o p q r 9 3 1 '     ",
"    ( s t G G G G G G G G G G G G G G G G G R u G v : 4 5 (     ",
"  # ) w x G G G G G G G G G G G G G G G G y z { G | C 9 3 - #   ",
"  $ + 9 } ~  !G  !G G G G G G G G G G y !!#!$!%!&!'!(!9 4 * $   ",
"  $ + )!C *!+!,!-!.!G G G G 0!1!1!2!3!4!5!6!7!8!9!:!;!: 4 * $   ",
"  % <!9 C X =!>!$!?!@!3!A!B!C!D!D!E!F!G!H!I!J!K!L!M!N!O!4 + %   ",
"  P!3 9 C X =!>!$!6!Q!R!S!E!T!U!U!D!V!S!W!I!J!K!L!I B : 4 , &   ",
"  P!4 : X!Y!d K!Z!6![!]!^!_!T!`!a!b!E!c!d!I!6!$!L!I B C 9 , P!  ",
"  % <!9 C X =!e!x f!g!h!i!E!j!k!T!D!^!l!m!n!f!o!L!I p!O!4 + %   ",
"  $ + 9 C q!-!x G G G r!s!B!t!u!C!v!y G G G G w!x!y!z!: 4 * $   ",
"  $ + 9 O!` G G G G G G y {!|!S!}!m!G G G G G G ~! #!#: 4 * $   ",
"  # ) 4 : ##$#%#&#'#(#)#*#+#,#,#-#.#0#1#z (#'#2#3#4#5#6#3 ) #   ",
"    7#8#9 C B 3#9#K!7!:#;#I!<#=#>#>#I!?#(#$!L!@#A#B B#C#2 (     ",
"    ' h 9 : D#E#F#G#H#I#J#6!K#L#6!6!M#N#O#{ P#Q#B R#S#Y 1 '     ",
"      T#U#V#W#G G G G X#Y#Z#[#$!]#^#x G G G G '!_#`#a#2 0       ",
"      . b#f G G G G G G c#d#a >!d#e#G G G G G G f#g#h#8 .       ",
"        7 i#j#k#l#r m#| n#=!o#p#=!q#r#s#O#t#u#_ v#w#x#y#        ",
"          < z#> {#: C B |#X X X X X X }#~#C :  $!$E <           ",
"            7 #$8#9 9 : C C C C C C C : : 9 4 2 8 7             ",
"              . T#h 8#4 9 9 9 9 9 9 9 9 4 8#h 0 .               ",
"                  ' 7#) + + <!3 3 <!+ + ) ( '                   ",
"                      # $ $ % P!P!% $ $ #                       ",
"                                                                "};