/* XPM */ 
static const unsigned char * fish___fishing_spot_xpm[] = {
"32 32 327 2",
"  	c None",
"! 	c black",
"# 	c #74ADD7",
"$ 	c #5A7A93",
"% 	c #587A93",
"& 	c #21768F",
"' 	c #648EAE",
"( 	c #386E84",
") 	c #28424B",
"* 	c #09B7E6",
"+ 	c #09B8E7",
", 	c #06C0F2",
"- 	c #08B7E6",
". 	c #217F9A",
"0 	c #377992",
"1 	c #71A8D0",
"2 	c #377993",
"3 	c #14A1C9",
"4 	c #1C5C6E",
"5 	c #1E84A1",
"6 	c #27C4F3",
"7 	c #1FC3F3",
"8 	c #12C2F3",
"9 	c #09BCED",
": 	c #12A0C8",
"; 	c #367993",
"< 	c #6590B0",
"= 	c #3088A7",
"> 	c #0CBCEC",
"? 	c #1CC3F3",
"@ 	c #296375",
"A 	c #38A2C5",
"B 	c #46C7F4",
"C 	c #4BC8F4",
"D 	c #42A0C1",
"E 	c #3B8EAA",
"F 	c #42A7CA",
"G 	c #3EC6F3",
"H 	c #34C5F3",
"I 	c #24C4F3",
"J 	c #11C2F3",
"K 	c #07BBEC",
"L 	c #2F88A7",
"M 	c #568BAA",
"N 	c #149FC6",
"O 	c #15BDEC",
"P 	c #29C4F3",
"Q 	c #36ACD2",
"R 	c #304A54",
"S 	c #56CAF4",
"T 	c #5CCBF4",
"U 	c #60CCF5",
"V 	c #437487",
"W 	c #2B3236",
"X 	c #2D4149",
"Y 	c #3E8AA5",
"Z 	c #42BFE9",
"[ 	c #33C5F3",
"] 	c #0ABBEC",
"^ 	c #139FC6",
"_ 	c #15A0C6",
"` 	c #14C2F3",
"a 	c #31C5F3",
"b 	c #4291AE",
"c 	c #3A5B68",
"d 	c #66CDF5",
"e 	c #6ECFF5",
"f 	c #71D0F5",
"g 	c #6CC1E3",
"h 	c #384A52",
"i 	c #282829",
"j 	c #2E424A",
"k 	c #325E6E",
"l 	c #34A4C8",
"m 	c #23C4F3",
"n 	c #0AC1F2",
"o 	c #16BDEC",
"p 	c #48C8F4",
"q 	c #58CAF4",
"r 	c #385764",
"s 	c #5999B3",
"t 	c #76D1F6",
"u 	c #7BD2F6",
"v 	c #81D4F6",
"w 	c #5C8BA0",
"x 	c #283134",
"y 	c #2C5D6E",
"z 	c #22B8E4",
"{ 	c #377A93",
"| 	c #10BDEC",
"} 	c #5BCBF4",
"~ 	c #5BB1D2",
" !	c #384C55",
"!!	c #75C4E5",
"#!	c #85D4F6",
"$!	c #8AD6F7",
"%!	c #91D8F7",
"&!	c #658EA1",
"'!	c #2B5462",
"(!	c #1EB8E4",
")!	c #17A2C9",
"*!	c #21C3F3",
"+!	c #43C7F4",
",!	c #57CAF4",
"-!	c #67CDF5",
".!	c #60AAC7",
"0!	c #394950",
"1!	c #88D5F7",
"2!	c #99DAF8",
"3!	c #9FDCF8",
"4!	c #779FB2",
"5!	c #536E7A",
"6!	c #72A4BB",
"7!	c #69A2BB",
"8!	c #62A0BA",
"9!	c #5B9FBA",
":!	c #4B89A2",
";!	c #2D3336",
"<!	c #2C86A1",
"=!	c #16BEED",
">!	c #35C5F3",
"?!	c #52C9F4",
"@!	c #62CCF5",
"A!	c #4A7080",
"B!	c #5F8799",
"C!	c #95D9F7",
"D!	c #9DDCF8",
"E!	c #A4DEF8",
"F!	c #ABE0F9",
"G!	c #ADE1F9",
"H!	c #A8DFF8",
"I!	c #A0DDF8",
"J!	c #99DBF8",
"K!	c #8FD7F7",
"L!	c #83D4F6",
"M!	c #77D1F6",
"N!	c #69CEF5",
"O!	c #57A0BB",
"P!	c #3C5A64",
"Q!	c #24809B",
"R!	c #45C7F4",
"S!	c #6ACEF5",
"T!	c #76CCEF",
"U!	c #3E535D",
"V!	c #7BADC3",
"W!	c #9EDCF8",
"X!	c #B1E2F9",
"Y!	c #B8E4F9",
"Z!	c #BAE4F9",
"[!	c #A7CCDF",
"]!	c #BBE5FA",
"^!	c #B4E3F9",
"_!	c #ACE0F9",
"`!	c #A3DDF8",
"a!	c #8ED7F7",
"b!	c #80D3F6",
"c!	c #72D0F5",
"d!	c #5BB8DB",
"e!	c #315461",
"f!	c #11B8E6",
"g!	c #30C5F3",
"h!	c #4CC8F4",
"i!	c #61CCF5",
"j!	c #68A7C1",
"k!	c #405057",
"l!	c #9BDBF8",
"m!	c #A6DEF8",
"n!	c #B2E2F9",
"o!	c #BCE6FA",
"p!	c #C3E8FA",
"q!	c #8FA6B1",
"r!	c #64727A",
"s!	c #617179",
"t!	c #5E7079",
"u!	c #596E79",
"v!	c #677F8A",
"w!	c #8EBACD",
"x!	c #86D1F1",
"y!	c #71C1E2",
"z!	c #477587",
"{!	c #16B9E6",
"|!	c #3CC6F3",
"}!	c #79D1F6",
"~!	c #68A2BA",
" #	c #648695",
"!#	c #AEE1F9",
"##	c #C5E9FA",
"$#	c #C7E4F3",
"%#	c #484D50",
"&#	c #3D464B",
"'#	c #5A7683",
"(#	c #475E69",
")#	c #3F7184",
"*#	c #4AC4EF",
"+#	c #16B9E7",
",#	c #7AD2F6",
"-#	c #3C4E57",
".#	c #7DADC2",
"0#	c #A7DFF8",
"1#	c #C2E8FA",
"2#	c #CCEBFB",
"3#	c #CBE0EA",
"4#	c #282828",
"5#	c #395C6A",
"6#	c #44AED3",
"7#	c #227790",
"8#	c #13C2F3",
"9#	c #6CB8D7",
":#	c #3F525B",
";#	c #8BC4DE",
"<#	c #99AEB8",
"=#	c #4B5053",
">#	c #2F4249",
"?#	c #237790",
"@#	c #1EC3F3",
"A#	c #44C7F4",
"B#	c #63A0BA",
"C#	c #44555E",
"D#	c #9CDBF8",
"E#	c #9ECEE5",
"F#	c #677983",
"G#	c #4F97B3",
"H#	c #51C9F4",
"I#	c #32C5F3",
"J#	c #0DC1F2",
"K#	c #217790",
"L#	c #4D788A",
"M#	c #74ACC5",
"N#	c #64899A",
"O#	c #2B2C2E",
"P#	c #3A4247",
"Q#	c #44525A",
"R#	c #353C41",
"S#	c #2D363A",
"T#	c #55AED0",
"U#	c #364850",
"V#	c #384349",
"W#	c #4B646F",
"X#	c #495156",
"Y#	c #2A2B2D",
"Z#	c #292A2B",
"[#	c #446C7C",
"]#	c #39C6F3",
"^#	c #529CB9",
"_#	c #292B2C",
"`#	c #74A7BE",
"a#	c #79B0C8",
"b#	c #555C60",
"c#	c #2F3133",
"d#	c #374A52",
"e#	c #6CCAEF",
"f#	c #26809B",
"g#	c #45B4DA",
"h#	c #30434B",
"i#	c #405159",
"j#	c #4E5A60",
"k#	c #5D6D75",
"l#	c #3F5761",
"m#	c #62A9C6",
"n#	c #3BC6F3",
"o#	c #15C2F3",
"p#	c #227F9B",
"q#	c #397A92",
"r#	c #1EBFED",
"s#	c #3BBDE8",
"t#	c #4FB0D3",
"u#	c #406D7F",
"v#	c #385059",
"w#	c #2C2F31",
"x#	c #7EA1B1",
"y#	c #313437",
"z#	c #323A3E",
"{#	c #52798A",
"|#	c #78CCEE",
"}#	c #5FCCF5",
"~#	c #2BC4F3",
" $	c #10BDED",
"!$	c #1DA3C9",
"#$	c #2AB4DE",
"$$	c #429AB9",
"%$	c #46839B",
"&$	c #324046",
"'$	c #2C3032",
"($	c #6B94A7",
")$	c #556C76",
"*$	c #272729",
"+$	c #3B484E",
",$	c #364147",
"-$	c #648B9B",
".$	c #65C0E3",
"0$	c #55CAF4",
"1$	c #397A93",
"2$	c #206C81",
"3$	c #2A505D",
"4$	c #30515D",
"5$	c #35525D",
"6$	c #38525D",
"7$	c #3B535D",
"8$	c #45616E",
"9$	c #4E6A77",
":$	c #292A2C",
";$	c #43555E",
"<$	c #5D7F8E",
"=$	c #2D3033",
">$	c #416372",
"?$	c #64C5EA",
"@$	c #3489A7",
"A$	c #26BFEC",
"B$	c #3DC6F4",
"C$	c #54C9F4",
"D$	c #6DCFF5",
"E$	c #72C9ED",
"F$	c #66A6C1",
"G$	c #69A7C1",
"H$	c #70ABC5",
"I$	c #5A8598",
"J$	c #333F45",
"K$	c #2D3539",
"L$	c #426979",
"M$	c #63C5EB",
"N$	c #1AA1C6",
"O$	c #5DCBF4",
"P$	c #75D1F5",
"Q$	c #69BDDE",
"R$	c #5CAECE",
"S$	c #18BEEC",
"T$	c #3DC6F3",
"                                                                ",
"                      # $ $ % & & % $ $ #                       ",
"                  ' ( ) * * + , , + * - . 0 '                   ",
"              1 2 3 4 5 6 6 6 6 6 6 6 7 8 9 : ; 1               ",
"            < = > ? @ A B C C C D E F G H I J K L <             ",
"          M N O P Q R S T U U U U V W X Y Z [ 7 ] ^ M           ",
"        < _ ` a B b c d e f f f f g h i i j k l m n ^ <         ",
"      1 = o a p q r s t u v v v v v w i i i i x y z ] L 1       ",
"      { | a p } ~  !!!#!$!%!%!%!%!%!&!i i i i i i '!(!K ;       ",
"    ' )!*!+!,!-!.!0!1!%!2!3!3!3!3!3!4!5!6!7!8!9!:!;!<!J : '     ",
"    0 =!>!?!@!f A!B!C!D!E!F!G!G!G!G!H!I!J!K!L!M!N!O!P!I 9 0     ",
"  # Q!I R!} S!T!U!V!W!H!X!Y!Z![!]!]!^!_!`!J!a!b!c!d!e!H 8 . #   ",
"  $ f!g!h!i!c!j!k!l!m!n!o!p!q!i r!r!s!t!u!v!w!x!y!z!X G 7 - $   ",
"  $ {!|!,!N!}!~! #`!!#]!##$#%#i i i i i i &#'#(#i i )#*#6 * $   ",
"  % +#|!,!N!,#-#.#0#^!1#2#3#i i i i i i i 4#i i i i 5#6#6 + %   ",
"  7#8#|!,!N!9#:#;#0#^!1#<#=#i i i i i i i i i i i i >#C 6 , &   ",
"  ?#@#A#T e B#C#D#E#F#i i i i i i i i i i i i i i i G#H#I#J#K#  ",
"  % +#|!,!N!L#M#N#O#i i i i i i i i i i i P#Q#R#i S#T#C 6 + %   ",
"  $ {!|!,!N!U#V#W#i i i i i i i i i i X#i Y#Z#i i [#U C 6 * $   ",
"  $ {!]#?!^#_#`#a#i i i i i i i i b#i c#i i i i d#e#T B 6 * $   ",
"  # f#P g#h#i i#i#i i i j#k#i i i i i i i i i l#m#d S n#o#p##   ",
"    q#r#s#t#u#v#i i 4#w#x#y#i i i i i i i z#{#|#e }#h!~# $0     ",
"    ' !$#$$$%$&$i i '$($)$*$i i i i i i +$,$0!-$.$0$|!? 3 '     ",
"      1$2$3$4$5$6$7$8$9$i :$;$;$;$<$=$i i i >$?$q B P > 2       ",
"      1 @$A$B$C$i!D$E$F$G$H$$!$!$!$!I$J$K$L$M$} p a O = 1       ",
"        < N$I B$H#O$d e P$,#,#,#,#,#}!Q$R$@!,!p a ` N <         ",
"          M N$A$n#C ,!}#d N!N!N!N!N!N!i!} ?!+!a o _ M           ",
"            < @$S$~#T$C ?!,!,!,!,!,!,!h!R!>!*!| = <             ",
"              1 1$!$r#P ]#|!|!|!|!|!|!g!I =!)!{ 1               ",
"                  ' q#f#{!{!+#8#8#+#{!f!Q!0 '                   ",
"                      # $ $ % 7#7#% $ $ #                       ",
"                                                                "};