/* XPM */ 
static const unsigned char * fish___shark_xpm[] = {
"32 32 284 2",
"  	c None",
"! 	c black",
"# 	c #74ADD7",
"$ 	c #5A7A93",
"% 	c #587A93",
"& 	c #21768F",
"' 	c #648EAE",
"( 	c #377992",
") 	c #227F9B",
"* 	c #09B7E6",
"+ 	c #09B8E7",
", 	c #06C0F2",
"- 	c #08B7E6",
". 	c #217F9A",
"0 	c #71A8D0",
"1 	c #377993",
"2 	c #14A1C9",
"3 	c #10BDED",
"4 	c #15C2F3",
"5 	c #27C4F3",
"6 	c #1FC3F3",
"7 	c #12C2F3",
"8 	c #09BCED",
"9 	c #12A0C8",
": 	c #367993",
"; 	c #6590B0",
"< 	c #3088A7",
"= 	c #0CBCEC",
"> 	c #1CC3F3",
"? 	c #2BC4F3",
"@ 	c #3BC6F3",
"A 	c #46C7F4",
"B 	c #4BC8F4",
"C 	c #43AACE",
"D 	c #3B8EAB",
"E 	c #4AC6F2",
"F 	c #3EC6F3",
"G 	c #34C5F3",
"H 	c #24C4F3",
"I 	c #11C2F3",
"J 	c #07BBEC",
"K 	c #2F88A7",
"L 	c #568BAA",
"M 	c #149FC6",
"N 	c #15BDEC",
"O 	c #29C4F3",
"P 	c #3CC6F3",
"Q 	c #4CC8F4",
"R 	c #56CAF4",
"S 	c #5CCBF4",
"T 	c #60CCF5",
"U 	c #60CAF2",
"V 	c #395D6B",
"W 	c #314148",
"X 	c #5FC8F0",
"Y 	c #57CAF4",
"Z 	c #52C9F4",
"[ 	c #45C7F4",
"] 	c #33C5F3",
"^ 	c #0ABBEC",
"_ 	c #139FC6",
"` 	c #15A0C6",
"a 	c #14C2F3",
"b 	c #31C5F3",
"c 	c #55CAF4",
"d 	c #5FCCF5",
"e 	c #66CDF5",
"f 	c #6ECFF5",
"g 	c #71D0F5",
"h 	c #63B1D0",
"i 	c #282829",
"j 	c #394F58",
"k 	c #70CDF2",
"l 	c #69CEF5",
"m 	c #62CCF5",
"n 	c #5BCBF4",
"o 	c #4DC8F4",
"p 	c #3CC6F4",
"q 	c #23C4F3",
"r 	c #0AC1F2",
"s 	c #16BDEC",
"t 	c #48C8F4",
"u 	c #58CAF4",
"v 	c #65CDF5",
"w 	c #76D1F6",
"x 	c #7BD2F6",
"y 	c #80D1F3",
"z 	c #45616D",
"{ 	c #537B8C",
"| 	c #81D4F6",
"} 	c #7FD3F6",
"~ 	c #79D2F6",
" !	c #72D0F5",
"!!	c #377A93",
"#!	c #10BDEC",
"$!	c #67CDF5",
"%!	c #85D4F6",
"&!	c #8AD6F7",
"'!	c #7DB7D2",
"(!	c #5B7D8D",
")!	c #91D8F7",
"*!	c #8ED7F7",
"+!	c #88D5F7",
",!	c #80D3F6",
"-!	c #77D1F6",
".!	c #6DCFF5",
"0!	c #61CCF5",
"1!	c #0CA5CF",
"2!	c #3A6C81",
"3!	c #17A2C9",
"4!	c #21C3F3",
"5!	c #43C7F4",
"6!	c #7ED3F6",
"7!	c #96D7F4",
"8!	c #4F646F",
"9!	c #374146",
":!	c #9CD8F3",
";!	c #9CDBF8",
"<!	c #95D9F7",
"=!	c #83D4F6",
">!	c #78D1F6",
"?!	c #4CC2EC",
"@!	c #2C7085",
"A!	c #214550",
"B!	c #168FB2",
"C!	c #16BEED",
"D!	c #35C5F3",
"E!	c #7DD3F6",
"F!	c #89D6F7",
"G!	c #92D4F2",
"H!	c #89BED6",
"I!	c #62808E",
"J!	c #4F6169",
"K!	c #50626B",
"L!	c #658695",
"M!	c #86BDD6",
"N!	c #8CD3F2",
"O!	c #4F9EBC",
"P!	c #244853",
"Q!	c #24809B",
"R!	c #6ACEF5",
"S!	c #7AD2F6",
"T!	c #86D5F7",
"U!	c #7FB7D0",
"V!	c #495D66",
"W!	c #485C66",
"X!	c #75AEC8",
"Y!	c #7DCEF0",
"Z!	c #68B8D8",
"[!	c #2E393E",
"]!	c #2B383E",
"^!	c #32B1DA",
"_!	c #11B8E6",
"`!	c #30C5F3",
"a!	c #7AB5D0",
"b!	c #333B40",
"c!	c #272729",
"d!	c #445B66",
"e!	c #415B66",
"f!	c #3C758A",
"g!	c #16B9E6",
"h!	c #79D1F6",
"i!	c #73B5D1",
"j!	c #323A3F",
"k!	c #4A91AC",
"l!	c #16B9E7",
"m!	c #79D0F4",
"n!	c #3B4D56",
"o!	c #292A2C",
"p!	c #282828",
"q!	c #28292A",
"r!	c #4C6F7E",
"s!	c #4A7384",
"t!	c #30464F",
"u!	c #227790",
"v!	c #13C2F3",
"w!	c #4A7283",
"x!	c #475C66",
"y!	c #5A7C8C",
"z!	c #343D42",
"{!	c #74BCDB",
"|!	c #237790",
"}!	c #1EC3F3",
"~!	c #44C7F4",
" #	c #62B5D5",
"!#	c #30383D",
"##	c #32393C",
"$#	c #71A3B9",
"%#	c #4E6976",
"&#	c #77BDDB",
"'#	c #51C9F4",
"(#	c #32C5F3",
")#	c #0DC1F2",
"*#	c #217790",
"+#	c #32454D",
",#	c #2D3133",
"-#	c #618899",
".#	c #43565F",
"0#	c #526F7C",
"1#	c #6690A3",
"2#	c #3A4247",
"3#	c #8EC4DC",
"4#	c #90D6F6",
"5#	c #314249",
"6#	c #54717F",
"7#	c #8ED3F1",
"8#	c #343D41",
"9#	c #3F4A4F",
":#	c #7BA6BA",
";#	c #39C6F3",
"<#	c #54A4C2",
"=#	c #2C3438",
">#	c #81BDD8",
"?#	c #303539",
"@#	c #2B2D2E",
"A#	c #3E4F58",
"B#	c #629FB8",
"C#	c #26809B",
"D#	c #477487",
"E#	c #5E7C8A",
"F#	c #5F7783",
"G#	c #546872",
"H#	c #2E3234",
"I#	c #2A2C2E",
"J#	c #354D57",
"K#	c #50B7DD",
"L#	c #397A92",
"M#	c #1EBFED",
"N#	c #3DC6F3",
"O#	c #41839B",
"P#	c #292D2F",
"Q#	c #2E363A",
"R#	c #3D525C",
"S#	c #292829",
"T#	c #292828",
"U#	c #292929",
"V#	c #3D4549",
"W#	c #748F9C",
"X#	c #A0CFE5",
"Y#	c #A6DEF8",
"Z#	c #9EDCF8",
"[#	c #86C1DB",
"]#	c #77B9D5",
"^#	c #6DB6D5",
"_#	c #62B4D4",
"`#	c #56B1D4",
"a#	c #49C0E9",
"b#	c #1DA3C9",
"c#	c #28809B",
"d#	c #292C2F",
"e#	c #3D6677",
"f#	c #63B7D8",
"g#	c #74CAED",
"h#	c #72B3CF",
"i#	c #547787",
"j#	c #475B65",
"k#	c #495C65",
"l#	c #4F626C",
"m#	c #8CBBD0",
"n#	c #99CCE3",
"o#	c #A7DFF8",
"p#	c #A3DDF8",
"q#	c #9BDBF8",
"r#	c #3D5A69",
"s#	c #224F5C",
"t#	c #3495B5",
"u#	c #4FC2EB",
"v#	c #8BD6F7",
"w#	c #92D8F7",
"x#	c #98DAF8",
"y#	c #8FD7F7",
"z#	c #70A6CF",
"{#	c #3489A6",
"|#	c #26BFEC",
"}#	c #3DC6F4",
"~#	c #54C9F4",
" $	c #76D1F5",
"!$	c #82D4F6",
"#$	c #1AA1C6",
"$$	c #5DCBF4",
"%$	c #75D1F5",
"&$	c #3489A7",
"'$	c #18BEEC",
"($	c #397A93",
"                                                                ",
"                      # $ $ % & & % $ $ #                       ",
"                  ' ( ) * * + , , + * - . ( '                   ",
"              0 1 2 3 4 5 5 5 5 5 5 5 6 7 8 9 : 0               ",
"            ; < = > ? @ A B B C D E B F G H I J K ;             ",
"          L M N O P Q R S T U V W X T Y Z [ ] 6 ^ _ L           ",
"        ; ` a b A c d e f g h i j k g l m n o p q r _ ;         ",
"      0 < s b t u v f w x y z i { | } ~  !l d Z p q ^ K 0       ",
"      !!#!b t n $! !x %!&!'!i i (!)!*!+!,!-!.!0!Z p 6 1!2!      ",
"    ' 3!4!5!Y $! !6!+!)!7!8!i i 9!:!;!<!*!=!>!.!d ?!@!A!B!'     ",
"    ( C!D!Z m g E!F!G!H!I!i i i i J!K!L!M!N!=!-!l O!i P!8 (     ",
"  # Q!H [ n R!S!T!U!V!i i i i i i i i i i W!X!Y!Z![!]!^!7 . #   ",
"  $ _!`!Q 0! !| a!b!i i i i i i i i i i i i c!d!e!i f!F 6 - $   ",
"  $ g!P Y l h!i!j!i i i i i i i i i i i i i i i i i k!B 5 * $   ",
"  % l!P Y l m!n!i i i i i i o!i i i i i i p!i q!r!s!t!B 5 + %   ",
"  u!v!P Y l w!i i i i i i x!y!i i i i i i i i z!{!g T B 5 , &   ",
"  |!}!~!S  #!#i i i i i ##)!$#i i i i i i i i %#&#w v '#(#)#*#  ",
"  % l!P Y +#i i i i i i ,#-#.#i i i 0#1#i 2#3#4#| g T B 5 + %   ",
"  $ g!P Y 5#i i i i i i i i i i i i 6#7#8#9#:#)!| g T B 5 * $   ",
"  $ g!;#Z <#=#i i i i i i i i i i i 6#>#?#i @#A#B#f S A 5 * $   ",
"  # C#O B d D#i i i i i i i i i i i E#F#G#H#i i I#J#K#@ 4 ) #   ",
"    L#M#N#O#P#Q#R#S#T#i i U#i i V#W#X#Y#Z#[#]#^#_#`#a#? 3 (     ",
"    ' b#c#d#e#f#g#h#i#j#k#l#m#m#n#o#p#q#<!F!6! !v c P > 2 '     ",
"      r#s#t#u#0!.!>!| v#w#x#x#x#x#x#<!y#T!E! !$!u A O = 1       ",
"      z#{#|#}#~#0!.! $6!!$&!&!&!&!&!T!| S!g $!n t b N < 0       ",
"        ; #$H }#'#$$e f %$S!S!S!S!S!h! !R!m Y t b a M ;         ",
"          L #$|#@ B Y d e l l l l l l 0!n Z 5!b s ` L           ",
"            ; &$'$? N#B Z Y Y Y Y Y Y Q [ D!4!#!< ;             ",
"              0 ($b#M#O ;#P P P P P P `!H C!3!!!0               ",
"                  ' L#C#g!g!l!v!v!l!g!_!Q!( '                   ",
"                      # $ $ % u!u!% $ $ #                       ",
"                                                                "};