/* XPM */ 
static const unsigned char * fish___pelagic_xpm[] = {
"32 32 257 2",
"  	c None",
"! 	c black",
"# 	c #74ADD7",
"$ 	c #5A7A93",
"% 	c #587A93",
"& 	c #21768F",
"' 	c #648EAE",
"( 	c #377992",
") 	c #227F9B",
"* 	c #09B7E6",
"+ 	c #09B8E7",
", 	c #06C0F2",
"- 	c #08B7E6",
". 	c #217F9A",
"0 	c #71A8D0",
"1 	c #377993",
"2 	c #14A1C9",
"3 	c #10BDED",
"4 	c #15C2F3",
"5 	c #27C4F3",
"6 	c #1FC3F3",
"7 	c #12C2F3",
"8 	c #09BCED",
"9 	c #12A0C8",
": 	c #367993",
"; 	c #6590B0",
"< 	c #3088A7",
"= 	c #0CBCEC",
"> 	c #1CC3F3",
"? 	c #2BC4F3",
"@ 	c #3BC6F3",
"A 	c #46C7F4",
"B 	c #4BC8F4",
"C 	c #3EC6F3",
"D 	c #34C5F3",
"E 	c #24C4F3",
"F 	c #11C2F3",
"G 	c #07BBEC",
"H 	c #2F88A7",
"I 	c #568BAA",
"J 	c #149FC6",
"K 	c #15BDEC",
"L 	c #29C4F3",
"M 	c #3CC6F3",
"N 	c #4CC8F4",
"O 	c #56CAF4",
"P 	c #5CCBF4",
"Q 	c #60CCF5",
"R 	c #57CAF4",
"S 	c #52C9F4",
"T 	c #45C7F4",
"U 	c #33C5F3",
"V 	c #0ABBEC",
"W 	c #139FC6",
"X 	c #15A0C6",
"Y 	c #14C2F3",
"Z 	c #31C5F3",
"[ 	c #55CAF4",
"] 	c #5FCCF5",
"^ 	c #66CDF5",
"_ 	c #6ECFF5",
"` 	c #71D0F5",
"a 	c #69CEF5",
"b 	c #62CCF5",
"c 	c #5BCBF4",
"d 	c #4DC8F4",
"e 	c #3CC6F4",
"f 	c #23C4F3",
"g 	c #0AC1F2",
"h 	c #16BDEC",
"i 	c #48C8F4",
"j 	c #58CAF4",
"k 	c #65CDF5",
"l 	c #76D1F6",
"m 	c #7BD2F6",
"n 	c #81D4F6",
"o 	c #7FD3F6",
"p 	c #79D2F6",
"q 	c #72D0F5",
"r 	c #377A93",
"s 	c #10BDEC",
"t 	c #67CDF5",
"u 	c #85D4F6",
"v 	c #8AD6F7",
"w 	c #91D8F7",
"x 	c #8ED7F7",
"y 	c #88D5F7",
"z 	c #80D3F6",
"{ 	c #77D1F6",
"| 	c #6DCFF5",
"} 	c #61CCF5",
"~ 	c #17A2C9",
" !	c #21C3F3",
"!!	c #43C7F4",
"#!	c #7ED3F6",
"$!	c #84D0F0",
"%!	c #7EBAD4",
"&!	c #99DAF8",
"'!	c #9FDCF8",
"(!	c #9CDBF8",
")!	c #95D9F7",
"*!	c #83D4F6",
"+!	c #78D1F6",
",!	c #16BEED",
"-!	c #35C5F3",
".!	c #7DD3F6",
"0!	c #89D6F7",
"1!	c #79ADC5",
"2!	c #2C2F31",
"3!	c #799FB0",
"4!	c #ABE0F9",
"5!	c #ADE1F9",
"6!	c #A8DFF8",
"7!	c #8EC2D9",
"8!	c #6E98AB",
"9!	c #8FD7F7",
":!	c #24809B",
";!	c #6ACEF5",
"<!	c #7AD2F6",
"=!	c #86D5F7",
">!	c #4C616B",
"?!	c #282829",
"@!	c #2C2E30",
"A!	c #85A3B1",
"B!	c #B2DAED",
"C!	c #BBE5FA",
"D!	c #84A4B3",
"E!	c #33373A",
"F!	c #7EA8BB",
"G!	c #99DBF8",
"H!	c #34C3F0",
"I!	c #16A8D1",
"J!	c #295E6F",
"K!	c #11B8E6",
"L!	c #30C5F3",
"M!	c #7FCFF1",
"N!	c #85C6E3",
"O!	c #648798",
"P!	c #363E42",
"Q!	c #495055",
"R!	c #64727A",
"S!	c #B8D7E6",
"T!	c #92A9B5",
"U!	c #2B2C2E",
"V!	c #5E7079",
"W!	c #ACE0F9",
"X!	c #A0DDF8",
"Y!	c #57C7F1",
"Z!	c #357A92",
"[!	c #22687C",
"]!	c #16B9E6",
"^!	c #65C5EA",
"_!	c #66ADCA",
"`!	c #435D68",
"a!	c #40464A",
"b!	c #A1CADE",
"c!	c #A2D7EF",
"d!	c #71CEF3",
"e!	c #477D92",
"f!	c #293338",
"g!	c #25AAD2",
"h!	c #16B9E7",
"i!	c #3BC4F1",
"j!	c #4BA7C8",
"k!	c #2D363B",
"l!	c #3A4247",
"m!	c #5D7986",
"n!	c #80BDD8",
"o!	c #64ADCA",
"p!	c #33697C",
"q!	c #227790",
"r!	c #13C2F3",
"s!	c #2B5E6F",
"t!	c #3B484E",
"u!	c #78AEC6",
"v!	c #32393D",
"w!	c #303A3F",
"x!	c #333F45",
"y!	c #3B8EAB",
"z!	c #237790",
"{!	c #1E5868",
"|!	c #4C6571",
"}!	c #476572",
"~!	c #3F8FAC",
" #	c #32C5F3",
"!#	c #0DC1F2",
"##	c #217790",
"$#	c #16B7E4",
"%#	c #34A1C4",
"&#	c #293134",
"'#	c #5A6E77",
"(#	c #6E94A5",
")#	c #8ED2F1",
"*#	c #80D2F5",
"+#	c #54C1E9",
",#	c #487B8F",
"-#	c #3F5A66",
".#	c #56666E",
"0#	c #AADEF6",
"1#	c #39C6F3",
"2#	c #73CCF0",
"3#	c #79C3E2",
"4#	c #7AB2CB",
"5#	c #556D79",
"6#	c #4B555A",
"7#	c #67737A",
"8#	c #BED9E6",
"9#	c #BBD8E6",
":#	c #B5D6E6",
";#	c #90ADBC",
"<#	c #5CC9F1",
"=#	c #377B92",
">#	c #246274",
"?#	c #0E9EC5",
"@#	c #26809B",
"A#	c #8BD6F7",
"B#	c #98DAF8",
"C#	c #638391",
"D#	c #819CA9",
"E#	c #BFE7FA",
"F#	c #C2E8FA",
"G#	c #B2E2F9",
"H#	c #81A8BB",
"I#	c #688C9D",
"J#	c #3BC3F0",
"K#	c #17A7CE",
"L#	c #2B5664",
"M#	c #397A92",
"N#	c #1EBFED",
"O#	c #3DC6F3",
"P#	c #76D1F5",
"Q#	c #8CC7E1",
"R#	c #425057",
"S#	c #A2D4EB",
"T#	c #B1E2F9",
"U#	c #B4E3F9",
"V#	c #AEE1F9",
"W#	c #A6DEF8",
"X#	c #9EDCF8",
"Y#	c #1DA3C9",
"Z#	c #5DCBF4",
"[#	c #8CC8E3",
"]#	c #A7DFF8",
"^#	c #A3DDF8",
"_#	c #9BDBF8",
"`#	c #397A93",
"a#	c #18BEEC",
"b#	c #51C9F4",
"c#	c #92D8F7",
"d#	c #3489A7",
"e#	c #26BFEC",
"f#	c #3DC6F4",
"g#	c #54C9F4",
"h#	c #82D4F6",
"i#	c #1AA1C6",
"j#	c #75D1F5",
"k#	c #79D1F6",
"                                                                ",
"                      # $ $ % & & % $ $ #                       ",
"                  ' ( ) * * + , , + * - . ( '                   ",
"              0 1 2 3 4 5 5 5 5 5 5 5 6 7 8 9 : 0               ",
"            ; < = > ? @ A B B B B B B C D E F G H ;             ",
"          I J K L M N O P Q Q Q Q Q Q R S T U 6 V W I           ",
"        ; X Y Z A [ ] ^ _ ` ` ` ` ` ` a b c d e f g W ;         ",
"      0 < h Z i j k _ l m n n n n n o p q a ] S e f V H 0       ",
"      r s Z i c t q m u v w w w w w x y z { | } S e 6 G :       ",
"    ' ~  !!!R t q #!$!%!&!'!'!'!'!'!(!)!x *!+!| ] d U F 9 '     ",
"    ( ,!-!S b ` .!0!1!2!3!4!5!5!5!5!6!7!8!9!*!{ a c T E 8 (     ",
"  # :!E T c ;!<!=!)!>!?!@!A!B!C!C!C!D!E!F!G!x z q b S H!I!J!#   ",
"  $ K!L!N } q M!N!O!P!?!?!?!Q!R!S!T!U!V!W!X!)!y p a Y!Z![!- $   ",
"  $ ]!M R ^!_!`!?!?!?!?!?!?!?!?!?!?!?!a!b!c!(!x o d!e!f!g!* $   ",
"  % h!i!j!k!?!?!?!?!?!?!?!?!?!?!?!?!?!?!?!l!m!n!M!o!?!p!5 + %   ",
"  q!r!s!t!u!v!?!?!?!?!?!?!?!?!?!?!?!?!?!?!?!?!?!w!x!?!y!5 , &   ",
"  z!{!?!t!|!?!?!?!?!?!?!?!?!?!?!?!?!?!?!?!?!?!?!}!x!?!~! #!###  ",
"  % $#%#&#?!?!?!?!?!?!?!?!?!?!?!?!?!?!?!?!'#(#)#*#o!?!p!5 + %   ",
"  $ ]!M +#,#-#?!?!?!?!?!?!?!?!?!?!?!?!?!.#0#'!w n d!e!f!g!* $   ",
"  $ ]!1#S ^ 2#3#4#5#P!?!6#R!7#7#8#9#:#;#E!3!&!v m _ <#=#>#?#$   ",
"  # @#L B ] _ #!A#B#C#?!D#E#F#F#F#F#C!G#H#I#w u l ^ O J#K#L##   ",
"    M#N#O#R ^ P#n 9!Q#R#S#T#U#U#U#U#V#W#X#)!y m _ ] N ? 3 (     ",
"    ' Y#? B Z#| +!u 9![#'!W#]#]#]#]#^#_#)!0!#!q k [ M > 2 '     ",
"      `#a#@ b#} | +!n A#c#B#B#B#B#B#)!9!=!.!q t j A L = 1       ",
"      0 d#e#f#g#} | P##!h#v v v v v =!n <!` t c i Z K < 0       ",
"        ; i#E f#b#Z#^ _ j#<!<!<!<!<!k#q ;!b R i Z Y J ;         ",
"          I i#e#@ B R ] ^ a a a a a a } c S !!Z h X I           ",
"            ; d#a#? O#B S R R R R R R N T -! !s < ;             ",
"              0 `#Y#N#L 1#M M M M M M L!E ,!~ r 0               ",
"                  ' M#@#]!]!h!r!r!h!]!K!:!( '                   ",
"                      # $ $ % q!q!% $ $ #                       ",
"                                                                "};