/* XPM */ 
static const unsigned char * fish___whale_xpm[] = {
"32 32 261 2",
"  	c None",
"! 	c black",
"# 	c #74ADD7",
"$ 	c #5A7A93",
"% 	c #587A93",
"& 	c #21768F",
"' 	c #648EAE",
"( 	c #377992",
") 	c #227F9B",
"* 	c #09B7E6",
"+ 	c #09B8E7",
", 	c #06C0F2",
"- 	c #08B7E6",
". 	c #217F9A",
"0 	c #71A8D0",
"1 	c #377993",
"2 	c #14A1C9",
"3 	c #10BDED",
"4 	c #15C2F3",
"5 	c #27C4F3",
"6 	c #1FC3F3",
"7 	c #12C2F3",
"8 	c #09BCED",
"9 	c #12A0C8",
": 	c #367993",
"; 	c #6590B0",
"< 	c #3088A7",
"= 	c #0CBCEC",
"> 	c #1CC3F3",
"? 	c #2BC4F3",
"@ 	c #3BC6F3",
"A 	c #46C7F4",
"B 	c #4BC8F4",
"C 	c #3EC6F3",
"D 	c #34C5F3",
"E 	c #24C4F3",
"F 	c #11C2F3",
"G 	c #07BBEC",
"H 	c #2F88A7",
"I 	c #568BAA",
"J 	c #149FC6",
"K 	c #15BDEC",
"L 	c #29C4F3",
"M 	c #3CC6F3",
"N 	c #4CC8F4",
"O 	c #56CAF4",
"P 	c #5CCBF4",
"Q 	c #60CCF5",
"R 	c #57CAF4",
"S 	c #52C9F4",
"T 	c #45C7F4",
"U 	c #33C5F3",
"V 	c #0ABBEC",
"W 	c #139FC6",
"X 	c #15A0C6",
"Y 	c #14C2F3",
"Z 	c #31C5F3",
"[ 	c #55CAF4",
"] 	c #5FCCF5",
"^ 	c #66CDF5",
"_ 	c #6ECFF5",
"` 	c #71D0F5",
"a 	c #69CEF5",
"b 	c #62CCF5",
"c 	c #5BCBF4",
"d 	c #4DC8F4",
"e 	c #3CC6F4",
"f 	c #23C4F3",
"g 	c #0AC1F2",
"h 	c #16BDEC",
"i 	c #48C8F4",
"j 	c #58CAF4",
"k 	c #65CDF5",
"l 	c #76D1F6",
"m 	c #7BD2F6",
"n 	c #81D4F6",
"o 	c #7FD3F6",
"p 	c #79D2F6",
"q 	c #72D0F5",
"r 	c #377A93",
"s 	c #10BDEC",
"t 	c #67CDF5",
"u 	c #85D4F6",
"v 	c #8AD6F7",
"w 	c #91D8F7",
"x 	c #8ED7F7",
"y 	c #88D5F7",
"z 	c #80D3F6",
"{ 	c #77D1F6",
"| 	c #6DCFF5",
"} 	c #61CCF5",
"~ 	c #17A2C9",
" !	c #21C3F3",
"!!	c #43C7F4",
"#!	c #7ED3F6",
"$!	c #99DAF8",
"%!	c #9FDCF8",
"&!	c #9CDBF8",
"'!	c #95D9F7",
"(!	c #83D4F6",
")!	c #78D1F6",
"*!	c #16BEED",
"+!	c #35C5F3",
",!	c #7DD3F6",
"-!	c #89D6F7",
".!	c #9DDCF8",
"0!	c #A4DEF8",
"1!	c #ABE0F9",
"2!	c #ADE1F9",
"3!	c #A8DFF8",
"4!	c #A0DDF8",
"5!	c #99DBF8",
"6!	c #8FD7F7",
"7!	c #24809B",
"8!	c #6ACEF5",
"9!	c #7AD2F6",
":!	c #86D5F7",
";!	c #9EDCF8",
"<!	c #B1E2F9",
"=!	c #B8E4F9",
">!	c #BBE5FA",
"?!	c #B4E3F9",
"@!	c #ACE0F9",
"A!	c #9DD5EE",
"B!	c #8AC3DD",
"C!	c #80C0DC",
"D!	c #76C2E2",
"E!	c #11B8E6",
"F!	c #2EB7E1",
"G!	c #367085",
"H!	c #3D6777",
"I!	c #446978",
"J!	c #4A6A78",
"K!	c #4E6B78",
"L!	c #536D79",
"M!	c #85AEC2",
"N!	c #A4D0E5",
"O!	c #ADD3E5",
"P!	c #B4D5E6",
"Q!	c #C1E1F1",
"R!	c #C8EAFB",
"S!	c #C7E9FB",
"T!	c #C0E7FA",
"U!	c #7E9FAF",
"V!	c #282829",
"W!	c #272729",
"X!	c #30393D",
"Y!	c #476978",
"Z!	c #416878",
"[!	c #3A6677",
"]!	c #2F6577",
"^!	c #1F6377",
"_!	c #108FB2",
"`!	c #17B5E1",
"a!	c #27363B",
"b!	c #4F5559",
"c!	c #9EB0B9",
"d!	c #D6EFFB",
"e!	c #D3EEFB",
"f!	c #CAEAFB",
"g!	c #88A5B4",
"h!	c #29292B",
"i!	c #26353B",
"j!	c #0F9CC3",
"k!	c #197892",
"l!	c #282828",
"m!	c #E0F0F9",
"n!	c #DEF2FC",
"o!	c #7B9BAA",
"p!	c #384044",
"q!	c #28292A",
"r!	c #29353A",
"s!	c #25A8CF",
"t!	c #227790",
"u!	c #16819E",
"v!	c #56585A",
"w!	c #5D7F8E",
"x!	c #416573",
"y!	c #457C92",
"z!	c #43ACD1",
"{!	c #237790",
"|!	c #1C819E",
"}!	c #B0BBC0",
"~!	c #DAF0FB",
" #	c #CCEBFB",
"!#	c #BFE6FA",
"##	c #A3DDF8",
"$#	c #7AACC2",
"%#	c #5D9FBA",
"&#	c #51C9F4",
"'#	c #32C5F3",
"(#	c #0DC1F2",
")#	c #217790",
"*#	c #42535C",
"+#	c #76ABC3",
",#	c #2A2A2C",
"-#	c #A1B4BD",
".#	c #C8EAFA",
"0#	c #90C5DD",
"1#	c #374146",
"2#	c #5A9EBA",
"3#	c #53717E",
"4#	c #638B9D",
"5#	c #374247",
"6#	c #2C2D2E",
"7#	c #515B60",
"8#	c #7D96A2",
"9#	c #60757F",
":#	c #2D3032",
";#	c #394B54",
"<#	c #70CDF1",
"=#	c #17B3DE",
">#	c #27353A",
"?#	c #4A7080",
"@#	c #26809B",
"A#	c #25363C",
"B#	c #2F373B",
"C#	c #67B4D3",
"D#	c #397A92",
"E#	c #205F71",
"F#	c #272E31",
"G#	c #30383C",
"H#	c #66A9C5",
"I#	c #1DA3C9",
"J#	c #28AAD1",
"K#	c #42A9CC",
"L#	c #52ABCD",
"M#	c #5FAECD",
"N#	c #67B0CE",
"O#	c #72B3CF",
"P#	c #79B5CF",
"Q#	c #81B7CF",
"R#	c #87B9CF",
"S#	c #8CBBD0",
"T#	c #8ABAD0",
"U#	c #84B8CF",
"V#	c #7EB6CF",
"W#	c #75B4CF",
"X#	c #72BBDA",
"Y#	c #397A93",
"Z#	c #18BEEC",
"[#	c #8BD6F7",
"]#	c #92D8F7",
"^#	c #98DAF8",
"_#	c #3489A7",
"`#	c #26BFEC",
"a#	c #3DC6F4",
"b#	c #54C9F4",
"c#	c #76D1F5",
"d#	c #82D4F6",
"e#	c #1AA1C6",
"f#	c #5DCBF4",
"g#	c #75D1F5",
"h#	c #79D1F6",
"i#	c #3DC6F3",
"j#	c #1EBFED",
"k#	c #39C6F3",
"l#	c #30C5F3",
"m#	c #16B9E6",
"n#	c #16B9E7",
"o#	c #13C2F3",
"                                                                ",
"                      # $ $ % & & % $ $ #                       ",
"                  ' ( ) * * + , , + * - . ( '                   ",
"              0 1 2 3 4 5 5 5 5 5 5 5 6 7 8 9 : 0               ",
"            ; < = > ? @ A B B B B B B C D E F G H ;             ",
"          I J K L M N O P Q Q Q Q Q Q R S T U 6 V W I           ",
"        ; X Y Z A [ ] ^ _ ` ` ` ` ` ` a b c d e f g W ;         ",
"      0 < h Z i j k _ l m n n n n n o p q a ] S e f V H 0       ",
"      r s Z i c t q m u v w w w w w x y z { | } S e 6 G :       ",
"    ' ~  !!!R t q #!y w $!%!%!%!%!%!&!'!x (!)!| ] d U F 9 '     ",
"    ( *!+!S b ` ,!-!'!.!0!1!2!2!2!2!3!4!5!6!(!{ a c T E 8 (     ",
"  # 7!E T c 8!9!:!'!;!3!<!=!>!>!>!>!?!@!A!B!C!D!q b S D 7 . #   ",
"  $ E!F!G!H!I!J!K!L!M!N!O!P!Q!R!R!S!T!=!U!V!W!X!Y!Z![!]!^!_!$   ",
"  $ `!a!V!V!V!V!V!V!V!V!V!V!b!c!d!e!f!T!g!h!V!V!V!V!V!V!i!j!$   ",
"  % k!V!V!l!V!V!V!V!V!V!V!V!V!V!m!n!e!S!>!o!p!q!V!V!V!r!s!+ %   ",
"  t!u!V!V!V!V!V!V!V!V!V!V!V!V!V!v!m!d!R!>!2!%!w!V!x!y!z!5 , &   ",
"  {!|!V!V!V!V!V!V!V!V!V!V!V!V!V!V!}!~! #!#<!##$#V!%#k &#'#(#)#  ",
"  % k!V!V!V!V!*#+#V!V!V!V!V!V!V!V!,#-#.#>!2!0#1#V!2#Q B 5 + %   ",
"  $ k!V!V!V!V!3#4#5#V!V!V!V!V!V!V!V!6#7#8#9#:#V!;#<#Q B 5 * $   ",
"  $ =#>#V!V!V!V!V!V!V!V!V!V!V!V!V!V!V!V!V!V!V!V!?#_ P A 5 * $   ",
"  # @#A#V!V!V!V!V!V!V!V!V!V!V!V!V!V!V!V!V!V!V!B#C#^ O @ 4 ) #   ",
"    D#E#F#V!V!V!V!V!l!V!V!V!V!V!V!V!V!V!V!V!G#H#_ ] N ? 3 (     ",
"    ' I#J#K#L#M#N#O#P#Q#R#S#S#S#S#S#T#U#V#W#X#q k [ M > 2 '     ",
"      Y#Z#@ &#} | )!n [#]#^#^#^#^#^#'!6!:!,!q t j A L = 1       ",
"      0 _#`#a#b#} | c##!d#v v v v v :!n 9!` t c i Z K < 0       ",
"        ; e#E a#&#f#^ _ g#9!9!9!9!9!h#q 8!b R i Z Y J ;         ",
"          I e#`#@ B R ] ^ a a a a a a } c S !!Z h X I           ",
"            ; _#Z#? i#B S R R R R R R N T +! !s < ;             ",
"              0 Y#I#j#L k#M M M M M M l#E *!~ r 0               ",
"                  ' D#@#m#m#n#o#o#n#m#E!7!( '                   ",
"                      # $ $ % t!t!% $ $ #                       ",
"                                                                "};