/* XPM */ 
static const unsigned char * fish___reef_xpm[] = {
"32 32 291 2",
"  	c None",
"! 	c black",
"# 	c #76B1DC",
"$ 	c #5A7A93",
"% 	c #6590B0",
"& 	c #557D98",
"' 	c #25778F",
"( 	c #237B95",
") 	c #06B6E6",
"* 	c #25768F",
"+ 	c #658FB0",
", 	c #397A93",
"- 	c #159FC6",
". 	c #0CB5E2",
"0 	c #12C2F3",
"1 	c #12C2F2",
"2 	c #0DC1F2",
"3 	c #0AB4E2",
"4 	c #139FC6",
"5 	c #387A93",
"6 	c #71A7D0",
"7 	c #387993",
"8 	c #15A0C6",
"9 	c #10BCEB",
": 	c #1BC3F3",
"; 	c #28C4F3",
"< 	c #38C6F3",
"= 	c #3BC6F3",
"> 	c #2FC5F3",
"? 	c #23C4F3",
"@ 	c #13C2F3",
"A 	c #0ABBEB",
"B 	c #71A7CF",
"C 	c #3089A7",
"D 	c #09BBEB",
"E 	c #15C2F3",
"F 	c #2AC4F3",
"G 	c #3CC6F3",
"H 	c #4AC8F4",
"I 	c #52C9F4",
"J 	c #56CAF4",
"K 	c #4BC8F4",
"L 	c #44C7F4",
"M 	c #34C5F3",
"N 	c #20C3F3",
"O 	c #0EC1F2",
"P 	c #05BAEB",
"Q 	c #2F88A7",
"R 	c #0CBCEB",
"S 	c #3AC6F3",
"T 	c #57CAF4",
"U 	c #5FCBF5",
"V 	c #65CDF5",
"W 	c #69CEF5",
"X 	c #61CCF5",
"Y 	c #5BCBF4",
"Z 	c #42C7F4",
"[ 	c #30C5F3",
"] 	c #07BBEB",
"^ 	c #71A8D0",
"_ 	c #36758D",
"` 	c #0CBCEC",
"a 	c #3CC6F4",
"b 	c #50C9F4",
"c 	c #5DCBF4",
"d 	c #66CDF5",
"e 	c #6ECFF5",
"f 	c #68B6D5",
"g 	c #60A0BA",
"h 	c #384D57",
"i 	c #4C788A",
"j 	c #6DB9D9",
"k 	c #79D1F6",
"l 	c #71D0F5",
"m 	c #62CCF5",
"n 	c #47C8F4",
"o 	c #31C5F3",
"p 	c #06BBEB",
"q 	c #52809B",
"r 	c #14A0C6",
"s 	c #53C9F4",
"t 	c #60CCF5",
"u 	c #6DCFF5",
"v 	c #72CAEE",
"w 	c #4B7283",
"x 	c #30383D",
"y 	c #282829",
"z 	c #323C41",
"{ 	c #3E545E",
"| 	c #4E7687",
"} 	c #76CCF0",
"~ 	c #48C8F4",
" !	c #0F9FC6",
"!!	c #72AAD3",
"#!	c #24829F",
"$!	c #16C2F3",
"%!	c #74CBEE",
"&!	c #4A6E7D",
"'!	c #4E7282",
"(!	c #71BCDB",
")!	c #72D0F5",
"*!	c #67CDF5",
"+!	c #58CAF4",
",!	c #46C7F4",
"-!	c #09C1F2",
".!	c #22829E",
"0!	c #537D97",
"1!	c #12B6E3",
"2!	c #2BC4F3",
"3!	c #69C8ED",
"4!	c #5FA2BD",
"5!	c #31393E",
"6!	c #6AAECA",
"7!	c #54C9F4",
"8!	c #09B4E3",
"9!	c #27778F",
":!	c #1CC3F3",
";!	c #3DC6F3",
"<!	c #63C7ED",
"=!	c #436776",
">!	c #3E535D",
"?!	c #72C1E2",
"@!	c #5FCCF5",
"A!	c #4CC8F4",
"B!	c #6691B2",
"C!	c #169FC5",
"D!	c #29C4F3",
"E!	c #5DC6EE",
"F!	c #3F6675",
"G!	c #272729",
"H!	c #76D1F6",
"I!	c #14C2F3",
"J!	c #129EC4",
"K!	c #16B9E6",
"L!	c #39C6F3",
"M!	c #3C6576",
"N!	c #3B484E",
"O!	c #587988",
"P!	c #292B2C",
"Q!	c #313A3F",
"R!	c #6DB8D7",
"S!	c #5CCBF4",
"T!	c #45C7F4",
"U!	c #27C4F3",
"V!	c #09B7E6",
"W!	c #3BC4F1",
"X!	c #4BA7C8",
"Y!	c #2C3337",
"Z!	c #5A7C8C",
"[!	c #81BDD8",
"]!	c #353F44",
"^!	c #282828",
"_!	c #68A7C1",
"`!	c #28C1EF",
"a!	c #0AB3E0",
"b!	c #3D7992",
"c!	c #15BEED",
"d!	c #2F88A5",
"e!	c #4E93AD",
"f!	c #39758B",
"g!	c #2A454F",
"h!	c #272D30",
"i!	c #3C7891",
"j!	c #237790",
"k!	c #1EC3F3",
"l!	c #3489A5",
"m!	c #496977",
"n!	c #344147",
"o!	c #14809E",
"p!	c #217790",
"q!	c #3B7891",
"r!	c #3CC4F1",
"s!	c #3A5A67",
"t!	c #147C98",
"u!	c #68CAF1",
"v!	c #466B7A",
"w!	c #25353B",
"x!	c #0AB3E1",
"y!	c #77CDF0",
"z!	c #6FADC7",
"{!	c #31393D",
"|!	c #3B4A52",
"}!	c #25363C",
"~!	c #74ADD7",
" #	c #2B809B",
"!#	c #4DC8F4",
"##	c #81D4F6",
"$#	c #77B1CB",
"%#	c #475A64",
"&#	c #32393E",
"'#	c #76B6D2",
"(#	c #4B6D7C",
")#	c #1D7C97",
"*#	c #237F9B",
"+#	c #28778F",
",#	c #25C4F3",
"-#	c #6ACEF5",
".#	c #7AD2F6",
"0#	c #87D5F7",
"1#	c #7FB6CF",
"2#	c #2C2D2F",
"3#	c #516067",
"4#	c #537787",
"5#	c #80D3F6",
"6#	c #70CAEE",
"7#	c #406B7C",
"8#	c #1586A4",
"9#	c #5A8DAC",
":#	c #21A6CC",
";#	c #35C5F3",
"<#	c #63CCF5",
"=#	c #7DD3F6",
">#	c #85CFEF",
"?#	c #42555E",
"@#	c #688593",
"A#	c #AADEF6",
"B#	c #6B8693",
"C#	c #506F7D",
"D#	c #7FCDEF",
"E#	c #77D1F6",
"F#	c #5AC5ED",
"G#	c #347085",
"H#	c #27383D",
"I#	c #1F697E",
"J#	c #3B7A93",
"K#	c #23BFEC",
"L#	c #73D0F5",
"M#	c #7FD3F6",
"N#	c #6FACC6",
"O#	c #343D42",
"P#	c #78A7BC",
"Q#	c #A0DCF8",
"R#	c #9FDBF6",
"S#	c #83B3C9",
"T#	c #45565E",
"U#	c #44555E",
"V#	c #577887",
"W#	c #75AFC8",
"X#	c #7FCEEF",
"Y#	c #78D1F6",
"Z#	c #4EC8F4",
"[#	c #15A7CF",
"]#	c #3A6C81",
"^#	c #648EAE",
"_#	c #1DA3C9",
"`#	c #68CEF5",
"a#	c #7CD2F6",
"b#	c #5E8FA4",
"c#	c #8AD6F7",
"d#	c #92D8F7",
"e#	c #8ED7F7",
"f#	c #89D5F7",
"g#	c #3DC6F4",
"h#	c #14A2C9",
"i#	c #578BAA",
"j#	c #21A8CF",
"k#	c #32C5F3",
"l#	c #49C8F4",
"m#	c #59CAF4",
"n#	c #6FCFF5",
"o#	c #7BD2F6",
"p#	c #82D4F6",
"q#	c #24C4F3",
"r#	c #16A7CF",
"s#	c #568BAA",
"t#	c #3A7992",
"u#	c #1AB2DD",
"v#	c #47C7F4",
"w#	c #55CAF4",
"x#	c #10B1DD",
"y#	c #397992",
"z#	c #70A6CE",
"{#	c #52829E",
"|#	c #3EC6F3",
"}#	c #21C3F3",
"~#	c #2785A1",
" $	c #21B8E4",
"!$	c #2CC5F3",
"#$	c #3EC6F4",
"$$	c #16B7E4",
"%$	c #2484A1",
"&$	c #71A8D1",
"'$	c #527D97",
"($	c #2A829D",
")$	c #19B9E6",
"*$	c #2AC1EE",
"+$	c #22C0EE",
",$	c #25829D",
"-$	c #73ABD5",
".$	c #397991",
"0$	c #247890",
"                                                                ",
"                          # $ $ $ $ #                           ",
"                    % & ' ( ) ) ) ) ( * & %                     ",
"                + , - . 0 0 0 0 0 1 0 2 3 4 5 +                 ",
"            6 7 8 9 : ; < = = = = = = > ? @ A 4 7 6             ",
"          B C D E F G H I J J J J J J K L M N O P Q B           ",
"        6 C R ? S K T U V W W W W W W X Y I Z [ @ ] Q 6         ",
"      ^ _ ` ? a b c d e f g h h i j k l W m J n o @ p _ ^       ",
"      q r ? a s t u v w x y y y y z { | } l d Y ~ o 0  !q       ",
"    !!#!$!S b t u %!&!y y y y y y y y y '!(!)!*!+!,!; -!.!!!    ",
"    0!1!2!K c 3!4!{ y y y y y y y y y y y 5!6!)!V 7!G : 8!0!    ",
"    9!:!;!T <!=!y y y y y y y y y y y y y y >!?!e @!A!F O *     ",
"  B!C!D!K E!F!y G!y y y y y y y y y y y y y G!{ H!d J = I!J!B!  ",
"  $ K!L!I M!y N!O!P!y y y y y y y y y y y y y Q!R!e S!T!U!V!$   ",
"  $ K!W!X!Y!y Z![!]!y y y y y y y y y y y ^!y y _!l t K `!a!$   ",
"  b!c!d!y y y y y y y y y y y y y y y y y y y y _!l e!f!g!h!i!  ",
"  j!k!l!y y y y y y y y y y y y y y y y y y y y m!n!y y y o!p!  ",
"  q!c!r!X!s!y y y y y y y y y y y y y y y y y y y y y y y t!q!  ",
"  $ K!G T u!v!y y y y y y y y y y y y y y y y y y y y y w!x!$   ",
"  $ K!G T W y!z!{!y y y y y y y y y y y y y y |!y y y y }!V!$   ",
"  ~! #o !#X )!##$#%#y y y y y y y y y y y y &#'#(#y y y )#*#~!  ",
"    +#,#,!S!-#.#0#1#^!y 2#3#y y y y y y y y 4#5#6#7#^!y 8#'     ",
"    9#:#;#s <#l =#>#?#y @#A#B#y y y y y y C#D#E#-#F#G#H#I#9#    ",
"      J#K#L T *!L#M#N#O#P#Q#R#S#T#T#U#V#W#X#Y#u @!Z#M [#]#      ",
"      ^#_#o ~ S!`#L#a#b#c#d#d#d#d#d#e#f#5#Y#u m s g#N h#^#      ",
"        i#j#k#l#m#d n#E#o#p#p#p#p#p#M#.#)!-#@!s g#q#r#s#        ",
"          t#u#k#v#w#t *!n#)!)!)!)!)!)!-#m S!Z#g#q#x#y#          ",
"          z#{#j#2!|#!#T c X X X X X X +!s ,!;#}#[#{#z#          ",
"              i#~# $!$G ,!A!A!A!A!A!A!#$;#,#$$%$s#              ",
"                &$'$($)$*$D!D!D!D!D!D!+$K!,$'$&$                ",
"                    -$$ .$0$0$0$0$0$0$.$$ -$                    ",
"                                                                "};