/* XPM */ 
static const unsigned char * hazard___coral_xpm[] = {
"32 32 490 2",
"  	c None",
"! 	c black",
"# 	c #74ADD7",
"$ 	c #5A7A93",
"% 	c #5C7A90",
"& 	c #938033",
"' 	c #648EAE",
"( 	c #7E7F58",
") 	c #9B8A36",
"* 	c #F2CB25",
"+ 	c #F2CC25",
", 	c #FFD624",
"- 	c #9B8936",
". 	c #71A8D0",
"0 	c #7F8058",
"1 	c #CFB12D",
"2 	c #F8D124",
"3 	c #FFD724",
"4 	c #F8D026",
"5 	c #C09248",
"6 	c #D0B86F",
"7 	c #E7C744",
"8 	c #FFD723",
"9 	c #F8D125",
": 	c #7F7F58",
"; 	c #6590B0",
"< 	c #969153",
"= 	c #FFD823",
"> 	c #FAD424",
"? 	c #9C6B37",
"@ 	c #D6A975",
"A 	c #D2B57A",
"B 	c #D3B957",
"C 	c #FED923",
"D 	c #FFD922",
"E 	c #F9D42F",
"F 	c #F0CB46",
"G 	c #C29C54",
"H 	c #C3A153",
"I 	c #708D94",
"J 	c #CCAF2E",
"K 	c #F7D124",
"L 	c #E2C23B",
"M 	c #E3C64D",
"N 	c #F0CF3A",
"O 	c #FFDA22",
"P 	c #FFDA21",
"Q 	c #EEC72A",
"R 	c #CA9099",
"S 	c #B77447",
"T 	c #B6996C",
"U 	c #F1D032",
"V 	c #FFDB21",
"W 	c #ECC646",
"X 	c #E0BA95",
"Y 	c #C19457",
"Z 	c #E7BE5A",
"[ 	c #F7D025",
"] 	c #CCB02E",
"^ 	c #D4B950",
"_ 	c #D2B27A",
"` 	c #CDB56D",
"a 	c #F1D137",
"b 	c #FFDC20",
"c 	c #FCD928",
"d 	c #D2A38F",
"e 	c #984F35",
"f 	c #B78255",
"g 	c #D4B754",
"h 	c #FDDB21",
"i 	c #FFDC21",
"j 	c #D6A388",
"k 	c #A05952",
"l 	c #C69056",
"m 	c #F2CC62",
"n 	c #F7D435",
"o 	c #D5B78E",
"p 	c #B5966A",
"q 	c #DCC27A",
"r 	c #DAC15E",
"s 	c #F6D634",
"t 	c #CFA080",
"u 	c #C17556",
"v 	c #AC673D",
"w 	c #CFAA66",
"x 	c #FAD923",
"y 	c #FFDE20",
"z 	c #C4877E",
"{ 	c #974A46",
"| 	c #C89157",
"} 	c #FAD267",
"~ 	c #FFD822",
" !	c #F6D53A",
"!!	c #CDAA47",
"#!	c #F0CC82",
"$!	c #DCC279",
"%!	c #BE974B",
"&!	c #C69B51",
"'!	c #D19461",
"(!	c #A55C37",
")!	c #E0BF86",
"*!	c #EDD35B",
"+!	c #FFDF1F",
",!	c #90442F",
"-!	c #964E38",
".!	c #DDAC68",
"0!	c #E6B855",
"1!	c #F8D42A",
"2!	c #F8D025",
"3!	c #CFB22D",
"4!	c #FFDD20",
"5!	c #F7D725",
"6!	c #D2B34C",
"7!	c #F4D19F",
"8!	c #DBB37A",
"9!	c #C49A47",
":!	c #ECC75E",
";!	c #EBB86D",
"<!	c #AA5A43",
"=!	c #F3D088",
">!	c #CBB06F",
"?!	c #F3D529",
"@!	c #9C6651",
"A!	c #864331",
"B!	c #DDA85F",
"C!	c #D0A05D",
"D!	c #D0AC57",
"E!	c #F2CB29",
"F!	c #E8C558",
"G!	c #E2BC5A",
"H!	c #F8D224",
"I!	c #F9DB26",
"J!	c #C9AC42",
"K!	c #D6B172",
"L!	c #D4AA7A",
"M!	c #B6844A",
"N!	c #E3B76A",
"O!	c #F0C46A",
"P!	c #AE6F3F",
"Q!	c #F2C979",
"R!	c #B38E4B",
"S!	c #CEAB57",
"T!	c #C29162",
"U!	c #A25D36",
"V!	c #DBA65C",
"W!	c #B87D48",
"X!	c #DCB26C",
"Y!	c #E3BB5F",
"Z!	c #D0A675",
"[!	c #C48949",
"]!	c #DCC247",
"^!	c #C3AD65",
"_!	c #CDB246",
"`!	c #C3964C",
"a!	c #DDB061",
"b!	c #D9B37B",
"c!	c #C79862",
"d!	c #E7B660",
"e!	c #D09050",
"f!	c #D09851",
"g!	c #E2B55E",
"h!	c #E7C171",
"i!	c #D9A767",
"j!	c #BC7750",
"k!	c #DBA55C",
"l!	c #A96745",
"m!	c #DA9D5E",
"n!	c #C99662",
"o!	c #8A5240",
"p!	c #D39E3C",
"q!	c #D8BA36",
"r!	c #A1814F",
"s!	c #B89C69",
"t!	c #A67253",
"u!	c #AB7B52",
"v!	c #E0B163",
"w!	c #C59948",
"x!	c #CD9854",
"y!	c #DDB36B",
"z!	c #AF653E",
"{!	c #C08650",
"|!	c #A16648",
"}!	c #98503D",
"~!	c #A36038",
" #	c #BF854C",
"!#	c #AF6841",
"##	c #C17F5E",
"$#	c #A15D4D",
"%#	c #8F6552",
"&#	c #E2B644",
"'#	c #FBD329",
"(#	c #FED823",
")#	c #FEDF1F",
"*#	c #F0D135",
"+#	c #AF8058",
",#	c #C4965E",
"-#	c #B45D64",
".#	c #764130",
"0#	c #D7A45A",
"1#	c #DAB27C",
"2#	c #DBB775",
"3#	c #F2D47E",
"4#	c #A95240",
"5#	c #7A2D2D",
"6#	c #84403A",
"7#	c #C48761",
"8#	c #A15A3D",
"9#	c #A05E3D",
":#	c #B06741",
";#	c #8E4434",
"<#	c #954F43",
"=#	c #DFB75A",
">#	c #E9C170",
"?#	c #BD8F46",
"@#	c #F2CD25",
"A#	c #FEDD20",
"B#	c #FDDE21",
"C#	c #F8DA3D",
"D#	c #C99E78",
"E#	c #D1A456",
"F#	c #C97C61",
"G#	c #8D4A3A",
"H#	c #955C3E",
"I#	c #DEB481",
"J#	c #D09F66",
"K#	c #F1C87D",
"L#	c #B87156",
"M#	c #995142",
"N#	c #702C2C",
"O#	c #AE6854",
"P#	c #B47378",
"Q#	c #AF785C",
"R#	c #C29678",
"S#	c #7B373F",
"T#	c #C89063",
"U#	c #F3C989",
"V#	c #DBAD72",
"W#	c #E3BB3C",
"X#	c #938133",
"Y#	c #EECD32",
"Z#	c #D5B465",
"[#	c #F5D731",
"]#	c #E3C745",
"^#	c #D5A75F",
"_#	c #C18544",
"`#	c #8A3E34",
"a#	c #9D553C",
"b#	c #A86142",
"c#	c #8A4A32",
"d#	c #EAB467",
"e#	c #BD7D56",
"f#	c #C67958",
"g#	c #AB6041",
"h#	c #BA8777",
"i#	c #B78789",
"j#	c #823335",
"k#	c #D3935A",
"l#	c #E5AF6A",
"m#	c #C99059",
"n#	c #AB6545",
"o#	c #D6AA50",
"p#	c #E0C041",
"q#	c #E6C379",
"r#	c #B48854",
"s#	c #CFAC5E",
"t#	c #AD7446",
"u#	c #BE8244",
"v#	c #A34F38",
"w#	c #C87650",
"x#	c #B86D4B",
"y#	c #752B2F",
"z#	c #E5AA59",
"{#	c #935142",
"|#	c #A3563B",
"}#	c #A65A3D",
"~#	c #AF7863",
" $	c #82353A",
"!$	c #94463C",
"#$	c #CD8754",
"$$	c #965038",
"%$	c #AF663C",
"&$	c #CC9352",
"'$	c #D5B379",
"($	c #C8B075",
")$	c #D5B55C",
"*$	c #D5AB69",
"+$	c #AF7E58",
",$	c #DABB96",
"-$	c #CCA57B",
".$	c #D9A857",
"0$	c #CF9047",
"1$	c #AA5C3E",
"2$	c #874132",
"3$	c #7E2D33",
"4$	c #CB8E4F",
"5$	c #732D3F",
"6$	c #A45E3D",
"7$	c #A8653F",
"8$	c #8D3A34",
"9$	c #A04D3E",
":$	c #B7684F",
";$	c #AE6041",
"<$	c #7C362F",
"=$	c #C58653",
">$	c #DFAE6F",
"?$	c #C0A673",
"@$	c #C5A247",
"A$	c #F5D08E",
"B$	c #E1BB73",
"C$	c #C1954C",
"D$	c #DAB187",
"E$	c #D4A775",
"F$	c #D9A888",
"G$	c #E0B66B",
"H$	c #CE9D52",
"I$	c #DF9764",
"J$	c #9C4B40",
"K$	c #8A353D",
"L$	c #C56B4B",
"M$	c #7C3630",
"N$	c #E9BA6C",
"O$	c #E6B759",
"P$	c #EFB76D",
"Q$	c #864E39",
"R$	c #995543",
"S$	c #7D2E31",
"T$	c #914835",
"U$	c #A7673D",
"V$	c #C99B5C",
"W$	c #FAD627",
"X$	c #FCD524",
"Y$	c #A88348",
"Z$	c #E9C474",
"[$	c #CE9B5F",
"]$	c #A46B4A",
"^$	c #D99F5C",
"_$	c #BC926A",
"`$	c #925C64",
"a$	c #9A5E45",
"b$	c #DD905F",
"c$	c #C37C5E",
"d$	c #89383F",
"e$	c #AF5543",
"f$	c #9D583D",
"g$	c #CF8D57",
"h$	c #B0634E",
"i$	c #9B5643",
"j$	c #9A563F",
"k$	c #75302D",
"l$	c #763230",
"m$	c #945249",
"n$	c #9E5C3A",
"o$	c #B37A3C",
"p$	c #A57853",
"q$	c #BC7E4D",
"r$	c #BB834C",
"s$	c #965C4B",
"t$	c #BF7F51",
"u$	c #D4A66E",
"v$	c #D1A5A2",
"w$	c #A14D48",
"x$	c #BE724E",
"y$	c #D88B5C",
"z$	c #DFA09D",
"{$	c #7F2D33",
"|$	c #A0483E",
"}$	c #A14942",
"~$	c #87323E",
" %	c #A85343",
"!%	c #C8875E",
"#%	c #D4AC89",
"$%	c #B6885C",
"%%	c #DBB762",
"&%	c #C69A43",
"'%	c #C89B36",
"(%	c #7E8058",
")%	c #F6CA5D",
"*%	c #A57263",
"+%	c #CE9356",
",%	c #D69B78",
"-%	c #D29967",
".%	c #F0C579",
"0%	c #C38F5A",
"1%	c #974841",
"2%	c #9E4F45",
"3%	c #B46949",
"4%	c #DB9773",
"5%	c #D7A956",
"6%	c #B66D47",
"7%	c #923C43",
"8%	c #792C44",
"9%	c #863442",
":%	c #B5726D",
";%	c #E1BE64",
"<%	c #F5D228",
"=%	c #FCD72C",
">%	c #DAAB6E",
"?%	c #A76B51",
"@%	c #B26F47",
"A%	c #CC865C",
"B%	c #EFBD74",
"C%	c #EDBE68",
"D%	c #BC7455",
"E%	c #8E3640",
"F%	c #B05C57",
"G%	c #DB9B77",
"H%	c #F6D073",
"I%	c #BB744D",
"J%	c #822D37",
"K%	c #7C2C44",
"L%	c #7C2C41",
"M%	c #C18953",
"N%	c #FFDE1F",
"O%	c #7F8057",
"P%	c #F1C630",
"Q%	c #BC8F51",
"R%	c #A06562",
"S%	c #AA5D45",
"T%	c #CC9150",
"U%	c #EFC563",
"V%	c #A4623C",
"W%	c #A95A55",
"X%	c #B46F57",
"Y%	c #B17544",
"Z%	c #914E3A",
"[%	c #782B3B",
"]%	c #7E2C41",
"^%	c #812D42",
"_%	c #B17640",
"`%	c #969152",
"a%	c #F0CF38",
"b%	c #E0BA66",
"c%	c #A86A5D",
"d%	c #AD643F",
"e%	c #E6BA5D",
"f%	c #BF8647",
"g%	c #88423B",
"h%	c #8A3542",
"i%	c #833343",
"j%	c #7B2C3E",
"k%	c #7E2C3F",
"l%	c #7D2C3F",
"m%	c #872D41",
"n%	c #BE8750",
"o%	c #CCB02D",
"p%	c #EECD3C",
"q%	c #D3BD7A",
"r%	c #DCB27A",
"s%	c #D7A36C",
"t%	c #B16A56",
"u%	c #CC8A6B",
"v%	c #A0595B",
"w%	c #984C60",
"x%	c #892E42",
"y%	c #7F2C41",
"z%	c #7F2C43",
"{%	c #7D2C40",
"|%	c #77323E",
"}%	c #94543E",
"~%	c #BC8E50",
" &	c #C1A25D",
"!&	c #E2C180",
"#&	c #AB6743",
"$&	c #A06448",
"%&	c #B1775B",
"&&	c #C49370",
"'&	c #CFA058",
"(&	c #C2859C",
")&	c #852D40",
"*&	c #802C3D",
"+&	c #8B4A55",
",&	c #C08861",
"-&	c #F8D322",
".&	c #EEC62E",
"0&	c #918367",
"1&	c #D3AA32",
"2&	c #F6CB25",
"3&	c #FCD723",
"4&	c #D5A73C",
"5&	c #753847",
"6&	c #72343F",
"7&	c #8E515A",
"8&	c #C79BA9",
"9&	c #EFCD7F",
":&	c #FDD723",
";&	c #CA9C33",
"<&	c #DEAF42",
"=&	c #D7AC3F",
">&	c #F4D065",
"?&	c #FED729",
"                                                                ",
"                      # $ $ % & & % $ $ #                       ",
"                  ' ( ) * * + , , + * * - ( '                   ",
"              . 0 1 2 3 4 5 6 7 8 8 8 8 3 9 1 : .               ",
"            ; < 2 8 = = > ? @ A B C D = E F G H < ;             ",
"          I J K L M N O P Q R S T U V O W X Y Z [ J I           ",
"        ; ] 8 = ^ _ ` a b c d e f g h i j k l m 8 , J ;         ",
"      . < K = D n o p q r s t u v w x y z { | } ~ 8 [ < .       ",
"      0 2 = D O V  !!!#!$!%!&!'!(!)!*!+!,!-!.!0!1!~ 8 2!:       ",
"    ' 3!8 D O V 4!5!6!7!8!9!:!;!<!=!>!?!@!A!B!C!D!E!F!G!1 '     ",
"    ( H!= O V 4!y I!J!K!L!M!N!O!P!Q!R!S!T!U!V!W!X!Y!Z![!9 (     ",
"  # ) 8 D O i y ]!^!_!`!a!b!c!d!e!f!g!h!i!j!k!l!m!n!o!p!3 - #   ",
"  $ + = D V 4!+!q!r!s!t!u!v!w!x!y!z!{!|!}!~! #!###$#%#&#'#* $   ",
"  $ + (#O i 4!)#*#+#,#-#.#0#1#2#3#4#5#6#7#8#9#:#;#<#=#>#?#* $   ",
"  % @#= O i A#B#C#D#E#F#G#H#I#J#K#L#M#N#O#P#Q#R#S#T#U#V#W#+ %   ",
"  X#3 = O i Y#Z#[#]#^#_#`#a#b#c#d#e#f#g#h#i#j#k#l#m#n#o#8 , &   ",
"  X#8 D P b p#q#r#s#t#u#v#w#x#y#z#{#|#}#~# $!$#$$$%$&$'$($, X#  ",
"  % @#= O i )$*$+$,$-$.$0$1$2$3$4$5$6$7$8$9$:$;$<$=$>$?$@$+ %   ",
"  $ + = O A$B$C$D$E$F$G$H$I$J$K$L$M$N$O$P$Q$R$S$T$U$V$W$X$* $   ",
"  $ + = O Y$Z$[$]$^$_$`$a$b$c$d$e$f$g$h$i$j$k$l$m$n$o$D 8 * $   ",
"  # ) 8 D p$q$r$s$t$u$v$w$x$y$z${$|$}$~$ %!%#%$%%%&%'%= 3 ) #   ",
"    (%H!= )%*%+%,%-%.%0%1%2%3%4%5%6%7%8%9%:%;%<%b V D = 2 (     ",
"    ' 3!= =%>%?%@%A%B%C%D%E%F%G%H%I%J%K%L%M%N%4!V O = 8 1 '     ",
"      O%H!= D P%Q%R%S%T%U%V%W%X%Y%Z%[%]%^%_%4!V O D = 2 0       ",
"      . `%K ~ O a%b%c%d%e%f%g%h%i%j%k%l%m%n%V O D = K < .       ",
"        ; o%8 p%q%r%s%t%u%v%w%x%y%z%{%|%}%~%O D = 8 J ;         ",
"          I o% &!&#&$&%&&&'&(&)&*&k%+&,&-&.&D = K ] I           ",
"            ; 0&1&2&= D O 3&4&5&6&7&8&9&D = 8 2 < ;             ",
"              . O%3!H!8 = = :&;&<&=&>&?&8 H!3!0 .               ",
"                  ' (%) + + @#3 3 @#+ + ) ( '                   ",
"                      # $ $ % X#X#% $ $ #                       ",
"                                                                "};