/* XPM */ 
static const unsigned char * hazard___rocks_exposed_xpm[] = {
"32 32 150 2",
"  	c None",
"! 	c black",
"# 	c #74ADD7",
"$ 	c #5A7A93",
"% 	c #5C7A90",
"& 	c #938033",
"' 	c #648EAE",
"( 	c #7E7F58",
") 	c #9B8A36",
"* 	c #F2CB25",
"+ 	c #EFC925",
", 	c #A48C26",
"- 	c #D0B025",
". 	c #F2CC25",
"0 	c #9B8936",
"1 	c #71A8D0",
"2 	c #7F8058",
"3 	c #CFB12D",
"4 	c #F8D124",
"5 	c #FFD724",
"6 	c #FFD723",
"7 	c #F9D323",
"8 	c #6E6127",
"9 	c #282829",
": 	c #323028",
"; 	c #F8D125",
"< 	c #7F7F58",
"= 	c #6590B0",
"> 	c #969153",
"? 	c #FFD823",
"@ 	c #FFD922",
"A 	c #F1CE23",
"B 	c #F8D025",
"C 	c #708D94",
"D 	c #CCAF2E",
"E 	c #F7D124",
"F 	c #FFDA22",
"G 	c #FFDA21",
"H 	c #F1CF22",
"I 	c #EDC924",
"J 	c #E5C125",
"K 	c #CCB02E",
"L 	c #CCAE25",
"M 	c #514A27",
"N 	c #AC9524",
"O 	c #FFDB21",
"P 	c #FFDC20",
"Q 	c #FCDA20",
"R 	c #968524",
"S 	c #FFDC21",
"T 	c #AC9525",
"U 	c #464128",
"V 	c #AC9326",
"W 	c #E5C225",
"X 	c #5F5527",
"Y 	c #312F28",
"Z 	c #C9AF22",
"[ 	c #FFDD20",
"] 	c #FFDE20",
"^ 	c #FFDF1F",
"_ 	c #FBDC1F",
"` 	c #968624",
"a 	c #FFDE1F",
"b 	c #C9AF23",
"c 	c #514928",
"d 	c #F7D025",
"e 	c #EDC923",
"f 	c #B9A322",
"g 	c #FFE01F",
"h 	c #FFE01E",
"i 	c #F8DB1F",
"j 	c #B9A323",
"k 	c #CFB22D",
"l 	c #454127",
"m 	c #EACE20",
"n 	c #FFE11E",
"o 	c #FFE21D",
"p 	c #F8DC1E",
"q 	c #FFE21E",
"r 	c #5B5326",
"s 	c #736626",
"t 	c #F8D224",
"u 	c #C7B021",
"v 	c #FFE31D",
"w 	c #FFE31C",
"x 	c #F8DE1D",
"y 	c #FFE41C",
"z 	c #FFE51B",
"{ 	c #F8DF1C",
"| 	c #FFE51C",
"} 	c #FFE61B",
"~ 	c #FFE71A",
" !	c #F8E11A",
"!!	c #F9D423",
"#!	c #F1CE22",
"$!	c #F5D421",
"%!	c #FEDF1F",
"&!	c #FEE11E",
"'!	c #FFE819",
"(!	c #F8E318",
")!	c #F8E219",
"*!	c #FEE61B",
"+!	c #FEE01E",
",!	c #FEDE1F",
"-!	c #F2CF23",
".!	c #F2CD25",
"0!	c #6E6227",
"1!	c #474227",
"2!	c #A99523",
"3!	c #FBDD1F",
"4!	c #F8DB1E",
"5!	c #F8DD1D",
"6!	c #F8E11B",
"7!	c #F8E21A",
"8!	c #F1DE18",
"9!	c #FDDD1F",
":!	c #988724",
";!	c #343228",
"<!	c #948026",
"=!	c #938133",
">!	c #D0B125",
"?!	c #968623",
"@!	c #AE9A23",
"A!	c #464127",
"B!	c #AE9B22",
"C!	c #A48D26",
"D!	c #AB9723",
"E!	c #FDDE1F",
"F!	c #F8E417",
"G!	c #F1DF17",
"H!	c #FFE918",
"I!	c #7E8058",
"J!	c #C9B022",
"K!	c #B9A422",
"L!	c #EACF1F",
"M!	c #AC9624",
"N!	c #7F8057",
"O!	c #969152",
"P!	c #AE9A22",
"Q!	c #B9A223",
"R!	c #CCB02D",
"S!	c #AC9425",
"T!	c #FCDB20",
"U!	c #EACA22",
"V!	c #A08B25",
"W!	c #AC9325",
"X!	c #F1D021",
"Y!	c #F2D022",
"Z!	c #CDB024",
"[!	c #EFCA25",
"                                                                ",
"                      # $ $ % & & % $ $ #                       ",
"                  ' ( ) * * + , - . * * 0 ( '                   ",
"              1 2 3 4 5 6 7 8 9 : 8 7 6 5 ; 3 < 1               ",
"            = > 4 6 ? ? @ A 9 9 9 9 A ? ? 6 5 B > =             ",
"          C D E ? ? @ F G H 9 9 9 9 H F F @ ? I J D C           ",
"        = K L M M N O O P Q R 9 9 R Q S O F T U U V D =         ",
"      1 > W X 9 9 Y Z [ ] ^ _ ` ` _ a ] [ b Y 9 9 c d > 1       ",
"      2 4 e U 9 9 9 f ^ g h i 9 9 i h ^ a j 9 9 9 M 6 B <       ",
"    ' k 6 @ N Y 9 l m n n o p 9 9 p q n h m r 9 Y s ? 5 3 '     ",
"    ( t ? F O Z f u n o v w x 9 9 x v o q h m j b F @ 6 ; (     ",
"  # ) 6 @ F S ] ^ n o v y z { 9 9 { | w o q h a [ O F ? 5 0 #   ",
"  $ . ? @ O [ ^ h q v y } ~  !9 9  !} | w o n ^ ] S F ? 6 * $   ",
"  $ . !!#!$![ %!&!o y z ~ '!(!9 9 )!'!*!| v q +!,!Q H -!6 * $   ",
"  % .!0!9 1!2!3!4!5!{ 6!7!(!8!9 9 8!)! !{ x p i 9!:!9 ;!<!. %   ",
"  =!>!: 9 9 9 ?!9 9 9 9 9 9 9 9 9 9 9 9 9 9 9 9 @!A!9 9 : - &   ",
"  =!>!: 9 9 A!B!9 9 9 9 9 9 9 9 9 9 9 9 9 9 9 9 ` 9 9 9 9 C!=!  ",
"  % .!0!9 1!D!E!4!5!{ 6!)!F!G!9 9 8!(! !{ x p i _ R 9 9 8 + %   ",
"  $ . !!#!$!] g n v y } '!H!F!9 9 (!'!~ z w o h ^ Q H A 7 * $   ",
"  $ . ? F O [ ^ n o v | } '!)!9 9 7!~ } y v n g ] P G @ 6 * $   ",
"  # ) 6 @ O P a g n o y | } 6!9 9 6!z y v o n ^ [ O F ? 5 ) #   ",
"    I!t ? F O J!K!L!q o v y { 9 9 { y v o n m f Z O @ ? 4 (     ",
"    ' k ? @ M!Y 9 r L!n o v 5!9 9 5!o q n m r 9 Y N ? 6 3 '     ",
"      N!t ? M 9 9 9 K!g n n 4!9 9 4!n h ^ f 9 9 9 M ? 4 2       ",
"      1 O!E M 9 9 Y J!a ^ g E!P!?!3!^ ^ ] Q!9 9 9 M E > 1       ",
"        = R!S!M M M!O P [ T!:!A!9 R T![ S U!V!M M W!D =         ",
"          C R!E ? @ F O O X!9 9 9 9 X!O F F @ ? E K C           ",
"            = O!t ? ? @ F Y!;!9 9 9 #!@ @ ? 6 4 > =             ",
"              1 N!k t 6 ? ? Z!: 9 8 !!? 6 t k 2 1               ",
"                  ' I!) . . .!>!C![!. . ) ( '                   ",
"                      # $ $ % =!=!% $ $ #                       ",
"                                                                "};