/* XPM */ 
static const unsigned char * hazard___lighthouse_xpm[] = {
"32 32 188 2",
"  	c None",
"! 	c black",
"# 	c #74ADD7",
"$ 	c #5A7A93",
"% 	c #5C7A90",
"& 	c #938033",
"' 	c #648EAE",
"( 	c #7E7F58",
") 	c #9B8A36",
"* 	c #F2CB25",
"+ 	c #F2CC25",
", 	c #FFD624",
"- 	c #9B8936",
". 	c #71A8D0",
"0 	c #7F8058",
"1 	c #CFB12D",
"2 	c #F8D124",
"3 	c #FFD724",
"4 	c #FFD723",
"5 	c #F8D125",
"6 	c #7F7F58",
"7 	c #6590B0",
"8 	c #969153",
"9 	c #FFD823",
": 	c #FFD922",
"; 	c #F8D025",
"< 	c #708D94",
"= 	c #CCAF2E",
"> 	c #F7D124",
"? 	c #FFDA22",
"@ 	c #FFDA21",
"A 	c #FFDB21",
"B 	c #FCD921",
"C 	c #BEA428",
"D 	c #86762B",
"E 	c #DBBD25",
"F 	c #F7D028",
"G 	c #CCB02E",
"H 	c #FFDC20",
"I 	c #D6BA24",
"J 	c #5C5331",
"K 	c #2F2D2E",
"L 	c #2D2C2D",
"M 	c #443F2F",
"N 	c #88792C",
"O 	c #F9DA35",
"P 	c #FFE14F",
"Q 	c #FFDF46",
"R 	c #FFE15F",
"S 	c #FFDD50",
"T 	c #FFD935",
"U 	c #FFDD20",
"V 	c #FFDE20",
"W 	c #DAC023",
"X 	c #8B8428",
"Y 	c #D1C973",
"Z 	c #D1CA7B",
"[ 	c #D1C846",
"] 	c #D1CFBF",
"^ 	c #FAEFC0",
"_ 	c #FFF1BF",
"` 	c #FFEC9F",
"a 	c #FFE57B",
"b 	c #FFE05A",
"c 	c #FFDB37",
"d 	c #F7D025",
"e 	c #FFDF1F",
"f 	c #FFE01F",
"g 	c #F2D520",
"h 	c #A49D41",
"i 	c #FEF9BE",
"j 	c #FEFBDE",
"k 	c #FEF578",
"l 	c #FEFCEB",
"m 	c #FFF7DA",
"n 	c #FFF2BF",
"o 	c #FFED9F",
"p 	c #FFE67B",
"q 	c #FFE15A",
"r 	c #FFDC36",
"s 	c #FFD822",
"t 	c #CFB22D",
"u 	c #FFDE1F",
"v 	c #FFE11E",
"w 	c #AB9927",
"x 	c #7D742B",
"y 	c #978E4E",
"z 	c #978F57",
"{ 	c #978D37",
"| 	c #878166",
"} 	c #F1E07A",
"~ 	c #FFEFA0",
" !	c #FFEB87",
"!!	c #FFE677",
"#!	c #FFE25A",
"$!	c #FFDD36",
"%!	c #F8D224",
"&!	c #FFE21D",
"'!	c #FFE31D",
"(!	c #9F8F28",
")!	c #897E3F",
"*!	c #978D4D",
"+!	c #6B6440",
",!	c #EED523",
"-!	c #FFE21E",
".!	c #FFE01E",
"0!	c #FFE136",
"1!	c #FFDF33",
"2!	c #FFDD2D",
"3!	c #FFDC21",
"4!	c #FFE41C",
"5!	c #F2DA1D",
"6!	c #A4A2A3",
"7!	c #FEFEFE",
"8!	c #A3A2A2",
"9!	c #F2D926",
":!	c #FFE61B",
";!	c #BAAB2C",
"<!	c #DBDADA",
"=!	c #AAA9A9",
">!	c #EBD41E",
"?!	c #FFE31C",
"@!	c #FED823",
"A!	c #FEDF1F",
"B!	c #FEE11E",
"C!	c #FFE51B",
"D!	c #FFE71A",
"E!	c #978C36",
"F!	c #EBD51D",
"G!	c #FFE51C",
"H!	c #FEE01E",
"I!	c #FEDE1F",
"J!	c #F2CD25",
"K!	c #FFE819",
"L!	c #91862E",
"M!	c #968F8F",
"N!	c #716869",
"O!	c #E8D31D",
"P!	c #938133",
"Q!	c #968028",
"R!	c #ED3237",
"S!	c #96792A",
"T!	c #F5E01A",
"U!	c #9B5A2F",
"V!	c #EBD71C",
"W!	c #A03236",
"X!	c #EBD61C",
"Y!	c #743335",
"Z!	c #8E792A",
"[!	c #9F9D9E",
"]!	c #EAEAEA",
"^!	c #ACAAA3",
"_!	c #E7D01F",
"`!	c #CDBA2A",
"a!	c #C8C7C7",
"b!	c #B0AFB0",
"c!	c #E5CC20",
"d!	c #7E8058",
"e!	c #978B3F",
"f!	c #E5CB20",
"g!	c #928539",
"h!	c #C4C3C3",
"i!	c #8D8B8C",
"j!	c #E5CB21",
"k!	c #7F8057",
"l!	c #92762C",
"m!	c #C33236",
"n!	c #A7842B",
"o!	c #969152",
"p!	c #F9D920",
"q!	c #99662F",
"r!	c #956F2D",
"s!	c #CCB02D",
"t!	c #E5C623",
"u!	c #A63236",
"v!	c #EC3237",
"w!	c #956F2E",
"x!	c #D4B725",
"y!	c #943236",
"z!	c #CF3236",
"{!	c #86652F",
"|!	c #E9C724",
"}!	c #7C6D2D",
"~!	c #75672E",
" #	c #89772D",
"!#	c #443F2E",
"##	c #7D6D2E",
"$#	c white",
"                                                                ",
"                      # $ $ % & & % $ $ #                       ",
"                  ' ( ) * * + , , + * * - ( '                   ",
"              . 0 1 2 3 4 4 4 4 4 4 4 4 3 5 1 6 .               ",
"            7 8 2 4 9 9 : : : : : : : 9 9 4 3 ; 8 7             ",
"          < = > 9 9 : ? @ A B C D E A ? ? : 9 4 F = <           ",
"        7 G 4 9 : ? A A H I J K L M N O P Q R S T , = 7         ",
"      . 8 > 9 : ? A H U V W X Y Z [ ] ^ _ ` a b c 4 d 8 .       ",
"      0 2 9 : ? A U V e f g h i j k l m n o p q r s 4 ; 6       ",
"    ' t 4 : ? A U u e v v w x y z { | } ~  !!!#!$!: 9 3 1 '     ",
"    ( %!9 ? A U V f v &!'!(!)!*!*!*!+!,!-!.!0!1!2!? : 4 5 (     ",
"  # ) 4 : ? 3!V e v &!'!4!5!6!7!7!7!8!9!&!-!.!u U A ? 9 3 - #   ",
"  $ + 9 : A U e .!-!'!4!:!;!<!7!7!7!=!>!?!&!v e V 3!? 9 4 * $   ",
"  $ + @!? 3!U A!B!&!4!C!D!E!7!7!7!7!=!F!G!'!-!H!I!U A : 4 * $   ",
"  % J!9 ? 3!V f v '!G!D!K!L!M!M!M!M!N!O!C!4!&!.!e U A : 4 + %   ",
"  P!3 9 ? 3!V f v '!G!D!K!Q!R!R!R!R!R!S!C!4!&!.!e U A : 4 , &   ",
"  P!4 : @ H u .!-!'!C!D!T!U!R!R!R!R!R!S!:!4!'!v e U A ? 9 , P!  ",
"  % J!9 ? 3!V f v '!G!D!V!W!R!R!R!R!R!S!C!4!&!.!e U A : 4 + %   ",
"  $ + 9 ? 3!V f v '!4!:!X!Y!W!W!W!W!W!Z!C!?!&!.!e U A : 4 * $   ",
"  $ + 9 ? A U e v &!'!G!F![!]!]!]!]!]!^!_!'!v f V H @ : 4 * $   ",
"  # ) 4 : A H u f v &!4!`!a!7!7!7!7!7!b!c!&!v e U A ? 9 3 ) #   ",
"    d!%!9 ? A U e .!-!&!e!7!7!7!7!7!7!b!f!v e V H A : 9 2 (     ",
"    ' t 9 : @ 3!U e .!v g!h!h!h!h!h!h!i!j!f u U A ? 9 4 1 '     ",
"      k!%!9 : A 3!U e f l!m!m!m!m!m!m!m!n!V U A ? : 9 2 0       ",
"      . o!> s ? A 3!U p!q!R!R!R!R!R!R!R!r!U A ? : 9 > 8 .       ",
"        7 s!4 s : @ A t!u!R!R!R!R!R!v!R!w!A ? : 9 4 = 7         ",
"          < s!> 9 : ? x!y!z!z!z!z!z!z!z!{!|!: 9 > G <           ",
"            7 o!%!9 9 }!L L L L L L L L L ~!4 2 8 7             ",
"              . k!t %! #!#!#!#!#!#!#!#!#!###t 0 .               ",
"                  ' d!) + + J!3 3 J!+ + ) ( '                   ",
"                      # $ $ % P!P!$#$ $ #                       ",
"                                                                "};