/* XPM */ 
static const unsigned char * hazard___rocks_submerged_xpm[] = {
"32 32 172 2",
"  	c None",
"! 	c black",
"# 	c #74ADD7",
"$ 	c #5A7A93",
"% 	c #5C7A90",
"& 	c #938033",
"' 	c #648EAE",
"( 	c #7E7F58",
") 	c #9B8A36",
"* 	c #F2CB25",
"+ 	c #F2CC25",
", 	c #FFD624",
"- 	c #9B8936",
". 	c #71A8D0",
"0 	c #7F8058",
"1 	c #CFB12D",
"2 	c #F8D124",
"3 	c #FFD724",
"4 	c #FFD723",
"5 	c #CDAF24",
"6 	c #3C3828",
"7 	c #F8D223",
"8 	c #F8D125",
"9 	c #7F7F58",
": 	c #6590B0",
"; 	c #969153",
"< 	c #FFD823",
"= 	c #FFD922",
"> 	c #B09824",
"? 	c #282829",
"@ 	c #F8D422",
"A 	c #F8D025",
"B 	c #708D94",
"C 	c #CCAF2E",
"D 	c #F7D124",
"E 	c #FFDA22",
"F 	c #FFDA21",
"G 	c #FFDB21",
"H 	c #FDDA21",
"I 	c #A38E24",
"J 	c #F7D025",
"K 	c #CCB02E",
"L 	c #ECC824",
"M 	c #C0A425",
"N 	c #CEB124",
"O 	c #FFDC20",
"P 	c #FFDD20",
"Q 	c #FFDC21",
"R 	c #CEB024",
"S 	c #ECC724",
"T 	c #A38D25",
"U 	c #4C4527",
"V 	c #EECE21",
"W 	c #FFDE20",
"X 	c #FFDF1F",
"Y 	c #FDDD1F",
"Z 	c #C7AF22",
"[ 	c #FFDE1F",
"] 	c #EECD22",
"^ 	c #A38D26",
"_ 	c #B29924",
"` 	c #323128",
"a 	c #655B26",
"b 	c #CCB222",
"c 	c #EFD020",
"d 	c #FFE01F",
"e 	c #FFE01E",
"f 	c #F8DB1F",
"g 	c #EFD021",
"h 	c #B29925",
"i 	c #CFB22D",
"j 	c #CEB322",
"k 	c #7D7025",
"l 	c #3A3728",
"m 	c #6A6126",
"n 	c #FFE11E",
"o 	c #FFE21D",
"p 	c #F8DC1E",
"q 	c #FFE21E",
"r 	c #7D6F25",
"s 	c #CEB223",
"t 	c #F8D224",
"u 	c #716626",
"v 	c #454127",
"w 	c #DCC41F",
"x 	c #F1D71E",
"y 	c #FFE31C",
"z 	c #F8DE1D",
"{ 	c #FFE31D",
"| 	c #DCC31F",
"} 	c #716526",
"~ 	c #EDD020",
" !	c #B29F22",
"!!	c #544E26",
"#!	c #645C25",
"$!	c #FFE51B",
"%!	c #F8DF1C",
"&!	c #FFE51C",
"'!	c #786D24",
"(!	c #474426",
")!	c #FFE71A",
"*!	c #F8E11A",
"+!	c #FFE61B",
",!	c #474327",
"-!	c #FED823",
".!	c #FEDF1F",
"0!	c #FEE11E",
"1!	c #F0D71D",
"2!	c #A49621",
"3!	c #DCC81C",
"4!	c #FFE819",
"5!	c #F8E318",
"6!	c #F8E219",
"7!	c #DCC71D",
"8!	c #A49521",
"9!	c #F0D61D",
":!	c #FEE01E",
";!	c #FEDE1F",
"<!	c #F2CD25",
"=!	c #F8D323",
">!	c #FDDB21",
"?!	c #FDDE1F",
"@!	c #F8DB1E",
"A!	c #F8DD1D",
"B!	c #F8E11B",
"C!	c #F8E21A",
"D!	c #F1DE18",
"E!	c #938133",
"F!	c #3C3928",
"G!	c #A38F24",
"H!	c #C7B021",
"I!	c #6D6226",
"J!	c #BEA524",
"K!	c #FAD821",
"L!	c #F8E417",
"M!	c #F1DF17",
"N!	c #FAD721",
"O!	c #BEA424",
"P!	c #F0D81D",
"Q!	c #A49720",
"R!	c #FFE918",
"S!	c #D7BF20",
"T!	c #948623",
"U!	c #7C7024",
"V!	c #C8B221",
"W!	c #7E8058",
"X!	c #D6BC21",
"Y!	c #383628",
"Z!	c #625A26",
"[!	c #F1D81D",
"]!	c #FFE41C",
"^!	c #565026",
"_!	c #323028",
"`!	c #B29D23",
"a!	c #958424",
"b!	c #4A4527",
"c!	c #A89424",
"d!	c #7F8057",
"e!	c #CEB123",
"f!	c #585027",
"g!	c #736726",
"h!	c #D6BB21",
"i!	c #CEB422",
"j!	c #665C26",
"k!	c #969152",
"l!	c #877626",
"m!	c #3F3B28",
"n!	c #DEC122",
"o!	c #877526",
"p!	c #CCB02D",
"q!	c #6A5E27",
"r!	c #B29A24",
"                                                                ",
"                      # $ $ % & & % $ $ #                       ",
"                  ' ( ) * * + , , + * * - ( '                   ",
"              . 0 1 2 3 4 4 5 6 6 7 4 4 3 8 1 9 .               ",
"            : ; 2 4 < < = = > ? ? @ = < < 4 3 A ; :             ",
"          B C D < < = E F G H I I H G E E = < 4 J C B           ",
"        : K L M N E G G O P P P P P P Q G E = R M S C :         ",
"      . ; D T ? U V O P W X Y Z Z Y [ W P Q ] U ? ^ J ; .       ",
"      0 2 < _ ` a b c X d e f ? ? f e X [ g b a ` h 4 A 9       ",
"    ' i 4 = E j k l m n n o p ? ? p q n e m l r s = < 3 1 '     ",
"    ( t < E G P u ? v w x y z ? ? z { x | v ? } Q E = 4 8 (     ",
"  # ) 4 = E Q W ~  !!!? #!$!%!? ? %!&!#!? !! !~ P G E < 3 - #   ",
"  $ + < = G P X e q '!? (!)!*!? ? *!+!,!? '!n X W Q E < 4 * $   ",
"  $ + -!E Q P .!0!o 1!2!3!4!5!? ? 6!4!7!8!9!q :!;!P G = 4 * $   ",
"  % <!=!@ >!W ?!@!A!%!B!C!5!D!? ? D!6!*!%!z p f Y P H @ 7 + %   ",
"  E!3 F!? G!W H!? ? ? ? ? ? ? ? ? ? ? ? ? ? ? ? Z P I ? 6 , &   ",
"  E!4 F!? I![ H!? ? ? ? ? ? ? ? ? ? ? ? ? ? ? ? Z P I!? 6 , E!  ",
"  % <!=!J!K!W ?!@!A!%!B!6!L!M!? ? D!5!*!%!z p f Y P N!O!7 + %   ",
"  $ + < E Q W d n { P!Q!3!R!L!? ? 5!4!3!2!1!o e X P G = 4 * $   ",
"  $ + < E G P X n o '!? (!4!6!? ? C!)!(!? '!n d W O F = 4 * $   ",
"  # ) 4 = G O [ d S!T!? #!+!B!? ? B!$!#!? U!V!X P G E < 3 ) #   ",
"    W!t < E G P X!Y!Z!w [!]!%!? ? %!]!x w ^!_!`!O G = < 2 (     ",
"    ' i < = F Q a!? b!n o { A!? ? A!o q n b!? c!V E < 4 1 '     ",
"      d!t < e!f!g!a!X!d n n @!? ? @!n e X h!i!j!U N < 2 0       ",
"      . k!D l!? m!n!P [ X d ?!H!H!?!X X W P n!m!? o!D ; .       ",
"        : p!L q!r!F G O P W W W W W P P Q G E _ T L C :         ",
"          B p!D < = E G G Q >!G!G!>!Q G E E = < D K B           ",
"            : k!t < < = E E J!? ? J!E = = < 4 2 ; :             ",
"              . d!i t 4 < < =!F!F!=!< < 4 t i 0 .               ",
"                  ' W!) + + <!3 3 <!+ + ) ( '                   ",
"                      # $ $ % E!E!% $ $ #                       ",
"                                                                "};