/* XPM */ 
static const unsigned char * hazard___cable_xpm[] = {
"32 32 259 2",
"  	c None",
"! 	c black",
"# 	c #74ADD7",
"$ 	c #5A7A93",
"% 	c #5C7A90",
"& 	c #938033",
"' 	c #648EAE",
"( 	c #7E7F58",
") 	c #9B8A36",
"* 	c #F2CB25",
"+ 	c #F2CC25",
", 	c #FFD624",
"- 	c #9B8936",
". 	c #71A8D0",
"0 	c #7F8058",
"1 	c #CFB12D",
"2 	c #F8D124",
"3 	c #FFD724",
"4 	c #FFD723",
"5 	c #F8D125",
"6 	c #7F7F58",
"7 	c #6590B0",
"8 	c #969153",
"9 	c #FFD823",
": 	c #FFD922",
"; 	c #F8D025",
"< 	c #708D94",
"= 	c #CCAF2E",
"> 	c #F7D124",
"? 	c #FFDA22",
"@ 	c #FFDA21",
"A 	c #FFDB21",
"B 	c #DFC33E",
"C 	c #DABF47",
"D 	c #F0CC2F",
"E 	c #CCB02E",
"F 	c #FFDC20",
"G 	c #FFDD20",
"H 	c #FFDC21",
"I 	c #ADA269",
"J 	c #8B8A87",
"K 	c #939497",
"L 	c #BBB184",
"M 	c #F6D02D",
"N 	c #FFDE20",
"O 	c #FFDF1F",
"P 	c #FFDE1F",
"Q 	c #CEB94C",
"R 	c #8D8C89",
"S 	c #9B9C9E",
"T 	c #A5A7A9",
"U 	c #9A969B",
"V 	c #AD9E74",
"W 	c #ECC82D",
"X 	c #FFE01F",
"Y 	c #FFE01E",
"Z 	c #EBCF20",
"[ 	c #BFAD3F",
"] 	c #9C9C9E",
"^ 	c #A6A8A9",
"_ 	c #A1A0A3",
"` 	c #85848B",
"a 	c #71737A",
"b 	c #B3A13E",
"c 	c #CFB22D",
"d 	c #FFE11E",
"e 	c #FFE21D",
"f 	c #EEDE22",
"g 	c #929128",
"h 	c #394037",
"i 	c #8B918B",
"j 	c #A3A2A3",
"k 	c #9A969A",
"l 	c #8D898F",
"m 	c #6F7279",
"n 	c #545C5A",
"o 	c #B4A139",
"p 	c #F8D224",
"q 	c #FFE31D",
"r 	c #EDDF22",
"s 	c #E1DC25",
"t 	c #81C441",
"u 	c #61BD49",
"v 	c #38A24D",
"w 	c #26984A",
"x 	c #648C4E",
"y 	c #798670",
"z 	c #8A868C",
"{ 	c #74777E",
"| 	c #5A6160",
"} 	c #B4A338",
"~ 	c #FBE21E",
" !	c #ACCF35",
"!!	c #60BC4A",
"#!	c #3DB553",
"$!	c #2DB453",
"%!	c #1FB053",
"&!	c #15AE53",
"'!	c #0BA653",
"(!	c #84BF47",
")!	c #B4C742",
"*!	c #7C8743",
"+!	c #66676B",
",!	c #535B5A",
"-!	c #B5A537",
".!	c #FFE21E",
"0!	c #3EB553",
"1!	c #0D9F51",
"2!	c #23A74C",
"3!	c #24A24B",
"4!	c #5DAF3E",
"5!	c #89B53B",
"6!	c #ACC142",
"7!	c #AAB842",
"8!	c #6A6136",
"9!	c #4A4238",
":!	c #B5A736",
";!	c #FED823",
"<!	c #FEDF1F",
"=!	c #FEE11E",
">!	c #EDDF21",
"?!	c #5ABC4B",
"@!	c #13B054",
"A!	c #1E9F4C",
"B!	c #9DC72E",
"C!	c #FFE918",
"D!	c #E7D725",
"E!	c #AFAE41",
"F!	c #9BA143",
"G!	c #9F623C",
"H!	c #883B31",
"I!	c #BB9D24",
"J!	c #FEE01E",
"K!	c #FEDE1F",
"L!	c #F2CD25",
"M!	c #E1DD25",
"N!	c #1EB254",
"O!	c #18AA50",
"P!	c #D1DA22",
"Q!	c #FFEB16",
"R!	c #E8DA23",
"S!	c #B0AE42",
"T!	c #929543",
"U!	c #8F7E3F",
"V!	c #A23734",
"W!	c #B56C2A",
"X!	c #938133",
"Y!	c #AFD033",
"Z!	c #FFEA17",
"[!	c #FFED15",
"]!	c #FFEE14",
"^!	c #B5B541",
"_!	c #B6B641",
"`!	c #8F6D3C",
"a!	c #8C3031",
"b!	c #ECC720",
"c!	c #81C541",
"d!	c #FFEB17",
"e!	c #E9DC21",
"f!	c #C9C635",
"g!	c #C9CB3C",
"h!	c #929540",
"i!	c #929338",
"j!	c #983E31",
"k!	c #8E3031",
"l!	c #ECC71F",
"m!	c #77C441",
"n!	c #0AAF54",
"o!	c #59B340",
"p!	c #D8CD2C",
"q!	c #A0A141",
"r!	c #7A8040",
"s!	c #8C8E36",
"t!	c #C89824",
"u!	c #993132",
"v!	c #903031",
"w!	c #EADA22",
"x!	c #93BC37",
"y!	c #3CAD50",
"z!	c #0C9D51",
"{!	c #73A546",
"|!	c #ADAC42",
"}!	c #929541",
"~!	c #70763F",
" #	c #AAA62E",
"!#	c #E8C11F",
"##	c #DA702D",
"$#	c #C13337",
"%#	c #B86C2A",
"&#	c #FDE21D",
"'#	c #F4D62B",
"(#	c #A89E79",
")#	c #469160",
"*#	c #289E50",
"+#	c #409C4B",
",#	c #A6AA43",
"-#	c #818640",
".#	c #74663C",
"0#	c #884836",
"1#	c #B54432",
"2#	c #B23C33",
"3#	c #C93337",
"4#	c #C63337",
"5#	c #F1C421",
"6#	c #F4D42C",
"7#	c #AB9E7A",
"8#	c #989297",
"9#	c #91A195",
":#	c #98B992",
";#	c #A7AC43",
"<#	c #A38F3E",
"=#	c #814735",
">#	c #933432",
"?#	c #9F3133",
"@#	c #A54B2E",
"A#	c #CB712C",
"B#	c #F8D41F",
"C#	c #7E8058",
"D#	c #F3D22D",
"E#	c #AB9D7A",
"F#	c #9A9599",
"G#	c #B3B2B0",
"H#	c #CACAC4",
"I#	c #A1A5A2",
"J#	c #968F63",
"K#	c #8E3732",
"L#	c #A0502D",
"M#	c #B16A2A",
"N#	c #CD9725",
"O#	c #F4D31E",
"P#	c #B0A075",
"Q#	c #9FA4A3",
"R#	c #83898D",
"S#	c #6B7177",
"T#	c #5F4F4D",
"U#	c #CF9925",
"V#	c #F4D31F",
"W#	c #7F8057",
"X#	c #D4BC58",
"Y#	c #ACABAB",
"Z#	c #C4C5C0",
"[#	c #A1A5A4",
"]#	c #7D8489",
"^#	c #697178",
"_#	c #969152",
"`#	c #F0CD2E",
"a#	c #D6CC99",
"b#	c #858B8F",
"c#	c #737B82",
"d#	c #5B6261",
"e#	c #B5A637",
"f#	c #CCB02D",
"g#	c #F5D12D",
"h#	c #CBB750",
"i#	c #767B78",
"j#	c #5A6260",
"k#	c #B4A438",
"l#	c #C5AF3D",
"m#	c #B4A238",
"                                                                ",
"                      # $ $ % & & % $ $ #                       ",
"                  ' ( ) * * + , , + * * - ( '                   ",
"              . 0 1 2 3 4 4 4 4 4 4 4 4 3 5 1 6 .               ",
"            7 8 2 4 9 9 : : : : : : : 9 9 4 3 ; 8 7             ",
"          < = > 9 9 : ? @ A A A A A A ? ? : B C D = <           ",
"        7 E 4 9 : ? A A F G G G G G G H A I J K L M = 7         ",
"      . 8 > 9 : ? A F G N O O O O O P N Q R S T U V W 8 .       ",
"      0 2 9 : ? A G N O X Y Y Y Y Y Z [ R ] ^ _ ` a b ; 6       ",
"    ' c 4 : ? A G P O d d e e e e f g h i j k l m n o 3 1 '     ",
"    ( p 9 ? A G N X d e q r s s t u v w x y z { | } : 4 5 (     ",
"  # ) 4 : ? H N O d e ~  !!!#!$!%!&!'!(!)!*!+!,!-!A ? 9 3 - #   ",
"  $ + 9 : A G O Y .!q  !0!%!1!2!3!4!5!6!7!8!9!:!N H ? 9 4 * $   ",
"  $ + ;!? H G <!=!e >!?!@!A!B!C!C!D!E!F!G!H!I!J!K!G A : 4 * $   ",
"  % L!9 ? H N X d q M!N!O!P!Q!Q!R!S!T!U!V!W!e Y O G A : 4 + %   ",
"  X!3 9 ? H N X d q Y!N!2!Z![!]!^!_!T!`!a!b!e Y O G A : 4 , &   ",
"  X!4 : @ F P Y .!q c!N!2!d!e!f!g!h!i!j!k!l!q d O G A ? 9 , X!  ",
"  % L!9 ? H N X d q m!n!o!p!S!q!r!s!t!u!v!b!e Y O G A : 4 + %   ",
"  $ + 9 ? H N X w!x!y!z!{!|!}!~! #!###$#%#&#e Y O G A : 4 * $   ",
"  $ + 9 ? A G '#(#)#*#+#,#-#.#0#1#2#3#4#5#q d X N F @ : 4 * $   ",
"  # ) 4 : A 6#7#8#9#:#;#<#=#>#?#u!v!@#A#B#e d O G A ? 9 3 ) #   ",
"    C#p 9 D#E#F#G#H#I#J#K#a!L#M#N#l!O#q e d O N F A : 9 2 (     ",
"    ' c 9 P#F#G#H#Q#R#S#T#U#V#q q q e .!d X P G A ? 9 4 1 '     ",
"      W#p X#Y#Z#[#]#^#,!:!d d d d d d Y O N G A ? : 9 2 0       ",
"      . _#`#a#[#b#c#d#e#O X X X X X O O N G A ? : 9 > 8 .       ",
"        7 f#g#h#i#j#k#F G N N N N N G G H A ? : 9 4 = 7         ",
"          < f#> l#m#? A A H H H H H H A ? ? : 9 > E <           ",
"            7 _#p 9 9 : ? ? ? ? ? ? ? : : 9 4 2 8 7             ",
"              . W#c p 4 9 9 9 9 9 9 9 9 4 p c 0 .               ",
"                  ' C#) + + L!3 3 L!+ + ) ( '                   ",
"                      # $ $ % X!X!% $ $ #                       ",
"                                                                "};