/* XPM */ 
static const unsigned char * hazard___kelp_xpm[] = {
"32 32 376 2",
"  	c None",
"! 	c black",
"# 	c #74ADD7",
"$ 	c #5A7A93",
"% 	c #5C7A90",
"& 	c #938033",
"' 	c #648EAE",
"( 	c #7E7F58",
") 	c #9B8A36",
"* 	c #F2CB25",
"+ 	c #D2B52B",
", 	c #E2C229",
"- 	c #FFD624",
". 	c #F2CC25",
"0 	c #9B8936",
"1 	c #71A8D0",
"2 	c #7F8058",
"3 	c #CFB12D",
"4 	c #F8D124",
"5 	c #FFD724",
"6 	c #DFC12C",
"7 	c #988F3D",
"8 	c #A29537",
"9 	c #F8D324",
": 	c #FFD723",
"; 	c #F8D125",
"< 	c #7F7F58",
"= 	c #6590B0",
"> 	c #969153",
"? 	c #FFD823",
"@ 	c #E3C42B",
"A 	c #978E3D",
"B 	c #978E3F",
"C 	c #F9D624",
"D 	c #FFD922",
"E 	c #F0CE27",
"F 	c #D7BC2D",
"G 	c #AB9B36",
"H 	c #F1CD26",
"I 	c #F8D025",
"J 	c #708D94",
"K 	c #CCAF2E",
"L 	c #F7D124",
"M 	c #E3C62B",
"N 	c #988E3D",
"O 	c #8A843E",
"P 	c #CBB531",
"Q 	c #FFDB21",
"R 	c #F2D126",
"S 	c #AA9D3C",
"T 	c #918A40",
"U 	c #E5C72A",
"V 	c #F7D025",
"W 	c #CCB02E",
"X 	c #B7A639",
"Y 	c #85803E",
"Z 	c #A3983E",
"[ 	c #F8D823",
"] 	c #FFDD20",
"^ 	c #F3D425",
"_ 	c #A79B3C",
"` 	c #8E883F",
"a 	c #C2AF33",
"b 	c #FBD822",
"c 	c #FFD822",
"d 	c #F7D424",
"e 	c #F7D524",
"f 	c #CAB434",
"g 	c #918940",
"h 	c #8F883F",
"i 	c #D0BA30",
"j 	c #FDDD20",
"k 	c #E6CC28",
"l 	c #D0BB31",
"m 	c #ADA139",
"n 	c #AFA13C",
"o 	c #88833E",
"p 	c #A5993C",
"q 	c #F6D723",
"r 	c #FFDC21",
"s 	c #FFDA22",
"t 	c #BEAC35",
"u 	c #DFC52B",
"v 	c #B6A639",
"w 	c #837D3E",
"x 	c #A19640",
"y 	c #E3CA2A",
"z 	c #D0BC31",
"{ 	c #9E9540",
"| 	c #968F40",
"} 	c #928B3F",
"~ 	c #948C40",
" !	c #8A843F",
"!!	c #C9B633",
"#!	c #FFDE1F",
"$!	c #EDD026",
"%!	c #DEC42D",
"&!	c #B6A739",
"'!	c #B0A23C",
"(!	c #E0C535",
")!	c #CFB22D",
"*!	c #EFCF28",
"+!	c #B5A83E",
",!	c #D5BE30",
"-!	c #928A40",
".!	c #79783E",
"0!	c #A99D3C",
"1!	c #C7B530",
"2!	c #988F40",
"3!	c #918B3F",
"4!	c #A79D3D",
"5!	c #A59941",
"6!	c #72703C",
"7!	c #E3CB29",
"8!	c #C8B635",
"9!	c #9A913E",
":!	c #989040",
";!	c #A0963F",
"<!	c #BDAC37",
"=!	c #E3C62C",
">!	c #E9CB2F",
"?!	c #F8D224",
"@!	c #E6CA2B",
"A!	c #ACA241",
"B!	c #C0AF3B",
"C!	c #9D9240",
"D!	c #827E3E",
"E!	c #A69940",
"F!	c #75743D",
"G!	c #AFA441",
"H!	c #D7C42E",
"I!	c #7A783E",
"J!	c #BBAA39",
"K!	c #B0A439",
"L!	c #938C3F",
"M!	c #948D40",
"N!	c #B0A337",
"O!	c #EBCF28",
"P!	c #E7CB2A",
"Q!	c #A19840",
"R!	c #AA9F3F",
"S!	c #978E40",
"T!	c #86813E",
"U!	c #88823E",
"V!	c #7B783D",
"W!	c #A29940",
"X!	c #9D953F",
"Y!	c #D7C430",
"Z!	c #9C9140",
"[!	c #857F3E",
"]!	c #73723C",
"^!	c #98913E",
"_!	c #C0B037",
"`!	c #F9DC21",
"a!	c #E1C62A",
"b!	c #8B863F",
"c!	c #AFA442",
"d!	c #9D9541",
"e!	c #7C783B",
"f!	c #A3993E",
"g!	c #C3B436",
"h!	c #9C943F",
"i!	c #86813C",
"j!	c #938B3F",
"k!	c #7D7A3D",
"l!	c #87823E",
"m!	c #7A773C",
"n!	c #DEC928",
"o!	c #FFE21D",
"p!	c #FFE11E",
"q!	c #FFDF1F",
"r!	c #FFDE20",
"s!	c #FED823",
"t!	c #E5CB29",
"u!	c #A29A40",
"v!	c #8E8940",
"w!	c #827F3F",
"x!	c #CCBC31",
"y!	c #DDCB24",
"z!	c #918B40",
"{!	c #9E9641",
"|!	c #848240",
"}!	c #8F8840",
"~!	c #948C3F",
" #	c #ADA237",
"!#	c #FAE11E",
"##	c #FFE31D",
"$#	c #FFE21E",
"%#	c #FEE01E",
"&#	c #FEDE1F",
"'#	c #F2CD25",
"(#	c #EBD029",
")#	c #BBAF4B",
"*#	c #8C8949",
"+#	c #85823E",
",#	c #A59A41",
"-#	c #DECC28",
".#	c #FAE61A",
"0#	c #B2A740",
"1#	c #8D8840",
"2#	c #8F873F",
"3#	c #A79C41",
"4#	c #D0BF31",
"5#	c #FFE51B",
"6#	c #FFE41C",
"7#	c #FFE01E",
"8#	c #938133",
"9#	c #989138",
":#	c #74733C",
";#	c #827F3E",
"<#	c #A29941",
"=#	c #C2B845",
">#	c #FCE818",
"?#	c #A89F35",
"@#	c #71713B",
"A#	c #938D41",
"B#	c #A69E41",
"C#	c #B4A92F",
"D#	c #FFDA21",
"E#	c #FFDC20",
"F#	c #A19636",
"G#	c #88843E",
"H#	c #9F9841",
"I#	c #807F3E",
"J#	c #9F9444",
"K#	c #A5A15C",
"L#	c #FFEB17",
"M#	c #C3B82C",
"N#	c #72713D",
"O#	c #78773C",
"P#	c #82803E",
"Q#	c #AE9F40",
"R#	c #CDC146",
"S#	c #FFE61B",
"T#	c #AC9F38",
"U#	c #989140",
"V#	c #77743D",
"W#	c #7C7A3E",
"X#	c #8E873F",
"Y#	c #90893C",
"Z#	c #E8D71E",
"[#	c #B7AC2C",
"]#	c #9B9340",
"^#	c #90893F",
"_#	c #78763D",
"`#	c #938B40",
"a#	c #F4DC20",
"b#	c #B8AA38",
"c#	c #A39A40",
"d#	c #A6A041",
"e#	c #87843E",
"f#	c #A09440",
"g#	c #D2C329",
"h#	c #CEC02D",
"i#	c #9A933E",
"j#	c #85813F",
"k#	c #DDCA29",
"l#	c #FFE31C",
"m#	c #B4A52F",
"n#	c #9B9441",
"o#	c #78753C",
"p#	c #968D3F",
"q#	c #DCCA2A",
"r#	c #D3C22F",
"s#	c #9D9540",
"t#	c #A09942",
"u#	c #817E3F",
"v#	c #9F9440",
"w#	c #8C863F",
"x#	c #C8B734",
"y#	c #FFE01F",
"z#	c #EACF28",
"{#	c #ACA240",
"|#	c #A09740",
"}#	c #7F7C3E",
"~#	c #9B9760",
" $	c #DECB2A",
"!$	c #CEBE2F",
"#$	c #A19940",
"$$	c #86813F",
"%$	c #A09B60",
"&$	c #908B40",
"'$	c #CBBA34",
"($	c #7E8058",
")$	c #ECD028",
"*$	c #ADA23F",
"+$	c #B5AA40",
",$	c #928B40",
"-$	c #B6B280",
".$	c #8A853F",
"0$	c #D8C62B",
"1$	c #F2DA20",
"2$	c #9B933E",
"3$	c #AEA440",
"4$	c #85803F",
"5$	c #B3B07F",
"6$	c #8C883F",
"7$	c #C1B234",
"8$	c #E8CB26",
"9$	c #A49B3D",
":$	c #B1A640",
";$	c #8D8640",
"<$	c #978F41",
"=$	c #999240",
">$	c #D5C22C",
"?$	c #FBE01E",
"@$	c #9D9641",
"A$	c #948D3E",
"B$	c #A2983B",
"C$	c #908A40",
"D$	c #D2BF2F",
"E$	c #7F8057",
"F$	c #BBAE3D",
"G$	c #A09943",
"H$	c #978F3F",
"I$	c #A1963D",
"J$	c #CEBB2C",
"K$	c #FEE11E",
"L$	c #BDB036",
"M$	c #878541",
"N$	c #8C873F",
"O$	c #CCB92F",
"P$	c #F0D423",
"Q$	c #969152",
"R$	c #998C35",
"S$	c #87843A",
"T$	c #93933B",
"U$	c #E0C628",
"V$	c #797639",
"W$	c #F0D422",
"X$	c #AE9C2B",
"Y$	c #7C7A38",
"Z$	c #A8A135",
"[$	c #D5BF2A",
"]$	c #6E6F3A",
"^$	c #EBCF23",
"_$	c #CCB02D",
"`$	c #D2B22F",
"a$	c #BEA741",
"b$	c #C2B02F",
"c$	c #ECCE24",
"d$	c #878245",
"e$	c #FEDD21",
"f$	c #C9AD4C",
"g$	c #BDAD71",
"h$	c #BA9F2F",
"i$	c #D0BE5F",
"j$	c #FAD922",
"k$	c #EDD67C",
"l$	c #D1C3AB",
"m$	c #D6B629",
"n$	c #EFCF27",
"o$	c #BDB182",
"p$	c #FCDB2B",
"q$	c #FEDB22",
"r$	c #F1DC86",
"s$	c #E3D7C5",
"t$	c #BEA240",
"u$	c #F3D64C",
"v$	c #D7C694",
"w$	c #F1D556",
"x$	c #F0D14E",
"y$	c #D2B97D",
"z$	c #CFB15D",
"{$	c #EFD465",
"|$	c #C3B58A",
"}$	c #F1D458",
"~$	c #EADCBB",
" %	c #DECAA0",
"!%	c #F7D740",
"#%	c #E0C541",
"$%	c #FDD829",
"%%	c #C6B36C",
"&%	c #DECCA2",
"'%	c #FAD843",
"(%	c #F9D639",
"                                                                ",
"                      # $ $ % & & % $ $ #                       ",
"                  ' ( ) * * + , - . * * 0 ( '                   ",
"              1 2 3 4 5 6 7 8 9 : : : : 5 ; 3 < 1               ",
"            = > 4 : ? @ A B C D D D D E F G H I > =             ",
"          J K L ? ? M N O P Q Q Q Q R S T U ? : V K J           ",
"        = W : ? D C X Y Z [ ] ] ] ^ _ ` a b D c : - K =         ",
"      1 > L ? d e f g h i j k l m n o p q r Q s c : V > 1       ",
"      2 4 ? D t u v w x y z { | } ~  !!!#!$!%!&!v '!(!I <       ",
"    ' )!: D *!+!,!-!.!0!1!2!3!4!5!6!x 7!8!9!:!;!<!=!>!5 3 '     ",
"    ( ?!? s @!A!B!C!D!E!F!} G!H!~ I!J!K!L!M!N!O!r s D : ; (     ",
"  # ) : D s P!Q!R!S!T!U!V!W!X!Y!Z![!5!]!^!_!`!#!] Q s ? 5 0 #   ",
"  $ . ? D Q a!b!c!d! !e!f!g!h!i!j!k!l!m!n!o!p!q!r!r s ? : * $   ",
"  $ . s!s r t!u!v!w!` 3!x!y!z!{!|!}!~! #!###$#%#&#] Q D : * $   ",
"  % '#? s r (#)#*#+#U!,#-#.#0#o 1#2#3#4#5#6#o!7#q!] Q D : . %   ",
"  8#5 ? s r r!9#:#1#;#<#=#>#?#@#A#1#B#C#5#6#o!7#q!] Q D : - &   ",
"  8#: D D#E##!F#G#H#I#J#K#L#M#N#O#P#Q#R#S#6###p!q!] Q s ? - 8#  ",
"  % '#? s r r!T#U#V#W#X#Y#Z#[#]#^#_#`#Q!a#6#o!7#q!] Q D : . %   ",
"  $ . ? s r r!b#c#d#e#f# !g#h#i#d#j#E!:!k#l#o!7#q!] Q D : * $   ",
"  $ . ? s Q ] m#Q!n#o#p#k!q#r#s#t#u#v#w#x###p!y#r!E#D#D : * $   ",
"  # ) : D Q E#z#{#|#}#~#b! $!$#$,#$$%$&$'$o!p!q!] Q s ? 5 ) #   ",
"    ($?!? s Q )$*$+$,$-$.$0$1$2$3$4$5$6$7$p!q!r!E#Q D ? 4 (     ",
"    ' )!? D D#8$9$:$;$<$=$>$?$@$A$;$B$C$D$y##!] Q s ? : 3 '     ",
"      E$?!? D Q F$G$H$I$M!J$K$L$M$N$O$}!P$r!] Q s D ? 4 2       ",
"      1 Q$L c s R$S$T$U$V$W$y#X$Y$Z$[$]$^$] Q s D ? L > 1       ",
"        = _$: c `$a$b$c$d$r!e$f$g$h$] i$j$Q s D ? : K =         ",
"          J _$L k$l$m$n$o$p$q$r$s$t$u$v$w$s D ? L W J           ",
"            = Q$x$y$z${$|$}$s s ~$ %!%#%$%? : 4 > =             ",
"              1 E$%%&%'%(%? ? ? ? ? ? ? : ?!)!2 1               ",
"                  ' ($) . . '#5 5 '#. . ) ( '                   ",
"                      # $ $ % 8#8#% $ $ #                       ",
"                                                                "};