/* XPM */ 
static const unsigned char * hazard___wreck_xpm[] = {
"32 32 212 2",
"  	c None",
"! 	c black",
"# 	c #74ADD7",
"$ 	c #5A7A93",
"% 	c #5C7A90",
"& 	c #938033",
"' 	c #648EAE",
"( 	c #7E7F58",
") 	c #9B8A36",
"* 	c #F2CB25",
"+ 	c #F2CC25",
", 	c #FFD624",
"- 	c #9B8936",
". 	c #71A8D0",
"0 	c #7F8058",
"1 	c #CFB12D",
"2 	c #F8D124",
"3 	c #FFD724",
"4 	c #FFD723",
"5 	c #B99E29",
"6 	c #A48C2B",
"7 	c #ECC726",
"8 	c #7F7F58",
"9 	c #6590B0",
": 	c #969153",
"; 	c #FFD823",
"< 	c #FFD922",
"= 	c #524A2D",
"> 	c #29292A",
"? 	c #82722C",
"@ 	c #F8D025",
"A 	c #708D94",
"B 	c #CCAF2E",
"C 	c #F7D124",
"D 	c #FFDA22",
"E 	c #FFDA21",
"F 	c #FFDB21",
"G 	c #A8922A",
"H 	c #BEA428",
"I 	c #DBBD25",
"J 	c #B8A028",
"K 	c #2D2C2A",
"L 	c #2C2B2C",
"M 	c #CDB026",
"N 	c #F7D025",
"O 	c #CCB02E",
"P 	c #FFDC20",
"Q 	c #FFDD20",
"R 	c #FDDB20",
"S 	c #796C2C",
"T 	c #2A2A2B",
"U 	c #3F3B2C",
"V 	c #49432F",
"W 	c #292829",
"X 	c #6C612C",
"Y 	c #F8D522",
"Z 	c #FFD822",
"[ 	c #FFDE20",
"] 	c #FFDF1F",
"^ 	c #FDDD1F",
"_ 	c #9A8928",
"` 	c #4A452C",
"a 	c #2B2B2C",
"b 	c #282829",
"c 	c #413D2F",
"d 	c #BAA127",
"e 	c #F5D222",
"f 	c #FFE01F",
"g 	c #FFE01E",
"h 	c #E6CB21",
"i 	c #887A2B",
"j 	c #2B2A2B",
"k 	c #5C532D",
"l 	c #DDBF25",
"m 	c #CFB22D",
"n 	c #FFDE1F",
"o 	c #FFE11E",
"p 	c #FFE21D",
"q 	c #564F2C",
"r 	c #80742B",
"s 	c #675E2C",
"t 	c #5B532D",
"u 	c #F1D122",
"v 	c #F8D224",
"w 	c #9E892B",
"x 	c #94822A",
"y 	c #E7C823",
"z 	c #FFE31D",
"{ 	c #FFE31C",
"| 	c #FFE41C",
"} 	c #BDAA24",
"~ 	c #2D2C2B",
" !	c #2E2D2E",
"!!	c #EBD120",
"#!	c #FFE21E",
"$!	c #EACE21",
"%!	c #D1B824",
"&!	c #FFDC21",
"'!	c #F8D125",
"(!	c #413D2C",
")!	c #7C6F2B",
"*!	c #C6B024",
"+!	c #F6DB1E",
",!	c #FFE51B",
"-!	c #56502C",
".!	c #69602B",
"0!	c #F8DD1D",
"1!	c #BEA528",
"2!	c #272729",
"3!	c #675E2B",
"4!	c #908328",
"5!	c #EDD61E",
"6!	c #FFE71A",
"7!	c #FFE819",
"8!	c #F5DF1B",
"9!	c #C9B721",
":!	c #FFE51C",
";!	c #FED823",
"<!	c #E3C523",
"=!	c #45402C",
">!	c #37342D",
"?!	c #897E28",
"@!	c #C3B320",
"A!	c #918527",
"B!	c #35332D",
"C!	c #F2DD1B",
"D!	c #FEE61B",
"E!	c #FEE01E",
"F!	c #FEDE1F",
"G!	c #F2CD25",
"H!	c #59512D",
"I!	c #908627",
"J!	c #FFE918",
"K!	c #938133",
"L!	c #5E582B",
"M!	c #C3B321",
"N!	c #C4AC26",
"O!	c #2F2E2F",
"P!	c #8F8328",
"Q!	c #EFD61E",
"R!	c #34322D",
"S!	c #8F8129",
"T!	c #BBA626",
"U!	c #DDC123",
"V!	c #2E2D2B",
"W!	c #564E2D",
"X!	c #AB9629",
"Y!	c #E3C424",
"Z!	c #60572D",
"[!	c #2D2C2D",
"]!	c #2A292A",
"^!	c #413C31",
"_!	c #9A882A",
"`!	c #7C702B",
"a!	c #C3AE23",
"b!	c #E5CD20",
"c!	c #E5CE1F",
"d!	c #E5CF1E",
"e!	c #AB9C24",
"f!	c #7C712A",
"g!	c #A89825",
"h!	c #E5CD1F",
"i!	c #E5CC20",
"j!	c #C3AE24",
"k!	c #7C6E2C",
"l!	c #C6AC26",
"m!	c #E5C424",
"n!	c #F5D123",
"o!	c #7E8058",
"p!	c #E8C525",
"q!	c #F2D122",
"r!	c #BEAB24",
"s!	c #E3CD1F",
"t!	c #C4B023",
"u!	c #D5BE22",
"v!	c #D3B526",
"w!	c #C6A928",
"x!	c #5A5235",
"y!	c #48422D",
"z!	c #50492D",
"{!	c #A99527",
"|!	c #B09C27",
"}!	c #59522D",
"~!	c #534D2C",
" #	c #45412C",
"!#	c #59522C",
"##	c #5C552C",
"$#	c #2F2E2B",
"%#	c #3B382B",
"&#	c #786C2B",
"'#	c #75682B",
"(#	c #59502D",
")#	c #39362C",
"*#	c #302F2B",
"+#	c #414E59",
",#	c #3E4A54",
"-#	c #9C8831",
".#	c #C4A828",
"0#	c #A99129",
"1#	c #59502E",
"2#	c #A28D29",
"3#	c #C4AB26",
"4#	c #C1A926",
"5#	c #897A2A",
"6#	c #C4AA27",
"7#	c #6E622C",
"8#	c #71642C",
"9#	c #C4A728",
":#	c #9C8832",
";#	c #CCB02D",
"<#	c #969152",
"=#	c #7F8057",
"                                                                ",
"                      # $ $ % & & % $ $ #                       ",
"                  ' ( ) * * + , , + * * - ( '                   ",
"              . 0 1 2 3 4 4 4 4 4 4 4 5 6 7 1 8 .               ",
"            9 : 2 4 ; ; < < < < < < < = > ? 3 @ : 9             ",
"          A B C ; ; < D E F F G H I J K L M ; 4 N B A           ",
"        9 O 4 ; < D F F P Q R S T U V W X Y < Z 4 , B 9         ",
"      . : C ; < D F P Q [ ] ^ _ ` a b b c d e D Z 4 N : .       ",
"      0 2 ; < D F Q [ ] f g g g h i b j b j k l D Z 4 @ 8       ",
"    ' m 4 < D F Q n ] o o p p p p q > r s ` t u F < ; 3 1 '     ",
"    ( v ; w x y [ f o p z { | | } ~  !!!#!$!%!Q &!D < 4 '!(     ",
"  # ) 4 < H L (!)!*!+!z | ,!,!,!-!b .!0!p #!g n Q F D ; 3 - #   ",
"  $ + ; < 1!T b 2!L 3!4!5!6!7!8! !L 9!:!{ p o ] [ &!D ; 4 * $   ",
"  $ + ;!D <!=!b b b b b >!?!@!A!b B!C!D!:!z #!E!F!Q F < 4 * $   ",
"  % G!; D &!H!b b b b b b b j j b I!J!7!,!| p g ] Q F < 4 + %   ",
"  K!3 ; D &!H!b b b b b b b b b j L!M!7!,!| p g ] Q F < 4 , &   ",
"  K!4 < E P N!j b b b b b b b b b b j O!P!Q!z o ] Q F D ; , K!  ",
"  % G!; D &!N!j b b b b b b b b b b b b b R!S!T!] Q F < 4 + %   ",
"  $ + ; D &!U!(!b b b b b b b b b b b b b b b V!W!X!Y!< 4 * $   ",
"  $ + ; D F Q Z!b b a [![![!T b b b ]![![!a b b b [!^!H 4 * $   ",
"  # ) 4 < F P _!)!`!a!b!c!d!e!f!f!f!g!h!i!j!)!)!k!l!m!n!3 ) #   ",
"    o!v p!H q!Q ] g #!+!r!s!:!:!:!:!| t!u!o ] [ P F v!w!2 (     ",
"    ' x!y!T z!H!{!|!}!~!T  #!#4!t!##!#$#%#H!&#N!'#(#)#*#x!'     ",
"      +#b b b b T T b b b b b > j b b b b b b j b b b b +#      ",
"      . ,#j j T b b ]!j j j j b b > j j j j b b b j j ,#.       ",
"        9 -#.#0#1#(#2#3#N!N!4#H!H!5#N!3#3#6#7#1#8#9#:#9         ",
"          A ;#C ; < D F F &!&!&!&!&!&!F D D < ; C O A           ",
"            9 <#v ; ; < D D D D D D D < < ; 4 2 : 9             ",
"              . =#m v 4 ; ; ; ; ; ; ; ; 4 v m 0 .               ",
"                  ' o!) + + G!3 3 G!+ + ) ( '                   ",
"                      # $ $ % K!K!% $ $ #                       ",
"                                                                "};