/* XPM */ 
static const unsigned char * hazard___oil_platform_xpm[] = {
"32 32 269 2",
"  	c None",
"! 	c black",
"# 	c #74ADD7",
"$ 	c #5A7A93",
"% 	c #5C7A90",
"& 	c #938033",
"' 	c #648EAE",
"( 	c #7E7F58",
") 	c #9B8A36",
"* 	c #F2CB25",
"+ 	c #F2CC25",
", 	c #FFD624",
"- 	c #9B8936",
". 	c #71A8D0",
"0 	c #7F8058",
"1 	c #BFA42D",
"2 	c #5B5028",
"3 	c #BA9F25",
"4 	c #FFD723",
"5 	c #FFD724",
"6 	c #F8D125",
"7 	c #CFB12D",
"8 	c #7F7F58",
"9 	c #6590B0",
": 	c #969153",
"; 	c #E7C325",
"< 	c #5F5427",
"= 	c #292829",
"> 	c #524A27",
"? 	c #FFD922",
"@ 	c #FFD823",
"A 	c #F8D025",
"B 	c #708D94",
"C 	c #CCAF2E",
"D 	c #F7D124",
"E 	c #726327",
"F 	c #846E29",
"G 	c #9B8028",
"H 	c #443F28",
"I 	c #FFDA21",
"J 	c #FFDB21",
"K 	c #FFDA22",
"L 	c #F7D025",
"M 	c #CCB02E",
"N 	c #D2B324",
"O 	c #5A4E28",
"P 	c #BC9829",
"Q 	c #363229",
"R 	c #443F27",
"S 	c #FFDC20",
"T 	c #FFDD20",
"U 	c #FFDC21",
"V 	c #FFD822",
"W 	c #C7AB24",
"X 	c #4C4329",
"Y 	c #AA8B2A",
"Z 	c #2B2A2B",
"[ 	c #2F2D28",
"] 	c #9D8A24",
"^ 	c #C7AF22",
"_ 	c #E6C920",
"` 	c #FFDF1F",
"a 	c #FFDE1F",
"b 	c #FFDE20",
"c 	c #F8D124",
"d 	c #D4B623",
"e 	c #AB8B29",
"f 	c #91782A",
"g 	c #353334",
"h 	c #474227",
"i 	c #605726",
"j 	c #958523",
"k 	c #CEB621",
"l 	c #E2C820",
"m 	c #CFB22D",
"n 	c #DEBD24",
"o 	c #8C7429",
"p 	c #473F29",
"q 	c #312F2A",
"r 	c #9D8C26",
"s 	c #7D7124",
"t 	c #524C26",
"u 	c #3B3827",
"v 	c #433E27",
"w 	c #685F27",
"x 	c #8E7F24",
"y 	c #D5BB21",
"z 	c #E1C421",
"{ 	c #F8D224",
"| 	c #595027",
"} 	c #9C8029",
"~ 	c #5D4F29",
" !	c #968723",
"!!	c #FFE21D",
"#!	c #FFE31D",
"$!	c #FFE31C",
"%!	c #D9C31E",
"&!	c #B9A820",
"'!	c #736A24",
"(!	c #2A2A2A",
")!	c #3A3839",
"*!	c #3D3928",
"+!	c #6E6226",
",!	c #BFA623",
"-!	c #E3C322",
".!	c #675D26",
"0!	c #504629",
"1!	c #514B26",
"2!	c #E6CD1F",
"3!	c #FFE41C",
"4!	c #FFE51B",
"5!	c #978A22",
"6!	c #383838",
"7!	c #AF9F2B",
"8!	c #8C7F24",
"9!	c #444027",
":!	c #3C3828",
";!	c #998625",
"<!	c #CBB225",
"=!	c #312F2C",
">!	c #C6B120",
"?!	c #FFE61B",
"@!	c #FFE71A",
"A!	c #FFE819",
"B!	c #7D774F",
"C!	c #2E2E2E",
"D!	c #2C2B2C",
"E!	c #DFC91E",
"F!	c #E6CC1F",
"G!	c #8A7B24",
"H!	c #292729",
"I!	c #C0A723",
"J!	c #FED823",
"K!	c #EAD244",
"L!	c #A49D71",
"M!	c #FFE918",
"N!	c #D2C230",
"O!	c #646364",
"P!	c #747272",
"Q!	c #373636",
"R!	c #8B8032",
"S!	c #FFE51C",
"T!	c #FFE21E",
"U!	c #C7B121",
"V!	c #C0A823",
"W!	c #F2CD25",
"X!	c #EAD344",
"Y!	c #BEB88C",
"Z!	c #FFEA17",
"[!	c #FFEB16",
"]!	c #908620",
"^!	c #959495",
"_!	c #817E7F",
"`!	c #3A3939",
"a!	c #94893A",
"b!	c #2A2928",
"c!	c #C2A923",
"d!	c #938133",
"e!	c #D8C132",
"f!	c #696337",
"g!	c #FFED15",
"h!	c #ACA43B",
"i!	c #7B7223",
"j!	c #595126",
"k!	c #E2C720",
"l!	c #736925",
"m!	c #FFEB17",
"n!	c #E1D635",
"o!	c #444444",
"p!	c #5A595A",
"q!	c #817C48",
"r!	c #7D7324",
"s!	c #EFD72D",
"t!	c #A0954A",
"u!	c #837F69",
"v!	c #FADD3B",
"w!	c #FFE01F",
"x!	c #FBDE1E",
"y!	c #FFEC16",
"z!	c #CDBF1A",
"{!	c #BFB11C",
"|!	c #39372E",
"}!	c #8B8233",
"~!	c #DFCB3F",
" #	c #919191",
"!#	c #CBCACA",
"##	c #F6DD58",
"$#	c #EDD63D",
"%#	c #544F25",
"&#	c #676023",
"'#	c #292828",
"(#	c #7C7224",
")#	c #CBC9C9",
"*#	c #DFDDDD",
"+#	c #C5BC87",
",#	c #EAD544",
"-#	c #908521",
".#	c #686124",
"0#	c #5D5725",
"1#	c #6B6638",
"2#	c #807528",
"3#	c #CFCDCD",
"4#	c #E1DFDF",
"5#	c #C3BB8A",
"6#	c #E7D348",
"7#	c #FCE51A",
"8#	c #6B6324",
"9#	c #7A797A",
":#	c #716F64",
";#	c #7B796A",
"<#	c #3A382F",
"=#	c #E6CE1E",
">#	c #DFCA40",
"?#	c #F6DC58",
"@#	c #7E8058",
"A#	c #D0C372",
"B#	c #E7D248",
"C#	c #F8DF1C",
"D#	c #515051",
"E#	c #908B44",
"F#	c #6E6921",
"G#	c #5B582F",
"H#	c #E3CA1F",
"I#	c #FFE11E",
"J#	c #DFC940",
"K#	c #A7A6A6",
"L#	c #B9B7B7",
"M#	c #F6DB58",
"N#	c #ECD043",
"O#	c #E7CF4A",
"P#	c #DAC861",
"Q#	c #D7C766",
"R#	c #E7D447",
"S#	c #E5D24A",
"T#	c #B9B57A",
"U#	c #F3E94A",
"V#	c #D2CC62",
"W#	c #A09E86",
"X#	c #616061",
"Y#	c #AD9A22",
"Z#	c #C0AA21",
"[#	c #B3A342",
"]#	c #C5C4C4",
"^#	c #C0BEBE",
"_#	c #F6DB59",
"`#	c #7F8057",
"a#	c #6A6240",
"b#	c #474647",
"c#	c #525152",
"d#	c #5F5F60",
"e#	c #4B4A4B",
"f#	c #504F50",
"g#	c #7E7D7E",
"h#	c #403F40",
"i#	c #2F2E2F",
"j#	c #4E4D4E",
"k#	c #4C4B4B",
"l#	c #7D7039",
"m#	c #969152",
"n#	c #E8C524",
"o#	c #494228",
"p#	c #2A292A",
"q#	c #544C2A",
"r#	c #95822F",
"s#	c #524928",
"t#	c #524B27",
"u#	c #5E5327",
"v#	c #A9922F",
"w#	c #CCB02D",
"                                                                ",
"                      # $ $ % & & % $ $ #                       ",
"                  ' ( ) * * + , , + * * - ( '                   ",
"              . 0 1 2 3 4 4 4 4 4 4 4 4 5 6 7 8 .               ",
"            9 : ; < = > ? ? ? ? ? ? ? @ @ 4 5 A : 9             ",
"          B C D E F G H I J J J J J J K K ? @ 4 L C B           ",
"        9 M 4 N O P Q R S T T T T T T U J K ? V 4 , C 9         ",
"      . : D @ W X Y Z [ ] ^ _ ` ` ` a b T U J K V 4 L : .       ",
"      0 c @ ? d e f g Z = = h i j k l ` a T U J K V 4 A 8       ",
"    ' m 4 ? K n o p q r s t u = = = v w x y z U J ? @ 5 7 '     ",
"    ( { @ K J | } ~  !!!#!$!%!&!'!= (!)!Z = *!+!,!-!? 4 6 (     ",
"  # ) 4 ? K U .!0!1!2!#!3!4!4!4!5!= 6!7!8!9!:!= = ;!K @ 5 - #   ",
"  $ + @ ? J T <!=!>!#!3!?!@!A!A!B!C!D!E!$!!!F!G!H!I!K @ 4 * $   ",
"  $ + J!K U T K!L!!!3!4!@!A!M!N!O!P!Q!R!S!#!T!U!= V!J ? 4 * $   ",
"  % W!@ K U b X!Y!#!S!@!A!Z![!]!^!_!`!a!4!3!!!U!b!c!J ? 4 + %   ",
"  d!5 @ K U b e!f!#!S!@!A!Z!g!h!= = = i!4!3!!!U!j!T J ? 4 , &   ",
"  d!4 ? I S a k!l!#!4!@!M!m!g!n!o!p!q!r!?!3!s!t!u!v!J K @ , d!  ",
"  % W!@ K U b w!x!#!S!@!A!Z!y!z!= {!|!}!4!3!~! #!###J ? 4 + %   ",
"  $ + @ K U b w!$##!3!?!A!M!Z!]!%#&#'#(#4!$!~!)#*###J ? 4 * $   ",
"  $ + @ K J T ` +#,##!S!?!A!A!-#.#0#1#2#3!#!~!3#4###I ? 4 * $   ",
"  # ) 4 ? J S a 5#6#!!3!S!?!7#8#9#:#;#<#=#!!>#3#4#?#K @ 5 ) #   ",
"    @#{ @ K J T A#B#T!!!#!3!C#D#E#F#G#Z H#I#J#K#L#M#? @ c (     ",
"    ' m @ ? N#O#P#Q#B#6#6#R#S#T#U#V#W#X#Y#Z#[#]#^#_#@ 4 7 '     ",
"      `#{ @ a#b#b#b#c#d#b#b#b#e#f#g#f#h#= = i#j#k#l#@ c 0       ",
"      . m#n#o#= = = = = = = = = = = = = = = = = p#q#D : .       ",
"        9 r#s#> > > > > > t#t#t#t#t#t#> > > > > > u#v#9         ",
"          B w#D @ ? K J J U U U U U U J K K ? @ D M B           ",
"            9 m#{ @ @ ? K K K K K K K ? ? @ 4 c : 9             ",
"              . `#m { 4 @ @ @ @ @ @ @ @ 4 { m 0 .               ",
"                  ' @#) + + W!5 5 W!+ + ) ( '                   ",
"                      # $ $ % d!d!% $ $ #                       ",
"                                                                "};