/* XPM */ 
static const unsigned char * hazard___obstruction_xpm[] = {
"32 32 217 2",
"  	c None",
"! 	c black",
"# 	c #74ADD7",
"$ 	c #5A7A93",
"% 	c #5C7A90",
"& 	c #938033",
"' 	c #648EAE",
"( 	c #7E7F58",
") 	c #9B8A36",
"* 	c #F2CB25",
"+ 	c #F2CC25",
", 	c #FFD624",
"- 	c #9B8936",
". 	c #71A8D0",
"0 	c #7F8058",
"1 	c #CFB12D",
"2 	c #F8D124",
"3 	c #FFD724",
"4 	c #FFD723",
"5 	c #D4B524",
"6 	c #F8D125",
"7 	c #7F7F58",
"8 	c #6590B0",
"9 	c #969153",
": 	c #FFD823",
"; 	c #FFD922",
"< 	c #FCD722",
"= 	c #7B6C26",
"> 	c #383428",
"? 	c #D2B424",
"@ 	c #F8D025",
"A 	c #708D94",
"B 	c #CCAF2E",
"C 	c #F7D124",
"D 	c #FFDA22",
"E 	c #FFDA21",
"F 	c #FFDB21",
"G 	c #D4B723",
"H 	c #2B2A29",
"I 	c #6B6026",
"J 	c #FAD721",
"K 	c #F7D025",
"L 	c #CCB02E",
"M 	c #FFDC20",
"N 	c #F3D321",
"O 	c #3D3928",
"P 	c #49432B",
"Q 	c #7E6F2F",
"R 	c #D1B622",
"S 	c #FFDC21",
"T 	c #FFD822",
"U 	c #FFDD20",
"V 	c #FFDE20",
"W 	c #9C8A24",
"X 	c #2C2B29",
"Y 	c #AB9532",
"Z 	c #DEBE36",
"[ 	c #4A442B",
"] 	c #3F3B28",
"^ 	c #EFD020",
"_ 	c #FFDF1F",
"` 	c #D7BD21",
"a 	c #413D27",
"b 	c #48422B",
"c 	c #F4D136",
"d 	c #F5D130",
"e 	c #AD9632",
"f 	c #2D2C29",
"g 	c #998824",
"h 	c #FFDE1F",
"i 	c #CFB22D",
"j 	c #F9DC1F",
"k 	c #6D6325",
"l 	c #343129",
"m 	c #D9BB35",
"n 	c #F7D22B",
"o 	c #F8D329",
"p 	c #4C4529",
"q 	c #423E27",
"r 	c #EBCF1F",
"s 	c #F8D224",
"t 	c #FFE01F",
"u 	c #FFE11E",
"v 	c #D1BB20",
"w 	c #F5D132",
"x 	c #F6D22F",
"y 	c #D5B72C",
"z 	c #F6D12A",
"{ 	c #AF9729",
"| 	c #2E2C29",
"} 	c #8D7F24",
"~ 	c #F9DB1F",
" !	c #E8CF1F",
"!!	c #454127",
"#!	c #443F2A",
"$!	c #D6B835",
"%!	c #A48E32",
"&!	c #E0C034",
"'!	c #F7D229",
"(!	c #CEB720",
")!	c #FFE01E",
"*!	c #FFE21E",
"+!	c #998A23",
",!	c #F5D131",
"-!	c #E5C430",
".!	c #85752F",
"0!	c #D9B929",
"1!	c #3B3729",
"2!	c #685F25",
"3!	c #FBDE1E",
"4!	c #FED823",
"5!	c #FEDF1F",
"6!	c #FEE11E",
"7!	c #E7CE1E",
"8!	c #474327",
"9!	c #4B452B",
":!	c #827229",
";!	c #CEB820",
"<!	c #FEE01E",
"=!	c #FEDE1F",
">!	c #F2CD25",
"?!	c #FDE01E",
"@!	c #978923",
"A!	c #2C2A29",
"B!	c #AE9732",
"C!	c #F6D22E",
"D!	c #89782F",
"E!	c #D7B729",
"F!	c #403B28",
"G!	c #464227",
"H!	c #E4CA20",
"I!	c #938133",
"J!	c #CFB820",
"K!	c #80712F",
"L!	c #EFCC30",
"M!	c #B59C29",
"N!	c #968623",
"O!	c #615926",
"P!	c #3D392A",
"Q!	c #D2B534",
"R!	c #524A29",
"S!	c #474227",
"T!	c #E4C820",
"U!	c #988724",
"V!	c #2C2B28",
"W!	c #F2CE30",
"X!	c #564E2C",
"Y!	c #EAC934",
"Z!	c #B99F29",
"[!	c #968524",
"]!	c #E5C821",
"^!	c #464127",
"_!	c #554D2C",
"`!	c #F0CE36",
"a!	c #F5D029",
"b!	c #998531",
"c!	c #938031",
"d!	c #C6AB30",
"e!	c #F4CF29",
"f!	c #2E2C28",
"g!	c #C5AC23",
"h!	c #978524",
"i!	c #B69D33",
"j!	c #BAA02C",
"k!	c #2D2B2A",
"l!	c #867530",
"m!	c #D7B829",
"n!	c #3F3A29",
"o!	c #5E5527",
"p!	c #E6C622",
"q!	c #454028",
"r!	c #584F2C",
"s!	c #EECC31",
"t!	c #F1CE30",
"u!	c #4F472C",
"v!	c #AB9432",
"w!	c #857429",
"x!	c #302E28",
"y!	c #C3A824",
"z!	c #7E8058",
"{!	c #B89E29",
"|!	c #F8D328",
"}!	c #F8D229",
"~!	c #F7D22A",
" #	c #E6C42A",
"!#	c #F6D12B",
"##	c #D8B929",
"$#	c #3E3929",
"%#	c #534B27",
"&#	c #E6C424",
"'#	c #C2A625",
"(#	c #312F28",
")#	c #494329",
"*#	c #B39A29",
"+#	c #BCA129",
",#	c #8B7929",
"-#	c #B39925",
".#	c #7F8057",
"0#	c #746627",
"1#	c #AD9326",
"2#	c #828253",
"3#	c #9D8726",
"4#	c #5A5127",
"5#	c #5A5227",
"6#	c #5A5226",
"7#	c #887925",
"8#	c #C8B022",
"9#	c #C8AF22",
":#	c #C8AE22",
";#	c #C8AD23",
"<#	c #C8AC23",
"=#	c #C8AC24",
">#	c #C8AB24",
"?#	c #C1A426",
"@#	c #828153",
"A#	c #CCB02D",
"B#	c #969152",
"                                                                ",
"                      # $ $ % & & % $ $ #                       ",
"                  ' ( ) * * + , , + * * - ( '                   ",
"              . 0 1 2 3 4 4 4 4 5 4 4 4 3 6 1 7 .               ",
"            8 9 2 4 : : ; ; < = > ? ; : : 4 3 @ 9 8             ",
"          A B C : : ; D E F G H H I J D D ; : 4 K B A           ",
"        8 L 4 : ; D F F M N O P Q H R S F D ; T 4 , B 8         ",
"      . 9 C : ; D F M U V W X Y Z [ ] ^ U S F D T 4 K 9 .       ",
"      0 2 : ; D F U V _ ` a b c d e f g h U S F D T 4 @ 7       ",
"    ' i 4 ; D F U h _ j k l m n o d p q r _ U S F ; : 3 1 '     ",
"    ( s : D F U V t u v H Q w x y z { | } ~ _ U S D ; 4 6 (     ",
"  # ) 4 ; D S V _ u  !!!#!$!d %!H &!'!p H (!)!h U F D : 3 - #   ",
"  $ + : ; F U _ )!*!+!f e ,!-!H H .!'!0!1!2!3!_ V S D : 4 * $   ",
"  $ + 4!D S U 5!6!7!8!9!c '!.!H H .!'!o :!H ;!<!=!U F ; 4 * $   ",
"  % >!: D S V t ?!@!A!B!C!'!D!H H .!'!o E!F!G!H!_ U F ; 4 + %   ",
"  I!3 : D S V t J!H K!w o o L!H H .!'!o o M!H N!_ U F ; 4 , &   ",
"  I!4 ; E M h )!O!P!Q!n o o L!H H .!'!o o o R!S!T!U F D : , I!  ",
"  % >!: D S V U!V!K!w o o o W!X!H Y!'!o o o Z!H [!U F ; 4 + %   ",
"  $ + : D S ]!^!_!`!n o o o a!b!c!d!'!o o o e!:!f!g!F ; 4 * $   ",
"  $ + : D F h!H i!C!o o o o j!k!k!l!'!o o o o m!n!o!E ; 4 * $   ",
"  # ) 4 ; p!q!r!s!'!o o o o t!u!k!v!'!o o o o o w!x!y!: 3 ) #   ",
"    z!s : o!H {!'!o |!o }!o ~! #E!!#'!}!o o o o ##$#%#&#2 (     ",
"    ' i '#(#)#*#+#+#+#+#+#+#+#+#+#+#+#+#+#+#+#+#+#,#H -#1 '     ",
"      .#0#H H H H H H H H H H H H H H H H H H H H H H 1#0       ",
"      . 2#3#4#4#4#5#5#5#6#6#6#6#6#6#7#8#9#:#;#<#=#>#?#@#.       ",
"        8 A#4 T ; E F M U V V V V V U U S F D ; : 4 B 8         ",
"          A A#C : ; D F F S S S S S S F D D ; : C L A           ",
"            8 B#s : : ; D D D D D D D ; ; : 4 2 9 8             ",
"              . .#i s 4 : : : : : : : : 4 s i 0 .               ",
"                  ' z!) + + >!3 3 >!+ + ) ( '                   ",
"                      # $ $ % I!I!% $ $ #                       ",
"                                                                "};