/* XPM */ 
static const unsigned char * hazard___ice_xpm[] = {
"32 32 411 2",
"  	c None",
"! 	c black",
"# 	c #74ADD7",
"$ 	c #5A7A93",
"% 	c #5C7A90",
"& 	c #938033",
"' 	c #648EAE",
"( 	c #7E7F58",
") 	c #9B8A36",
"* 	c #F2CB25",
"+ 	c #F2CC25",
", 	c #FFD624",
"- 	c #9B8936",
". 	c #71A8D0",
"0 	c #7F8058",
"1 	c #CFB12D",
"2 	c #F8D124",
"3 	c #FFD724",
"4 	c #D8C643",
"5 	c #FFD723",
"6 	c #FCD625",
"7 	c #B1B35E",
"8 	c #AAB05C",
"9 	c #DFC93D",
": 	c #F7D429",
"; 	c #F8D125",
"< 	c #7F7F58",
"= 	c #6590B0",
"> 	c #969153",
"? 	c #D1C349",
"@ 	c #BEBB58",
"A 	c #7B9D8F",
"B 	c #4986B8",
"C 	c #94A87A",
"D 	c #F8D627",
"E 	c #3E77BA",
"F 	c #3375B8",
"G 	c #F7D627",
"H 	c #568CAD",
"I 	c #7A9C8F",
"J 	c #B9B95C",
"K 	c #F1D12F",
"L 	c #F8D025",
"M 	c #708D94",
"N 	c #CCAF2E",
"O 	c #F7D124",
"P 	c #FFD823",
"Q 	c #7B9E90",
"R 	c #4385C2",
"S 	c #9BAD76",
"T 	c #558CAE",
"U 	c #3F81C0",
"V 	c #90A980",
"W 	c #2C74B8",
"X 	c #2071B5",
"Y 	c #5D93AB",
"Z 	c #4385BC",
"[ 	c #3B82C3",
"] 	c #D9C742",
"^ 	c #F7D025",
"_ 	c #CCB02E",
"` 	c #D6C544",
"a 	c #F1D32D",
"b 	c #789D95",
"c 	c #4286C5",
"d 	c #BDC05D",
"e 	c #A5B26B",
"f 	c #3D81C2",
"g 	c #468DCA",
"h 	c #3F8CC9",
"i 	c #548CAE",
"j 	c #DECC3C",
"k 	c #5892B1",
"l 	c #3F87C6",
"m 	c #D9C841",
"n 	c #D8C94A",
"o 	c #F2D230",
"p 	c #BFC05F",
"q 	c #589DC5",
"r 	c #7FA897",
"s 	c #74A7AB",
"t 	c #4E9CD5",
"u 	c #C1C861",
"v 	c #FADC23",
"w 	c #96AC77",
"x 	c #4790CB",
"y 	c #4D99D1",
"z 	c #5E9BB8",
"{ 	c #DFD03A",
"| 	c #FFDE20",
"} 	c #5994B2",
"~ 	c #4992CE",
" !	c #9EB481",
"!!	c #5C9BC9",
"#!	c #84AAA0",
"$!	c #C1C563",
"%!	c #5AA4CF",
"&!	c #549ED3",
"'!	c #549DD2",
"(!	c #55A2D8",
")!	c #C0C75E",
"*!	c #FFE01F",
"+!	c #FBDF21",
",!	c #9FBE81",
"-!	c #5DADDA",
".!	c #59ABD8",
"0!	c #E2D83D",
"1!	c #FFE01E",
"2!	c #FFDF1F",
"3!	c #558FAE",
"4!	c #5196D0",
"5!	c #5397D1",
"6!	c #5498D0",
"7!	c #8AAB97",
"8!	c #F2D330",
"9!	c #CFB22D",
":!	c #D8CB52",
";!	c #99BBA8",
"<!	c #9ABDA9",
"=!	c #70AFD1",
">!	c #6EB0E0",
"?!	c #81BEE7",
"@!	c #78B5DF",
"A!	c #BEC154",
"B!	c #FFE11E",
"C!	c #FFE21D",
"D!	c #FAE124",
"E!	c #7BB9E5",
"F!	c #68B1DE",
"G!	c #F9E023",
"H!	c #FFE21E",
"I!	c #68A1B9",
"J!	c #5C9FD6",
"K!	c #62A4D7",
"L!	c #619AC1",
"M!	c #86A797",
"N!	c #91AB8C",
"O!	c #A3B27B",
"P!	c #F8D224",
"Q!	c #CBC965",
"R!	c #87C2E9",
"S!	c #8CC7EC",
"T!	c #87C1E6",
"U!	c #A0C2A6",
"V!	c #F3DD27",
"W!	c #FFE31C",
"X!	c #FAE323",
"Y!	c #7FBBE6",
"Z!	c #6BB3DE",
"[!	c #F9E222",
"]!	c #FFE31D",
"^!	c #CBD24F",
"_!	c #7CBADB",
"`!	c #72B3E1",
"a!	c #72B2DF",
"b!	c #72AFD7",
"c!	c #85AEAE",
"d!	c #C6C768",
"e!	c #BDC982",
"f!	c #D6D469",
"g!	c #D6D568",
"h!	c #C4D07D",
"i!	c #8ABCC9",
"j!	c #9BCEE6",
"k!	c #A1D6F3",
"l!	c #98BBA2",
"m!	c #FAE427",
"n!	c #FCE522",
"o!	c #A0D2F1",
"p!	c #7DBEE4",
"q!	c #F9E421",
"r!	c #EBDF34",
"s!	c #ADD0B5",
"t!	c #8AC4E9",
"u!	c #86B5BE",
"v!	c #86B2B6",
"w!	c #C1CC7D",
"x!	c #D3D36E",
"y!	c #A5CDBB",
"z!	c #D9D057",
"{!	c #E0CD40",
"|!	c #89BCC5",
"}!	c #9DC4C0",
"~!	c #E6D239",
" #	c #CED260",
"!#	c #95CDE7",
"##	c #99D3F2",
"$#	c #B0D7B9",
"%#	c #F2E429",
"&#	c #AEE1F9",
"'#	c #A5DAF5",
"(#	c #B9D05F",
")#	c #8CCAE7",
"*#	c #9ED2F0",
"+#	c #A5C8AD",
",#	c #F5DE27",
"-#	c #FCDD24",
".#	c #C1D48B",
"0#	c #8ACAE3",
"1#	c #81B1AC",
"2#	c #FED823",
"3#	c #8AB5A8",
"4#	c #A4D9F0",
"5#	c #9AC3C0",
"6#	c #E3D438",
"7#	c #FEE11E",
"8#	c #FFE41C",
"9#	c #B4CB59",
":#	c #2799CF",
";#	c #2298D4",
"<#	c #54AAAC",
"=#	c #5DB7E3",
">#	c #58B0DE",
"?#	c #81C5EA",
"@#	c #A9D8F3",
"A#	c #A8C8AA",
"B#	c #F8E327",
"C#	c #FDE022",
"D#	c #C1D58C",
"E#	c #91D0E9",
"F#	c #81BDD1",
"G#	c #ABBB74",
"H#	c #F2CD25",
"I#	c #FDD825",
"J#	c #E3D140",
"K#	c #A5C08D",
"L#	c #60B9E2",
"M#	c #4BADC7",
"N#	c #A7C871",
"O#	c #F8E123",
"P#	c #F8E322",
"Q#	c #F8E521",
"R#	c #B0CC5C",
"S#	c #279CD7",
"T#	c #2FA3DB",
"U#	c #30A3DB",
"V#	c #34A7DE",
"W#	c #8BC5B9",
"X#	c #F4E529",
"Y#	c #F8E223",
"Z#	c #C0D68C",
"[#	c #95D2EB",
"]#	c #8CC3D9",
"^#	c #A7BA78",
"_#	c #FAD727",
"`#	c #FDD725",
"a#	c #938133",
"b#	c #DCD970",
"c#	c #91D3E8",
"d#	c #3CABDF",
"e#	c #33A6DD",
"f#	c #69BEE5",
"g#	c #A2DAF2",
"h#	c #95CBE2",
"i#	c #8BC3D9",
"j#	c #74AEC3",
"k#	c #C4C35C",
"l#	c #C9C562",
"m#	c #2899D2",
"n#	c #269ED8",
"o#	c #31A5DD",
"p#	c #279CD6",
"q#	c #2A99D0",
"r#	c #D3CD44",
"s#	c #339FC6",
"t#	c #31A5DC",
"u#	c #B6D060",
"v#	c #2FA6DC",
"w#	c #50B3AE",
"x#	c #EEE328",
"y#	c #F8E024",
"z#	c #8FC187",
"{#	c #2CA6DC",
"|#	c #75BC8B",
"}#	c #F8D728",
"~#	c #41A2B7",
" $	c #2FA4DC",
"!$	c #4CADC6",
"#$	c #DDD63E",
"$$	c #BAD15C",
"%$	c #39A8D9",
"&$	c #5FB5B3",
"'$	c #30ABE1",
"($	c #33A7DE",
")$	c #2EA6DC",
"*$	c #59B6A6",
"+$	c #F2E226",
",$	c #FBE021",
"-$	c #90C086",
".$	c #33A7DD",
"0$	c #25A7D9",
"1$	c #7BBD86",
"2$	c #4CACC5",
"3$	c #DCD440",
"4$	c #F1DF28",
"5$	c #5DB4B2",
"6$	c #68B7AB",
"7$	c #EFE328",
"8$	c #2FADE2",
"9$	c #B5D160",
":$	c #2DA6DB",
";$	c #5DB69D",
"<$	c #FADD24",
"=$	c #C7CD52",
">$	c #32A1D5",
"?$	c #72B197",
"@$	c #E6C83F",
"A$	c #E1C138",
"B$	c #A2C36F",
"C$	c #2AA7D0",
"D$	c #3BACBF",
"E$	c #3EACC5",
"F$	c #6AB7AA",
"G$	c #F4E325",
"H$	c #2DB0E5",
"I$	c #BAD05D",
"J$	c #3AA9D7",
"K$	c #2CA6D5",
"L$	c #5EB59C",
"M$	c #52B2AC",
"N$	c #36AAC3",
"O$	c #45A8B8",
"P$	c #F5D52A",
"Q$	c #F6D22D",
"R$	c #96863D",
"S$	c #7E8058",
"T$	c #AFC662",
"U$	c #22A5D8",
"V$	c #29A6DA",
"W$	c #2BA6DB",
"X$	c #30A6DC",
"Y$	c #32A6DD",
"Z$	c #49ADC9",
"[$	c #F2E029",
"]$	c #9FC677",
"^$	c #32A6DC",
"_$	c #30A6DB",
"`$	c #46ADBB",
"a$	c #C6CB50",
"b$	c #60B4A2",
"c$	c #2DA8CB",
"d$	c #26A5D9",
"e$	c #6CB7A8",
"f$	c #B0CB68",
"g$	c #23A5D8",
"h$	c #4FB0B0",
"i$	c #79B98E",
"j$	c #7F8057",
"k$	c #EED52F",
"l$	c #4BAEBB",
"m$	c #B6CC62",
"n$	c #FBE121",
"o$	c #8BC68B",
"p$	c #DCD93F",
"q$	c #C4D055",
"r$	c #3AA8D7",
"s$	c #69B5A7",
"t$	c #EFD530",
"u$	c #969152",
"v$	c #EED430",
"w$	c #6CB5A8",
"x$	c #6DB5A8",
"y$	c #5FB2B5",
"z$	c #B6CB63",
"{$	c #FADE23",
"|$	c #8DC68A",
"}$	c #45B5CD",
"~$	c #DCD73F",
" %	c #4EAEC5",
"!%	c #ADC66D",
"#%	c #6DB4A8",
"$%	c #EFD431",
"%%	c #CCB02D",
"&%	c #EFD630",
"'%	c #6EB5A7",
"(%	c #B1C868",
")%	c #8EC58A",
"*%	c #2CAFE4",
"+%	c #25A4DC",
",%	c #27A7DF",
"-%	c #2BADE3",
".%	c #46B5CD",
"0%	c #DBD541",
"1%	c #4EADC5",
"2%	c #34A6DE",
"3%	c #D7D046",
"4%	c #86BB92",
"5%	c #4FADC4",
"6%	c #52B4C1",
"7%	c #2EAFE2",
"8%	c #80BA8C",
"9%	c #1F9BD6",
":%	c #3DB2D4",
";%	c #47B5CC",
"<%	c #46ADCC",
"=%	c #54AFBF",
">%	c #DED141",
"?%	c #F3D52D",
"@%	c #A7C673",
"A%	c #3AB2D8",
"B%	c #8BC28D",
"C%	c #F7D827",
"D%	c #1F9CD7",
"E%	c #1D98D4",
"F%	c #D6D147",
"G%	c #4FB6C5",
"H%	c #48B5CB",
"I%	c #C0CC5C",
"J%	c #D5D049",
"K%	c #FCD725",
"L%	c #A7BF67",
"                                                                ",
"                      # $ $ % & & % $ $ #                       ",
"                  ' ( ) * * + , , + * * - ( '                   ",
"              . 0 1 2 3 4 5 6 7 8 6 9 : 3 ; 1 < .               ",
"            = > 2 ? @ A B C D E F G H I J J K L > =             ",
"          M N O P Q R S T U V W X Y U T Z [ ] 5 ^ N M           ",
"        = _ 5 ` a b c d e f g h h f i j k l m n o , N =         ",
"      . > O p q r s t u v w x y y z { | } ~  !!!#!o ^ > .       ",
"      0 2 P $!%!&!'!(!)!*!+!,!-!.!0!1!2!3!4!5!6!7!8!5 L <       ",
"    ' 9!:!;!<!=!>!?!@!A!B!C!D!E!F!G!H!B!I!J!K!L!M!N!O!3 1 '     ",
"    ( P!Q!R!S!S!S!S!T!U!V!W!X!Y!Z![!]!^!_!`!a!b!b!b!c!5 ; (     ",
"  # ) 5 d!e!f!g!h!i!j!k!l!m!n!o!p!q!r!s!t!u!v!v!w!x!y!z!3 - #   ",
"  $ + {!|!}!~!2!1!H! #!###$#%#&#'#(#)#*#+#,#B!2!-#.#0#1#5 * $   ",
"  $ + 2#3#4#5#6#7#C!8#9#:#;#<#=#>#?#@#A#B#]!H!C#D#E#F#G#5 * $   ",
"  % H#I#J#K#L#M#N#O#P#Q#R#S#T#U#V#S#W#X#P#Y#D!Z#[#]#^#_#`#+ %   ",
"  a#3 b#c#d#V#V#V#V#V#V#V#T#V#V#V#U#e#V#V#V#f#g#&#h#i#j#k#, &   ",
"  a#5 l#m#n#o#V#V#V#V#V#V#V#V#V#V#V#V#V#V#V#V#V#V#p#;#q#k#, a#  ",
"  % H#I#r#s#t#M#N#O#P#Q#u#V#V#V#V#v#w#x#P#Y#y#z#V#{#|#}#`#+ %   ",
"  $ + P ~# $!$#$B!]!8#$$%$V#&$'$'$($)$*$+$W!C!,$-$.$0$1$5 * $   ",
"  $ + P 2$!$3$2!B!C!4$5$V#6$7$8$8$9$%$:$;$4$B!*!<$=$>$?$@$A$$   ",
"  # ) 5 B$C$D$D$D$D$E$e#F$G$Q#H$H$Q#I$J$K$L$M$D$D$N$O$P$Q$R$#   ",
"    S$P!T$U$V$V$W$X$Y$Z$[$8#P#H$H$P#8#]$^$_$X$)$V$V$`$P 2 (     ",
"    ' 9!a$b$b$c$d$V#V#e$C!]!O#H$H$O#C!f$V#V#X$g$h$b$i$5 1 '     ",
"      j$P!P k$l$Y$V#V#m$B!n$o$H$H$p$B!q$r$V#V#:$s$t$P 2 0       ",
"      . u$O v$w$x$y$V#z${$|$H$H$H$}$~$2! %V#!%x$#%$%O > .       ",
"        = %%5 $%&%'%V#(%)%*%+%,%-%*%.%0%1%2%3%t$$%5 N =         ",
"          M %%O P 4%5%6%H$7%8%+%9%:%H$;%<%=%>%P O _ M           ",
"            = u$P!P ?%@%A%B%C%D%E%F%G%H%I%P 5 2 > =             ",
"              . j$9!P!5 J%P K%L%L%K%P P 5 P!9!0 .               ",
"                  ' S$) + + H#3 3 H#+ + ) ( '                   ",
"                      # $ $ % a#a#% $ $ #                       ",
"                                                                "};