/* XPM */ 
static const unsigned char * hazard___wind_farm_xpm[] = {
"32 32 169 2",
"  	c None",
"! 	c black",
"# 	c #74ADD7",
"$ 	c #5A7A93",
"% 	c #5C7A90",
"& 	c #938033",
"' 	c #648EAE",
"( 	c #7E7F58",
") 	c #9B8A36",
"* 	c #F2CB25",
"+ 	c #EFC925",
", 	c #6B5E27",
"- 	c #FFD624",
". 	c #F2CC25",
"0 	c #9B8936",
"1 	c #71A8D0",
"2 	c #7F8058",
"3 	c #CFB12D",
"4 	c #F8D124",
"5 	c #FFD724",
"6 	c #FFD723",
"7 	c #CDAF24",
"8 	c #282829",
"9 	c #F8D125",
": 	c #7F7F58",
"; 	c #6590B0",
"< 	c #969153",
"= 	c #FFD823",
"> 	c #FFD922",
"? 	c #897826",
"@ 	c #F8D025",
"A 	c #708D94",
"B 	c #CCAF2E",
"C 	c #F7D124",
"D 	c #FFDA22",
"E 	c #FFDA21",
"F 	c #F3D122",
"G 	c #373428",
"H 	c #FFDB21",
"I 	c #F7D025",
"J 	c #CCB02E",
"K 	c #FFDC20",
"L 	c #F1D121",
"M 	c #A59124",
"N 	c #FFDD20",
"O 	c #FFDC21",
"P 	c #FFD822",
"Q 	c #FFDE20",
"R 	c #9B8924",
"S 	c #908024",
"T 	c #FFDF1F",
"U 	c #FFDE1F",
"V 	c #FFE01F",
"W 	c #827524",
"X 	c #908124",
"Y 	c #FFE01E",
"Z 	c #CFB22D",
"[ 	c #FFE11E",
"] 	c #D0BA20",
"^ 	c #908223",
"_ 	c #FFE21D",
"` 	c #FFE21E",
"a 	c #F8D224",
"b 	c #FFE31D",
"c 	c #FAE01D",
"d 	c #7B7124",
"e 	c #908323",
"f 	c #FFE41C",
"g 	c #FFE51B",
"h 	c #F8DF1C",
"i 	c #2C2B2C",
"j 	c #554F2D",
"k 	c #FAE21C",
"l 	c #F3DA1D",
"m 	c #E3CB1E",
"n 	c #FBDF1D",
"o 	c #FFE61B",
"p 	c #FDE61A",
"q 	c #AEA023",
"r 	c #2B2A2B",
"s 	c #2A2A2B",
"t 	c #7D7327",
"u 	c #585226",
"v 	c #706724",
"w 	c #DFC71F",
"x 	c #FED823",
"y 	c #FEDF1F",
"z 	c #FEE11E",
"{ 	c #EBD61B",
"| 	c #7C7323",
"} 	c #333132",
"~ 	c #302E2F",
" !	c #38362A",
"!!	c #282828",
"#!	c #454127",
"$!	c #A29122",
"%!	c #FBDD1F",
"&!	c #FEDE1F",
"'!	c #F2CD25",
"(!	c #FDE41C",
")!	c #B0A120",
"*!	c #4D4926",
"+!	c #2B2B28",
",!	c #68622A",
"-!	c #2F2D2E",
".!	c #F8E418",
"0!	c #A4971F",
"1!	c #393727",
"2!	c #8F8124",
"3!	c #FDDD1F",
"4!	c #938133",
"5!	c #E9D01E",
"6!	c #7F7423",
"7!	c #686323",
"8!	c #978E25",
"9!	c #F8E517",
":!	c #FFE918",
";!	c #FFE819",
"<!	c #A49621",
"=!	c #8E7E24",
">!	c #E7CD1F",
"?!	c #484427",
"@!	c #6B6523",
"A!	c #FFED15",
"B!	c #978F24",
"C!	c #F8E617",
"D!	c #FFEA17",
"E!	c #A59522",
"F!	c #756A25",
"G!	c #413D27",
"H!	c #E0C421",
"I!	c #E2C621",
"J!	c #817424",
"K!	c #2D2C28",
"L!	c #373528",
"M!	c #897E22",
"N!	c #CDBC1C",
"O!	c #FCE717",
"P!	c #FFEC16",
"Q!	c #978D25",
"R!	c #FDDF1E",
"S!	c #DFC321",
"T!	c #A38F24",
"U!	c #DABF21",
"V!	c #9E8D23",
"W!	c #F1D51E",
"X!	c #F1D71E",
"Y!	c #F8E518",
"Z!	c #36332E",
"[!	c #FFE71A",
"]!	c #FFE31C",
"^!	c #FFE51C",
"_!	c #F8E21A",
"`!	c #F8E11B",
"a!	c #7E8058",
"b!	c #F8DF1D",
"c!	c #F8DD1E",
"d!	c #7F8057",
"e!	c #F8DC1E",
"f!	c #969152",
"g!	c #F8DA1F",
"h!	c #CCB02D",
"i!	c #F8D820",
"j!	c #F8D621",
"k!	c #F8D422",
"l!	c #F8D323",
"m!	c #ECC725",
"n!	c #597890",
"o!	c #353537",
"                                                                ",
"                      # $ $ % & & % $ $ #                       ",
"                  ' ( ) * * + , - . * * 0 ( '                   ",
"              1 2 3 4 5 6 6 7 8 6 6 6 6 5 9 3 : 1               ",
"            ; < 4 6 = = > > ? 8 > > > = = 6 5 @ < ;             ",
"          A B C = = > D E F G 8 H H H D D > = 6 I B A           ",
"        ; J 6 = > D H H K L 8 8 M N N O H D > P 6 - B ;         ",
"      1 < C = > D H K N Q R 8 8 S T U Q N O H D P 6 I < 1       ",
"      2 4 = > D H N Q T V W 8 8 X Y Y T U N O H D P 6 @ :       ",
"    ' Z 6 > D H N U T [ [ ] 8 8 ^ _ ` [ Y T N O H > = 5 3 '     ",
"    ( a = D H N Q V [ _ b c d 8 e f b _ ` Y T N O D > 6 9 (     ",
"  # ) 6 > D O Q T [ _ b f g h i j k l m n ` Y U N H D = 5 0 #   ",
"  $ . = > H N T Y ` b f o p q r s t u 8 v w [ T Q O D = 6 * $   ",
"  $ . x D O N y z _ f g { | 8 } ~  !!!8 8 #!$!%!&!N H > 6 * $   ",
"  % '!= D O Q V [ b (!)!*!8 +!,!-!.!0!1!!!!!8 2!3!N H > 6 . %   ",
"  4!5 = D O Q V [ 5!6!8 8 8 7!8!-!9!:!;!<!1!8 8 =!N H > 6 - &   ",
"  4!6 > E K U Y >!?!8 8 8 @!A!B!-!C!D!;!o f E!F!G!H!H D = - 4!  ",
"  % '!= D O I!J!K!8 L!M!N!O!P!Q!-!9!:!;!g f _ R!S!T!H > 6 . %   ",
"  $ . = D O U!V!W!X!l o ;!:!Y!Z!-!.!;![!g ]!_ Y T N H > 6 * $   ",
"  $ . = D H N T [ _ b ^!o ;!_!-!-!_![!o f b [ V Q K E > 6 * $   ",
"  # ) 6 > H K U V [ _ f ^!o `!-!-!`!g f b _ [ T N H D = 5 ) #   ",
"    a!a = D H N T Y ` _ b f b!-!-!b!f b _ [ T Q K H > = 4 (     ",
"    ' Z = > E O N T Y [ _ b c!-!-!c!_ ` [ V U N H D = 6 3 '     ",
"      d!a = > H O N T V [ [ e!-!-!e![ Y T Q N H D > = 4 2       ",
"      1 f!C P D H O N U T V g!-!-!g!T T Q N H D > = C < 1       ",
"        ; h!6 P > E H K N Q i!-!-!i!N N O H D > = 6 B ;         ",
"          A h!C = > D H H O j!-!-!j!O H D D > = C J A           ",
"            ; f!a = = > D D k!-!-!k!D > > = 6 4 < ;             ",
"              1 d!Z a 6 = = l!-!-!l!= = 6 a Z 2 1               ",
"                  ' a!) . . m!-!-!m!. . ) ( '                   ",
"                      # $ $ n!o!o!n!$ $ #                       ",
"                                                                "};