/* XPM */ 
static const unsigned char * light___red_green_xpm[] = {
"32 32 6 1",
" 	c None",
"!	c black",
"#	c #373435",
"$	c #ED3237",
"%	c #00A859",
"&	c #FEFEFE",
"                                ",
"                      #         ",
"                      #         ",
"                     ##         ",
"                    #$#         ",
"                    #$#         ",
"                   #$$#         ",
"                  #$$#          ",
"                  #$$#          ",
"                 #$$$#          ",
"                #$$$$#          ",
"                ##$$$#          ",
"                #%#$$#          ",
"                #%%#$#          ",
"               #%%%%#           ",
"               #%%%%#           ",
"               #%%%#            ",
"               #%%%#            ",
"               #%%#             ",
"               #%#              ",
"              #%#               ",
"              #%#               ",
"              ##                ",
"              #                 ",
"                                ",
"         ######                 ",
"         #&&&&#                 ",
"         #&&&&#                 ",
"         #&&&&#                 ",
"         #&&&&#                 ",
"         ######                 ",
"                                "};