/* XPM */ 
static const unsigned char * marks___cardinal_north_xpm[] = {
"32 32 24 1",
" 	c None",
"!	c black",
"#	c #2E2D2E",
"$	c #282829",
"%	c #536D82",
"&	c #51697C",
"'	c #33363A",
"(	c #302E2F",
")	c #2B2B2C",
"*	c #6EA1C7",
"+	c #70887C",
",	c #A9A733",
"-	c #CBC01B",
".	c #6F9BB3",
"0	c #707E60",
"1	c #A9A732",
"2	c #EADE15",
"3	c #FFF212",
"4	c #748059",
"5	c #FFF112",
"6	c #727D5A",
"7	c #F2E514",
"8	c #6289A8",
"9	c #5A7A93",
"                                ",
"               !!               ",
"              !!!!              ",
"             !!!!!!             ",
"            !!!!!!!!            ",
"                                ",
"               !!               ",
"              !!!!              ",
"             !!!!!!             ",
"            !!!!!!!!            ",
"                                ",
"                                ",
"              !!!!              ",
"              !##!              ",
"              !$$!              ",
"              !$$!              ",
"              !$$#              ",
"              #$$#              ",
"             %$$$$%             ",
"             &$$$$&             ",
"             !$$$$!             ",
"             '$$$$'             ",
"             #$$$$#             ",
"             ())))(             ",
"          *+,------,+*          ",
"        .01233333333210.        ",
"        4333333333533354        ",
"        4333333333333334        ",
"        4353535333535354        ",
"        6777777777777776        ",
"        8999999999999998        ",
"                                "};