/* XPM */ 
static const unsigned char * marker___pin_black_xpm[] = {
"32 32 10 1",
" 	c None",
"!	c black",
"#	c #666666",
"$	c #282829",
"%	c #323232",
"&	c #4D4D4D",
"'	c #B3B3B4",
"(	c #818081",
")	c #A4A4A3",
"*	c #718994",
"                                ",
"                                ",
"              ######            ",
"              $#######          ",
"              $$########        ",
"              $$$%######        ",
"               $$%%%%%$$        ",
"               $$$%%$$$$        ",
"              $$$&&$$           ",
"              $$%&&$            ",
"             $$$%&$$            ",
"             $$%&&$$            ",
"           $$$$%&&$             ",
"          $$$$$&&$$             ",
"         $$&&&%&&$$             ",
"        $$$&&&##&&&             ",
"        $$%&#'#(((#%            ",
"        $$$&#'''((#$            ",
"         $$$&'''((#$            ",
"          $$&&#((#&$            ",
"            )%&&&&$$            ",
"           *)) %%%              ",
"           ))*                  ",
"           ))                   ",
"          *))                   ",
"          ))                    ",
"          ))                    ",
"         *)*                    ",
"         *)                     ",
"         *                      ",
"         *                      ",
"                                "};