/* XPM */ 
static const unsigned char * marks___cardinal_north_lighted_xpm[] = {
"32 32 26 1",
" 	c None",
"!	c black",
"#	c #373435",
"$	c #FEFEFE",
"%	c #2E2D2E",
"&	c #282829",
"'	c #536D82",
"(	c #51697C",
")	c #33363A",
"*	c #302E2F",
"+	c #2B2B2C",
",	c #6EA1C7",
"-	c #70887C",
".	c #A9A733",
"0	c #CBC01B",
"1	c #6F9BB3",
"2	c #707E60",
"3	c #A9A732",
"4	c #EADE15",
"5	c #FFF212",
"6	c #748059",
"7	c #FFF112",
"8	c #727D5A",
"9	c #F2E514",
":	c #6289A8",
";	c #5A7A93",
"                                ",
"               !!               ",
"              !!!!              ",
"             !!!!!!             ",
"            !!!!!!!!            ",
"                                ",
"               !!         ####  ",
"              !!!!      ##$$$$# ",
"             !!!!!!    #$$$$$$# ",
"            !!!!!!!! ##$$$$$$$# ",
"                    #$$$$$$$##  ",
"                   #$$$$$###    ",
"              !!!!#######       ",
"              !%%!              ",
"              !&&!              ",
"              !&&!              ",
"              !&&%              ",
"              %&&%              ",
"             '&&&&'             ",
"             (&&&&(             ",
"             !&&&&!             ",
"             )&&&&)             ",
"             %&&&&%             ",
"             *++++*             ",
"          ,-.000000.-,          ",
"        1234555555554321        ",
"        6555555555755576        ",
"        6555555555555556        ",
"        6575757555757576        ",
"        8999999999999998        ",
"        :;;;;;;;;;;;;;;:        ",
"                                "};