/* XPM */ 
static const unsigned char * marks___lateral_port_hand_ilala_b_lighted_xpm[] = {
"32 32 5 1",
" 	c None",
"!	c black",
"#	c #009F00",
"$	c #373435",
"%	c #FEFEFE",
"                                ",
"             ######             ",
"             ######             ",
"             ######        $$$$ ",
"             ######      $$%%%%$",
"             ######     $%%%%%%$",
"             ######   $$%%%%%%%$",
"                     $%%%%%%%$$ ",
"                    $%%%%%$$$   ",
"             ######$$$$$$$      ",
"             ######             ",
"             ######             ",
"             ######             ",
"             ######             ",
"             ######             ",
"             ######             ",
"             ######             ",
"             ######             ",
"             ######             ",
"            ########            ",
"            ########            ",
"            ########            ",
"            ########            ",
"            ########            ",
"            ########            ",
"          ############          ",
"        ################        ",
"        ################        ",
"        ################        ",
"        ################        ",
"        ################        ",
"                                "};