/* XPM */ 
static const unsigned char * marker___pin_blue_xpm[] = {
"32 32 18 1",
" 	c None",
"!	c black",
"#	c #3253A2",
"$	c #2B2E3A",
"%	c #313A6B",
"&	c #364484",
"'	c #2A3043",
"(	c #36478F",
")	c #354786",
"*	c #2C355C",
"+	c #3F5BA7",
",	c #4160AA",
"-	c #3A57A4",
".	c #364280",
"0	c #4E74B8",
"1	c #343F74",
"2	c #A4A4A3",
"3	c #718994",
"                                ",
"              ####              ",
"             ########           ",
"             $#########         ",
"             $$%########        ",
"              $%%&&###%%        ",
"               '%&&&%%%         ",
"              ''%&&%%%          ",
"              ''&((%            ",
"              ''&(%%            ",
"             ''%&(%%            ",
"             ''&((%%            ",
"            ''%&((%             ",
"           ))'%&((%             ",
"         **)##&((%#             ",
"         **####+,--#            ",
"        **.##+00,,,-1           ",
"        **.##+000,,-1           ",
"         *..#+00,,-11           ",
"           ..##+--#11           ",
"             2####11            ",
"            322                 ",
"            323                 ",
"            22                  ",
"            22                  ",
"           322                  ",
"           32                   ",
"           22                   ",
"           23                   ",
"           2                    ",
"           3                    ",
"                                "};