/* XPM */ 
static const unsigned char * marks___lateral_starboard_ilala_a_xpm[] = {
"32 32 4 1",
" 	c None",
"!	c black",
"#	c #009900",
"$	c #006600",
"                                ",
"               ##               ",
"              $##$              ",
"              ####              ",
"             $####$             ",
"             ######             ",
"             ######             ",
"                                ",
"                                ",
"             ######             ",
"             ######             ",
"             ######             ",
"             ######             ",
"             ######             ",
"             ######             ",
"             ######             ",
"             ######             ",
"             ######             ",
"             ######             ",
"            ########            ",
"            ########            ",
"            ########            ",
"            ########            ",
"            ########            ",
"            ########            ",
"          ############          ",
"        ################        ",
"        ################        ",
"        ################        ",
"        ################        ",
"        ################        ",
"                                "};