/* XPM */ 
static const unsigned char * marks___cardinal_south_xpm[] = {
"32 32 48 1",
" 	c None",
"!	c black",
"#	c #6390B1",
"$	c #53758E",
"%	c #5A819E",
"&	c #282829",
"'	c #74AFDA",
"(	c #354049",
")	c #70A7CF",
"*	c #77B4E1",
"+	c #557892",
",	c #486174",
"-	c #54758E",
".	c #3A4752",
"0	c #699BC0",
"1	c #30363B",
"2	c #77B5E2",
"3	c #54758F",
"4	c #77B3E0",
"5	c #425665",
"6	c #74AED8",
"7	c #71A8D1",
"8	c #587182",
"9	c #ABA220",
":	c #5A7482",
";	c #FFF212",
"<	c #75B0DC",
"=	c #808850",
">	c #73ACD6",
"?	c #A49C21",
"@	c #607981",
"A	c #F9EC13",
"B	c #5F767B",
"C	c #72AAD3",
"D	c #9E9B2F",
"E	c #FFF112",
"F	c #6997BA",
"G	c #8D8525",
"H	c #CBC01B",
"I	c #6EA1C7",
"J	c #536C81",
"K	c #3D4046",
"L	c #373435",
"M	c #6793B4",
"N	c #495967",
"O	c #3D4045",
"P	c #475561",
"Q	c #373434",
"                                ",
"             #$$$$#             ",
"             %&&&&%             ",
"             '(&&('             ",
"              )&&)              ",
"              *+,*              ",
"                                ",
"             -....-             ",
"             01&&10             ",
"             23&&3              ",
"              4554              ",
"               55               ",
"                                ",
"              6776              ",
"              8998              ",
"              :;;:              ",
"             <=;;=<             ",
"             >?;;?>             ",
"             >?;;?>             ",
"             @A;;A@             ",
"             B;;;;B             ",
"             B;;;;B             ",
"            CD;;;;DC            ",
"            79E;;;97            ",
"            FGHHHHGF            ",
"          IJKLLLLLLKJI          ",
"        MNOLLLLLLLLLLONM        ",
"        PLLLLLLLLLLLLLLP        ",
"        PLLLLLLLLLLLLLQP        ",
"        PLLLLLLLLLLLLLLP        ",
"        PLLLLLLLLLLLLLLP        ",
"                                "};