/* XPM */ 
static const unsigned char * marks___cardinal_east_xpm[] = {
"32 32 46 1",
" 	c None",
"!	c black",
"#	c #6594B6",
"$	c #517088",
"%	c #3E4F5C",
"&	c #76B3DF",
"'	c #6594B7",
"(	c #2B2E31",
")	c #282829",
"*	c #76B1DD",
"+	c #3F515E",
",	c #506E85",
"-	c #6FA5CD",
".	c #6899BE",
"0	c #699BC0",
"1	c #30363B",
"2	c #77B5E2",
"3	c #54758F",
"4	c #77B3E0",
"5	c #425665",
"6	c #74AED8",
"7	c #71A8D1",
"8	c #546E83",
"9	c #373435",
":	c #45505A",
";	c #597382",
"<	c #8A8326",
"=	c #5F767B",
">	c #FFF212",
"?	c #72AAD3",
"@	c #9E9B2F",
"A	c #ABA220",
"B	c #FFF112",
"C	c #6997BA",
"D	c #8D8525",
"E	c #CBC01B",
"F	c #6EA1C7",
"G	c #536C81",
"H	c #3D4046",
"I	c #6793B4",
"J	c #495967",
"K	c #3D4045",
"L	c #475561",
"M	c #373434",
"N	c #6289A8",
"O	c #5A7A93",
"                                ",
"                #               ",
"               $%&              ",
"              '()'              ",
"             *+))+*             ",
"             ,)))),             ",
"             -....-             ",
"                                ",
"             01))10             ",
"             23))3              ",
"              4554              ",
"               00               ",
"              6776              ",
"              8998              ",
"              8998              ",
"              :99:              ",
"              9999              ",
"              9999              ",
"             ;<<<<;             ",
"             =>>>>=             ",
"             =>>>>=             ",
"            ?@>>>>@?            ",
"            7AB>>>A7            ",
"            CDEEEEDC            ",
"          FGH999999HGF          ",
"        IJK9999999999KJI        ",
"        L99999999999999L        ",
"        L9999999999999ML        ",
"        L99999999999999L        ",
"        L99999999999999L        ",
"        NOOOOOOOOOOOOOON        ",
"                                "};