/* XPM */ 
static const unsigned char * marks___topmark_danger_lighted_xpm[] = {
"32 32 32 1",
" 	c None",
"!	c black",
"#	c #BFBFBF",
"$	c #34373B",
"%	c #323336",
"&	c #282829",
"'	c #2E2D2E",
"(	c #2C2B2C",
")	c #373435",
"*	c #FEFEFE",
"+	c #6289A7",
",	c #506577",
"-	c #546E83",
".	c #536C80",
"0	c #5F6E83",
"1	c #E13236",
"2	c #5D697D",
"3	c #5E697D",
"4	c #ED3237",
"5	c #953B41",
"6	c #A03236",
"7	c #628AA8",
"8	c #853335",
"9	c #BE3236",
":	c #638DAC",
";	c #45505B",
"<	c #557186",
"=	c #46525D",
">	c #475561",
"?	c #373434",
"@	c #4A5B69",
"A	c #3B3C40",
"                                ",
"              #$$#              ",
"              %&&!              ",
"              '&&'              ",
"              #((#              ",
"                                ",
"                                ",
"              #!!#        ))))  ",
"              !!!!      ))****) ",
"              !!!!     )******) ",
"              #!!#   ))*******) ",
"                    )*******))  ",
"                   )*****)))    ",
"              +,,+)))))))       ",
"              -))-              ",
"              .)).              ",
"              ))))              ",
"              ))))              ",
"              ))))              ",
"             011112             ",
"             344443             ",
"             344443             ",
"             544445             ",
"             644446             ",
"            78999987            ",
"          :;))))))));:          ",
"        <=))))))))))))=<        ",
"        >))))))))))))))>        ",
"        >)))))))))))))?>        ",
"        >))))))))))))))>        ",
"        @AAAAAAAAAAAAAA@        ",
"                                "};