/* XPM */ 
static const unsigned char * marks___cardinal_west_xpm[] = {
"32 32 47 1",
" 	c None",
"!	c black",
"#	c #5D86A5",
"$	c #2D3134",
"%	c #74AFDA",
"&	c #354049",
"'	c #282829",
"(	c #70A7CF",
")	c #5A819E",
"*	c #77B4E1",
"+	c #486174",
",	c #70A6CF",
"-	c #587C98",
".	c #6CA1C8",
"0	c #313940",
"1	c #77B3DF",
"2	c #455B6C",
"3	c #567A95",
"4	c #6797BB",
"5	c #5B82A0",
"6	c #628AA7",
"7	c #637874",
"8	c #5A7482",
"9	c #FFF212",
":	c #5D757E",
";	c #73ACD6",
"<	c #A49C21",
"=	c #546E83",
">	c #3E3A33",
"?	c #434032",
"@	c #526A7D",
"A	c #373435",
"B	c #72AAD3",
"C	c #3B3C40",
"D	c #71A8D1",
"E	c #6997BA",
"F	c #75AFDA",
"G	c #6B94AB",
"H	c #748059",
"I	c #A9A733",
"J	c #CBC01B",
"K	c #5E7985",
"L	c #808953",
"M	c #CEC31A",
"N	c #FFF112",
"O	c #5D6D66",
"P	c #8F8C31",
"                                ",
"             #$$$$#             ",
"             %&''&%             ",
"              ('')              ",
"              *++*              ",
"               ,,               ",
"                                ",
"               --               ",
"              .00.              ",
"             12''21             ",
"             3''''3             ",
"             455554             ",
"                                ",
"              6776              ",
"              8998              ",
"              :99:              ",
"             ;<99<;             ",
"             ;<99<;             ",
"             ;<99<;             ",
"             =>??>=             ",
"             @AAAA@             ",
"             @AAAA@             ",
"            BCAAAACB            ",
"            DAAAAAAD            ",
"            EAAAAAAE            ",
"         FGHIJJJJJJIHGF         ",
"        KLM9999999999MLK        ",
"        H999999999N999NH        ",
"        H99999999999999H        ",
"        H9N9N9N999N9N9NH        ",
"        OPPPPPPPPPPPPPPO        ",
"                                "};