/* XPM */ 
static const unsigned char * marks___lateral_starboard_ilala_a_lighted_xpm[] = {
"32 32 6 1",
" 	c None",
"!	c black",
"#	c #009900",
"$	c #006600",
"%	c #373435",
"&	c #FEFEFE",
"                                ",
"               ##               ",
"              $##$              ",
"              ####         %%%% ",
"             $####$      %%&&&&%",
"             ######     %&&&&&&%",
"             ######   %%&&&&&&&%",
"                     %&&&&&&&%% ",
"                    %&&&&&%%%   ",
"             ######%%%%%%%      ",
"             ######             ",
"             ######             ",
"             ######             ",
"             ######             ",
"             ######             ",
"             ######             ",
"             ######             ",
"             ######             ",
"             ######             ",
"            ########            ",
"            ########            ",
"            ########            ",
"            ########            ",
"            ########            ",
"            ########            ",
"          ############          ",
"        ################        ",
"        ################        ",
"        ################        ",
"        ################        ",
"        ################        ",
"                                "};