/* XPM */ 
static const unsigned char * marks___cardinal_east_lighted_xpm[] = {
"32 32 5 1",
" 	c None",
"!	c black",
"#	c #FEFEFE",
"$	c #373435",
"%	c #FFF212",
"                                ",
"               !!               ",
"              !!!!              ",
"              !!!!              ",
"             !!!!!!             ",
"            !!!!!!!!            ",
"                                ",
"            !!!!!!!!      !!!!  ",
"             !!!!!!     !!####! ",
"              !!!!     !######! ",
"              !!!!   !!#######! ",
"               !!   !#######!!  ",
"                   !#####!!!    ",
"              !$$!!!!!!!!       ",
"              !$$!              ",
"              !$$!              ",
"              !$$!              ",
"              $$$$              ",
"             %%%%%%             ",
"             %%%%%%             ",
"             %%%%%%             ",
"             %%%%%%             ",
"             %%%%%%             ",
"             %%%%%%             ",
"             %%%%%%             ",
"           !!!!!!!!!!           ",
"         !!!!!!!!!!!!!!         ",
"        !!!!!!!!!!!!!!!!        ",
"        !!!!!!!!!!!!!!!!        ",
"        !!!!!!!!!!!!!!!!        ",
"        !!!!!!!!!!!!!!!!        ",
"                                "};