/* XPM */ 
static const unsigned char * marks___cardinal_west_lighted_xpm[] = {
"32 32 48 1",
" 	c None",
"!	c black",
"#	c #5D86A5",
"$	c #2D3134",
"%	c #74AFDA",
"&	c #354049",
"'	c #282829",
"(	c #70A7CF",
")	c #5A819E",
"*	c #77B4E1",
"+	c #486174",
",	c #70A6CF",
"-	c #587C98",
".	c #373435",
"0	c #6CA1C8",
"1	c #313940",
"2	c #FEFEFE",
"3	c #77B3DF",
"4	c #455B6C",
"5	c #567A95",
"6	c #6797BB",
"7	c #5B82A0",
"8	c #628AA7",
"9	c #637874",
":	c #5A7482",
";	c #FFF212",
"<	c #5D757E",
"=	c #73ACD6",
">	c #A49C21",
"?	c #546E83",
"@	c #3E3A33",
"A	c #434032",
"B	c #526A7D",
"C	c #72AAD3",
"D	c #3B3C40",
"E	c #71A8D1",
"F	c #6997BA",
"G	c #75AFDA",
"H	c #6B94AB",
"I	c #748059",
"J	c #A9A733",
"K	c #CBC01B",
"L	c #5E7985",
"M	c #808953",
"N	c #CEC31A",
"O	c #FFF112",
"P	c #5D6D66",
"Q	c #8F8C31",
"                                ",
"             #$$$$#             ",
"             %&''&%             ",
"              ('')              ",
"              *++*              ",
"               ,,               ",
"                                ",
"               --         ....  ",
"              0110      ..2222. ",
"             34''43    .222222. ",
"             5''''5  ..2222222. ",
"             677776 .2222222..  ",
"                   .22222...    ",
"              8998.......       ",
"              :;;:              ",
"              <;;<              ",
"             =>;;>=             ",
"             =>;;>=             ",
"             =>;;>=             ",
"             ?@AA@?             ",
"             B....B             ",
"             B....B             ",
"            CD....DC            ",
"            E......E            ",
"            F......F            ",
"         GHIJKKKKKKJIHG         ",
"        LMN;;;;;;;;;;NML        ",
"        I;;;;;;;;;O;;;OI        ",
"        I;;;;;;;;;;;;;;I        ",
"        I;O;O;O;;;O;O;OI        ",
"        PQQQQQQQQQQQQQQP        ",
"                                "};