/* XPM */ 
static const unsigned char * marker___arrow_blue_xpm[] = {
"32 32 3 1",
" 	c None",
"!	c black",
"#	c #3B58A5",
"                                ",
"                                ",
"                                ",
"                                ",
"                           #    ",
"                         ##     ",
"                       ####     ",
"                     #####      ",
"                  ########      ",
"                #########       ",
"              ###########       ",
"             ###########        ",
"              ##########        ",
"               #########        ",
"              #########         ",
"             ##########         ",
"            ##########          ",
"           ####### ###          ",
"          #######   #           ",
"         #######                ",
"        #######                 ",
"       #######                  ",
"      #######                   ",
"     #######                    ",
"    #######                     ",
"     #####                      ",
"      ###                       ",
"       #                        ",
"                                ",
"                                ",
"                                ",
"                                "};