/* XPM */ 
static const unsigned char * marks___topmark_danger_xpm[] = {
"32 32 31 1",
" 	c None",
"!	c black",
"#	c #BFBFBF",
"$	c #34373B",
"%	c #323336",
"&	c #282829",
"'	c #2E2D2E",
"(	c #2C2B2C",
")	c #6289A7",
"*	c #506577",
"+	c #546E83",
",	c #373435",
"-	c #536C80",
".	c #5F6E83",
"0	c #E13236",
"1	c #5D697D",
"2	c #5E697D",
"3	c #ED3237",
"4	c #953B41",
"5	c #A03236",
"6	c #628AA8",
"7	c #853335",
"8	c #BE3236",
"9	c #638DAC",
":	c #45505B",
";	c #557186",
"<	c #46525D",
"=	c #475561",
">	c #373434",
"?	c #4A5B69",
"@	c #3B3C40",
"                                ",
"              #$$#              ",
"              %&&!              ",
"              '&&'              ",
"              #((#              ",
"                                ",
"                                ",
"              #!!#              ",
"              !!!!              ",
"              !!!!              ",
"              #!!#              ",
"                                ",
"                                ",
"              )**)              ",
"              +,,+              ",
"              -,,-              ",
"              ,,,,              ",
"              ,,,,              ",
"              ,,,,              ",
"             .00001             ",
"             233332             ",
"             233332             ",
"             433334             ",
"             533335             ",
"            67888876            ",
"          9:,,,,,,,,:9          ",
"        ;<,,,,,,,,,,,,<;        ",
"        =,,,,,,,,,,,,,,=        ",
"        =,,,,,,,,,,,,,>=        ",
"        =,,,,,,,,,,,,,,=        ",
"        ?@@@@@@@@@@@@@@?        ",
"                                "};