/* XPM */ 
static const unsigned char * marker___pin_red_xpm[] = {
"32 32 9 1",
" 	c None",
"!	c black",
"#	c #ED3237",
"$	c #C63437",
"%	c #E13338",
"&	c #CA3438",
"'	c #F27174",
"(	c #A4A4A3",
")	c #718994",
"                                ",
"              ####              ",
"             ########           ",
"             $#########         ",
"             $$%########        ",
"              $%%#####%%        ",
"               $%###%%%         ",
"              $$%##%%%          ",
"              $$###%            ",
"              $$##%%            ",
"             $$%##%%            ",
"             $$###%%            ",
"            $$%###%             ",
"           %%$%###%             ",
"         $$%%%###%%             ",
"         $$%%%%####%            ",
"        $$&%%#''####$           ",
"        $$&%%#'''###$           ",
"         $&&%#''###$$           ",
"           &&%%###%$$           ",
"             (%%%%$$            ",
"            )((                 ",
"            )()                 ",
"            ((                  ",
"            ((                  ",
"           )((                  ",
"           )(                   ",
"           ((                   ",
"           ()                   ",
"           (                    ",
"           )                    ",
"                                "};