/* XPM */ 
static const unsigned char * marker___triangle_xpm[] = {
"32 32 4 1",
" 	c None",
"!	c black",
"#	c #373435",
"$	c #282829",
"                                ",
"                                ",
"                                ",
"               ##               ",
"               ##               ",
"              #  #              ",
"              #  #              ",
"             #    #             ",
"             #    #             ",
"            #      #            ",
"            #      #            ",
"           #        #           ",
"           #        #           ",
"          #          #          ",
"          #    ##    #          ",
"         #     ##     #         ",
"         #    #$$#    #         ",
"        #     #$$#     #        ",
"        #    #$$$$#    #        ",
"       #     #$$$$#     #       ",
"       #    #$$$$$$#    #       ",
"      #     #$$$$$$#     #      ",
"      #    #$$$$$$$$#    #      ",
"     #     ##########     #     ",
"     #                    #     ",
"    #                      #    ",
"    #                      #    ",
"   #                        #   ",
"   #                        #   ",
"  ############################  ",
"                                ",
"                                "};