/* XPM */ 
static const unsigned char * marks___cardinal_south_lighted_xpm[] = {
"32 32 49 1",
" 	c None",
"!	c black",
"#	c #6390B1",
"$	c #53758E",
"%	c #5A819E",
"&	c #282829",
"'	c #74AFDA",
"(	c #354049",
")	c #70A7CF",
"*	c #77B4E1",
"+	c #557892",
",	c #486174",
"-	c #54758E",
".	c #3A4752",
"0	c #373435",
"1	c #699BC0",
"2	c #30363B",
"3	c #FEFEFE",
"4	c #77B5E2",
"5	c #54758F",
"6	c #77B3E0",
"7	c #425665",
"8	c #74AED8",
"9	c #71A8D1",
":	c #587182",
";	c #ABA220",
"<	c #5A7482",
"=	c #FFF212",
">	c #75B0DC",
"?	c #808850",
"@	c #73ACD6",
"A	c #A49C21",
"B	c #607981",
"C	c #F9EC13",
"D	c #5F767B",
"E	c #72AAD3",
"F	c #9E9B2F",
"G	c #FFF112",
"H	c #6997BA",
"I	c #8D8525",
"J	c #CBC01B",
"K	c #6EA1C7",
"L	c #536C81",
"M	c #3D4046",
"N	c #6793B4",
"O	c #495967",
"P	c #3D4045",
"Q	c #475561",
"R	c #373434",
"                                ",
"             #$$$$#             ",
"             %&&&&%             ",
"             '(&&('             ",
"              )&&)              ",
"              *+,*              ",
"                                ",
"             -....-       0000  ",
"             12&&21     0033330 ",
"             45&&5     03333330 ",
"              6776   0033333330 ",
"               77   0333333300  ",
"                   033333000    ",
"              89980000000       ",
"              :;;:              ",
"              <==<              ",
"             >?==?>             ",
"             @A==A@             ",
"             @A==A@             ",
"             BC==CB             ",
"             D====D             ",
"             D====D             ",
"            EF====FE            ",
"            9;G===;9            ",
"            HIJJJJIH            ",
"          KLM000000MLK          ",
"        NOP0000000000PON        ",
"        Q00000000000000Q        ",
"        Q0000000000000RQ        ",
"        Q00000000000000Q        ",
"        Q00000000000000Q        ",
"                                "};