/* XPM */ 
static const unsigned char * marker___pin_green_xpm[] = {
"32 32 11 1",
" 	c None",
"!	c black",
"#	c #00A859",
"$	c #086943",
"%	c #0C854D",
"&	c #039552",
"'	c #26B465",
"(	c #5CBD7A",
")	c #86CA99",
"*	c #A4A4A3",
"+	c #718994",
"                                ",
"              ####              ",
"             ########           ",
"             $#########         ",
"             $$%########        ",
"              $%%&&###$$        ",
"               $%&&&$$$         ",
"              $$%&&$$$          ",
"              $$&##$            ",
"              $$&#$$            ",
"             $$%&#$$            ",
"             $$&##$$            ",
"            $$%&##$             ",
"           $$$%&##$             ",
"         $$$##&##$#             ",
"         $$####'(''#            ",
"        $$%##'))((('%           ",
"        $$%##')))(('%           ",
"         $%%#'))(('%%           ",
"           %%##'''#%%           ",
"             *####%%            ",
"            +**                 ",
"            +*+                 ",
"            **                  ",
"            **                  ",
"           +**                  ",
"           +*                   ",
"           **                   ",
"           *+                   ",
"           *                    ",
"           +                    ",
"                                "};