/* XPM */ 
static const unsigned char * seafloor___coral_xpm[] = {
"32 32 451 2",
"  	c None",
"! 	c black",
"# 	c #74ADD7",
"$ 	c #5A7A93",
"% 	c #5B7B93",
"& 	c #798994",
"' 	c #648EAE",
"( 	c #6E8595",
") 	c #7F939E",
"* 	c #BBDDEE",
"+ 	c #BCDDEE",
", 	c #C5E9FB",
"- 	c #71A8D0",
". 	c #A3BFCF",
"0 	c #C0E3F4",
"1 	c #6590B0",
"2 	c #7E99AA",
"3 	c #C0E2F4",
"4 	c #6A8FAA",
"5 	c #A1BDCC",
"6 	c #BFE2F3",
"7 	c #C5E9FA",
"8 	c #C4E9FB",
"9 	c #7E8E96",
": 	c #C4E6F6",
"; 	c #C2DFEC",
"< 	c #C5E2EB",
"= 	c #C4E0E7",
"> 	c #C3E0EB",
"? 	c #C4E2EE",
"@ 	c #BDAF8F",
"A 	c #7C7565",
"B 	c #B5AC89",
"C 	c #C3E1EC",
"D 	c #CDD1C4",
"E 	c #BDA98A",
"F 	c #B2936E",
"G 	c #C1D6DC",
"H 	c #C3E1EE",
"I 	c #C5D7D2",
"J 	c #CDB77F",
"K 	c #D0AF6F",
"L 	c #BDAC8A",
"M 	c #B8AD96",
"N 	c #A27555",
"O 	c #D5B174",
"P 	c #C0C0A8",
"Q 	c #C4E8F9",
"R 	c #C4E6F8",
"S 	c #CAAEA5",
"T 	c #CA9C6E",
"U 	c #D7AC60",
"V 	c #C8B088",
"W 	c #AF8B62",
"X 	c #C7BFAA",
"Y 	c #C9DCDE",
"Z 	c #C1D5D3",
"[ 	c #C1A472",
"] 	c #CF9B6B",
"^ 	c #A68873",
"_ 	c #C4E7F8",
"` 	c #BCCEC8",
"a 	c #C5E5F3",
"b 	c #C5E7F8",
"c 	c #C0E1F2",
"d 	c #A98A8A",
"e 	c #5B7991",
"f 	c #A15636",
"g 	c #C4A56E",
"h 	c #C3DEE6",
"i 	c #C4CCDF",
"j 	c #8A414A",
"k 	c #A55C40",
"l 	c #EEC473",
"m 	c #E8B867",
"n 	c #C59755",
"o 	c #DCB28E",
"p 	c #C3C2C8",
"q 	c #B5956B",
"r 	c #BA7B4F",
"s 	c #A06560",
"t 	c #C6DEF0",
"u 	c #BEC3AC",
"v 	c #CAB47E",
"w 	c #D0B87F",
"x 	c #C7D7CE",
"y 	c #C5E8F9",
"z 	c #C0B8BC",
"{ 	c #5C7A92",
"| 	c #866F59",
"} 	c #B36649",
"~ 	c #BF844E",
" !	c #C6BEA1",
"!!	c #BCC1D0",
"#!	c #8F3A4A",
"$!	c #A66442",
"%!	c #F1C574",
"&!	c #ECBE6D",
"'!	c #E7BB73",
"(!	c #8C3834",
")!	c #A86876",
"*!	c #CBD0BA",
"+!	c #BF8B58",
",!	c #AC5B3A",
"-!	c #DBA484",
".!	c #C6E0EC",
"0!	c #C5E1E7",
"1!	c #D1C18B",
"2!	c #D9BD8F",
"3!	c #C4A47A",
"4!	c #DDC480",
"5!	c #C9C5A1",
"6!	c #C6DEE1",
"7!	c #CBC4BB",
"8!	c #8C6E61",
"9!	c #8E7F58",
":!	c #B0644A",
";!	c #C2844E",
"<!	c #DAC19C",
"=!	c #C8E3ED",
">!	c #B1B2BF",
"?!	c #883B31",
"@!	c #B87A46",
"A!	c #EBBF76",
"B!	c #DFAE68",
"C!	c #E8B86D",
"D!	c #975037",
"E!	c #A25667",
"F!	c #D2B070",
"G!	c #A75F38",
"H!	c #C8815F",
"I!	c #E3B989",
"J!	c #CDCBBB",
"K!	c #CBB984",
"L!	c #DBC37F",
"M!	c #BF9D64",
"N!	c #C9B4A5",
"O!	c #BFBAB4",
"P!	c #D0AB69",
"Q!	c #E2C67E",
"R!	c #C6AA70",
"S!	c #CDA765",
"T!	c #654F3B",
"U!	c #5C7A91",
"V!	c #A45743",
"W!	c #C68A55",
"X!	c #D0B375",
"Y!	c #BEC7BC",
"Z!	c #B3ABB2",
"[!	c #8B453A",
"]!	c #B57742",
"^!	c #DDB169",
"_!	c #CE9B63",
"`!	c #ECBE73",
"a!	c #A15F37",
"b!	c #803738",
"c!	c #C8DEE3",
"d!	c #CED7D1",
"e!	c #E2C189",
"f!	c #CD8E61",
"g!	c #D4AC53",
"h!	c #C5A050",
"i!	c #CDB26E",
"j!	c #DEB86E",
"k!	c #EAD7A9",
"l!	c #BDCCC3",
"m!	c #CDB787",
"n!	c #DBB67E",
"o!	c #C7A25A",
"p!	c #CFA84E",
"q!	c #5A7991",
"r!	c #BA8650",
"s!	c #CE9655",
"t!	c #E5BD6C",
"u!	c #D0AC64",
"v!	c #D0A976",
"w!	c #CBA375",
"x!	c #BA7E48",
"y!	c #CEA35E",
"z!	c #C49A57",
"{!	c #E0AC5F",
"|!	c #A25F37",
"}!	c #98625F",
"~!	c #BEBAB6",
" #	c #BEB495",
"!#	c #FADC8E",
"##	c #B67340",
"$#	c #CB865B",
"%#	c #F1C869",
"&#	c #D7AE54",
"'#	c #D1A768",
"(#	c #F3D0A3",
")#	c #C2A362",
"*#	c #BFD4D2",
"+#	c #C0D5D4",
",#	c #D6AF6B",
"-#	c #F2CFAA",
".#	c #BE8D48",
"0#	c #BD8E4C",
"1#	c #DAAE60",
"2#	c #B46A3F",
"3#	c #EEC76C",
"4#	c #D1A160",
"5#	c #CC965A",
"6#	c #C79463",
"7#	c #D5A46A",
"8#	c #E1AF6F",
"9#	c #C88654",
":#	c #BF854E",
";#	c #A66437",
"<#	c #C8975B",
"=#	c #E3C279",
">#	c #C49D57",
"?#	c #A96A3E",
"@#	c #E1AF5E",
"A#	c #E0B46A",
"B#	c #BA8956",
"C#	c #D1A461",
"D#	c #EAC080",
"E#	c #BD9D5A",
"F#	c #B8A77A",
"G#	c #BCBFAA",
"H#	c #AE9168",
"I#	c #D8A853",
"J#	c #C2955B",
"K#	c #C7A781",
"L#	c #94855F",
"M#	c #AC6845",
"N#	c #D09754",
"O#	c #874838",
"P#	c #A16254",
"Q#	c #8F5D54",
"R#	c #8C5241",
"S#	c #D39566",
"T#	c #9D523F",
"U#	c #BB804C",
"V#	c #994E37",
"W#	c #C18350",
"X#	c #E7C271",
"Y#	c #D8A461",
"Z#	c #D39F52",
"[#	c #C3824D",
"]#	c #EABA62",
"^#	c #BD8956",
"_#	c #CBA36F",
"`#	c #EBC071",
"a#	c #C89A4F",
"b#	c #A89276",
"c#	c #A98953",
"d#	c #C0B07C",
"e#	c #AD937E",
"f#	c #B88951",
"g#	c #E3B76E",
"h#	c #837057",
"i#	c #7D8474",
"j#	c #C98157",
"k#	c #9F4F3B",
"l#	c #94553D",
"m#	c #C89168",
"n#	c #C2A07D",
"o#	c #98554D",
"p#	c #BD795B",
"q#	c #AB5F40",
"r#	c #B87746",
"s#	c #A15D38",
"t#	c #B6774B",
"u#	c #935242",
"v#	c #AD7349",
"w#	c #A85B38",
"x#	c #CD955D",
"y#	c #D6A65B",
"z#	c #BA9B7C",
"{#	c #DFB26C",
"|#	c #BF8D53",
"}#	c #B97B66",
"~#	c #BFA177",
" $	c #B3885C",
"!$	c #AC814D",
"#$	c #C38672",
"$$	c #84413D",
"%$	c #AB7A47",
"&$	c #78766A",
"'$	c #C9AB7C",
"($	c #AB634E",
")$	c #9B6042",
"*$	c #E6BE6F",
"+$	c #E5C076",
",$	c #A86852",
"-$	c #863C33",
".$	c #B2714F",
"0$	c #A36543",
"1$	c #A76549",
"2$	c #C0815E",
"3$	c #8D4C41",
"4$	c #8D4635",
"5$	c #9D453A",
"6$	c #DEA167",
"7$	c #DBB56F",
"8$	c #D5B487",
"9$	c #DAAA62",
":$	c #8A543A",
";$	c #B15760",
"<$	c #CE9A61",
"=$	c #CAA282",
">$	c #B3814B",
"?$	c #CC8362",
"@$	c #98453F",
"A$	c #6A3F35",
"B$	c #625E63",
"C$	c #9B5644",
"D$	c #C4825B",
"E$	c #D9B284",
"F$	c #E7B881",
"G$	c #D9A16D",
"H$	c #9B5C4E",
"I$	c #A26A5D",
"J$	c #AD7559",
"K$	c #924359",
"L$	c #BA7A61",
"M$	c #76312D",
"N$	c #A9634B",
"O$	c #853431",
"P$	c #F2C688",
"Q$	c #D19963",
"R$	c #D0A175",
"S$	c #90553C",
"T$	c #88543B",
"U$	c #C2955F",
"V$	c #D1A45E",
"W$	c #CAA87D",
"X$	c #D1A76F",
"Y$	c #D19B4F",
"Z$	c #924B38",
"[$	c #61565C",
"]$	c #6F5959",
"^$	c #914F3D",
"_$	c #B37A58",
"`$	c #AF6C47",
"a$	c #9D583D",
"b$	c #CA915A",
"c$	c #C68657",
"d$	c #883938",
"e$	c #873948",
"f$	c #C19D8E",
"g$	c #AB735A",
"h$	c #CD8053",
"i$	c #81332F",
"j$	c #E7B066",
"k$	c #9A5B3A",
"l$	c #9F563C",
"m$	c #B06344",
"n$	c #995A3D",
"o$	c #CFAE64",
"p$	c #C29759",
"q$	c #B59571",
"r$	c #BEA590",
"s$	c #B2793E",
"t$	c #827666",
"u$	c #90785F",
"v$	c #D3B279",
"w$	c #D29D5C",
"x$	c #B56E45",
"y$	c #823D31",
"z$	c #BF7D50",
"{$	c #994C3F",
"|$	c #7F2F35",
"}$	c #904D4D",
"~$	c #904F40",
" %	c #954B36",
"!%	c #7E323B",
"#%	c #E1A558",
"$%	c #92473A",
"%%	c #944B3B",
"&%	c #CA7B51",
"'%	c #9D6847",
"(%	c #E0BD7C",
")%	c #C3995F",
"*%	c #C3A07F",
"+%	c #D1B392",
",%	c #A0794F",
"-%	c #678599",
".%	c #97835F",
"0%	c #CFA66C",
"1%	c #C18754",
"2%	c #823E30",
"3%	c #9D503A",
"4%	c #C17353",
"5%	c #A65742",
"6%	c #BF7151",
"7%	c #BC7D48",
"8%	c #C38D51",
"9%	c #762E3C",
":%	c #BD7A4A",
";%	c #863535",
"<%	c #8D3F34",
"=%	c #C0825A",
">%	c #E9C491",
"?%	c #D1A85F",
"@%	c #DBAD7D",
"A%	c #B58E75",
"B%	c #BDA791",
"C%	c #6C8BA2",
"D%	c #79736B",
"E%	c #A2643C",
"F%	c #8F4535",
"G%	c #7B2C31",
"H%	c #874439",
"I%	c #783E30",
"J%	c #D99D64",
"K%	c #E8B462",
"L%	c #F3C676",
"M%	c #914934",
"N%	c #C4684A",
"O%	c #9D4143",
"P%	c #A84F51",
"Q%	c #A26449",
"R%	c #D0AB73",
"S%	c #D7AC62",
"T%	c #CE996B",
"U%	c #6E6160",
"V%	c #625A5D",
"W%	c #865952",
"X%	c #7C3A35",
"Y%	c #793833",
"Z%	c #B36F49",
"[%	c #B26A4A",
"]%	c #984844",
"^%	c #D99B69",
"_%	c #9F573D",
"`%	c #9E473D",
"a%	c #8C4044",
"b%	c #B3694F",
"c%	c #B77458",
"d%	c #986956",
"e%	c #9D734B",
"f%	c #524F59",
"g%	c #626062",
"h%	c #83705D",
"i%	c #B5775A",
"j%	c #A14C44",
"k%	c #81313D",
"l%	c #832D38",
"m%	c #AA4F42",
"n%	c #7A2E33",
"o%	c #DEA19E",
"p%	c #CE855C",
"q%	c #785654",
"r%	c #7A757F",
"s%	c #5A7891",
"t%	c #5A353F",
"u%	c #6F483F",
"                                                                ",
"                      # $ $ % & & % $ $ #                       ",
"                  ' ( ) * * + , , + * * ) ( '                   ",
"              - ( . 0 , , , , , , , , , , 0 . ( -               ",
"            1 2 3 , , , , , , , , , , , , , , 3 2 1             ",
"          4 5 6 , , 7 , , , , , , , , 7 , 7 , 7 6 5 4           ",
"        1 5 , , , , , , , , , , , , , , , , , , , , 5 1         ",
"      - 2 6 , , , , , , , , , , , , , , , 7 , , , , 6 2 -       ",
"      ( 3 , , 8 8 , , , , , , , , , , , , , , 8 8 , , 3 (       ",
"    ' . , , , , , , , , , , , , , , , , , , , , , , , , . '     ",
"    ( 0 , , , , , , , , , , , , , , , , , , , , , , , , 0 (     ",
"  # 9 , , , , , : ; , , , , , , , , , < = > , , , , , ? @ A #   ",
"  $ B C , , , D E F G H , , , , , , I J K L , , , , , , M N $   ",
"  $ O P Q , R S T U V W X Y , , , Z [ ] ^ ? , _ ` a b , c d $   ",
"  e f g h , i j k l m n o p , , _ q r s t , , u v w x y , z {   ",
"  | } ~  !, !!#!$!%!&!'!(!)!, , *!+!,!-!.!, 0!1!2!3!4!5!6!7!8!  ",
"  9!:!;!<!=!>!?!@!A!B!C!D!E!, , F!G!H!I!J!K!L!M!N!O!P!Q!R!S!T!  ",
"  U!V!W!X!Y!Z![!]!^!_!`!a!b!c!d!e!G!f!g!h!i!j!k!_ l!m!n!o!p!q!  ",
"  $ r!s!t!u!v!w!x!y!z!{!|!}!~! #!###$#%#&#'#(#)#*#+#,#-#.#0#$   ",
"  $ 1#2#3#4#5#6#7#8#9#:#;#<#=#>#&!?#@#A#B#C#D#E#F#G#H#I#J#K#$   ",
"  # L#M#N#O#P#Q#R#S#T#U#V#W#X#Y#Z#[#]#^#_#`#a#b#c#d#e#f#g#h##   ",
"    i#j#k#l#m#n#o#p#q#r#s#t#u#v#w#x#y#z#{#|#}#~# $!$#$$$%$&$    ",
"    ' '$($)$*$+$,$-$.$0$1$2$3$4$5$6$7$8$9$:$;$<$=$>$?$@$A$'     ",
"      B$C$D$E$F$G$H$I$J$K$L$M$N$O$P$Q$R$S$T$U$V$W$X$Y$Z$[$      ",
"      - ]$^$_$`$a$b$c$d$e$f$g$h$i$j$k$l$m$n$o$p$q$r$s$t$-       ",
"        1 u$v$w$x$y$z${$|$}$~$ %!%#%$%%%&%'%(%)%*%+%,%1         ",
"          -%.%0%1%2%3%4%5%6%7%8%9%:%;%<%=%>%?%@%A%B%C%          ",
"            1 D%E%F%G%H%I%J%K%L%M%N%O%P%Q%R%S%T%U%1             ",
"              - V%W%X%Y%Z%[%]%^%_%`%a%b%c%d%e%f%-               ",
"                  ' g%h%i%j%k%l%m%n%o%p%q%r%'                   ",
"                      # $ $ s%t%u%e $ $ #                       ",
"                                                                "};