/* XPM */ 
static const unsigned char * seafloor___pebble_xpm[] = {
"32 32 318 2",
"  	c None",
"! 	c black",
"# 	c #74ADD7",
"$ 	c #5A7A93",
"% 	c #5B7B93",
"& 	c #798994",
"' 	c #648EAE",
"( 	c #6E8595",
") 	c #7F939E",
"* 	c #BBDDEE",
"+ 	c #BCDDEE",
", 	c #C5E9FB",
"- 	c #71A8D0",
". 	c #A3BFCF",
"0 	c #C0E3F4",
"1 	c #6590B0",
"2 	c #7E99AA",
"3 	c #C0E2F4",
"4 	c #6A8FAA",
"5 	c #A1BDCC",
"6 	c #BFE2F3",
"7 	c #C5E9FA",
"8 	c #C4E9FB",
"9 	c #798993",
": 	c #B8CCD3",
"; 	c #B4C3C5",
"< 	c #BFDBE7",
"= 	c #70899A",
"> 	c #B5D2DF",
"? 	c #9CAFB3",
"@ 	c #AFC0C3",
"A 	c #B4C5C7",
"B 	c #BFDCE8",
"C 	c #B2CCD9",
"D 	c #A3B4BD",
"E 	c #A8BAC0",
"F 	c #9DA49F",
"G 	c #97A8AE",
"H 	c #A9BABE",
"I 	c #9FB0B5",
"J 	c #8F8F86",
"K 	c #9C9586",
"L 	c #A39B8C",
"M 	c #A29B8D",
"N 	c #9B988B",
"O 	c #B3CCD6",
"P 	c #979487",
"Q 	c #6F6A5C",
"R 	c #595549",
"S 	c #636056",
"T 	c #8A8577",
"U 	c #A09A8A",
"V 	c #989082",
"W 	c #A8A194",
"X 	c #746E63",
"Y 	c #514C45",
"Z 	c #7E7C7A",
"[ 	c #7C7876",
"] 	c #7F7976",
"^ 	c #706D69",
"_ 	c #56524B",
"` 	c #777265",
"a 	c #655F54",
"b 	c #48423A",
"c 	c #4D4740",
"d 	c #635D56",
"e 	c #867F71",
"f 	c #999282",
"g 	c #9B9484",
"h 	c #A1998A",
"i 	c #9E9687",
"j 	c #90897A",
"k 	c #807B70",
"l 	c #847D70",
"m 	c #676154",
"n 	c #545049",
"o 	c #8D897D",
"p 	c #9A9688",
"q 	c #6A655B",
"r 	c #69655E",
"s 	c #928C84",
"t 	c #635E5A",
"u 	c #8B8481",
"v 	c #88827F",
"w 	c #847E7B",
"x 	c #908986",
"y 	c #8B8482",
"z 	c #797270",
"{ 	c #4A4745",
"| 	c #CBC0AE",
"} 	c #D7CCB9",
"~ 	c #CFC4B1",
" !	c #90887C",
"!!	c #827E77",
"#!	c #43403B",
"$!	c #8D8678",
"%!	c #8B8477",
"&!	c #8F877A",
"'!	c #80786D",
"(!	c #463F3D",
")!	c #4B4A48",
"*!	c #423D36",
"+!	c #4D4941",
",!	c #6D685B",
"-!	c #918B7D",
".!	c #645F56",
"0!	c #625E59",
"1!	c #605C57",
"2!	c #706B67",
"3!	c #75706C",
"4!	c #7D7775",
"5!	c #837D7C",
"6!	c #746F6E",
"7!	c #736E6E",
"8!	c #77716F",
"9!	c #6D675F",
":!	c #B1A797",
";!	c #DBCFBB",
"<!	c #C5BBA9",
"=!	c #B2A899",
">!	c #A39C8D",
"?!	c #A19A8B",
"@!	c #BDB3A2",
"A!	c #A89E8E",
"B!	c #595142",
"C!	c #7F7768",
"D!	c #C2B7A7",
"E!	c #75726F",
"F!	c #5D6364",
"G!	c #756851",
"H!	c #8D8676",
"I!	c #A69F8F",
"J!	c #A8A191",
"K!	c #ADA595",
"L!	c #8C8578",
"M!	c #5D5750",
"N!	c #585451",
"O!	c #5D5A5B",
"P!	c #625F60",
"Q!	c #6A6667",
"R!	c #666263",
"S!	c #585450",
"T!	c #888174",
"U!	c #807769",
"V!	c #948C7D",
"W!	c #8A8274",
"X!	c #7D7568",
"Y!	c #90887A",
"Z!	c #958D7E",
"[!	c #999182",
"]!	c #938B7C",
"^!	c #645E50",
"_!	c #8B8372",
"`!	c #B9B09F",
"a!	c #6B757B",
"b!	c #5D5850",
"c!	c #8D8476",
"d!	c #877E72",
"e!	c #867D71",
"f!	c #8C8376",
"g!	c #A39C8E",
"h!	c #857F73",
"i!	c #9F998C",
"j!	c #8A8479",
"k!	c #433F3C",
"l!	c #3C3937",
"m!	c #504C48",
"n!	c #716B66",
"o!	c #BAB0A0",
"p!	c #D9CFBB",
"q!	c #AEA593",
"r!	c #696152",
"s!	c #7E7669",
"t!	c #5E5850",
"u!	c #645D54",
"v!	c #676056",
"w!	c #6B6459",
"x!	c #413D37",
"y!	c #625F54",
"z!	c #7E7B71",
"{!	c #6A7379",
"|!	c #B9AE9F",
"}!	c #9A8F81",
"~!	c #7B6F64",
" #	c #A59C8D",
"!#	c #BEB7A7",
"##	c #BFB8A8",
"$#	c #AFA698",
"%#	c #9D9687",
"&#	c #5C5750",
"'#	c #888175",
"(#	c #A79F8F",
")#	c #DDD1BE",
"*#	c #E3D7C3",
"+#	c #E1D5C1",
",#	c #DBD1BC",
"-#	c #ABA191",
".#	c #534E44",
"0#	c #67635D",
"1#	c #817B6F",
"2#	c #59554C",
"3#	c #413F3A",
"4#	c #47433F",
"5#	c #44403C",
"6#	c #4B4742",
"7#	c #4E5A63",
"8#	c #7F878A",
"9#	c #A29A8A",
":#	c #A39B8B",
";#	c #ADA594",
"<#	c #B2AA99",
"=#	c #A69E8F",
">#	c #90897B",
"?#	c #6E675E",
"@#	c #D9CEBA",
"A#	c #E2D5C2",
"B#	c #E2D6C2",
"C#	c #D6CAB8",
"D#	c #B8AF9E",
"E#	c #ABA292",
"F#	c #757069",
"G#	c #999387",
"H#	c #4D4B46",
"I#	c #57524C",
"J#	c #6C6663",
"K#	c #7C7573",
"L#	c #5F6971",
"M#	c #7C786F",
"N#	c #958D7D",
"O#	c #948C7C",
"P#	c #9C9484",
"Q#	c #A8A190",
"R#	c #9B9384",
"S#	c #8B8377",
"T#	c #504B46",
"U#	c #726D61",
"V#	c #B7AD9C",
"W#	c #D1C5B3",
"X#	c #D0C3B2",
"Y#	c #B2A697",
"Z#	c #837D6E",
"[#	c #C2B9AB",
"]#	c #E2D7CC",
"^#	c #E6DCD2",
"_#	c #6C655F",
"`#	c #615B58",
"a#	c #7D7674",
"b#	c #898280",
"c#	c #777374",
"d#	c #65869E",
"e#	c #7B776E",
"f#	c #91897A",
"g#	c #9A9383",
"h#	c #A09889",
"i#	c #948C7F",
"j#	c #827A70",
"k#	c #4F4A45",
"l#	c #6B665C",
"m#	c #B2A897",
"n#	c #D2C4B3",
"o#	c #D2C4B2",
"p#	c #BCB0A0",
"q#	c #8C8576",
"r#	c #8E867A",
"s#	c #BFB4A7",
"t#	c #D0C6B8",
"u#	c #938981",
"v#	c #47423F",
"w#	c #6E6864",
"x#	c #706D6C",
"y#	c #64849E",
"z#	c #646D72",
"{#	c #7E766C",
"|#	c #7A7369",
"}#	c #776F66",
"~#	c #645E58",
" $	c #534E49",
"!$	c #908A7C",
"#$	c #BFB3A3",
"$$	c #D0C3B1",
"%$	c #CEC1AF",
"&$	c #CCC0AD",
"'$	c #C5BAA8",
"($	c #A79D8D",
")$	c #7D766A",
"*$	c #888075",
"+$	c #807A70",
",$	c #87817B",
"-$	c #656F76",
".$	c #59646C",
"0$	c #3A3939",
"1$	c #333230",
"2$	c #5B5853",
"3$	c #6D6861",
"4$	c #A19A8A",
"5$	c #B1A697",
"6$	c #BEB2A2",
"7$	c #C7BCA9",
"8$	c #C8BDAA",
"9$	c #C1B6A5",
":$	c #4F4D46",
";$	c #45433D",
"<$	c #78746C",
"=$	c #757F87",
">$	c #424E59",
"?$	c #515151",
"@$	c #645F5A",
"A$	c #928B7D",
"B$	c #9A9485",
"C$	c #AEA695",
"D$	c #BAAD9E",
"E$	c #B8AD9D",
"F$	c #AFA595",
"G$	c #4F5050",
"H$	c #606B72",
"I$	c #5B7A92",
"J$	c #6E6B65",
"K$	c #746E6A",
"                                                                ",
"                      # $ $ % & & % $ $ #                       ",
"                  ' ( ) * * + , , + * * ) ( '                   ",
"              - ( . 0 , , , , , , , , , , 0 . ( -               ",
"            1 2 3 , , , , , , , , , , , , , , 3 2 1             ",
"          4 5 6 , , 7 , , , , , , , , 7 , 7 , 7 6 5 4           ",
"        1 5 , , , , , , , , , , , , , , , , , , , , 5 1         ",
"      - 2 6 , , , , , , , , , , , , , , , 7 , , , , 6 2 -       ",
"      ( 3 , , 8 8 , , , , , , , , , , , , , , 8 8 , , 3 (       ",
"    ' . , , , , , , , , , , , , , , , , , , , , , , , , . '     ",
"    ( 0 , , , , , , , , , , , , , , , , , , , , , , , , 0 (     ",
"  # ) , , , , , , , , , , , , , , , , , , , , , , , , , , ) #   ",
"  $ * , , , , , , , , , , , , , , , , , , , , , , , , , , * $   ",
"  $ * , , , , , , , , , , 8 , , , , , , , , , , , , , , , * $   ",
"  % + , , , , , , , , , , , , , , , , , , , , , , , , , , + %   ",
"  & , , , , , , , , , , , , , , , , , , , , , , , , , , , , 9   ",
"  & , , , , , , , , , , , , , , , , , , , , , , : ; ; < , , &   ",
"  = + > ? ? ? @ A A A B , , C D , E F G H H I J K L L M N O =   ",
"  $ P Q R S T U V W X Y Z Z [ ] ^ _ ` a b c d e f g h i j k $   ",
"  $ l m n o p q r s t u v w x y z { | } ~  !!!#!$!$!%!&!'!(!$   ",
"  # )!*!+!,!-!.!0!1!2!3!4!5!6!7!8!9!:!;!<!=!>!?!@!A!B!C!D!E!#   ",
"    F!G!H!I!J!K!L!M!N!O!P!Q!Q!R!S!T!U!V!W!X!Y!Z![!]!^!_!`!a!    ",
"    ' b!c!d!e!f!g!h!i!j!k!l!m!n!o!p!q!r!s!t!u!v!w!v!x!y!z!'     ",
"      {!|!}!~! #!###$#%#&#'#(#)#*#+#,#-#.#0#1#2#3#4#5#6#7#      ",
"      - 8#9#:#9#;#<#=#>#?#V @#A#B#C#D#E#F#G#H#I#J#K#] L#-       ",
"        1 M#N#O#P#Q#R#S#T#U#V#W#X#Y#Z#[#]#^#_#`#a#b#c#1         ",
"          d#e#f#g#h#i#j#k#l#m#n#o#p#q#r#s#t#u#v#w#x#y#          ",
"            1 z#{#|#}#~# $!$#$$$%$&$'$($)$*$+$,$-$1             ",
"              - .$0$1$2$3$4$5$6$7$8$9$V#:$;$<$=$-               ",
"                  ' >$?$@$A$B$C$D$E$E$F$G$H$'                   ",
"                      # $ $ I$J$K$I$$ $ #                       ",
"                                                                "};