/* XPM */ 
static const unsigned char * seafloor___grass_xpm[] = {
"32 32 293 2",
"  	c None",
"! 	c black",
"# 	c #74ADD7",
"$ 	c #5A7A93",
"% 	c #5B7B93",
"& 	c #798994",
"' 	c #648EAE",
"( 	c #6E8595",
") 	c #7F939E",
"* 	c #BBDDEE",
"+ 	c #BCDDEE",
", 	c #C5E9FB",
"- 	c #71A8D0",
". 	c #A3BFCF",
"0 	c #C0E3F4",
"1 	c #6590B0",
"2 	c #7E99AA",
"3 	c #C0E2F4",
"4 	c #6A8FAA",
"5 	c #A1BDCC",
"6 	c #BFE2F3",
"7 	c #C5E9FA",
"8 	c #C4E9FB",
"9 	c #B3DAE7",
": 	c #8ED7CE",
"; 	c #94D8D2",
"< 	c #ADE1E7",
"= 	c #9FDCDC",
"> 	c #A1DDDE",
"? 	c #AEE1E8",
"@ 	c #9DDCDA",
"A 	c #C3E8F9",
"B 	c #7ED1C0",
"C 	c #84D3C6",
"D 	c #BDE6F4",
"E 	c #97D9D5",
"F 	c #B4E3ED",
"G 	c #BFE7F6",
"H 	c #82D3C4",
"I 	c #C1E7F7",
"J 	c #8AD5CA",
"K 	c #B9E5F1",
"L 	c #54BB99",
"M 	c #33B07E",
"N 	c #B3E3EC",
"O 	c #9CDBD9",
"P 	c #32B882",
"Q 	c #B5E3ED",
"R 	c #A0DDDD",
"S 	c #2FB77F",
"T 	c #ABE0E6",
"U 	c #3DBC8B",
"V 	c #77CFBB",
"W 	c #41BD8E",
"X 	c #87D4C8",
"Y 	c #3CBC8B",
"Z 	c #92D8D1",
"[ 	c #57C4A0",
"] 	c #C0E7F7",
"^ 	c #4EC199",
"_ 	c #6DCCB3",
"` 	c #C2E8F8",
"a 	c #62C8AA",
"b 	c #89D5CA",
"c 	c #73CEB7",
"d 	c #6EC3AE",
"e 	c #587A91",
"f 	c #59BD9D",
"g 	c #46BF92",
"h 	c #2CB67D",
"i 	c #64C9AB",
"j 	c #1DB171",
"k 	c #80D2C2",
"l 	c #ACE0E6",
"m 	c #06AA5E",
"n 	c #BEE6F5",
"o 	c #03A95B",
"p 	c #BBE6F3",
"q 	c #0BAB62",
"r 	c #AAE0E4",
"s 	c #81D2C3",
"t 	c #1FB272",
"u 	c #B0E2EA",
"v 	c #60C7A8",
"w 	c #29B57B",
"x 	c #71CDB6",
"y 	c #4AC096",
"z 	c #B8DCEB",
"{ 	c #206C4A",
"| 	c #8DD6CD",
"} 	c #09AB60",
"~ 	c #24B376",
" !	c #94D9D3",
"!!	c #12AE68",
"#!	c #98DAD6",
"$!	c #31B881",
"%!	c #1FB273",
"&!	c #77CFBA",
"'!	c #00A859",
"(!	c #5FC7A7",
")!	c #6CCBB1",
"*!	c #6ECCB4",
"+!	c #10AD66",
",!	c #76CFBA",
"-!	c #18B06D",
".!	c #8BD6CB",
"0!	c #3FBC8D",
"1!	c #0DAC63",
"2!	c #96D9D4",
"3!	c #27B579",
"4!	c #4E7B70",
"5!	c #55C49F",
"6!	c #7FD2C2",
"7!	c #34B984",
"8!	c #5CC6A5",
"9!	c #96D9D5",
":!	c #1EB272",
";!	c #46BF93",
"<!	c #16AF6B",
"=!	c #51C39C",
">!	c #30B880",
"?!	c #6D8898",
"@!	c #2EAE79",
"A!	c #09AB61",
"B!	c #2FB780",
"C!	c #01A85A",
"D!	c #13AE69",
"E!	c #08AA5F",
"F!	c #28B57A",
"G!	c #2AB67C",
"H!	c #0EAC65",
"I!	c #02A85A",
"J!	c #1BB06F",
"K!	c #14AE69",
"L!	c #20B273",
"M!	c #2EB77F",
"N!	c #06A158",
"O!	c #6DC19E",
"P!	c #24B26C",
"Q!	c #4BC092",
"R!	c #35B87C",
"S!	c #58C28D",
"T!	c #4DBF8D",
"U!	c #36B776",
"V!	c #05A95D",
"W!	c #63C69C",
"X!	c #06AA5D",
"Y!	c #61C599",
"Z!	c #6DC9A3",
"[!	c #02A85B",
"]!	c #6AC8A0",
"^!	c #0DAB60",
"_!	c #63C79E",
"`!	c #03A056",
"a!	c #38AF72",
"b!	c #09AA5D",
"c!	c #67C58F",
"d!	c #18AE65",
"e!	c #48BC7E",
"f!	c #06A95C",
"g!	c #52BF84",
"h!	c #3AB877",
"i!	c #76C997",
"j!	c #4DBD81",
"k!	c #4EBE82",
"l!	c #31B572",
"m!	c #79CA98",
"n!	c #1CB068",
"o!	c #44BB7C",
"p!	c #1EB069",
"q!	c #45BB7D",
"r!	c #2BAB6B",
"s!	c #2D7757",
"t!	c #03A85A",
"u!	c #10AC61",
"v!	c #2DB470",
"w!	c #42BA7B",
"x!	c #0EAC60",
"y!	c #2FB571",
"z!	c #1BAF67",
"{!	c #61C38B",
"|!	c #22B16A",
"}!	c #0AAA5E",
"~!	c #30B572",
" #	c #4CBD80",
"!#	c #33B673",
"##	c #367267",
"$#	c #01A457",
"%#	c #49BC7E",
"&#	c #36B774",
"'#	c #35B674",
"(#	c #44BB7B",
")#	c #3BB877",
"*#	c #6DC691",
"+#	c #12AD62",
",#	c #8DCFA1",
"-#	c #6AC58F",
".#	c #15AE64",
"0#	c #76C995",
"1#	c #97D2A6",
"2#	c #77C594",
"3#	c #0F8F54",
"4#	c #36B674",
"5#	c #07AA5C",
"6#	c #4EBD80",
"7#	c #5AC187",
"8#	c #25B26B",
"9#	c #0CAB5F",
":#	c #71C792",
";#	c #26B26C",
"<#	c #1EB068",
"=#	c #61C38A",
">#	c #29B36D",
"?#	c #27B36D",
"@#	c #59C086",
"A#	c #17AE64",
"B#	c #2BB36E",
"C#	c #21945E",
"D#	c #1EAC66",
"E#	c #62C38A",
"F#	c #00A858",
"G#	c #6FC690",
"H#	c #33B672",
"I#	c #56BF84",
"J#	c #4FBD80",
"K#	c #1CAF67",
"L#	c #2BB46E",
"M#	c #11AC62",
"N#	c #5B8A7E",
"O#	c #37B272",
"P#	c #5CC186",
"Q#	c #3FB978",
"R#	c #3BB876",
"S#	c #43BA7A",
"T#	c #62C289",
"U#	c #94D0A2",
"V#	c #A8D5AC",
"W#	c #5EC187",
"X#	c #72C791",
"Y#	c #02A357",
"Z#	c #2E7E68",
"[#	c #399869",
"]#	c #79C894",
"^#	c #34B672",
"_#	c #41B979",
"`#	c #5AC085",
"a#	c #47BB7C",
"b#	c #1AAF66",
"c#	c #4BBC7E",
"d#	c #10AC60",
"e#	c #1EB067",
"f#	c #1F915C",
"g#	c #55889A",
"h#	c #108D54",
"i#	c #0CA65C",
"j#	c #33B571",
"k#	c #0FAC60",
"l#	c #3BB775",
"m#	c #1CAF66",
"n#	c #39B774",
"o#	c #13AD62",
"p#	c #2AB36D",
"q#	c #40B978",
"r#	c #15AD63",
"s#	c #50BD7F",
"t#	c #2EB46F",
"u#	c #6F8FA6",
"v#	c #658D82",
"w#	c #39B272",
"x#	c #74C690",
"y#	c #4CBC7D",
"z#	c #7EC995",
"{#	c #78C792",
"|#	c #73C690",
"}#	c #0BAB5E",
"~#	c #0AAA5D",
" $	c #74C790",
"!$	c #32B16F",
"#$	c #41B977",
"$$	c #0CAB5E",
"%$	c #67C38A",
"&$	c #31B470",
"'$	c #49B779",
"($	c #3A9A69",
")$	c #1F7350",
"*$	c #12A45D",
"+$	c #6BBB87",
",$	c #45B979",
"-$	c #3DAF71",
".$	c #34AD6D",
"0$	c #307757",
"1$	c #567A63",
"2$	c #5C7B93",
"                                                                ",
"                      # $ $ % & & % $ $ #                       ",
"                  ' ( ) * * + , , + * * ) ( '                   ",
"              - ( . 0 , , , , , , , , , , 0 . ( -               ",
"            1 2 3 , , , , , , , , , , , , , , 3 2 1             ",
"          4 5 6 , , 7 , , , , , , , , 7 , 7 , 7 6 5 4           ",
"        1 5 , , , , , , , , , , , , , , , , , , , , 5 1         ",
"      - 2 6 , , , , , , , , , , , , , , , 7 , , , , 6 2 -       ",
"      ( 3 , , 8 8 , , , , , , , , , , , , , , 8 8 , , 3 (       ",
"    ' . , , , , , , , , , , , , , , , , , , , , , , , , . '     ",
"    ( 0 , , , , , , , , , , , , , , , , , , , , , , , , 0 (     ",
"  # ) , , , , , , , , , , , , , , , , , , , , , , , , , , ) #   ",
"  $ 9 : , ; < , = > , ? @ A B , , C D , E F G H , I J , K L $   ",
"  $ M N O P Q R S < T U A V W , X Y G Z [ ] ^ _ ` a b A c d $   ",
"  e f G g V G h i ? j k l m O n o p E q r s t u v w ] x y z e   ",
"  { | } ~  !!!P #!$!%!&!'!W J '!(!)!$!k *!+!_ ,!-!.!0!1!2!3!{   ",
"  4!m '!5!S !!6!$!j 7!'!} 8!'!'!9!$!m 7!$!:!;!'!<!=!'!1!>!3!{   ",
"  ?!@!A!o B!C!o 7!D!S t '!E!F!'!o 7!G!h H!I!J!K!'!D!L!'!M!N!?!  ",
"  $ O!'!P!Q!'!R!R!'!S!T!'!U!V!'!W!X!'!Y!H!'!Z![!'!]!'!^!_!`!$   ",
"  $ a!b!c!d!'!e!f!'!g!h!b!i!'!'!j!'!'!k!l!e!m!'!n!o!p!q!o!r!$   ",
"  # s!t!u!v!'!'!w!'!x!y!t!z!{!'!'!w!'!|!z!}!o!~!'! #!#u!~!s!#   ",
"    ##$#%#&#'!'#'#'!(#)#'!*#+#'!,#f!'!-#.#'!0#b!+#1#'!}!2###    ",
"    ' 3#4#5#'!6#l!'!7#8#9#6#'!'!:#;#<#=#'!>#l!'!?#@#A#B#C#'     ",
"      ##D#E#F#u!G#F#}!H#'!9#I#'!<#<#A#J#d!'!8#K#'!L#M#D###      ",
"      - N#O#'!P#Q#'!R#S#'!T#K#'!U#5#'!V#d!'!W#'!9#X#Y#Z#-       ",
"        1 [#d!]#B#b!^#_#9#`#'!'!a#b#'!8#_#>#c#}!d#e#f#1         ",
"          g#h#i#j#k#^#l#'!m#n#'!o#p#'!q#r#'!s#t#Y#f#u#          ",
"            1 v#w#'!x#y#'!z#'!'!{#f!'!|#}#~# $$#Z#1             ",
"              - ##3#!$#$$$%$}!'!&$$$'!&$#$'$($##-               ",
"                  ' ##)$`!*$+$'!,$-$`!.$0$##'                   ",
"                      # $ $ e { 1$2$$ $ #                       ",
"                                                                "};