/* XPM */ 
static const unsigned char * seafloor___sand_xpm[] = {
"32 32 112 2",
"  	c None",
"! 	c black",
"# 	c #74ADD7",
"$ 	c #5A7A93",
"% 	c #5B7B93",
"& 	c #798994",
"' 	c #648EAE",
"( 	c #6E8595",
") 	c #7F939E",
"* 	c #BBDDEE",
"+ 	c #BCDDEE",
", 	c #C5E9FB",
"- 	c #71A8D0",
". 	c #A3BFCF",
"0 	c #C0E3F4",
"1 	c #6590B0",
"2 	c #7E99AA",
"3 	c #C0E2F4",
"4 	c #6A8FAA",
"5 	c #A1BDCC",
"6 	c #BFE2F3",
"7 	c #C5E9FA",
"8 	c #C4E9FB",
"9 	c #798993",
": 	c #70899A",
"; 	c #CFDFE2",
"< 	c #DAEBEE",
"= 	c #EBE2D0",
"> 	c #F3E3C2",
"? 	c #EDD29C",
"@ 	c #F6E9D0",
"A 	c #F4E5C8",
"B 	c #EED6A5",
"C 	c #F6EBD3",
"D 	c #F3E2C1",
"E 	c #EED6A6",
"F 	c #F8EEDA",
"G 	c #F1DCB4",
"H 	c #EDD3A0",
"I 	c #F2DFBA",
"J 	c #98958E",
"K 	c #F7ECD6",
"L 	c #F3E1BE",
"M 	c #F2DEB8",
"N 	c #F3E1BF",
"O 	c #F0D9AD",
"P 	c #F4E4C5",
"Q 	c #F4E3C3",
"R 	c #F0DAAF",
"S 	c #F4E5C7",
"T 	c #F1DEB7",
"U 	c #F5E6C9",
"V 	c #7C868B",
"W 	c #F1E7D2",
"X 	c #F6E8CD",
"Y 	c #F1DBB2",
"Z 	c #F5E6CA",
"[ 	c #F1DCB3",
"] 	c #F4E5C6",
"^ 	c #EFD8AA",
"_ 	c #F4E4C4",
"` 	c #F5E7CC",
"a 	c #F0D9AC",
"b 	c #F5E5C7",
"c 	c #C6B99F",
"d 	c #EDD19C",
"e 	c #F5E8CE",
"f 	c #EFD6A6",
"g 	c #F1DDB5",
"h 	c #7C8385",
"i 	c #EEDFC1",
"j 	c #EFD8A9",
"k 	c #EFD9AC",
"l 	c #F2DFB9",
"m 	c #939A9A",
"n 	c #E8D2A5",
"o 	c #F3E1BD",
"p 	c #EFD9AB",
"q 	c #F4E3C2",
"r 	c #F3E2C0",
"s 	c #EED5A3",
"t 	c #EED5A4",
"u 	c #C6BFAE",
"v 	c #EDD29D",
"w 	c #F5E7CA",
"x 	c #F1DDB6",
"y 	c #EDD39F",
"z 	c #F7EAD2",
"{ 	c #6F8FA6",
"| 	c #C5BBA7",
"} 	c #ECDBBA",
"~ 	c #F0DBB0",
" !	c #F3E3C1",
"!!	c #EFD7A9",
"#!	c #F4E5C5",
"$!	c #919793",
"%!	c #E9D2A6",
"&!	c #F4E4C3",
"'!	c #EFD8AB",
"(!	c #7C8588",
")!	c #C2AF89",
"*!	c #E8CF9E",
"+!	c #F0DAAE",
",!	c #EDD29E",
"-!	c #7C8487",
".!	c #979288",
"0!	c #E9DCC1",
"1!	c #EADCC0",
"2!	c #EED4A1",
"3!	c #5F7F96",
"4!	c #ABBEBD",
"5!	c #8F897E",
"                                                                ",
"                      # $ $ % & & % $ $ #                       ",
"                  ' ( ) * * + , , + * * ) ( '                   ",
"              - ( . 0 , , , , , , , , , , 0 . ( -               ",
"            1 2 3 , , , , , , , , , , , , , , 3 2 1             ",
"          4 5 6 , , 7 , , , , , , , , 7 , 7 , 7 6 5 4           ",
"        1 5 , , , , , , , , , , , , , , , , , , , , 5 1         ",
"      - 2 6 , , , , , , , , , , , , , , , 7 , , , , 6 2 -       ",
"      ( 3 , , 8 8 , , , , , , , , , , , , , , 8 8 , , 3 (       ",
"    ' . , , , , , , , , , , , , , , , , , , , , , , , , . '     ",
"    ( 0 , , , , , , , , , , , , , , , , , , , , , , , , 0 (     ",
"  # ) , , , , , , , , , , , , , , , , , , , , , , , , , , ) #   ",
"  $ * , , , , , , , , , , , , , , , , , , , , , , , , , , * $   ",
"  $ * , , , , , , , , , , 8 , , , , , , , , , , , , , , , * $   ",
"  % + , , , , , , , , , , , , , , , , , , , , , , , , , , + %   ",
"  & , , , , , , , , , , , , , , , , , , , , , , , , , , , , 9   ",
"  & , , , , , , , , , , , , , , , , , , , , , , , , , , , , &   ",
"  : + 7 , , , , , , , , , , , , , , , 7 , , , , , , , , , + :   ",
"  $ ; < < < < < < < < < < < < < < < < < < < < < < < < < < ; $   ",
"  $ = > ? @ A B C D E F G H F I I F H G F E D C B A @ ? > = $   ",
"  # J K L M N M O P Q R S D R T U R D S R Q P O M N M L K J #   ",
"    V W X Y U Z [ ] U ^ _ ` a b b a ` _ ^ U ] [ Z U Y X W V     ",
"    ' c d e S H e M f K g H K g g K H g K f M e H S e d c '     ",
"      h i j N ] k _ ] R l _ B P P B _ l R ] _ k ] N j i h       ",
"      - m n o _ p q r s M Q t _ _ t Q M s r q p _ o n m -       ",
"        1 u r v w x y z O y z [ [ z y O z y x w v r u 1         ",
"          { | } ~  !l !!g #!j  ! !j #!g !!l  !~ } | {           ",
"            1 $!%!&!P '!> ] '!r r '!] > '!P &!%!$!1             ",
"              - (!)!*!X +!,!w [ [ w ,!+!X *!)!(!-               ",
"                  ' -!.!0!1!2!L L 2!1!0!.!-!'                   ",
"                      # $ 3!4!5!5!4!3!$ #                       ",
"                                                                "};