/* XPM */ 
static const unsigned char * seafloor___rock_xpm[] = {
"32 32 209 2",
"  	c None",
"! 	c black",
"# 	c #74ADD7",
"$ 	c #5A7A93",
"% 	c #5B7B93",
"& 	c #798994",
"' 	c #648EAE",
"( 	c #6E8595",
") 	c #7F939E",
"* 	c #BBDDEE",
"+ 	c #BCDDEE",
", 	c #C5E9FB",
"- 	c #71A8D0",
". 	c #A3BFCF",
"0 	c #C0E3F4",
"1 	c #6590B0",
"2 	c #7E99AA",
"3 	c #C0E2F4",
"4 	c #6A8FAA",
"5 	c #A1BDCC",
"6 	c #BFE2F3",
"7 	c #C5E9FA",
"8 	c #C4E9FB",
"9 	c #C2E5F7",
": 	c #C4E8F9",
"; 	c #9AB2BF",
"< 	c #9AB3C0",
"= 	c #C3E7F9",
"> 	c #C3E6F8",
"? 	c #AAC7D6",
"@ 	c #7B8B94",
"A 	c #585E63",
"B 	c #B2D0E0",
"C 	c #B6D6E7",
"D 	c #6F7C84",
"E 	c #2F2D2E",
"F 	c #373536",
"G 	c #4B4A4B",
"H 	c #6E7980",
"I 	c #4F4D4E",
"J 	c #758188",
"K 	c #798993",
"L 	c #545356",
"M 	c #737172",
"N 	c #464445",
"O 	c #383636",
"P 	c #29292A",
"Q 	c #282829",
"R 	c #2D2C2D",
"S 	c #2F2E2F",
"T 	c #2A292A",
"U 	c #383637",
"V 	c #595758",
"W 	c #696868",
"X 	c #666465",
"Y 	c #7E7E7E",
"Z 	c #999999",
"[ 	c #302E2F",
"] 	c #515050",
"^ 	c #666666",
"_ 	c #5F5F5F",
"` 	c #323031",
"a 	c #39383A",
"b 	c #6F8899",
"c 	c #ABABAC",
"d 	c #B3B3B4",
"e 	c #575656",
"f 	c #393839",
"g 	c #353434",
"h 	c #676666",
"i 	c #959595",
"j 	c #979797",
"k 	c #3D3C3D",
"l 	c #434242",
"m 	c #312F30",
"n 	c #6E8697",
"o 	c #959495",
"p 	c #3F3D3E",
"q 	c #323132",
"r 	c #292829",
"s 	c #575657",
"t 	c #3E3C3D",
"u 	c #616161",
"v 	c #525151",
"w 	c #403F3F",
"x 	c #4D4B4C",
"y 	c #6D6B6C",
"z 	c #777677",
"{ 	c #343334",
"| 	c #302F30",
"} 	c #514F50",
"~ 	c #5B5959",
" !	c #494747",
"!!	c #5B5A5B",
"#!	c #828282",
"$!	c #434041",
"%!	c #403D3E",
"&!	c #535253",
"'!	c #3F3E3E",
"(!	c #323232",
")!	c #757475",
"*!	c #7C7B7C",
"+!	c #333538",
",!	c #333232",
"-!	c #343233",
".!	c #474546",
"0!	c #555354",
"1!	c #706E6F",
"2!	c #413E3F",
"3!	c #4A494A",
"4!	c #4D4D4D",
"5!	c #4B4B4B",
"6!	c #474646",
"7!	c #5D5B5C",
"8!	c #373535",
"9!	c #5E6063",
":!	c #414E59",
";!	c #2C2B2C",
"<!	c #444242",
"=!	c #7D7C7D",
">!	c #817F81",
"?!	c #424141",
"@!	c #3B393A",
"A!	c #333132",
"B!	c #4A4849",
"C!	c #7A7879",
"D!	c #5B6772",
"E!	c #414043",
"F!	c #504F4F",
"G!	c #494748",
"H!	c #7A797A",
"I!	c #818081",
"J!	c #5A5859",
"K!	c #444344",
"L!	c #464546",
"M!	c #403E3F",
"N!	c #2B2A2B",
"O!	c #302F2F",
"P!	c #393738",
"Q!	c #656464",
"R!	c #707073",
"S!	c #626E79",
"T!	c #353334",
"U!	c #353333",
"V!	c #515051",
"W!	c #656364",
"X!	c #716F70",
"Y!	c #484747",
"Z!	c #313030",
"[!	c #343232",
"]!	c #6D6C6C",
"^!	c #686768",
"_!	c #4C5863",
"`!	c #6C7882",
"a!	c #464344",
"b!	c #4E4D4D",
"c!	c #4E4C4C",
"d!	c #6C6B6C",
"e!	c #484647",
"f!	c #3C3A3B",
"g!	c #3B3A3A",
"h!	c #424041",
"i!	c #3A3839",
"j!	c #535252",
"k!	c #595959",
"l!	c #585757",
"m!	c #5A6670",
"n!	c #57585A",
"o!	c #313031",
"p!	c #3D3B3C",
"q!	c #5B5A5A",
"r!	c #636363",
"s!	c #565556",
"t!	c #4C4C4C",
"u!	c #454444",
"v!	c #3C3B3B",
"w!	c #3E3D3D",
"x!	c #5C5B5B",
"y!	c #5B5C5E",
"z!	c #6587A0",
"{!	c #464547",
"|!	c #595858",
"}!	c #606060",
"~!	c #4B494A",
" #	c #474647",
"!#	c #4C4A4B",
"##	c #4C4B4B",
"$#	c #646464",
"%#	c #60819B",
"&#	c #57636D",
"'#	c #636262",
"(#	c #373636",
")#	c #585758",
"*#	c #5A5A5A",
"+#	c #4F5B66",
",#	c #68686A",
"-#	c #646364",
".#	c #353535",
"0#	c #525354",
"1#	c #53606A",
"2#	c #4A4B4F",
"3#	c #444243",
"4#	c #343333",
"5#	c #434142",
"6#	c #626262",
"7#	c #515356",
"8#	c #597890",
"9#	c #434345",
":#	c #5A7991",
"                                                                ",
"                      # $ $ % & & % $ $ #                       ",
"                  ' ( ) * * + , , + * * ) ( '                   ",
"              - ( . 0 , , , , , , , , , , 0 . ( -               ",
"            1 2 3 , , , , , , , , , , , , , , 3 2 1             ",
"          4 5 6 , , 7 , , , , , , , , 7 , 7 , 7 6 5 4           ",
"        1 5 , , , , , , , , , , , , , , , , , , , , 5 1         ",
"      - 2 6 , , , , , , , , , , , , , , , 7 , , , , 6 2 -       ",
"      ( 3 , , 8 8 , , , , , , , , , , , , , , 8 8 , , 3 (       ",
"    ' . , , , , , , , , , , , , , , , , , , , , , , , , . '     ",
"    ( 0 , , , , , , , , , , , , , , , , , , , , , , , , 0 (     ",
"  # ) , , , , , , , , , , , , , , , , , , , , , , , , , , ) #   ",
"  $ * , , , , , , , , , , , , , , , , , , , , , , , , , , * $   ",
"  $ * , , , , , , , , , , 8 , , , , , , , , , , , , , , , * $   ",
"  % + , , , , 9 , , : 0 ; < , , , , , , , , = 0 0 0 0 > , + %   ",
"  & , , ? @ @ A B C D E F G @ @ @ @ @ @ @ @ H I I I I J , , K   ",
"  L M M N O P Q R S T Q U V W X Y Z Z M [ ] ^ ^ ^ ^ ^ _ ` [ a   ",
"  b c d e f Q Q Q Q Q Q g h i Z Z Z Z j k l ^ ^ ^ ^ ^ _ m E n   ",
"  $ o p q [ r Q Q Q Q Q s Z Z Z Z Z Z Z t l ^ ^ u v w x y z $   ",
"  $ { Q Q Q | R P Q Q q } ~  ! ! !!!#!Z $!%!&!'!U (!(!k )!*!$   ",
"  # +!Q Q Q | ,!-!.!0!1!2!3!4!4!4!5!6!7!8!,!(!(!(!(!(!(!I 9!#   ",
"    :!Q Q Q ;!,!<!=!>!z ?!4!4!4!4!4!5!@!A!` (!(!(!(!(!B!C!D!    ",
"    ' E!F!{ Q A!G!H!I!J!K!L!L!L!L!L!L!M!N!Q O!,!(!(!P!Q!R!'     ",
"      S!i G!T!U!V!W!>!X!%!Y!Y!Y!Y!T!Z!N!Q Q Q R [!T!]!^!_!      ",
"      - `!a!g -!b!c!1!d!e!f!g!g!h!@!i!;!T r | j!k!k!l!m!-       ",
"        1 n!o!p!q!r!s!2!h!,!(!(!U!t!4!u!v!w!x!^ ^ ^ y!1         ",
"          z!{!|!^ }!~!-!(!(!(!(!(!?! #!#s!##$#^ $#y!%#          ",
"            1 &#'#G!(#(!(!(!(!(!(!(!B!^ ^ )#*#$#&#1             ",
"              - +#,#-#.#(!(!(!(!(!P!k!^ ^ $#0#1#-               ",
"                  ' D!2#3#4#(!,!5#6#6#6#7#1#'                   ",
"                      # $ $ 8#a 9#:#$ $ #                       ",
"                                                                "};