/* XPM */ 
static const unsigned char * security___police_xpm[] = {
"32 32 164 2",
"  	c None",
"! 	c black",
"# 	c #74ADD7",
"$ 	c #5A7A93",
"% 	c #5B7891",
"& 	c #7E373B",
"' 	c #648EAE",
"( 	c #72515D",
") 	c #863A3F",
"* 	c #C83336",
"+ 	c #D23337",
", 	c #853A3F",
"- 	c #71515D",
". 	c #71A8D0",
"0 	c #AD363B",
"1 	c #CE3336",
"2 	c #D33337",
"3 	c #D43337",
"4 	c #CF3336",
"5 	c #6E592E",
"6 	c #CD3336",
"7 	c #6590B0",
"8 	c #844E5A",
"9 	c #D53337",
": 	c #A93635",
"; 	c #D0C51A",
"< 	c #834E5A",
"= 	c #6B7C96",
"> 	c #AB373B",
"? 	c #D53237",
"@ 	c #D63337",
"A 	c #D73337",
"B 	c #B93536",
"C 	c #888126",
"D 	c #CC3336",
"E 	c #D83337",
"F 	c #BC3635",
"G 	c #B9A220",
"H 	c #FFF212",
"I 	c #9E8925",
"J 	c #D64F31",
"K 	c #D93337",
"L 	c #D53336",
"M 	c #91592E",
"N 	c #EADE15",
"O 	c #A56C2B",
"P 	c #BB3336",
"Q 	c #A3572F",
"R 	c #E9DD15",
"S 	c #BA3336",
"T 	c #594537",
"U 	c #A98B25",
"V 	c #AF3935",
"W 	c #B73336",
"X 	c #B83336",
"Y 	c #B93336",
"Z 	c #994D31",
"[ 	c #8D582E",
"] 	c #94652C",
"^ 	c #E8DC15",
"_ 	c #8C582E",
"` 	c #B63336",
"a 	c #A88B25",
"b 	c #827129",
"c 	c #DED317",
"d 	c #8E8725",
"e 	c #BEB41D",
"f 	c #ECE015",
"g 	c #FFF112",
"h 	c #A13336",
"i 	c #803335",
"j 	c #D4C61A",
"k 	c #F0E314",
"l 	c #E5D916",
"m 	c #7F3335",
"n 	c #936B2B",
"o 	c #FBEE12",
"p 	c #8A8326",
"q 	c #373435",
"r 	c #57522F",
"s 	c #B3AA1F",
"t 	c #E7DB16",
"u 	c #9C4B31",
"v 	c #C93336",
"w 	c #A73336",
"x 	c #D3C619",
"y 	c #FEF212",
"z 	c #FEF112",
"{ 	c #FEF013",
"| 	c #3A3734",
"} 	c #ABA220",
"~ 	c #454132",
" !	c #AE9423",
"!!	c #C13336",
"#!	c #9E4C31",
"$!	c #E6DA16",
"%!	c #FBE91A",
"&!	c #F9E41F",
"'!	c #F6DD28",
"(!	c #F8E221",
")!	c #887E2B",
"*!	c #3D3A33",
"+!	c #7F373B",
",!	c #C23336",
"-!	c #AE9126",
".!	c #F7DF25",
"0!	c #877A2F",
"1!	c #756F2A",
"2!	c #AF9423",
"3!	c #AB892E",
"4!	c #B6AC1E",
"5!	c #FAE71D",
"6!	c #AA892E",
"7!	c #9D4934",
"8!	c #DEC829",
"9!	c #393634",
":!	c #8D802F",
";!	c #BAAD23",
"<!	c #FDEE15",
"=!	c #F9E51F",
">!	c #F6DD27",
"?!	c #A9892E",
"@!	c #3D3934",
"A!	c #F6DE26",
"B!	c #906531",
"C!	c #F2D928",
"D!	c #DFC829",
"E!	c #9B4834",
"F!	c #BE3336",
"G!	c #AA972D",
"H!	c #AE9D2C",
"I!	c #7E7330",
"J!	c #856A31",
"K!	c #9C3336",
"L!	c #8F7129",
"M!	c #7B722D",
"N!	c #B8A62C",
"O!	c #E4CD29",
"P!	c #714537",
"Q!	c #B7AE1E",
"R!	c #8F4931",
"S!	c #984A34",
"T!	c #8B5433",
"U!	c #925F32",
"V!	c #E0CA29",
"W!	c #853934",
"X!	c #65515D",
"Y!	c #AA3336",
"Z!	c #DA3337",
"[!	c #D63336",
"]!	c #A25333",
"^!	c #E1CA29",
"_!	c #A15333",
"`!	c #9F822F",
"a!	c #8F5533",
"b!	c #AC373B",
"c!	c #BB3636",
"d!	c #B3952D",
"e!	c #BA3436",
"f!	c #857A2D",
"g!	c #AA3635",
"h!	c #D43237",
"i!	c #AE363B",
"j!	c #D03336",
"                                                                ",
"                      # $ $ % & & % $ $ #                       ",
"                  ' ( ) * * * + + * * * , - '                   ",
"              . ( 0 1 2 3 3 4 5 5 4 3 2 2 6 0 ( .               ",
"            7 8 6 2 3 3 9 9 : ; ; : 9 9 3 3 2 6 < 7             ",
"          = > 6 3 3 ? @ A A B C C B A @ @ ? 3 2 D > =           ",
"        7 > 2 3 9 @ A E E F G H H I J E A @ 9 9 3 + > 7         ",
"      . 8 6 3 9 A E E K L M H H H N O L K E A @ 9 3 D < .       ",
"      ( P 3 9 A E K K L Q R H H H H R Q L K E A @ 9 2 S (       ",
"    ' T U V W X Y Z [ ] ^ H H H H H H ^ ] _ Z Y X ` V a T '     ",
"    ( b c d e e e f H H H H H H H H g H H H f e e e d c b -     ",
"  # ) h i j H H H H H H H k l l l l k H H H H H H H j m h , #   ",
"  $ * 3 9 n o H H H g H g p q q q q r s g H g H H t u 9 2 * $   ",
"  $ v 3 @ w x y y H z { z p | } } } ~ r k H H y y  !!!9 3 * $   ",
"  % v 3 @ E #!$!z %!&!'!(!)!*!H H H } q l H g H $!#!A 9 3 * %   ",
"  +!2 3 @ E ,!-!.!'!'!'!'!0!*!H H H 1!q l H H H 2!,!A 9 3 + &   ",
"  +!2 9 A E ,!3!'!'!'!'!'!0!q q q q q 4!H H H 5!6!,!E @ 3 + &   ",
"  % v 3 @ E 7!8!'!'!'!'!'!0!9!:!:!:!;!z H <!=!>!8!7!A 9 3 * %   ",
"  $ v 3 @ ,!?!'!'!'!'!'!'!0!@!'!'!'!>!A!A!>!'!'!'!?!!!9 3 * $   ",
"  $ v 3 @ B!C!'!'!'!'!'!'!0!@!'!'!'!'!'!'!'!'!'!'!D!E!9 3 * $   ",
"  # ) F!i G!'!'!'!'!'!'!'!H!I!'!'!'!'!'!'!'!'!'!'!'!J!K!h ) #   ",
"    ( L!c M!N!N!N!O!'!'!'!'!'!'!'!'!'!'!'!'!O!N!N!N!M!c b (     ",
"    ' P!Q!R!X Y Y S!T!U!V!>!'!'!'!'!'!V!U!T!S!Y X W W!a T '     ",
"      X!Y!4 @ A E K Z![!]!^!'!'!'!'!^!_!L K K E A 9 3 P (       ",
"      . 8 1 9 @ A E K K 6 `!'!'!'!'!a!L K K E A 9 3 6 8 .       ",
"        7 b!3 9 @ A E E K c!d!'!'!d!c!K E A @ 9 3 2 > 7         ",
"          = b!1 3 9 @ A E E e!f!f!e!E A @ @ 9 3 6 > =           ",
"            7 8 1 3 9 9 @ @ g!; ; g!@ 9 9 h!2 6 8 7             ",
"              . ( i!1 3 3 3 j!5 5 j!3 3 3 1 i!( .               ",
"                  ' ( ) v v v 2 2 v v * ) ( '                   ",
"                      # $ $ % +!+!% $ $ #                       ",
"                                                                "};