/* XPM */ 
static const unsigned char * security___piracy_xpm[] = {
"32 32 332 2",
"  	c None",
"! 	c black",
"# 	c #74ADD7",
"$ 	c #5A7A93",
"% 	c #5B7891",
"& 	c #7E373B",
"' 	c #648EAE",
"( 	c #72515D",
") 	c #863A3F",
"* 	c #C83336",
"+ 	c #D23337",
", 	c #853A3F",
"- 	c #71515D",
". 	c #71A8D0",
"0 	c #AD363B",
"1 	c #C53437",
"2 	c #A03E41",
"3 	c #B2585A",
"4 	c #A99A9B",
"5 	c #BEAEAF",
"6 	c #F9EAEA",
"7 	c #B8A9A9",
"8 	c #A49595",
"9 	c #A84D50",
": 	c #B94144",
"; 	c #CD3336",
"< 	c #6590B0",
"= 	c #844E5A",
"> 	c #D33337",
"? 	c #B74D50",
"@ 	c #CCCCCC",
"A 	c #EFEFEF",
"B 	c #FEFEFE",
"C 	c #EBEBEB",
"D 	c #DBD4D4",
"E 	c #CC5F62",
"F 	c #834E5A",
"G 	c #6B7C96",
"H 	c #AB373B",
"I 	c #D43337",
"J 	c #D66A6C",
"K 	c #EFE7E7",
"L 	c #FAFAFA",
"M 	c #E2DADA",
"N 	c #C5595C",
"O 	c #CC3336",
"P 	c #BC5053",
"Q 	c #C4BBBC",
"R 	c #FDFDFD",
"S 	c #D4CBCB",
"T 	c #C64144",
"U 	c #D53337",
"V 	c #996F71",
"W 	c #BFBFC0",
"X 	c #F6F6F6",
"Y 	c #F1F1F1",
"Z 	c #B2B3B3",
"[ 	c #A63E40",
"] 	c #D73337",
"^ 	c #D7ADAE",
"_ 	c #CBCCCC",
"` 	c #D2D2D2",
"a 	c #E3E3E3",
"b 	c #989898",
"c 	c #CAA0A1",
"d 	c #D63337",
"e 	c #AE363B",
"f 	c #D83337",
"g 	c #C98D8F",
"h 	c #9F9F9F",
"i 	c #D6D6D6",
"j 	c #D0D1D0",
"k 	c #999999",
"l 	c #D5AAAB",
"m 	c #CE3336",
"n 	c #D93337",
"o 	c #B16A6C",
"p 	c #8F8F8F",
"q 	c #DDDEDE",
"r 	c #FCFCFC",
"s 	c #F9F9F9",
"t 	c #E0E0E0",
"u 	c #F5F5F5",
"v 	c #A18586",
"w 	c #8F7F7F",
"x 	c #B55153",
"y 	c #D63237",
"z 	c #B74F52",
"{ 	c #C7C1C1",
"| 	c #EDEDED",
"} 	c #A99B9B",
"~ 	c #BAA4A4",
" !	c #C88385",
"!!	c #C7BDBD",
"#!	c #F7F7F7",
"$!	c #875556",
"%!	c #D7676A",
"&!	c #C2A2A3",
"'!	c #A4A1A1",
"(!	c #D8D2D2",
")!	c #A19797",
"*!	c #C84245",
"+!	c #D03337",
",!	c #DA3337",
"-!	c #DC3337",
".!	c #A26869",
"0!	c #ECECEC",
"1!	c #CE5F61",
"2!	c #E13337",
"3!	c #B36466",
"4!	c #E0E1E1",
"5!	c #EAEAEA",
"6!	c #BA6B6D",
"7!	c #E03337",
"8!	c #A85B5D",
"9!	c #A77577",
":!	c #D04B4E",
";!	c #DB3337",
"<!	c #D43B3F",
"=!	c #D3373B",
">!	c #C93336",
"?!	c #9E393C",
"@!	c #7F4546",
"A!	c #C93539",
"B!	c #CF4548",
"C!	c #9C9D9D",
"D!	c #B74D4F",
"E!	c #E23337",
"F!	c #E03639",
"G!	c #BE9D9E",
"H!	c #967676",
"I!	c #DB373B",
"J!	c #8C5051",
"K!	c #CC4246",
"L!	c #D83438",
"M!	c #BF8E8F",
"N!	c #C65D60",
"O!	c #7B6667",
"P!	c #969797",
"Q!	c #BF696C",
"R!	c #DD3337",
"S!	c #E3595D",
"T!	c #FBFDFD",
"U!	c #BBB2B3",
"V!	c #D58688",
"W!	c #A95E5F",
"X!	c #BBBCBC",
"Y!	c #A3A3A4",
"Z!	c #DDDFDF",
"[!	c #927071",
"]!	c #D7888A",
"^!	c #BEB4B5",
"_!	c #D1D2D2",
"`!	c #CB4144",
"a!	c #A24D4F",
"b!	c #BDBEBF",
"c!	c #93585A",
"d!	c #7F373B",
"e!	c #BD3B3E",
"f!	c #D1C8C8",
"g!	c #FCFEFE",
"h!	c #CFD1D1",
"i!	c #945456",
"j!	c #D74447",
"k!	c #CD4245",
"l!	c #B9BABA",
"m!	c #DFE0E0",
"n!	c #BBB9B9",
"o!	c #E5B7B9",
"p!	c #C19495",
"q!	c #AAA7A8",
"r!	c #E1E3E3",
"s!	c #A8A9A9",
"t!	c #CE4548",
"u!	c #B05B5D",
"v!	c #B5B6B6",
"w!	c #A49B9C",
"x!	c #DC5B5E",
"y!	c #AB9C9D",
"z!	c #F1F2F2",
"{!	c #EDEEEE",
"|!	c #F2F4F4",
"}!	c #B3B3B3",
"~!	c #C17173",
" #	c #BF5C5E",
"!#	c #B5B5B5",
"##	c #D7D9D9",
"$#	c #FBF7F7",
"%#	c #E2888A",
"&#	c #E1888A",
"'#	c #6F6F70",
"(#	c #C78081",
")#	c #844647",
"*#	c #979898",
"+#	c #F2F3F3",
",#	c #E4E6E6",
"-#	c #A59696",
".#	c #D7383C",
"0#	c #D8383C",
"1#	c #BC6062",
"2#	c #8D7D7E",
"3#	c #BDBFBF",
"4#	c #D9D9D9",
"5#	c #CBC7C7",
"6#	c #DEDFDF",
"7#	c #A2A2A2",
"8#	c #C6C7C8",
"9#	c #C7C8C8",
":#	c #A29F9F",
";#	c #A9A6A6",
"<#	c #F8FAFA",
"=#	c #B7B8B8",
">#	c #898A8A",
"?#	c #DBBBBC",
"@#	c #A79797",
"A#	c #E6E8E8",
"B#	c #E0E1E2",
"C#	c #958586",
"D#	c #BC6063",
"E#	c #D8393D",
"F#	c #D6393D",
"G#	c #D3363A",
"H#	c #D53539",
"I#	c #AB4D50",
"J#	c #C6B2B2",
"K#	c #D0D1D1",
"L#	c #B08182",
"M#	c #BBB2B2",
"N#	c #997374",
"O#	c #EAECEC",
"P#	c #F9FAFA",
"Q#	c #E9EBEB",
"R#	c #B6B7B7",
"S#	c #959696",
"T#	c #BEBEBE",
"U#	c #AAABAC",
"V#	c #948081",
"W#	c #C86B6D",
"X#	c #D5363A",
"Y#	c #DB3B3F",
"Z#	c #D34649",
"[#	c #CC8688",
"]#	c #E9E9E9",
"^#	c #DFDFDF",
"_#	c #FDFEFE",
"`#	c #FBFBFC",
"a#	c #CECECF",
"b#	c #C0C1C1",
"c#	c #F2B8B9",
"d#	c #D74B4E",
"e#	c #D6383C",
"f#	c #DE3337",
"g#	c #CC6163",
"h#	c #D9DADA",
"i#	c #BFC0C0",
"j#	c #C3C4C4",
"k#	c #B7B7B8",
"l#	c #CDCDCD",
"m#	c #DF494D",
"n#	c #D4393D",
"o#	c #B55456",
"p#	c #8B6F70",
"q#	c #A3999A",
"r#	c #D5D6D6",
"s#	c #E6E7E7",
"t#	c #FBFBFB",
"u#	c #DADCDC",
"v#	c #E0CBCC",
"w#	c #AE8F90",
"x#	c #BAA0A0",
"y#	c #B55557",
"z#	c #D43A3E",
"{#	c #D53237",
"|#	c #D05558",
"}#	c #E16D70",
"~#	c #D47577",
" $	c #BAA2A2",
"!$	c #D1D3D3",
"#$	c #CBCCCD",
"$$	c #938283",
"%$	c #DB5B5E",
"&$	c #F8E5E5",
"'$	c #DCC9C9",
"($	c #C05457",
")$	c #A49A9B",
"*$	c #E2E3E3",
"+$	c #D9DBDB",
",$	c #B29A9A",
"-$	c #D09D9E",
".$	c #E68284",
"0$	c #D37B7D",
"1$	c #CD3D40",
"2$	c #D2A3A4",
"3$	c #F9FBFC",
"4$	c #EAECED",
"5$	c #BB9D9E",
"6$	c #A56C6E",
"7$	c #C23B3E",
"8$	c #E8878A",
"9$	c #BF9395",
":$	c #F4C9CA",
";$	c #D8ADAE",
"<$	c #BE9394",
"=$	c #D4464A",
">$	c #CB4548",
"?$	c #BE8586",
"@$	c #CFC8C8",
"A$	c #EBECEC",
"B$	c #F3F4F4",
"C$	c #B38A8B",
"D$	c #C83A3E",
"E$	c #D14347",
"F$	c #B8A2A3",
"G$	c #E7E9EA",
"H$	c #D53B3F",
"I$	c #CD4A4D",
"J$	c #C99C9D",
"K$	c #F6F8F8",
"L$	c #BEB7B8",
"M$	c #BD4B4D",
"N$	c #AC373B",
"O$	c #A58788",
"P$	c #B98C8D",
"Q$	c #D13A3E",
"R$	c #D93237",
"S$	c #BEA2A3",
"T$	c #C7999A",
"U$	c #9D5255",
"V$	c #CA3A3E",
"W$	c #BF4B4E",
"X$	c #A33D41",
"Y$	c #D43237",
"                                                                ",
"                      # $ $ % & & % $ $ #                       ",
"                  ' ( ) * * * + + * * * , - '                   ",
"              . ( 0 1 2 3 4 5 6 6 7 8 9 : ; 0 ( .               ",
"            < = ; > ? @ A B B B B B B C D E > ; F <             ",
"          G H ; I J K B B B B B B B B B L M N > O H G           ",
"        < H > I P Q B B B B B B B B B B B R S T I + H <         ",
"      . = ; I U V W X B B B B B B B B B B Y Z [ U I O F .       ",
"      ( ; I U ] ^ _ ` B B B B B B B B B B a b c d U > ; (       ",
"    ' e > U d f g h i B B B B B B B B B B j k l ] U I > 0 '     ",
"    ( m I d ] n o p q B r X s B B t u r B v w x f d U I ; -     ",
"  # ) I U y f n z { | } ~  !!!B #!$!%!&!'!(!)!*!n ] d I > , #   ",
"  $ * I +!U n ,!-!.!0!1!2!2!3!4!5!6!2!7!8!9!:!;!n f <!=!> * $   ",
"  $ >!I ?!@!A!,!-!B!C!D!E!F!G!L L H!I!2!J!k K!;!n L!M!N!I * $   ",
"  % >!I O!P!Q!,!R!S!T!U!V!W!q X!Y!Z![!]!^!_!`!-!n a!b!c!I * %   ",
"  d!> e!f!g!h!i!j!k!l!g!g!m!n!o!p!q!r!g!g!s!t!-!u!v!g!w!x!+ &   ",
"  d!> y!z!{!Z!|!}!~! #!###g!$#%#&#$#g!v!'#(#)#*#+#,#g!+#-#+ &   ",
"  % >!+!.#0#1#2#3#4#5#6#7#8#9#:#;#<#=#>#?#@#A#B#C#D#E#F#G#* %   ",
"  $ >!I d f n H#I#J#K#L#M#N#O#<#P#Q#R#S#T#U#V#W#X#n ] U I * $   ",
"  $ >!I d f n ,!-!Y#Z#[#=#]#^#_#`#a#t b#c#d#e#;!n f ] U I * $   ",
"  # ) I U ] f n ;!R!f#g#h#i#^#j#]#k#b#l#m#R!-!,!n f d I > ) #   ",
"    ( m U y f n n#o#p#q#r#Z s#R t#u#v!v#w#x#y#z#f ] {#I m (     ",
"    ' e I |#}#~# $!$#$$$%$&$g!g!g!g!'$($)$*$+$,$-$.$0$1$0 '     ",
"      ( m 2$3$3$4$5$6$7$-!8$9$:$;$<$=$-!>$?$@$A$B$m!C$D$(       ",
"      . = E$F$G$o!H$n n ,!;!;!;!;!;!,!,!n n I$J$K$L$M$= .       ",
"        < N$O$P$Q$] f f n n n n n R$n n f ] d Q$S$T$H <         ",
"          G U$V$I U d ] f f f f f f f ] d d U I W$X$G           ",
"            < = m I U U d d d d d d d U U Y$> ; = <             ",
"              . ( e m I I I I I I I I I I m e ( .               ",
"                  ' ( ) >!>!>!> > >!>!* ) ( '                   ",
"                      # $ $ % d!d!% $ $ #                       ",
"                                                                "};