/* XPM */ 
static const unsigned char * security___mob_xpm[] = {
"32 32 425 2",
"  	c None",
"! 	c black",
"# 	c #8492B4",
"$ 	c #8D7993",
"% 	c #985B6B",
"& 	c #858EAE",
"' 	c #7BACD6",
"( 	c #8B7E99",
") 	c #9A5462",
"* 	c #A73539",
"+ 	c #B23235",
", 	c #B13235",
"- 	c #A73235",
". 	c #A53539",
"0 	c #CC3C42",
"1 	c #A6768F",
"2 	c #9290B1",
"3 	c #918FB0",
"4 	c #9B525F",
"5 	c #B23C43",
"6 	c #C13236",
"7 	c #DC3237",
"8 	c #E1353B",
"9 	c #DD373F",
": 	c #C63336",
"; 	c #B93236",
"< 	c #C33336",
"= 	c #D63337",
"> 	c #D73438",
"? 	c #D4383D",
"@ 	c #BF5361",
"A 	c #938FB1",
"B 	c #85BCE4",
"C 	c #AD859E",
"D 	c #DC373D",
"E 	c #DA3237",
"F 	c #DF3237",
"G 	c #E23339",
"H 	c #E73840",
"I 	c #E23338",
"J 	c #E6373F",
"K 	c #EB3C48",
"L 	c #E43A43",
"M 	c #E13840",
"N 	c #D83439",
"O 	c #D3383D",
"P 	c #81A7D0",
"Q 	c #E1EEF7",
"R 	c #F6C9CA",
"S 	c #E44348",
"T 	c #E23238",
"U 	c #DB3337",
"V 	c #D73337",
"W 	c #C73337",
"X 	c #C9353A",
"Y 	c #D1373E",
"Z 	c #DF3A44",
"[ 	c #EB3D49",
"] 	c #C15965",
"^ 	c #80B7DF",
"_ 	c #DAB3BE",
"` 	c #FCF2F2",
"a 	c #FEFEFE",
"b 	c #ED9194",
"c 	c #E24246",
"d 	c #D93337",
"e 	c #C43337",
"f 	c #C03336",
"g 	c #AE3234",
"h 	c #9C3032",
"i 	c #8C2F30",
"j 	c #AD3234",
"k 	c #B63235",
"l 	c #C23437",
"m 	c #DC3A43",
"n 	c #E83B46",
"o 	c #D5686C",
"p 	c #B9C6CF",
"q 	c #81A8D1",
"r 	c #BF4F5C",
"s 	c #E53338",
"t 	c #EF7679",
"u 	c #F4EAEA",
"v 	c #EAEBEA",
"w 	c #E2B5B6",
"x 	c #BC3D40",
"y 	c #AC3234",
"z 	c #8D2F30",
"{ 	c #802E2F",
"| 	c #7D505D",
"} 	c #7F2F30",
"~ 	c #852E2F",
" !	c #9A3032",
"!!	c #D2373E",
"#!	c #EF767E",
"$!	c #F4E9EA",
"%!	c #DFDEDE",
"&!	c #BEADB7",
"'!	c #83A8D1",
"(!	c #A5748C",
")!	c #D83338",
"*!	c #E83338",
"+!	c #E93338",
",!	c #E79EA0",
"-!	c #E6DCDB",
".!	c #DCDCDC",
"0!	c #A59091",
"1!	c #833C3E",
"2!	c #7D5360",
"3!	c #7A92B3",
"4!	c #78B5E2",
"5!	c #7993B5",
"6!	c #7F3134",
"7!	c #C66567",
"8!	c #E7DDDD",
"9!	c #F6F6F6",
":!	c #F6CBCD",
";!	c #E64047",
"<!	c #B0738D",
"=!	c #868EAE",
">!	c #BD363B",
"?!	c #D93338",
"@!	c #E43338",
"A!	c #E33338",
"B!	c #DC3338",
"C!	c #E27477",
"D!	c #C6C6C7",
"E!	c #A6B3BD",
"F!	c #7FA0C2",
"G!	c #77B5E2",
"H!	c #78B4E2",
"I!	c #7A92B4",
"J!	c #7E4A55",
"K!	c #8F5657",
"L!	c #B3AEAF",
"M!	c #D7D8D7",
"N!	c #E8BDBE",
"O!	c #EB454C",
"P!	c #E9333A",
"Q!	c #E5363E",
"R!	c #998EB0",
"S!	c #90738A",
"T!	c #BC3235",
"U!	c #D33438",
"V!	c #D63338",
"W!	c #D03D41",
"X!	c #9C9AB1",
"Y!	c #7EB4DD",
"Z!	c #78A6CF",
"[!	c #93A5BB",
"]!	c #B29E9F",
"^!	c #B69394",
"_!	c #D44346",
"`!	c #DE3237",
"a!	c #E93239",
"b!	c #CE5160",
"c!	c #A73A3F",
"d!	c #D44B4E",
"e!	c #D84E51",
"f!	c #D64549",
"g!	c #C54650",
"h!	c #8DAED3",
"i!	c #89BEE5",
"j!	c #87BDE5",
"k!	c #80B9E3",
"l!	c #82BAE4",
"m!	c #82AAD1",
"n!	c #B55C63",
"o!	c #BB4D4F",
"p!	c #D74D50",
"q!	c #EC4C52",
"r!	c #EA3D43",
"s!	c #E23A43",
"t!	c #7EADD8",
"u!	c #8590B1",
"v!	c #B73639",
"w!	c #F9EAEA",
"x!	c #F1C3C4",
"y!	c #D3373B",
"z!	c #A47B94",
"{!	c #DAEAF6",
"|!	c #ECF4FA",
"}!	c #AAD0EC",
"~!	c #E4F0F8",
" #	c #E8F2F9",
"!#	c #AFD3ED",
"##	c #79B5E2",
"$#	c #9ECAEA",
"%#	c #F7C1C3",
"&#	c #EB3238",
"'#	c #AC7994",
"(#	c #A83234",
")#	c #F5EAEA",
"*#	c #FDF9F9",
"+#	c #FDFBFB",
",#	c #DB5B5E",
"-#	c #D1363A",
".#	c #ACA6BF",
"0#	c #FCFDFD",
"1#	c #FBFCFD",
"2#	c #A8CFEC",
"3#	c #FDFDFD",
"4#	c #F5F9FC",
"5#	c #B0D3ED",
"6#	c #F0F6FB",
"7#	c #B1D4EE",
"8#	c #DDA6A7",
"9#	c #D18889",
":#	c #D4888A",
";#	c #F4CDCE",
"<#	c #FDF5F5",
"=#	c #F16367",
">#	c #8E7790",
"?#	c #EEB6B7",
"@#	c #F7DDDE",
"A#	c #E79496",
"B#	c #BB5563",
"C#	c #BCDAF0",
"D#	c #E4EFF8",
"E#	c #D2E6F4",
"F#	c #7FB8E3",
"G#	c #F7FAFC",
"H#	c #EEF5FA",
"I#	c #83BBE4",
"J#	c #C56769",
"K#	c #B23336",
"L#	c #E65054",
"M#	c #E2888A",
"N#	c #B15564",
"O#	c #A63639",
"P#	c #F3B5B7",
"Q#	c #F4A6A8",
"R#	c #DBEBF6",
"S#	c #C0DCF1",
"T#	c #84BCE4",
"U#	c #B4D5EE",
"V#	c #ABD1EC",
"W#	c #8DC0E6",
"X#	c #D99B9D",
"Y#	c #DB9B9D",
"Z#	c #F6DBDC",
"[#	c #FAF3F4",
"]#	c #C55C5F",
"^#	c #B4383C",
"_#	c #F7B5B7",
"`#	c #F27377",
"a#	c #E79597",
"b#	c #9B5462",
"c#	c #F0565A",
"d#	c #FCECEC",
"e#	c #D3E6F5",
"f#	c #CBE2F3",
"g#	c #C76C6E",
"h#	c #B4393C",
"i#	c #C1393D",
"j#	c #E5464B",
"k#	c #FBDADB",
"l#	c #F8EDED",
"m#	c #A65664",
"n#	c #BB3235",
"o#	c #EFB6B7",
"p#	c #E93237",
"q#	c #FAD6D7",
"r#	c #FCF7F7",
"s#	c #DFEDF7",
"t#	c #C9E1F3",
"u#	c #ACD1EC",
"v#	c #F6F9FC",
"w#	c #D1E5F4",
"x#	c #B43336",
"y#	c #CC3337",
"z#	c #D63E42",
"{#	c #F4D0D1",
"|#	c #F9F0F1",
"}#	c #947A94",
"~#	c #A93234",
" $	c #F6EAEA",
"!$	c #E83237",
"#$	c #F7ADAF",
"$$	c #C4DEF2",
"%$	c #E6F1F9",
"&$	c #F1F6FB",
"'$	c #E9F3F9",
"($	c #F8EFEF",
")$	c #F7EAEA",
"*$	c #FAECED",
"+$	c #F29194",
",$	c #9D7A94",
"-$	c #7AADD7",
".$	c #A5393D",
"0$	c #E0A9AA",
"1$	c #E4888A",
"2$	c #F0585C",
"3$	c #C17B8A",
"4$	c #B2D4EE",
"5$	c #C3DEF1",
"6$	c #81BAE3",
"7$	c #ACD1ED",
"8$	c #CEE4F4",
"9$	c #91C2E7",
":$	c #DEC0C4",
";$	c #F0B5B7",
"<$	c #F4B6B7",
"=$	c #E17679",
">$	c #D2464C",
"?$	c #9C505C",
"@$	c #AA3234",
"A$	c #C73336",
"B$	c #DD3337",
"C$	c #ED343B",
"D$	c #ED3946",
"E$	c #F1B7BD",
"F$	c #989DB8",
"G$	c #C4373D",
"H$	c #E43337",
"I$	c #D53338",
"J$	c #D23438",
"K$	c #BD515F",
"L$	c #A63538",
"M$	c #CF3236",
"N$	c #ED3C4B",
"O$	c #F05671",
"P$	c #FBDCE2",
"Q$	c #F8FBFC",
"R$	c #ACB4D0",
"S$	c #A5C9E3",
"T$	c #E0DCDD",
"U$	c #E97376",
"V$	c #E73338",
"W$	c #E63338",
"X$	c #D0373C",
"Y$	c #938EAF",
"Z$	c #BB3E41",
"[$	c #E7697B",
"]$	c #E9BBC3",
"^$	c #F9C4C7",
"_$	c #EA4752",
"`$	c #CD505F",
"a$	c #A97994",
"b$	c #83A6CF",
"c$	c #9295B8",
"d$	c #9393B6",
"e$	c #C45969",
"f$	c #E2B6B9",
"g$	c #EE7679",
"h$	c #7CA7D0",
"i$	c #9E5863",
"j$	c #B29394",
"k$	c #C7C6C7",
"l$	c #D4C9C9",
"m$	c #E6A7AA",
"n$	c #EF434D",
"o$	c #ED333E",
"p$	c #E8333A",
"q$	c #D34651",
"r$	c #C85463",
"s$	c #E2353A",
"t$	c #E53339",
"u$	c #EC424C",
"v$	c #F8C8CB",
"w$	c #E07073",
"x$	c #D43338",
"y$	c #B2ADAE",
"z$	c #C36265",
"{$	c #DD343A",
"|$	c #E8343D",
"}$	c #EC343E",
"~$	c #EE343F",
" %	c #EC333D",
"!%	c #EA333C",
"#%	c #E9343D",
"$%	c #EB636A",
"%%	c #DFD9D9",
"&%	c #DAD9D9",
"'%	c #D0C6C7",
"(%	c #C6747B",
")%	c #896973",
"*%	c #862E2F",
"+%	c #BD3235",
",%	c #E4343C",
"-%	c #EA343D",
".%	c #EA333D",
"0%	c #DA343A",
"1%	c #CC3438",
"2%	c #BF3437",
"3%	c #C06D6F",
"4%	c #CBC4C4",
"5%	c #8EBADB",
"6%	c #78A7CF",
"7%	c #7E4A54",
"8%	c #A53033",
"9%	c #CA3337",
":%	c #DC343A",
";%	c #EA343E",
"<%	c #DB343A",
"=%	c #D53439",
">%	c #CF3437",
"?%	c #C43437",
"@%	c #BA3437",
"A%	c #B73336",
"B%	c #B2373B",
"C%	c #AE7B87",
"D%	c #78A7D0",
"E%	c #7C7187",
"F%	c #7F383C",
"G%	c #A03032",
"H%	c #B93235",
"I%	c #C93336",
"J%	c #A93134",
"K%	c #B93336",
"L%	c #8E4E59",
"M%	c #7A8EAE",
"N%	c #78AAD3",
"O%	c #7B7C96",
"P%	c #7E4F5B",
"Q%	c #7F363A",
"R%	c #7F3133",
"S%	c #973032",
"T%	c #97383D",
"U%	c #8E383C",
"V%	c #7A91B3",
"W%	c #7B758E",
"X%	c #7F3234",
"Y%	c #7B7891",
"Z%	c #78B1DC",
"                                                                ",
"                          # $ $ $ % &                           ",
"                    ' ( ) * + , - - . 0 1 2                     ",
"                3 4 5 6 7 7 8 9 : ; < = > ? @ A                 ",
"            B C D E F G H I G J K K L K K M N O @ P             ",
"          B Q R S I T U V = W W X X X Y Z [ K M N ] ^           ",
"        P _ ` a b c d e f g h i i j g k l X m [ n o p ^         ",
"      q r s t u v w x y z { { { | } { ~  !k l !!#!$!%!&!'!      ",
"      (!)!*!+!,!-!.!0!1!2!3!3!3!4!5!3!2!6!~  !7!8!9!:!;!<!      ",
"    =!>!?!@!A!B!C!D!E!F!4!G!4!4!4!H!4!4!I!J!K!L!M!N!O!P!Q!R!    ",
"    S!T!U!U!V!U!W!X!Y!4!4!4!4!4!4!4!4!4!4!Z![!]!^!_!`!a!P!b!    ",
"    c!d!e!f!U!U!g!h!i!j!4!4!4!k!i!i!l!4!4!4!m!n!o!o!p!q!r!s!t!  ",
"  u!v!w!a x!y!U!z!{!a |!4!4!}!~!a a  #!###4!$#a a a a a %#&#'#  ",
"  $ (#)#*#+#,#-#.#0#1#|!4!2#3#4#5#5#6#3#7#H!$#a 8#9#:#;#<#=#'#  ",
"  >#(#)#?#@#A#B#C#D#E#|!F#~!G#4!4!4!4!H# #I#$#a J#K#f L#a M#N#  ",
"  O#(#)#P#Q#x!B#R#S#E#|!T#a U#4!4!4!4!V#a W#$#a w X#Y#Z#[#]#^#  ",
"  O#(#)#_#`#a a#a $#E#|!T#a U#4!4!4!4!V#a W#$#a a a a a [#]#^#  ",
"  b#< w!_#c#d#a#6#W#E#|!T#a e#4!4!4!4!f#a W#$#a g#h#i#j#k#l#m#  ",
"  $ n#w!o#p#q#r#s#4!E#|!4!t#1#5#4!4!u#v#w###$#a J#x#y#z#{#|#}#  ",
"  $ ~# $?#!$#$a $$4!E#|!4!I#%$a &$&$3#'$i!4!$#a ($)$w!*$a +$,$  ",
"  -$.$0$1$!$2$_#3$4!4$5$4!4!6$7$8$8$7#l!4!4!9$:$;$<$?#?#=$>$t!  ",
"    ?$@$A$B$C$D$E$E#H!4!4!4!4!4!4!4!4!4!4!4!F$G$H$@!I$U!J$K$    ",
"    =!L$@$M$N$O$P$Q$R$4!4!4!4!4!4!4!4!4!4!S$T$U$V$W$?!U!X$Y$    ",
"      S!(#Z$[$]$9!^$_$`$a$b$4!4!4!4!c$d$e$f$9!` g$V$?!U!(!      ",
"      h$i$j$k$l$m$n$o$p$@!q$r$r$r$r$s$@!t$u$v$a ` w$x$r q       ",
"        Y!E!y$z${$|$}$~$ %p$@!@!@!@!t$!%o$#%$%%%&%'%(%P         ",
"          Y!)%*%+%U!N ,%-%~$ %!%!%.%#%{$0%1%2%3%4%p 5%          ",
"            6%7%*%8%9%U!U!:%,%;%<%=%>%?%2%@%A%B%C%^             ",
"              D%E%F%~ G%G%H%I%G%J%K%@%A%x#@$L%M%                ",
"                  N%O%P%Q%R%{ { { S%T%U%P%O%N%                  ",
"                          V%W%X%Y%Y%Z%                          ",
"                                                                "};