/* XPM */ 
static const unsigned char * supply___food_and_leisure_xpm[] = {
"32 32 249 2",
"  	c None",
"! 	c black",
"# 	c #74ADD7",
"$ 	c #5A7A93",
"% 	c #5B7A91",
"& 	c #6C7E41",
"' 	c #648EAE",
"( 	c #667D61",
") 	c #718646",
"* 	c #A0C543",
"+ 	c #A0C544",
", 	c #A8CF45",
"- 	c #AEC042",
". 	c #BE8A3C",
"0 	c #A77239",
"1 	c #9E8D3D",
"2 	c #71A8D0",
"3 	c #667E61",
"4 	c #8DAC45",
"5 	c #A4CA44",
"6 	c #BC9F3E",
"7 	c #E6B142",
"8 	c #BC8D3C",
"9 	c #AA9D3F",
": 	c #6590B0",
"; 	c #728E60",
"< 	c #A4C944",
"= 	c #A8CE45",
"> 	c #C68A3B",
"? 	c #C7913C",
"@ 	c #B98B3C",
"A 	c #A8963D",
"B 	c #678C98",
"C 	c #8CAA46",
"D 	c #A3C944",
"E 	c #B9A73F",
"F 	c #D59D3E",
"G 	c #BB813A",
"H 	c #A6933D",
"I 	c #B6AD40",
"J 	c #F6C546",
"K 	c #AD763A",
"L 	c #AA7339",
"M 	c #BAA53E",
"N 	c #A6953F",
"O 	c #A8CF48",
"P 	c #AED05B",
"Q 	c #AFD25E",
"R 	c #ADD05A",
"S 	c #CA8F3C",
"T 	c #EABD47",
"U 	c #A8763F",
"V 	c #A59447",
"W 	c #A7CC45",
"X 	c #B4D367",
"Y 	c #E5EAE0",
"Z 	c #DCE9DA",
"[ 	c #CDDCC5",
"] 	c #C6D4B6",
"^ 	c #C6A44B",
"_ 	c #9E9555",
"` 	c #7A603D",
"a 	c #A47A48",
"b 	c #A7C445",
"c 	c #C5D899",
"d 	c #F8F7E0",
"e 	c #E4EEDB",
"f 	c #D6E5C9",
"g 	c #C6D1AD",
"h 	c #A3BA51",
"i 	c #898952",
"j 	c #87876C",
"k 	c #A9A381",
"l 	c #846A46",
"m 	c #97B441",
"n 	c #ABCF52",
"o 	c #A3AD76",
"p 	c #DBD89D",
"q 	c #E2E4A0",
"r 	c #D3D36C",
"s 	c #BFBE6E",
"t 	c #73734F",
"u 	c #3D3D2F",
"v 	c #908F63",
"w 	c #908F76",
"x 	c #3C3C31",
"y 	c #5F6D36",
"z 	c #AACF4E",
"{ 	c #87904F",
"| 	c #C7C582",
"} 	c #EDEA93",
"~ 	c #E8DA64",
" !	c #C9BF68",
"!!	c #808954",
"#!	c #7B8142",
"$!	c #777940",
"%!	c #4A5134",
"&!	c #54653B",
"'!	c #5A753E",
"(!	c #A0C744",
")!	c #83903F",
"*!	c #F5EF83",
"+!	c #F7E05F",
",!	c #D0BF62",
"-!	c #617740",
".!	c #B2D242",
"0!	c #A5C644",
"1!	c #8DAC47",
"2!	c #718C45",
"3!	c #587D44",
"4!	c #9AC144",
"5!	c #F5D455",
"6!	c #93B445",
"7!	c #AACC44",
"8!	c #96B847",
"9!	c #779046",
":!	c #5A7E44",
";!	c #C7C373",
"<!	c #F6DE5E",
"=!	c #D7B541",
">!	c #A1C546",
"?!	c #819D47",
"@!	c #628244",
"A!	c #709644",
"B!	c #9EBE43",
"C!	c #C5C15C",
"D!	c #F1E464",
"E!	c #EBD353",
"F!	c #B8A63E",
"G!	c #9DBD45",
"H!	c #6A8745",
"I!	c #6F8E41",
"J!	c #9FC043",
"K!	c #868240",
"L!	c #EBCE4D",
"M!	c #E3C447",
"N!	c #B1A460",
"O!	c #8AAB46",
"P!	c #97B743",
"Q!	c #91B148",
"R!	c #7D9847",
"S!	c #6A8243",
"T!	c #6E813C",
"U!	c #A7CD44",
"V!	c #B4BA70",
"W!	c #D9CD74",
"X!	c #D4BF65",
"Y!	c #F2ECDC",
"Z!	c #5E6E3C",
"[!	c #617C42",
"]!	c #5E7F43",
"^!	c #688042",
"_!	c #565E38",
"`!	c #6D7E3A",
"a!	c #ADB567",
"b!	c #C4BA92",
"c!	c #E4E4C7",
"d!	c #C2BFAC",
"e!	c #9B9B7F",
"f!	c #C5C6A9",
"g!	c #A3A687",
"h!	c #9D9A80",
"i!	c #9F9B81",
"j!	c #707053",
"k!	c #71813E",
"l!	c #A8C64E",
"m!	c #B39496",
"n!	c #DDA5B5",
"o!	c #B89994",
"p!	c #D6D4BA",
"q!	c #BFB7A1",
"r!	c #ABA38D",
"s!	c #A79F89",
"t!	c #958D77",
"u!	c #788645",
"v!	c #A9BC59",
"w!	c #B09394",
"x!	c #C6899B",
"y!	c #9C4F62",
"z!	c #D2CFB6",
"{!	c #BCB59E",
"|!	c #9E957F",
"}!	c #948B75",
"~!	c #A9A74D",
" #	c #AD797D",
"!#	c #C48A9A",
"##	c #B14E6F",
"$#	c #C5C0A8",
"%#	c #A8A08A",
"&#	c #958C76",
"'#	c #ADBD4E",
"(#	c #C7597A",
")#	c #C46789",
"*#	c #B08B90",
"+#	c #D395A5",
",#	c #B55373",
"-#	c #BCB49E",
".#	c #D0CCB3",
"0#	c #B6AE98",
"1#	c #A9C947",
"2#	c #BE7E65",
"3#	c #C44E7A",
"4#	c #C35C83",
"5#	c #B07887",
"6#	c #B98592",
"7#	c #7A3E4D",
"8#	c #63564D",
"9#	c #52504A",
":#	c #504E48",
";#	c #645F53",
"<#	c #47443F",
"=#	c #4B4942",
">#	c #6B7A3D",
"?#	c #AEB64E",
"@#	c #C55B71",
"A#	c #9C4063",
"B#	c #A15C76",
"C#	c #B19D9A",
"D#	c #B7B6AB",
"E#	c #66494A",
"F#	c #3F3A39",
"G#	c #2F2F30",
"H#	c #282829",
"I#	c #2A2A2A",
"J#	c #323431",
"K#	c #778557",
"L#	c #A8C354",
"M#	c #9F7484",
"N#	c #DBE2DB",
"O#	c #ACCBAD",
"P#	c #ACCAAD",
"Q#	c #B5C0B5",
"R#	c #888C84",
"S#	c #7A806F",
"T#	c #696F5E",
"U#	c #5E6451",
"V#	c #788F3E",
"W#	c #9BB950",
"X#	c #8BA74B",
"Y#	c #8A9477",
"Z#	c #969B98",
"[#	c #9FA6A0",
"]#	c #9FA7A0",
"^#	c #9EB07A",
"_#	c #A1C151",
"`#	c #637966",
"a#	c #636863",
"b#	c #92A760",
"c#	c #93A95E",
"                                                                ",
"                      # $ $ % & & % $ $ #                       ",
"                  ' ( ) * * + , - . 0 1 ) ( '                   ",
"              2 3 4 5 , , , , , 6 7 8 9 , 5 4 3 2               ",
"            : ; < , , , = , = , > ? @ A , , , < ; :             ",
"          B C D , , , , , , , , E F G H , , , , D C B           ",
"        : C , , , , , , , , = , I J K H , , , , , , C :         ",
"      2 ; D , , , , , , , , , , I J L H , , , , , , D ; 2       ",
"      3 < , , , , , , , , , , , M J L N , , , , , , , < 3       ",
"    ' 4 , , , , , , O P Q P R , S T U V W , , , , , , , 4 '     ",
"    ( 5 , , , , , , X Y Z [ ] , ^ _ ` a b , , , , , , , 5 (     ",
"  # ) , , , , , , , c d e f g h i j k l m , , , , , , , , ) #   ",
"  $ * , , , , , , n o p q r s t u v w x y , , , , , , , , * $   ",
"  $ * , , , , , , z { | } ~  !!!#!$!%!&!'!(!, , , , , , , * $   ",
"  % + , , , , , , , )!| *!+!,!-!.!0!1!2!3!4!, , , , , , , + %   ",
"  & , , , , , , , , )!| *!+!5!6!.!7!8!9!:!4!, , , , , , , , &   ",
"  & , , , , , , , , )!;!*!<!=!6!.!>!8!?!@!A!, , , , , , , , &   ",
"  % + , , , , , , , B!C!D!E!F!G!.!>!8!?!H!I!, , , , , , , + %   ",
"  $ * , , , , , , , J!K!L!M!N!O!P!8!Q!R!S!T!, , , , , , , * $   ",
"  $ * , , , , , , , U!V!W!X!Y!Z![!]!]!^!_!`!, , , , , , , * $   ",
"  # ) = , , , , , , , a!b!c!d!e!f!g!h!i!j!k!, , , , , , = ) #   ",
"    ( 5 , , , , , , , l!m!n!o!p!p!q!r!s!t!u!, , , , , , 5 (     ",
"    ' 4 , , , , , , , v!w!x!y!z!p!{!r!|!}!u!, , , , , , 4 '     ",
"      3 < , , , , , ~! #w!!###$#p!{!%#&#}!u!, , , , , < 3       ",
"      2 ; D , , , '#(#)#*#+#,#-#.#0#|!}!}!u!, , , , D ; 2       ",
"        : C , , 1#2#3#4#5#6#7#8#9#:#;#<#=#>#, , , , C :         ",
"          B C D ?#@#A#B#C#D#E#F#G#H#H#I#J#K#, , D C B           ",
"            : ; < L#M#N#O#P#Q#R#S#T#T#U#V#W#, < ; :             ",
"              2 3 X#Y#Z#[#]#^#_#, , , , , 5 4 3 2               ",
"                  ' `#a#b#c#+ , , + * * ) ( '                   ",
"                      # $ $ % & & % $ $ #                       ",
"                                                                "};