/* XPM */ 
static const unsigned char * supply___water_xpm[] = {
"32 32 278 2",
"  	c None",
"! 	c black",
"# 	c #6691B2",
"$ 	c #5A7A93",
"% 	c #72AAD3",
"& 	c #5E7E8C",
"' 	c #6A7D46",
"( 	c #8BA945",
") 	c #A0C543",
"* 	c #71A8D0",
"+ 	c #61818C",
", 	c #73894A",
"- 	c #9EC243",
". 	c #A8CF45",
"0 	c #729067",
"1 	c #91B453",
"2 	c #71A7D0",
"3 	c #728E60",
"4 	c #9CBF43",
"5 	c #A8CE45",
"6 	c #A6CD45",
"7 	c #597277",
"8 	c #83A39E",
"9 	c #A7CE46",
": 	c #6692B3",
"; 	c #738F60",
"< 	c #A3C944",
"= 	c #36488E",
"> 	c #7A97CD",
"? 	c #A6CD49",
"@ 	c #6C824F",
"A 	c #789574",
"B 	c #5D76B2",
"C 	c #93B581",
"D 	c #98BB53",
"E 	c #8DB2C9",
"F 	c #4E64A4",
"G 	c #7E9CBE",
"H 	c #96BA55",
"I 	c #A5CB46",
"J 	c #6C867B",
"K 	c #6481B7",
"L 	c #6F8BC3",
"M 	c #678281",
"N 	c #A5CC46",
"O 	c #748E5D",
"P 	c #7593BE",
"Q 	c #43599A",
"R 	c #2B539B",
"S 	c #2F4F96",
"T 	c #5477B0",
"U 	c #637DB8",
"V 	c #92B554",
"W 	c #667D61",
"X 	c #A4CA44",
"Y 	c #94B64D",
"Z 	c #718DA3",
"[ 	c #7292C3",
"] 	c #304E95",
"^ 	c #2757A1",
"_ 	c #2758A1",
"` 	c #779FCF",
"a 	c #627CA1",
"b 	c #94B751",
"c 	c #607670",
"d 	c #8EB2D8",
"e 	c #5B77B0",
"f 	c #29559E",
"g 	c #245AA3",
"h 	c #5384BC",
"i 	c #7290C6",
"j 	c #5E787C",
"k 	c #708A5C",
"l 	c #5C77A7",
"m 	c #6B92C8",
"n 	c #304E96",
"o 	c #1E5FA8",
"p 	c #116BB3",
"q 	c #106AB2",
"r 	c #4A91C5",
"s 	c #87B2DA",
"t 	c #546BAA",
"u 	c #718E67",
"v 	c #97BA4C",
"w 	c #425B79",
"x 	c #4B85BF",
"y 	c #2D56A4",
"z 	c #2B58A5",
"{ 	c #1C77BC",
"| 	c #1F7BBF",
"} 	c #1873B9",
"~ 	c #8AC5E3",
" !	c #4B618A",
"!!	c #97BB4F",
"#!	c #547070",
"$!	c #3682BF",
"%!	c #4274B7",
"&!	c #2E58A5",
"'!	c #2B6CB3",
"(!	c #1E7BBF",
")!	c #1B77BC",
"*!	c #146FB6",
"+!	c #8DCEE8",
",!	c #7FA0D1",
"-!	c #546BA9",
".!	c #576F78",
"0!	c #637C69",
"1!	c #9ABE4A",
"2!	c #42617E",
"3!	c #3D92CD",
"4!	c #5A8BC5",
"5!	c #346CB3",
"6!	c #1E8AC9",
"7!	c #198BCA",
"8!	c #4695C9",
"9!	c #91C2E2",
":!	c #647DB8",
";!	c #465A83",
"<!	c #9ABF4D",
"=!	c #6C7E41",
">!	c #2D72B0",
"?!	c #63ACD8",
"@!	c #366BB2",
"A!	c #2B78BC",
"B!	c #1892CF",
"C!	c #1891CE",
"D!	c #1D80C2",
"E!	c #43579A",
"F!	c #5B7A91",
"G!	c #A0C544",
"H!	c #95C250",
"I!	c #3F5874",
"J!	c #3171A7",
"K!	c #8BCDE8",
"L!	c #3294CD",
"M!	c #9DDAEE",
"N!	c #7FA1D2",
"O!	c #536A7B",
"P!	c #7FB45E",
"Q!	c #20518D",
"R!	c #51ABD1",
"S!	c #95D8EE",
"T!	c #46BBE6",
"U!	c #1DC0F0",
"V!	c #1FB7EA",
"W!	c #1EA4DC",
"X!	c #1A96D2",
"Y!	c #1E7ABE",
"Z!	c #4897CA",
"[!	c #9EDBEF",
"]!	c #475C83",
"^!	c #9BC04C",
"_!	c #0D65A5",
"`!	c #53AFD4",
"a!	c #48CBF1",
"b!	c #2EC5EF",
"c!	c #29C4F0",
"d!	c #1EC2F1",
"e!	c #1FB8EA",
"f!	c #1D9BD5",
"g!	c #1890CE",
"h!	c #1D80C3",
"i!	c #8ACCE7",
"j!	c #8AAC57",
"k!	c #74ADD7",
"l!	c #718646",
"m!	c #0B67A8",
"n!	c #84D5EE",
"o!	c #4AC8E9",
"p!	c #60C9E3",
"q!	c #5CC9E4",
"r!	c #35C5ED",
"s!	c #28C4F0",
"t!	c #20B2E6",
"u!	c #55B1DC",
"v!	c #7898CB",
"w!	c #3D5297",
"x!	c #34539C",
"y!	c #8CBC56",
"z!	c #186F9F",
"{!	c #3C9DC8",
"|!	c #44C8ED",
"}!	c #53C8E6",
"~!	c #64CAE3",
" #	c #60C9E4",
"!#	c #3CC6EC",
"##	c #1EC1F1",
"$#	c #1C9CD6",
"%#	c #1994D1",
"&#	c #50B7E2",
"'#	c #93C6E4",
"(#	c #657FB9",
")#	c #304F9B",
"*#	c #3D659D",
"+#	c #648EAE",
",#	c #8DAC45",
"-#	c #33818E",
".#	c #1C7AB3",
"0#	c #5DC9E4",
"1#	c #56C8E6",
"2#	c #1EC4F3",
"3#	c #21A5DD",
"4#	c #219AD5",
"5#	c #3799D2",
"6#	c #668FC7",
"7#	c #3F60A9",
"8#	c #2F53A1",
"9#	c #527B8D",
":#	c #667E61",
";#	c #A4C944",
"<#	c #488F81",
"=#	c #0E6BAA",
">#	c #4DB1D4",
"?#	c #63C9E3",
"@#	c #5DC9E5",
"A#	c #289FD8",
"B#	c #3789C7",
"C#	c #3876BA",
"D#	c #3058A5",
"E#	c #2F54A2",
"F#	c #325FAA",
"G#	c #81AA67",
"H#	c #8EAC46",
"I#	c #9EC84A",
"J#	c #418E9B",
"K#	c #3597C5",
"L#	c #62C9E3",
"M#	c #61C9E3",
"N#	c #4DC7E8",
"O#	c #1FBCED",
"P#	c #377FC1",
"Q#	c #3464AD",
"R#	c #3057A4",
"S#	c #3569B1",
"T#	c #518DA3",
"U#	c #A1CA4C",
"V#	c #678C98",
"W#	c #91B146",
"X#	c #9FD073",
"Y#	c #58B2CA",
"Z#	c #5AC9E7",
"[#	c #4FC8E7",
"]#	c #42C7EA",
"^#	c #24B5E8",
"_#	c #348ECB",
"`#	c #3486C6",
"a#	c #3C86C3",
"b#	c #4C91BE",
"c#	c #86B86B",
"d#	c #94D09C",
"e#	c #75CEDA",
"f#	c #57C9E9",
"g#	c #5CC9E6",
"h#	c #59C8E7",
"i#	c #26C4F1",
"j#	c #3FC6EE",
"k#	c #2BC5F0",
"l#	c #45C5E8",
"m#	c #77C9D5",
"n#	c #97D19B",
"o#	c #9FD072",
"p#	c #81D0CF",
"q#	c #74CEE3",
"r#	c #57C9EA",
"s#	c #75CEE3",
"t#	c #80D0D8",
"u#	c #94D1AB",
"v#	c #A1CF68",
"w#	c #90AF46",
"x#	c #A6CF4A",
"y#	c #9CD080",
"z#	c #9CD082",
"{#	c #8DD2CF",
"|#	c #A1CF67",
"}#	c #678E9E",
"~#	c #8DAB44",
" $	c #658FAF",
"!$	c #647C64",
"                                                                ",
"                        # $ $ $ $ $ $ #                         ",
"                  % & ' ( ) ) ) ) ) ) ( ' & %                   ",
"              * + , - . . . . 0 1 . . . . - , + *               ",
"            2 3 4 . . . 5 . 6 7 8 9 . 5 . . . 4 3 2             ",
"          : ; < . . . . . . 1 = > ? . . . . . . < ; :           ",
"        2 @ < . . . . . . . A = B C . . . . . . . < @ 2         ",
"      * 3 < . . . . . . . D E = F G H . . . . . . . < 3 *       ",
"      + 4 . . . . . . . I J K = = L M N . . . . . . . 4 +       ",
"    % , . . . . . . . . O P Q R S T U V . . . . . . . . , %     ",
"    W X . . . . . . . Y Z [ ] ^ _ _ ` a b . . . . . . . X W     ",
"    ' . . . . . . . N c d e f g g g h i j N . . . . . . . '     ",
"  # ( . . . . . . . k l m n o p p q r s t u . . . . . . . ( #   ",
"  $ ) . . . . . . v w x y z { | | } q ~ i  !!!. . . . . . ) $   ",
"  $ ) . . . . . . #!$!%!&!'!(!| | )!*!+!,!-!.!. . . . . . ) $   ",
"  0!X . . . . . 1!2!3!4!5!6!7!| | | } 8!9!:!;!<!. . . . . X 0!  ",
"  =!. . . . . . k >!?!@!A!B!C!D!| | } 8!9!> E!u . . . . . . =!  ",
"  F!G!. . . . H!I!J!K!L!C!B!B!C!D!| } 8!M!N!E!O!. . . . . G!F!  ",
"  $ ) . . . . P!Q!R!S!T!U!V!W!X!C!D!Y!Z![!N!E!]!^!. . . . ) $   ",
"  $ ) . . . . P!_!`!S!a!b!c!d!e!f!g!h!i![!N!E!= j!. . . . ) $   ",
"  k!l!5 . . . P!m!`!n!o!p!q!r!s!t!B!7!u![!v!w!x!j!. . . 5 l!k!  ",
"    W X . . . y!z!{!|!}!~!~! #!###$#%#&#'#(#)#*#b . . . X W     ",
"    +#,#. . . . -#.#0#~!~!~! #1#2#3#4#5#6#7#8#9#. . . . ,#+#    ",
"      :#;#. . . <#=#>#~!?# #0#@#2#A#B#C#D#E#F#G#. . . ;#:#      ",
"      +#H#. . . I#J#K#L#M#0#N#b!2#O#P#Q#R#S#T#U#. . . H#+#      ",
"        V#W#. . . X#Y#Z#L#L#[#]#2#^#_#`#a#b#c#. . . W#V#        ",
"          V#W#. . . d#e#f#g#h#i#i#j#k#l#m#n#. . . W#V#          ",
"            V#H#;#. . o#p#q#r#r#r#s#t#u#v#. . ;#H#V#            ",
"              +#:#w#. . x#y#z#{#{#z#|#. . . w#:#+#              ",
"                  }#' ~#) X . . . . X ) ~#' }#                  ",
"                       $$ !$=!=!=!=!!$$  $                      ",
"                                                                "};