/* XPM */ 
static const unsigned char * supply___diesel_xpm[] = {
"32 32 122 2",
"  	c None",
"! 	c black",
"# 	c #74ADD7",
"$ 	c #5A7A93",
"% 	c #5B7A91",
"& 	c #6C7E41",
"' 	c #648EAE",
"( 	c #667D61",
") 	c #718646",
"* 	c #A0C543",
"+ 	c #A0C544",
", 	c #A8CF45",
"- 	c #71A8D0",
". 	c #667E61",
"0 	c #8DAC45",
"1 	c #A4CA44",
"2 	c #6590B0",
"3 	c #728E60",
"4 	c #A4C944",
"5 	c #98B942",
"6 	c #73732F",
"7 	c #8C8B2A",
"8 	c #71803A",
"9 	c #678C98",
": 	c #8CAA46",
"; 	c #A3C944",
"< 	c #95B642",
"= 	c #B8AE1E",
"> 	c #D7CC18",
"? 	c #BEB41D",
"@ 	c #F8EC13",
"A 	c #ADA722",
"B 	c #98BA42",
"C 	c #B0A71F",
"D 	c #788731",
"E 	c #5CA14A",
"F 	c #9C9B26",
"G 	c #9E9622",
"H 	c #538745",
"I 	c #66BC50",
"J 	c #888A2A",
"K 	c #798436",
"L 	c #A2C744",
"M 	c #66BB50",
"N 	c #B6AD1E",
"O 	c #939C31",
"P 	c #65BC50",
"Q 	c #777129",
"R 	c #C4BA1C",
"S 	c #8EAC41",
"T 	c #AFA61F",
"U 	c #778732",
"V 	c #5EA64B",
"W 	c #888829",
"X 	c #D3C819",
"Y 	c #6F692B",
"Z 	c #BFB61D",
"[ 	c #FFF112",
"] 	c #FFF212",
"^ 	c #71833D",
"_ 	c #6C6C2F",
"` 	c #FFF211",
"a 	c #FEF212",
"b 	c #4C5238",
"c 	c #93B342",
"d 	c #F5E813",
"e 	c #978F24",
"f 	c #C6BC1B",
"g 	c #DCD118",
"h 	c #8E8E2B",
"i 	c #414236",
"j 	c #EBDF15",
"k 	c #373435",
"l 	c #C0B61C",
"m 	c #AEA520",
"n 	c #A19822",
"o 	c #F8EB13",
"p 	c #3D3933",
"q 	c #645F2C",
"r 	c #F6E913",
"s 	c #A49C21",
"t 	c #9E9522",
"u 	c #6D7233",
"v 	c #6F7735",
"w 	c #7E953F",
"x 	c #78782D",
"y 	c #8DAA41",
"z 	c #A8CE45",
"{ 	c #92B141",
"| 	c #7D8130",
"} 	c #848C31",
"~ 	c #817A27",
" !	c #4C4731",
"!!	c #7D7628",
"#!	c #FBEF12",
"$!	c #89A23E",
"%!	c #585E37",
"&!	c #E1D617",
"'!	c #5D582E",
"(!	c #8CA43D",
")!	c #8AA640",
"*!	c #505738",
"+!	c #FAED12",
",!	c #D1C719",
"-!	c #FDF012",
".!	c #75762E",
"0!	c #848029",
"1!	c #7D7F2E",
"2!	c #5D6336",
"3!	c #94B342",
"4!	c #80983F",
"5!	c #768B3E",
"6!	c #6B6B2F",
"7!	c #6A652B",
"8!	c #7B8C3A",
"9!	c #757932",
":!	c #EADE15",
";!	c #777A30",
"<!	c #DED317",
"=!	c #53645B",
">!	c #7C923E",
"?!	c #7F983F",
"                                                                ",
"                      # $ $ % & & % $ $ #                       ",
"                  ' ( ) * * + , , + * * ) ( '                   ",
"              - . 0 1 , , , , , , , , , , 1 0 . -               ",
"            2 3 4 , 5 6 7 7 7 7 7 7 7 7 8 , , 4 3 2             ",
"          9 : ; , , < = > ? ? ? ? ? ? @ A B , , ; : 9           ",
"        2 : , , , , < C D E E E E E E F = < , , , , : 2         ",
"      - 3 ; , , , , < G H I I I I I I J = K L , , , ; 3 -       ",
"      . 4 , , , , , < G H I M I I I I J = N O L , , , 4 .       ",
"    ' 0 , , , , , , < G H I I I I P I J = Q R S , , , , 0 '     ",
"    ( 1 , , , , , , < T U V V V V V V W = Q R S , , , , 1 (     ",
"  # ) , , , , , , , < = X = = = = = = X = Y Z S , , , , , ) #   ",
"  $ * , , , , , , , < = [ ] [ ] ] ] [ ] = ^ _ S , , , , , * $   ",
"  $ * , , , , , , , < = ] ` ] ] ] ] ] a = < b S , , , , , * $   ",
"  % + , , , , , , , < = ] ] ] ] ] ] ] ] = c b S , , , , , + %   ",
"  & , , , , , , , , < = d e e e e f ] ] g h i S , , , , , , &   ",
"  & , , , , , , , , < = j k k k k k l ] g m k S , , , , , , &   ",
"  % + , , , , , , , < = j k n o o p q r = G k S , , , , , + %   ",
"  $ * , , , , , , , < = j k s ] ] t k j = G u v , , , , , * $   ",
"  $ * , , , , , , , < = j k s ] ] s k j = G w x y , , , , * $   ",
"  # ) z , , , , , , < = j k s ] ] s k j = G { | } , , , z ) #   ",
"    ( 1 , , , , , , < = j k ~ ? ?  !!!#!= G { $!%!, , , 1 (     ",
"    ' 0 , , , , , , < = j k k k k Y &!] = '!(!)!*!, , , 0 '     ",
"      . 4 , , , , , < = +!,!,!,!,!-!] ] = .!0!1!2!, , 4 .       ",
"      - 3 ; , 3!S S 4!= ] ] ] ] ] ] ] ] = 5!6!7!8!, ; 3 -       ",
"        2 : , 9!R R R :!] ] ] ] ] ] ] ] :!R R R 9!, : 2         ",
"          9 : ;!<!<!<!<!<!<!<!<!<!<!<!<!<!<!<!<!;!: 9           ",
"            2 =!>!?!?!?!?!?!?!?!?!?!?!?!?!?!?!>!=!2             ",
"              - . 0 1 , , , , , , , , , , 1 0 . -               ",
"                  ' ( ) * * + , , + * * ) ( '                   ",
"                      # $ $ % & & % $ $ #                       ",
"                                                                "};