/* XPM */ 
static const unsigned char * supply___gasoline_petrol_xpm[] = {
"32 32 119 2",
"  	c None",
"! 	c black",
"# 	c #74ADD7",
"$ 	c #5A7A93",
"% 	c #5B7A91",
"& 	c #6C7E41",
"' 	c #648EAE",
"( 	c #667D61",
") 	c #718646",
"* 	c #A0C543",
"+ 	c #A0C544",
", 	c #A8CF45",
"- 	c #71A8D0",
". 	c #667E61",
"0 	c #8DAC45",
"1 	c #A4CA44",
"2 	c #6590B0",
"3 	c #728E60",
"4 	c #A4C944",
"5 	c #98B942",
"6 	c #73732F",
"7 	c #8C8B2A",
"8 	c #71803A",
"9 	c #678C98",
": 	c #8CAA46",
"; 	c #A3C944",
"< 	c #95B642",
"= 	c #B8AE1E",
"> 	c #D7CC18",
"? 	c #BEB41D",
"@ 	c #F8EC13",
"A 	c #ADA722",
"B 	c #98BA42",
"C 	c #B0A71F",
"D 	c #9B8A42",
"E 	c #D6AE86",
"F 	c #A79C2B",
"G 	c #9E9622",
"H 	c #B09172",
"I 	c #FDCC9A",
"J 	c #978C31",
"K 	c #798436",
"L 	c #A2C744",
"M 	c #B6AD1E",
"N 	c #939C31",
"O 	c #FDCB9A",
"P 	c #777129",
"Q 	c #C4BA1C",
"R 	c #8EAC41",
"S 	c #AFA61F",
"T 	c #9C8B44",
"U 	c #DDB389",
"V 	c #94892F",
"W 	c #D3C819",
"X 	c #6F692B",
"Y 	c #BFB61D",
"Z 	c #FFF112",
"[ 	c #FFF212",
"] 	c #71833D",
"^ 	c #6C6C2F",
"_ 	c #FFF211",
"` 	c #FEF212",
"a 	c #4C5238",
"b 	c #93B342",
"c 	c #C3B91C",
"d 	c #978F24",
"e 	c #F8EB13",
"f 	c #DCD118",
"g 	c #8E8E2B",
"h 	c #414236",
"i 	c #8A8326",
"j 	c #373435",
"k 	c #625D2D",
"l 	c #F5E913",
"m 	c #AEA520",
"n 	c #3D3933",
"o 	c #6B662B",
"p 	c #EBDF15",
"q 	c #3A3734",
"r 	c #ABA220",
"s 	c #413D33",
"t 	c #6D7233",
"u 	c #6F7735",
"v 	c #AAA120",
"w 	c #FDF012",
"x 	c #7E953F",
"y 	c #78782D",
"z 	c #8DAA41",
"{ 	c #A8CE45",
"| 	c #3C3934",
"} 	c #E5D916",
"~ 	c #92B141",
" !	c #7D8130",
"!!	c #848C31",
"#!	c #3D3A33",
"$!	c #89A23E",
"%!	c #585E37",
"&!	c #5D582E",
"'!	c #8CA43D",
"(!	c #8AA640",
")!	c #505738",
"*!	c #E4D916",
"+!	c #75762E",
",!	c #848029",
"-!	c #7D7F2E",
".!	c #5D6336",
"0!	c #94B342",
"1!	c #80983F",
"2!	c #768B3E",
"3!	c #6B6B2F",
"4!	c #6A652B",
"5!	c #7B8C3A",
"6!	c #757932",
"7!	c #EADE15",
"8!	c #777A30",
"9!	c #DED317",
":!	c #53645B",
";!	c #7C923E",
"<!	c #7F983F",
"                                                                ",
"                      # $ $ % & & % $ $ #                       ",
"                  ' ( ) * * + , , + * * ) ( '                   ",
"              - . 0 1 , , , , , , , , , , 1 0 . -               ",
"            2 3 4 , 5 6 7 7 7 7 7 7 7 7 8 , , 4 3 2             ",
"          9 : ; , , < = > ? ? ? ? ? ? @ A B , , ; : 9           ",
"        2 : , , , , < C D E E E E E E F = < , , , , : 2         ",
"      - 3 ; , , , , < G H I I I I I I J = K L , , , ; 3 -       ",
"      . 4 , , , , , < G H I I I I I I J = M N L , , , 4 .       ",
"    ' 0 , , , , , , < G H I I I I O I J = P Q R , , , , 0 '     ",
"    ( 1 , , , , , , < S T U U U U U U V = P Q R , , , , 1 (     ",
"  # ) , , , , , , , < = W = = = = = = W = X Y R , , , , , ) #   ",
"  $ * , , , , , , , < = Z [ Z [ [ [ Z [ = ] ^ R , , , , , * $   ",
"  $ * , , , , , , , < = [ _ [ [ [ [ [ ` = < a R , , , , , * $   ",
"  % + , , , , , , , < = [ [ [ [ [ [ [ [ = b a R , , , , , + %   ",
"  & , , , , , , , , < = [ c d d d d e [ f g h R , , , , , , &   ",
"  & , , , , , , , , < = [ i j j j j k l f m j R , , , , , , &   ",
"  % + , , , , , , , < = [ i n e e o j p = G j R , , , , , + %   ",
"  $ * , , , , , , , < = Z i q r r s j p = G t u , , , , , * $   ",
"  $ * , , , , , , , < = [ i j j j j v w = G x y z , , , , * $   ",
"  # ) { , , , , , , < = Z i | } } } w [ = G ~  !!!, , , { ) #   ",
"    ( 1 , , , , , , < = [ i #![ [ [ [ [ = G ~ $!%!, , , 1 (     ",
"    ' 0 , , , , , , < = Z i #![ [ [ [ [ = &!'!(!)!, , , 0 '     ",
"      . 4 , , , , , < = [ *!W [ [ [ [ [ = +!,!-!.!, , 4 .       ",
"      - 3 ; , 0!R R 1!= [ [ [ [ [ [ [ [ = 2!3!4!5!, ; 3 -       ",
"        2 : , 6!Q Q Q 7![ [ [ [ [ [ [ [ 7!Q Q Q 6!, : 2         ",
"          9 : 8!9!9!9!9!9!9!9!9!9!9!9!9!9!9!9!9!8!: 9           ",
"            2 :!;!<!<!<!<!<!<!<!<!<!<!<!<!<!<!;!:!2             ",
"              - . 0 1 , , , , , , , , , , 1 0 . -               ",
"                  ' ( ) * * + , , + * * ) ( '                   ",
"                      # $ $ % & & % $ $ #                       ",
"                                                                "};