/* XPM */ 
static const unsigned char * supply___lpg_xpm[] = {
"32 32 227 2",
"  	c None",
"! 	c black",
"# 	c #658FAF",
"$ 	c #5A7A93",
"% 	c #5B7A8E",
"& 	c #6C7E41",
"' 	c #648EAE",
"( 	c #667D61",
") 	c #8DAB44",
"* 	c #A0C543",
"+ 	c #A1C544",
", 	c #A8CF45",
"- 	c #667E61",
". 	c #8DAC45",
"0 	c #A4CA44",
"1 	c #BE9C40",
"2 	c #D16F3C",
"3 	c #678C98",
"4 	c #8EAC46",
"5 	c #A4C944",
"6 	c #A8CE45",
"7 	c #ACC444",
"8 	c #EC3237",
"9 	c #D1703C",
": 	c #91B146",
"; 	c #A8CD44",
"< 	c #D26D3C",
"= 	c #E73237",
"> 	c #D0723C",
"? 	c #CC783D",
"@ 	c #D63337",
"A 	c #ED3237",
"B 	c #B4B242",
"C 	c #708341",
"D 	c #CA3438",
"E 	c #E54238",
"F 	c #B0BC43",
"G 	c #D6643B",
"H 	c #A9CB44",
"I 	c #AFBD43",
"J 	c #DC563A",
"K 	c #CF6B3C",
"L 	c #B5B042",
"M 	c #AACA44",
"N 	c #CE763D",
"O 	c #DE5339",
"P 	c #D93337",
"Q 	c #74ADD7",
"R 	c #718646",
"S 	c #B9A641",
"T 	c #C09740",
"U 	c #C6883E",
"V 	c #D73337",
"W 	c #CC3337",
"X 	c #B0BA43",
"Y 	c #B6AE42",
"Z 	c #B0BB43",
"[ 	c #DA5B3A",
"] 	c #E03237",
"^ 	c #B2B742",
"_ 	c #DF3237",
"` 	c #CA3337",
"a 	c #DD3237",
"b 	c #ED3137",
"c 	c #C6893E",
"d 	c #CB7E3D",
"e 	c #E53237",
"f 	c #CF3337",
"g 	c #C48B3F",
"h 	c #DE4B39",
"i 	c #D03337",
"j 	c #D6663B",
"k 	c #BE9A40",
"l 	c #E44538",
"m 	c #B3B542",
"n 	c #5B7A91",
"o 	c #A0C544",
"p 	c #DB593A",
"q 	c #D43337",
"r 	c #CD573A",
"s 	c #C9833E",
"t 	c #DB5A3A",
"u 	c #E83237",
"v 	c #CE3337",
"w 	c #D53337",
"x 	c #B1BA43",
"y 	c #7B923E",
"z 	c #916E3B",
"{ 	c #C33437",
"| 	c #8D3336",
"} 	c #943236",
"~ 	c #BC3236",
" !	c #A53236",
"!!	c #86803D",
"#!	c #4C5238",
"$!	c #653335",
"%!	c #D33337",
"&!	c #BB3437",
"'!	c #373435",
"(!	c #393335",
")!	c #B73236",
"*!	c #CF3236",
"+!	c #4C3335",
",!	c #383335",
"-!	c #373535",
".!	c #454837",
"0!	c #97B842",
"1!	c #C33337",
"2!	c #E13236",
"3!	c #B33236",
"4!	c #833335",
"5!	c #4A3335",
"6!	c #4F3335",
"7!	c #C54137",
"8!	c #444636",
"9!	c #65733B",
":!	c #6691B2",
";!	c #8BA945",
"<!	c #DA3236",
"=!	c #743335",
">!	c #A63236",
"?!	c #793335",
"@!	c #373335",
"A!	c #C63236",
"B!	c #DD553A",
"C!	c #A0C443",
"D!	c #6A7D46",
"E!	c #E23237",
"F!	c #DB3236",
"G!	c #543335",
"H!	c #D93236",
"I!	c #723335",
"J!	c #4C3835",
"K!	c #555D39",
"L!	c #D83337",
"M!	c #8A3335",
"N!	c #DC3236",
"O!	c #BD3236",
"P!	c #3E3335",
"Q!	c #B13236",
"R!	c #8D3335",
"S!	c #615838",
"T!	c #414236",
"U!	c #494D37",
"V!	c #72AAD3",
"W!	c #73894A",
"X!	c #583335",
"Y!	c #B23236",
"Z!	c #9F3437",
"[!	c #A33337",
"]!	c #963336",
"^!	c #E13237",
"_!	c #EB3237",
"`!	c #693335",
"a!	c #423335",
"b!	c #B83236",
"c!	c #86733B",
"d!	c #3D3C35",
"e!	c #61818C",
"f!	c #9CBF43",
"g!	c #AC3236",
"h!	c #AA3134",
"i!	c #A53134",
"j!	c #B33235",
"k!	c #DE3236",
"l!	c #753335",
"m!	c #403335",
"n!	c #3D3D35",
"o!	c #545C39",
"p!	c #7F973F",
"q!	c #71A8D0",
"r!	c #728E60",
"s!	c #A3C944",
"t!	c #90AE41",
"u!	c #8AA740",
"v!	c #A8623A",
"w!	c #AF3336",
"x!	c #A83337",
"y!	c #863234",
"z!	c #702E2F",
"{!	c #632D2C",
"|!	c #5D2D2D",
"}!	c #702D2D",
"~!	c #953032",
" #	c #CB3337",
"!#	c #C73236",
"##	c #91B041",
"$#	c #71A7D0",
"%#	c #738B50",
"&#	c #DC5239",
"'#	c #DB3337",
"(#	c #CE3336",
")#	c #812E2F",
"*#	c #4A2D2C",
"+#	c #382D2D",
",#	c #372F30",
"-#	c #422D2D",
".#	c #6E2D2D",
"0#	c #D7623B",
"1#	c #BE9B40",
"2#	c #E93A37",
"3#	c #D83237",
"4#	c #3B2E2E",
"5#	c #373030",
"6#	c #682E2E",
"7#	c #BE3235",
"8#	c #EA3237",
"9#	c #DD543A",
":#	c #ACC544",
";#	c #B8A941",
"<#	c #D8603B",
"=#	c #D03236",
">#	c #762E2E",
"?#	c #483233",
"@#	c #433132",
"A#	c #602F30",
"B#	c #B33134",
"C#	c #E33A37",
"D#	c #D7633B",
"E#	c #9EC243",
"F#	c #ABC744",
"G#	c #C2923F",
"H#	c #E24138",
"I#	c #D14138",
"J#	c #C84036",
"K#	c #DB4138",
"L#	c #5E7E8C",
"                                                                ",
"                      # $ % & & & & % $ #                       ",
"                  ' ( ) * + , , , , + * ) ( '                   ",
"              ' - . 0 , , 1 2 , , , , , , 0 . - '               ",
"            3 4 5 , , , 6 7 8 9 , , , 6 , , , 5 4 3             ",
"          3 : , , , , , , ; < = > ; , , , , , , , : 3           ",
"        3 : , , , , , , , , ? @ A B , , , , , , , , : 3         ",
"      ' C , , , , , , , , , ? D A E B , , , , , , , , C '       ",
"      - 5 , , , , , , F , , ? D A A G H , , , , , , , 5 -       ",
"    ' . , , , , , , I J , ; K D A A 8 L , , , , , , , , . '     ",
"    ( 0 , , , , , M N O , 7 P D A A A G H , , , , , , , 0 (     ",
"  Q R , , , , , , S A T ; U V W A A A A X Y Z , , , , , , R Q   ",
"  $ * , , , , , H [ ] T ^ _ ` a A b A A c 1 d , , , , , , * $   ",
"  $ * , , , , , S e f g h i W A A A A A j k l m , , , , , * $   ",
"  n o , , , , ; p q D r i ` a A A A A A A s A t , , , , , o n   ",
"  & , , , , , S u v D D D w A A A A A A A s A l x , , , , , &   ",
"  & , , , , y z e D D D { | } } } ~ A A A A  !} !!, , , , , &   ",
"  n o , , , #!$!%!D D D &!'!'!'!'!(!)!A *!+!,!'!-!.!0!, , o n   ",
"  $ * , , , #!$!%!D D D 1!'!} 2!3!(!4!*!5!6!*!2!7!8!9!, , * $   ",
"  :!;!, , , #!$!%!D D v <!'!=!>!?!@!4!>!'!A!A A B!C!0 , , ;!:!  ",
"    D!6 , , #!$!%!D W E!F!'!'!'!'!G!H!>!'!*!A I!J!.!K!, 6 D!    ",
"    ( 0 , , #!$!L!D f A F!'!M!*!*!N!A O!P!Q!A R!S!T!U!, 0 (     ",
"    V!W!, , #!X!Y!Z![!<!F!'!]!E!^!e _!A `!a! !b!c!d!U!, W!V!    ",
"      e!f!, #!'!'!'!'!g!<!'!?!h!i!j!W u k!l!m!'!n!o!p!f!e!      ",
"      q!r!s!t!u!v!w!x!N!L!y!z!{!|!}!~! #_!A !#v!##, s!r!q!      ",
"        $#%#, , 7 &#'#8 (#)#*#+#,#-#.#j!= A 0#7 , , %#$#        ",
"          3 %#s!, 1#2#A 3#)#4#'!'!5#6#7#8#9#:#, s!%#3           ",
"            $#r!f!, ;#<#8 =#>#?#@#A#B#C#D#;#, f!r!$#            ",
"              q!e!W!E#F#G#D#H#I#J#K#D#;#, E#W!e!q!              ",
"                  V!L#D!;!* * * * * * ;!D!L#V!                  ",
"                        :!$ $ $ $ $ $ :!                        ",
"                                                                "};