/* XPM */ 
static const unsigned char * supply___market_xpm[] = {
"32 32 174 2",
"  	c None",
"! 	c black",
"# 	c #74ADD7",
"$ 	c #5A7A93",
"% 	c #5B7A91",
"& 	c #6C7E41",
"' 	c #648EAE",
"( 	c #667D61",
") 	c #718646",
"* 	c #A0C543",
"+ 	c #A0C544",
", 	c #A8CF45",
"- 	c #71A8D0",
". 	c #667E61",
"0 	c #8DAC45",
"1 	c #A4CA44",
"2 	c #6590B0",
"3 	c #728E60",
"4 	c #A4C944",
"5 	c #A8CE45",
"6 	c #678C98",
"7 	c #8CAA46",
"8 	c #A3C944",
"9 	c #A8CB44",
": 	c #B29D40",
"; 	c #AA9C3F",
"< 	c #B29C40",
"= 	c #B2C85B",
"> 	c #CC4E51",
"? 	c #C93438",
"@ 	c #A33133",
"A 	c #BD4D4F",
"B 	c #A9CF48",
"C 	c #CFDAAE",
"D 	c #D48787",
"E 	c #C05C3B",
"F 	c #AE5A39",
"G 	c #C99D9C",
"H 	c #A9CF49",
"I 	c #C8DA9E",
"J 	c #E1E3DF",
"K 	c #C0C17A",
"L 	c #C4D990",
"M 	c #C8DA9D",
"N 	c #E0E3DF",
"O 	c #C4D991",
"P 	c #E0E3DE",
"Q 	c #C4D992",
"R 	c #AAC744",
"S 	c #ADBB43",
"T 	c #ADBA43",
"U 	c #A7BA42",
"V 	c #C0C88B",
"W 	c #E1E0DE",
"X 	c #CAC590",
"Y 	c #CACD98",
"Z 	c #E2E2DF",
"[ 	c #C6D497",
"] 	c #AEBA43",
"^ 	c #A8C744",
"_ 	c #C6613B",
"` 	c #D33438",
"a 	c #D23437",
"b 	c #B63235",
"c 	c #9D3536",
"d 	c #B98584",
"e 	c #D88A8B",
"f 	c #D33437",
"g 	c #D54C4F",
"h 	c #DC8A88",
"i 	c #DDBBB5",
"j 	c #CA4E4F",
"k 	c #DA3237",
"l 	c #DC3338",
"m 	c #D93237",
"n 	c #B4603A",
"o 	c #CC4839",
"p 	c #D23337",
"q 	c #9D4142",
"r 	c #A04647",
"s 	c #C03336",
"t 	c #CF7B78",
"u 	c #D29993",
"v 	c #CE3237",
"w 	c #D83237",
"x 	c #B14637",
"y 	c #A8B342",
"z 	c #C14038",
"{ 	c #D13337",
"| 	c #B53235",
"} 	c #973132",
"~ 	c #CD3337",
" !	c #AE3235",
"!!	c #CD3237",
"#!	c #C64038",
"$!	c #A8973F",
"%!	c #A93235",
"&!	c #D43438",
"'!	c #D33337",
"(!	c #C43336",
")!	c #BA3236",
"*!	c #A84B37",
"+!	c #D63438",
",!	c #AD3234",
"-!	c #BA3235",
".!	c #C8613B",
"0!	c #CC533A",
"1!	c #CA5A3B",
"2!	c #C63337",
"3!	c #B23336",
"4!	c #CE4C3A",
"5!	c #BF7F3E",
"6!	c #D04439",
"7!	c #B23235",
"8!	c #A6743B",
"9!	c #AE6339",
":!	c #D04739",
";!	c #A8CD44",
"<!	c #ABC243",
"=!	c #D43838",
">!	c #A8CC44",
"?!	c #ABC043",
"@!	c #AC8F3E",
"A!	c #C83337",
"B!	c #BC8A3F",
"C!	c #CB573A",
"D!	c #BC3235",
"E!	c #A7A140",
"F!	c #AFB042",
"G!	c #D04839",
"H!	c #AAC544",
"I!	c #D43938",
"J!	c #AB923F",
"K!	c #BE3336",
"L!	c #AFB642",
"M!	c #CB533A",
"N!	c #A7CA44",
"O!	c #C1793D",
"P!	c #CF3337",
"Q!	c #D03337",
"R!	c #AE4B37",
"S!	c #A8913E",
"T!	c #A9C844",
"U!	c #CD513A",
"V!	c #D04539",
"W!	c #B1923F",
"X!	c #A89C3F",
"Y!	c #CE4B39",
"Z!	c #ACC043",
"[!	c #CD503A",
"]!	c #C6683C",
"^!	c #A8AB41",
"_!	c #CD3C38",
"`!	c #B5A241",
"a!	c #D14239",
"b!	c #ADBD43",
"c!	c #D43738",
"d!	c #AEB943",
"e!	c #B1AD42",
"f!	c #B2AA41",
"g!	c #D33A38",
"h!	c #BB5139",
"i!	c #CF4939",
"j!	c #CC543A",
"k!	c #D04639",
"l!	c #C74A39",
"m!	c #A8C343",
"n!	c #AC623A",
"o!	c #C93337",
"p!	c #CE3337",
"q!	c #B2633A",
"r!	c #A8C143",
"s!	c #AB8C3E",
"t!	c #B55038",
"                                                                ",
"                      # $ $ % & & % $ $ #                       ",
"                  ' ( ) * * + , , + * * ) ( '                   ",
"              - . 0 1 , , , , , , , , , , 1 0 . -               ",
"            2 3 4 , , , 5 , 5 , , , , 5 , , , 4 3 2             ",
"          6 7 8 , , , , , 9 : : ; < 9 , , , , , 8 7 6           ",
"        2 7 , , , , , , , = > ? @ A = , , , , , , , 7 2         ",
"      - 3 8 , , , , , , B C D E F G C B , , , , , , 8 3 -       ",
"      . 4 , , , , , , H I J K , , L J I H , , , , , , 4 .       ",
"    ' 0 , , , , , , H M N O , , , , O N M H , , , , , , 0 '     ",
"    ( 1 , , , , , H M P Q , , , , , , Q P M H , , , , , 1 (     ",
"  # ) R S T T S U V W X S S S S S S S S Y Z [ T ] ] ] T ^ ) #   ",
"  $ * _ ` a ` b c d e ` f f ` ` ` ` ` ` g h i j k l l m n * $   ",
"  $ * o p f ` @ q r s ` ` f ` ` ` ` ` ` ` f t u v l l w x * $   ",
"  % + y z { p | } @ p { { { { { { { p ` ` a ~  !!!k k #!y + %   ",
"  & , , $!%!| &!&!&!{ s s s s s s s '!&!&!&!&!(!)!%!%!$!, , &   ",
"  & , , , *!~ +!(!,!-!+!.!0!+!1!1!+!2!3!{ 4!5!6!+!~ *!, , , &   ",
"  % + , , *!~ +!7!8!9!:!;!<!=!>!>!=!?!@!A!B!, C!+!~ *!, , + %   ",
"  $ * , , *!~ +!D!E!F!G!, H!I!, , I!H!J!K!L!, C!+!~ *!, , * $   ",
"  $ * , , *!~ +!M!N!>!O!, H!I!, , I!H!J!P!L!, C!+!Q!R!, , * $   ",
"  # ) 5 , S!~ +!C!, , 5!5 T!U!, , I!H!^ V!L!, C!+!p W!, 5 ) #   ",
"    ( 1 , X!~ +!Y!Z!] [!, 9 ]!, , I!H!, G!L!, C!+!~ X!, 1 (     ",
"    ' 0 , ^!_!+!+!`!L!a!b!H!c!d!d!c!e!b!a!L!f!g!+!~ X!, 0 '     ",
"      . 4 , h!+!+!4!U!+!i!j!+!k!k!+!a!i!+!U!4!+!+!l!m!4 .       ",
"      - 3 8 n!o!+!+!+!+!+!+!+!+!+!+!+!+!+!+!+!+!p!q!8 3 -       ",
"        2 7 r!s!t!t!t!t!t!t!t!t!t!t!t!t!t!t!t!t!s!r!7 2         ",
"          6 7 8 , , , , , , , , , , , , , , , , 8 7 6           ",
"            2 3 4 , , , , , , , , , , , , , , 4 3 2             ",
"              - . 0 1 , , , , , , , , , , 1 0 . -               ",
"                  ' ( ) * * + , , + * * ) ( '                   ",
"                      # $ $ % & & % $ $ #                       ",
"                                                                "};