/* XPM */ 
static const unsigned char * blackl_xpm[] = {
"37 67 70 1",
" 	c None",
"!	c black",
"#	c #A4D5DF",
"$	c #5F6F74",
"%	c #505A5D",
"&	c #738E94",
"'	c #98C3CD",
"(	c #4D5457",
")	c #373435",
"*	c #363334",
"+	c #7C9AA1",
",	c #303032",
"-	c #5A6A6E",
".	c #97C2CC",
"0	c #9BC8D2",
"1	c #4F595C",
"2	c #302F30",
"3	c #29292A",
"4	c #4C5457",
"5	c #759096",
"6	c #2A2A2B",
"7	c #2F2E2F",
"8	c #99C6CF",
"9	c #282829",
":	c #738D93",
";	c #2F2D2E",
"<	c #9DCCD6",
"=	c #302E2F",
">	c #272728",
"?	c #4D5659",
"@	c #5E6F74",
"A	c #313233",
"B	c #80A0A7",
"C	c #515C5F",
"D	c #2B2A2B",
"E	c #77939A",
"F	c #2C2B2C",
"G	c #313031",
"H	c #A0CFD9",
"I	c #7B99A0",
"J	c #9FCFD9",
"K	c #91BAC2",
"L	c #9AC6D0",
"M	c #2A292A",
"N	c #6B8288",
"O	c #A3D5DF",
"P	c #82A3AB",
"Q	c #58666A",
"R	c white",
"S	c #A9DDE8",
"T	c #A5D7E1",
"U	c #535F62",
"V	c #81A2A9",
"W	c #A7DAE5",
"X	c #556266",
"Y	c #6B8287",
"Z	c #2B2B2C",
"[	c #5F7276",
"]	c #7D9BA3",
"^	c #7D9CA3",
"_	c #6A8086",
"`	c #85A7AF",
"a	c #333536",
"b	c #4D575A",
"c	c #A3D3DE",
"d	c #7C9BA2",
"e	c #7E9EA5",
"f	c #A9DCE7",
"g	c #566266",
"h	c #80A0A8",
"                                     ",
"     #                         #     ",
"     $                         $     ",
"     %&'''''''''''''''''''''''&%     ",
"     ())))*))))))))))**********(     ",
"    +,-.000000001233400000000.-,+    ",
"    5678        17991        8765    ",
"    5678        17991        8765    ",
"    :6;.        17991        .;6:    ",
"   <=>9?        17991        ?>>=<   ",
"   <=>9?        17991        ?>>=<   ",
"   <=>9?        17991        ?>>=<   ",
"   @3>9AB       17991       BA>>3@   ",
"   C9>9DE       17991       ED>>>C   ",
"   C9>9DE       17991       ED>>>C   ",
"   C9>9DE       17991       ED>>>C   ",
"  +F9>99GH      17991      HG9>>>F+  ",
"  ID9>99=J      17991      J=>>>>DI  ",
"  ID9>99=J      17991      J=>>>>DI  ",
"  ID9>99=KLLLLLL12MM4LLLLLLK=>>>>DI  ",
"  ID9999F7777777777777777777F9999DI  ",
"  N6999999999999999999999999999996N  ",
" O2>>>>>>>>>>>>>>>>>>>>>>>>>>>>>>>2O ",
" O299999999999999999999999999999992O ",
" O299999999999999999999999999999992O ",
" O299999999999999999999999999999992O ",
" O2>>>>>>>>>>>>>>>>>>>>>>>>>>>>>>>2O ",
" PF9999999999999999999999999999999FP ",
" Q999999999999999999999999999999999Q ",
" Q999999999999999999999999999999999Q ",
" Q>>>>>>>>>>>>>>>>>>>>>>>>>>>>>>>>>Q ",
" Q999999999999999999999999999999999Q ",
" Q999999999999999RRR999999999999999Q ",
" Q999999999999999R9R999999999999999Q ",
"SQ>>>>>>>>>>>>>>>RRR>>>>>>>>>>>>>>>QS",
"TU999999999999999999999999999999999UT",
"VF999999999999999999999999999999999FV",
"VF999999999999999999999999999999999FV",
"VF>>>>>>>>>>>>>>>>>>>>>>>>>>>>>>>>>FV",
"VF999999999999999999999999999999999FV",
"VF999999999999999999999999999999999FV",
"VF999999999999999999999999999999999FV",
"VF999999999999999999999999999999999FV",
"VF999999999999999999999999999999999FV",
"VF999999999999999999999999999999999FV",
"VF999999999999999999999999999999999FV",
"VF999999999999999999999999999999999FV",
"VF999999999999999999999999999999999FV",
"WX999999999999999999999999999999999XW",
" Q999999999999999999999999999999999Q ",
" Q999999999999999999999999999999999Q ",
" Q999999999999999999999999999999999Q ",
" Q999999999999999999999999999999999Q ",
" Q999999999999999999999999999999999Q ",
" Q999999999999999999999999999999999Q ",
" YM9999999MZZZZZZZZZZZZZZZM9999999MY ",
" O2999999M[]]]]]]]]]]]]]]][M9999992O ",
" O2999999Z^               ^Z9999992O ",
" O2999999Z^               ^Z9999992O ",
" O2999999Z^               ^Z9999992O ",
"  _699999Z^               ^Z999996_  ",
"  ID99999Z^               ^Z99999DI  ",
"  `a99999bc               cb99999a`  ",
"   dF999Fe                 eF999Fd   ",
"   feggghf                 fhgggef   ",
"                                     ",
"                                     "};