/* XPM */ 
static const unsigned char * blacks_xpm[] = {
"27 47 54 1",
" 	c None",
"!	c black",
"#	c #718B91",
"$	c #63757A",
"%	c #85A8B0",
"&	c #343233",
"'	c #383637",
"(	c #85A7AF",
")	c #2D2C2D",
"*	c #617378",
"+	c #90B8C1",
",	c #4E575A",
"-	c #2B2A2B",
".	c #6D858A",
"0	c #546164",
"1	c #272728",
"2	c #697F85",
"3	c #566468",
"4	c #3A3B3D",
"5	c #2F2D2E",
"6	c #9AC6D0",
"7	c #282829",
"8	c #2C2B2C",
"9	c #80A0A8",
":	c #7A979E",
";	c #2D2D2E",
"<	c #515C60",
"=	c #6B8186",
">	c #292829",
"?	c #4C5558",
"@	c #A4D5DF",
"A	c #4A5457",
"B	c #2B2B2C",
"C	c #586569",
"D	c #6C8288",
"E	c #44484B",
"F	c #302E2F",
"G	c #2E2D2E",
"H	c #272729",
"I	c #8FB6BF",
"J	c #2E2C2D",
"K	c #4E585C",
"L	c #4E585B",
"M	c white",
"N	c #302F30",
"O	c #4F595C",
"P	c #343334",
"Q	c #353436",
"R	c #303031",
"S	c #80A0A7",
"T	c #535F62",
"U	c #4B5457",
"V	c #5D6E73",
"W	c #A1D2DC",
"                           ",
"    #                 #    ",
"    $                 $    ",
"   %&'''''''''''''''''&%   ",
"   ()*++++++,-,++++++*)(   ",
"   ().      010      .)(   ",
"   2-3      010      3-2   ",
"   4156     010     6574   ",
"   4156     010     6574   ",
"   4189     010     9874   ",
"  :;11<     010     <77;:  ",
"  =>11<     010     <77>=  ",
"  =>11<     010     <77>=  ",
"  =>11?@    010    @?77>=  ",
"  A711BCDDDDEFEDDDDCB777A  ",
"  G711777777777777777777G  ",
"  GH11711111111111177777G  ",
"  G711711111111111177777G  ",
"  G711711111111111177777G  ",
" IJH11711111111111177777JI ",
" K77777777777777777777777K ",
" K77777777777777777777777K ",
" L1111111111MMM1111111111K ",
" K7777777777M7M7777777777K ",
" K7777777777MMM7777777777K ",
" K77777777777777777777777K ",
" L11111111111111111111111K ",
" K77777777777777777777777K ",
" K77777777777777777777777K ",
" K77777777777777777777777K ",
" L11111111111111111111111K ",
" K77777777777777777777777K ",
" K77777777777777777777777K ",
" K77777777777777777777777K ",
" L11111111111111111111111K ",
" K77777777777777777777777K ",
" K77777777777777777777777K ",
" K77777777777777777777777K ",
" L11111111111111111111111K ",
"  )7777NOOOOOOOOOOON7777)  ",
"  G7777P           P7777G  ",
"  G7777P           P7777G  ",
"  G7777P           P7777G  ",
"  07777Q           Q77770  ",
"  (R77BS           SB77R(  ",
"   TUUVW           WVUUT   ",
"                           "};