/* XPM */ 
static const unsigned char * bluel_xpm[] = {
"37 67 86 1",
" 	c None",
"!	c black",
"#	c #A4D5DF",
"$	c #5F6F74",
"%	c #505A5D",
"&	c #738E94",
"'	c #98C3CD",
"(	c #4D5457",
")	c #373435",
"*	c #363334",
"+	c #7C9AA1",
",	c #3C4D7D",
"-	c #5C6F7C",
".	c #97C2CC",
"0	c #9BC8D2",
"1	c #38456A",
"2	c #3B58A5",
"3	c #3A5396",
"4	c #4E5964",
"5	c #759096",
"6	c #3A518F",
"7	c #38456C",
"8	c #99C6CF",
"9	c #515F6B",
":	c #738E95",
";	c #3A5190",
"<	c #39466D",
"=	c #97C3CC",
">	c #9DCCD6",
"?	c #384468",
"@	c #3A57A4",
"A	c #4F5C6A",
"B	c #60747F",
"C	c #3A549A",
"D	c #3D5287",
"E	c #80A0A7",
"F	c #53616D",
"G	c #3A508D",
"H	c #77939A",
"I	c #53616C",
"J	c #3A4F88",
"K	c #394567",
"L	c #A0CFD9",
"M	c #7B99A0",
"N	c #3A4F89",
"O	c #384366",
"P	c #9FCFD9",
"Q	c #91BAC2",
"R	c #9AC6D0",
"S	c #3A5395",
"T	c #394D85",
"U	c #6D8693",
"V	c #384262",
"W	c #82A4AD",
"X	c #394C80",
"Y	c #596870",
"Z	c #A9DDE8",
"[	c white",
"]	c #A5D7E1",
"^	c #556572",
"_	c #81A2A9",
"`	c #394D83",
"a	c #A7DAE5",
"b	c #576771",
"c	c #6C838C",
"d	c #3A5294",
"e	c #3A5293",
"f	c #394E88",
"g	c #A3D5DF",
"h	c #3A5292",
"i	c #627989",
"j	c #7D9BA3",
"k	c #394E87",
"l	c #7D9CA3",
"m	c #6B8591",
"n	c #85A7AF",
"o	c #3F5283",
"p	c #516072",
"q	c #A3D3DE",
"r	c #7D9DA8",
"s	c #394C82",
"t	c #394C81",
"u	c #7FA0AA",
"v	c #A9DCE7",
"w	c #576670",
"x	c #80A2AC",
"                                     ",
"     #                         #     ",
"     $                         $     ",
"     %&'''''''''''''''''''''''&%     ",
"     ())))*))))))))))**********(     ",
"    +,-.000000001233400000000.-,+    ",
"    5678        12229        8765    ",
"    5678        12229        8765    ",
"    :;<=        12229        =<;:    ",
"   >?@2A        12229        A@@?>   ",
"   >?@2A        12229        A@@?>   ",
"   >?@2A        12229        A@@?>   ",
"   BC@2DE       12229       ED@@CB   ",
"   F2@2GH       12229       HG@@@I   ",
"   F2@2GH       12229       HG@@@I   ",
"   F2@2GH       12229       HG@@@I   ",
"  +J2@2@KL      12229      LK@@@@J+  ",
"  MN2@22OP      12229      PO@@@@NM  ",
"  MN2@22OP      12229      PO@@@@NM  ",
"  MN2@22OQRRRRRR12SS4RRRRRRQO@@@@NM  ",
"  MN2222T7777777777777777777T2222NM  ",
"  U6222222222222222222222222222226U  ",
"  V@@@@@@@@@@@@@@@@@@@@@@@@@@@@@@@V  ",
"  V2222222222222222222222222222222V  ",
"  V2222222222222222222222222222222V  ",
"  V2222222222222222222222222222222V  ",
"  V@@@@@@@@@@@@@@@@@@@@@@@@@@@@@@@V  ",
" WX2222222222222222222222222222222XW ",
" Y222222222222222222222222222222222Y ",
" Y222222222222222222222222222222222Y ",
" Y@@@@@@@@@@@@@@@@@@@@@@@@@@@@@@@@@YZ",
" Y222222222222222222222222222222222Y ",
" Y222222222222222!!!222222222222222Y ",
" Y222222222222222![!222222222222222Y ",
"ZY@@@@@@@@@@@@@@@!!!@@@@@@@@@@@@@@@YZ",
"]^222222222222222222222222222222222^]",
"_`222222222222222222222222222222222`_",
"_`222222222222222222222222222222222`_",
"_`@@@@@@@@@@@@@@@@@@@@@@@@@@@@@@@@@`_",
"_`222222222222222222222222222222222`_",
"_`222222222222222222222222222222222`_",
"_`222222222222222222222222222222222`_",
"_`222222222222222222222222222222222`_",
"_`222222222222222222222222222222222`_",
"_`222222222222222222222222222222222`_",
"_`222222222222222222222222222222222`_",
"_`222222222222222222222222222222222`_",
"_`222222222222222222222222222222222`_",
"ab222222222222222222222222222222222ba",
" Y222222222222222222222222222222222Y ",
" Y222222222222222222222222222222222Y ",
" Y222222222222222222222222222222222Y ",
" Y222222222222222222222222222222222Y ",
" Y222222222222222222222222222222222Y ",
" Y222222222222222222222222222222222Y ",
" cd2222222efffffffffffffffe2222222dc ",
" gV222222hijjjjjjjjjjjjjjjih222222Vg ",
" gV222222kl               lk222222Vg ",
" gV222222kl               lk222222Vg ",
" gV222222kl               lk222222Vg ",
"  m622222kl               lk222226m  ",
"  MN22222kl               lk22222NM  ",
"  no22222pq               qp22222on  ",
"   rs222tu                 ut222sr   ",
"   vuwwwxv                 vxwwwuv   ",
"                                     ",
"                                     "};