/* XPM */ 
static const unsigned char * blues_xpm[] = {
"27 47 57 1",
" 	c None",
"!	c black",
"#	c #718B91",
"$	c #63757A",
"%	c #85A8B0",
"&	c #383D50",
"'	c #383637",
"(	c #85A7AF",
")	c #394A79",
"*	c #617378",
"+	c #90B8C1",
",	c #4F5B65",
"-	c #3A508C",
".	c #6D858A",
"0	c #566672",
"1	c #3A57A4",
"2	c #6B8593",
"3	c #3A4F89",
"4	c #5A6D80",
"5	c #404B64",
"6	c #39466F",
"7	c #3B58A5",
"8	c #51606F",
"9	c #394C82",
":	c #81A3AE",
";	c #7A979E",
"<	c #3C528F",
"=	c #546371",
">	c #6B8186",
"?	c #3A559D",
"@	c #506074",
"A	c #A4D5DF",
"B	c #50627B",
"C	c #3A56A1",
"D	c #586569",
"E	c #6C8288",
"F	c #454B51",
"G	c #384468",
"H	c #3A4F88",
"I	c #394772",
"J	c #3A57A3",
"K	c #3B58A4",
"L	c #394977",
"M	c white",
"N	c #394A7A",
"O	c #39456A",
"P	c #526171",
"Q	c #3B4461",
"R	c #586B7E",
"S	c #3A56A0",
"T	c #3B4662",
"U	c #3C5186",
"V	c #80A0A7",
"W	c #55626A",
"X	c #4F5D6F",
"Y	c #607585",
"Z	c #A1D2DC",
"                           ",
"    #                 #    ",
"    $                 $    ",
"   %&'''''''''''''''''&%   ",
"   ()*++++++,-,++++++*)(   ",
"   ().      010      .)(   ",
"   234      010      432   ",
"   516      010      675   ",
"   5168     010     8675   ",
"   519:     010     :975   ",
"  ;<11=     010     =77<;  ",
"  >?11=     010     =77?>  ",
"  >?11=     010     =77?>  ",
"  >?11@A    010    A@77?>  ",
"  BC113DEEEEFGFEEEEDH77CB  ",
"  I711J?????????????J777I  ",
"  IK11711111111111177777I  ",
" 8I711711111111111177777I8 ",
" 8I711711111111111177777I8 ",
" 8L711711111111111177777L8 ",
" 8777777777777777777777778 ",
" 8777777777777777777777778 ",
" 81111111111!!!11111111118 ",
" 87777777777!M!77777777778 ",
" 87777777777!!!77777777778 ",
" 8777777777777777777777778 ",
" 8111111111111111111111118 ",
" 8777777777777777777777778 ",
" 8777777777777777777777778 ",
" 8777777777777777777777778 ",
" 8111111111111111111111118 ",
" 8777777777777777777777778 ",
" 8777777777777777777777778 ",
" 8777777777777777777777778 ",
" 8111111111111111111111118 ",
" 8777777777777777777777778 ",
" 8777777777777777777777778 ",
" 8777777777777777777777778 ",
" 8111111111111111111111118 ",
" 8N7777OPPPPPPPPPPPO7777N8 ",
" 8I7777Q           Q7777I8 ",
"  I7777Q           Q7777I  ",
"  I7777Q           Q7777I  ",
"  RS771T           T177SR  ",
"  (U773V           V377U(  ",
"   WXXYZ           ZYXXW   ",
"                           "};