/* XPM */ 
static const unsigned char * greens_xpm[] = {
"27 47 63 1",
" 	c None",
"!	c black",
"#	c #718B91",
"$	c #63757A",
"%	c #85A8B0",
"&	c #2E513D",
"'	c #383637",
"(	c #85A7AF",
")	c #1E7E48",
"*	c #617378",
"+	c #90B8C1",
",	c #4B635E",
"-	c #17924E",
".	c #6D858A",
"0	c #517069",
"1	c #0EAC54",
"2	c #668F8A",
"3	c #188F4D",
"4	c #517E71",
"5	c #32664B",
"6	c #227345",
"7	c #0FAD55",
"8	c #4A6D63",
"9	c #1B874B",
":	c #7FA7AA",
";	c #7A979E",
"<	c #199551",
"=	c #4E6F66",
">	c #6B8186",
"?	c #11A452",
"@	c #467362",
"A	c #A4D5DF",
"B	c #437B64",
"C	c #10A953",
"D	c #198E4D",
"E	c #586569",
"F	c #6C8288",
"G	c #434F4D",
"H	c #246B43",
"I	c #217646",
"J	c #0FAD54",
"K	c #0FAB54",
"L	c #11A552",
"M	c #217546",
"N	c #0FAC55",
"O	c #1F7C48",
"P	c #0EAD54",
"Q	c #4A6D62",
"R	c white",
"S	c #1E7F48",
"T	c #246D44",
"U	c #4A6F63",
"V	c #2B6344",
"W	c #4E7C6E",
"X	c #10A753",
"Y	c #0FAC54",
"Z	c #2C6445",
"[	c #1F8B4F",
"]	c #80A0A7",
"^	c #526765",
"_	c #466E60",
"`	c #5A8179",
"a	c #A1D2DC",
"                           ",
"    #                 #    ",
"    $                 $    ",
"   %&'''''''''''''''''&%   ",
"   ()*++++++,-,++++++*)(   ",
"   ().      010      .)(   ",
"   234      010      432   ",
"   516      010      675   ",
"   5168     010     8675   ",
"   519:     010     :975   ",
"  ;<11=     010     =77<;  ",
"  >?11=     010     =77?>  ",
"  >?11=     010     =77?>  ",
"  >?11@A    010    A@77?>  ",
"  BC11DEFFFFGHGFFFFED77CB  ",
"  IJ11KLLLLLLLLLLLLLK777I  ",
"  MN11711111111111177777I  ",
" 8I711711111111111177777I8 ",
" 8M711711111111111177777I8 ",
" 8OP11711111111111177777O8 ",
" 8777777777777777777777778 ",
" 8777777777777777777777778 ",
" Q1111111111!!!11111111118 ",
" 87777777777!R!77777777778 ",
" 87777777777!!!77777777778 ",
" 8777777777777777777777778 ",
" Q111111111111111111111118 ",
" 8777777777777777777777778 ",
" 8777777777777777777777778 ",
" 8777777777777777777777778 ",
" Q111111111111111111111118 ",
" 8777777777777777777777778 ",
" 8777777777777777777777778 ",
" 8777777777777777777777778 ",
" Q111111111111111111111118 ",
" 8777777777777777777777778 ",
" 8777777777777777777777778 ",
" 8777777777777777777777778 ",
" Q111111111111111111111118 ",
" 8S7777TUUUUUUUUUUUT7777S8 ",
" 8I7777V           V7777I8 ",
"  I7777V           V7777I  ",
"  I7777V           V7777I  ",
"  WX77YZ           ZY77XW  ",
"  ([77D]           ]D77[(  ",
"   ^__`a           a`__^   ",
"                           "};