/* XPM */ 
static const unsigned char * greenl_xpm[] = {
"37 67 87 1",
" 	c None",
"!	c black",
"#	c #A4D5DF",
"$	c #5F6F74",
"%	c #505A5D",
"&	c #738E94",
"'	c #98C3CD",
"(	c #4D5457",
")	c #373435",
"*	c #363334",
"+	c #7C9AA1",
",	c #21814C",
"-	c #577973",
".	c #97C2CC",
"0	c #9BC8D2",
"1	c #246D44",
"2	c #149C50",
"3	c #149D50",
"4	c #49625C",
"5	c #759096",
"6	c #16954E",
"7	c #236F44",
"8	c #99C6CF",
"9	c #0FAD55",
":	c #4C6961",
";	c #738F94",
"<	c #16964F",
"=	c #227145",
">	c #97C3CC",
"?	c #9DCCD6",
"@	c #246B43",
"A	c #0EAC54",
"B	c #49685F",
"C	c #5C7B78",
"D	c #12A151",
"E	c #208C51",
"F	c #80A0A7",
"G	c #4F6A64",
"H	c #17934E",
"I	c #77939A",
"J	c #198E4D",
"K	c #0FAC54",
"L	c #276944",
"M	c #A0CFD9",
"N	c #7B99A0",
"O	c #188F4D",
"P	c #256943",
"Q	c #9FCFD9",
"R	c #91BAC2",
"S	c #9AC6D0",
"T	c #49625B",
"U	c #1A8A4B",
"V	c #698E8C",
"W	c #266441",
"X	c #81A6AC",
"Y	c #1C854A",
"Z	c #576D6C",
"[	c white",
"]	c #A9DDE8",
"^	c #A5D7E1",
"_	c #507068",
"`	c #81A2A9",
"a	c #1A884B",
"b	c #A7DAE5",
"c	c #536E6A",
"d	c #6A8789",
"e	c #159A50",
"f	c #198E4C",
"g	c #15994F",
"h	c #5C857D",
"i	c #7D9BA3",
"j	c #198D4C",
"k	c #7D9CA3",
"l	c #678D8A",
"m	c #16964E",
"n	c #85A7AF",
"o	c #238751",
"p	c #497063",
"q	c #A3D3DE",
"r	c #7BA1A4",
"s	c #1B874B",
"t	c #1B864A",
"u	c #7DA3A7",
"v	c #A9DCE7",
"w	c #7EA3A7",
"x	c #546D6A",
"y	c #7FA5A9",
"                                     ",
"     #                         #     ",
"     $                         $     ",
"     %&'''''''''''''''''''''''&%     ",
"     ())))*))))))))))**********(     ",
"    +,-.000000001233400000000.-,+    ",
"    5678        1999:        8765    ",
"    5678        1999:        8765    ",
"    ;<=>        1999:        >=<;    ",
"   ?@A9B        1999:        BAA@?   ",
"   ?@A9B        1999:        BAA@?   ",
"   ?@A9B        1999:        BAA@?   ",
"   CDA9EF       1999:       FEAADC   ",
"   G9A9HI       1999:       IHAAAG   ",
"   G9A9HI       1999:       IHAAAG   ",
"   G9A9HI       1999:       IHAAAG   ",
"  +J9A9KLM      1999:      MLKAAAJ+  ",
"  NO9A99PQ      1999:      QPAAAAON  ",
"  NO9A99PQ      1999:      QPAAAAON  ",
"  NO9A99PRSSSSSS1222TSSSSSSRPAAAAON  ",
"  NO9999U7777777777777777777U9999ON  ",
"  V6999999999999999999999999999996V  ",
"  WAAAAAAAAAAAAAAAAAAAAAAAAAAAAAAAW  ",
"  W9999999999999999999999999999999W  ",
"  W9999999999999999999999999999999W  ",
"  W9999999999999999999999999999999W  ",
"  WAAAAAAAAAAAAAAAAAAAAAAAAAAAAAAAW  ",
" XY9999999999999999999999999999999YX ",
" Z999999999999999999999999999999999Z ",
" Z999999999999999999999999999999999Z ",
" ZAAAAAAAAAAAAAAAAAAAAAAAAAAAAAAAAAZ ",
" Z999999999999999999999999999999999Z ",
" Z999999999999999!!!999999999999999Z ",
" Z999999999999999![!999999999999999Z ",
"]ZAAAAAAAAAAAAAAA!!!AAAAAAAAAAAAAAAZ]",
"^_999999999999999999999999999999999_^",
"`a999999999999999999999999999999999a`",
"`a999999999999999999999999999999999a`",
"`aAAAAAAAAAAAAAAAAAAAAAAAAAAAAAAAAAa`",
"`a999999999999999999999999999999999a`",
"`a999999999999999999999999999999999a`",
"`a999999999999999999999999999999999a`",
"`a999999999999999999999999999999999a`",
"`a999999999999999999999999999999999a`",
"`a999999999999999999999999999999999a`",
"`a999999999999999999999999999999999a`",
"`a999999999999999999999999999999999a`",
"`a999999999999999999999999999999999a`",
"bc999999999999999999999999999999999cb",
" Z999999999999999999999999999999999Z ",
" Z999999999999999999999999999999999Z ",
" Z999999999999999999999999999999999Z ",
" Z999999999999999999999999999999999Z ",
" Z999999999999999999999999999999999Z ",
" Z999999999999999999999999999999999Z ",
" de9999999efffffffffffffffe9999999ed ",
"  W999999ghiiiiiiiiiiiiiiihg999999W  ",
"  W999999jk               kj999999W  ",
"  W999999jk               kj999999W  ",
"  W999999jk               kj999999W  ",
"  lm99999jk               kj99999ml  ",
"  NO99999jk               kj99999ON  ",
"  no99999pq               qp99999on  ",
"   rs999tu                 ut999sr   ",
"   vwxxxyv                 vyxxxwv   ",
"                                     ",
"                                     "};