/* XPM */ 
static const unsigned char * orangel_xpm[] = {
"37 67 90 1",
" 	c None",
"!	c black",
"#	c #A4D5DF",
"$	c #5F6F74",
"%	c #505A5D",
"&	c #738E94",
"'	c #98C3CD",
"(	c #4D5457",
")	c #373435",
"*	c #363334",
"+	c #7C9AA1",
",	c #AD6F38",
"-	c #72756F",
".	c #97C2CC",
"0	c #9BC8D2",
"1	c #915F34",
"2	c #DD8433",
"3	c #625F58",
"4	c #759096",
"5	c #D17E33",
"6	c #946134",
"7	c #99C6CF",
"8	c #F69033",
"9	c #68665D",
":	c #768E94",
";	c #D27E33",
"<	c #976233",
"=	c #98C3CC",
">	c #9DCCD6",
"?	c #8E5D34",
"@	c #F58F32",
"A	c #6A645A",
"B	c #707975",
"C	c #E38733",
"D	c #BC783A",
"E	c #80A0A7",
"F	c #676761",
"G	c #CD7C33",
"H	c #77939A",
"I	c #676760",
"J	c #C57934",
"K	c #F58F33",
"L	c #8A5D36",
"M	c #A0CFD9",
"N	c #7B99A0",
"O	c #C77933",
"P	c #8A5C34",
"Q	c #9FCFD9",
"R	c #91BAC2",
"S	c #9AC6D0",
"T	c #DC8333",
"U	c #615F58",
"V	c #BF7533",
"W	c #956134",
"X	c #7D8B89",
"Y	c #845934",
"Z	c #87A5AB",
"[	c #B67133",
"]	c #636B6A",
"^	c white",
"_	c #F69032",
"`	c #A5D7E1",
"a	c #6D6C64",
"b	c #81A2A9",
"c	c #BD7433",
"d	c #A7DAE5",
"e	c #686C67",
"f	c #738688",
"g	c #D98233",
"h	c #D88133",
"i	c #C57833",
"j	c #A3D5DF",
"k	c #D78133",
"l	c #7E8178",
"m	c #7D9BA3",
"n	c #C37733",
"o	c #7D9CA3",
"p	c #A8DBE6",
"q	c #7D8A87",
"r	c #85A7AF",
"s	c #B3753C",
"t	c #746B5C",
"u	c #A3D3DE",
"v	c #86A0A2",
"w	c #BB7333",
"x	c #B97233",
"y	c #86A2A6",
"z	c #A9DCE7",
"{	c #666B67",
"|	c #87A4A8",
"                                     ",
"     #                         #     ",
"     $                         $     ",
"     %&'''''''''''''''''''''''&%     ",
"     ())))*))))))))))**********(     ",
"    +,-.000000001222300000000.-,+    ",
"    4567        18889        7654    ",
"    4567        18889        7654    ",
"    :;<=        18889        =<;:    ",
"   >?@8A        18889        A@@?>   ",
"   >?@8A        18889        A@@?>   ",
"   >?@8A        18889        A@@?>   ",
"   BC@8DE       18889       ED@@CB   ",
"   F8@8GH       18889       HG@@@I   ",
"   F8@8GH       18889       HG@@@I   ",
"   F8@8GH       18889       HG@@@I   ",
"  +J8@8KLM      18889      MLK@@@J+  ",
"  NO8@88PQ      18889      QP@@@@ON  ",
"  NO8@88PQ      18889      QP@@@@ON  ",
"  NO8@88PRSSSSSS12TTUSSSSSSRP@@@@ON  ",
"  NO8888VWWWWWWWWWWWWWWWWWWWV8888ON  ",
"  X5888888888888888888888888888885X  ",
"  Y@@@@@@@@@@@@@@@@@@@@@@@@@@@@@@@Y  ",
"  Y8888888888888888888888888888888Y  ",
"  Y8888888888888888888888888888888Y  ",
"  Y8888888888888888888888888888888Y  ",
"  Y@@@@@@@@@@@@@@@@@@@@@@@@@@@@@@@Y  ",
" Z[8888888888888888888888888888888[Z ",
" ]888888888888888888888888888888888] ",
" ]888888888888888888888888888888888] ",
" ]@@@@@@@@@@@@@@@@@@@@@@@@@@@@@@@@@] ",
" ]888888888888888888888888888888888] ",
" ]888888888888888!!!888888888888888] ",
" ]888888888888888!^!8888888_8_88888] ",
" ]@@@@@@@@@@@@@@@!!!@@@@@@@@@@@@@@@] ",
"`a888888888888888888888888888888888a`",
"bc888888888888888888888888888888888cb",
"bc888888888888888888888888888888888cb",
"bc@@@@@@@@@@@@@@@@@@@@@@@@@@@@@@@@@cb",
"bc888888888888888888888888888888888cb",
"bc888888888888888888888888888888888cb",
"bc888888888888888888888888888888888cb",
"bc888888888888888888888888888888888cb",
"bc888888888888888888888888888888888cb",
"bc888888888888888888888888888888888cb",
"bc888888888888888888888888888888888cb",
"bc888888888888888888888888888888888cb",
"bc888888888888888888888888888888888cb",
"de888888888888888888888888888888888ed",
" ]888888888888888888888888888888888] ",
" ]888888888888888888888888888888888] ",
" ]888888888888888888888888888888888] ",
" ]888888888888888888888888888888888] ",
" ]888888888888888888888888888888888] ",
" ]888888888888888888888888888888888] ",
" fg8888888hiiiiiiiiiiiiiiih8888888gf ",
" jY888888klmmmmmmmmmmmmmmmlk888888Yj ",
" jY888888no               on888888Yj ",
" jY888888no               on888888Yj ",
" jY888888no               on888888Yj ",
" pq;88888no               on88888;qp ",
"  NO88888no               on88888ON  ",
"  rs88888tu               ut88888sr  ",
"   vw888xy                 yx888wv   ",
"   zy{{{|z                 z|{{{yz   ",
"                                     ",
"                                     "};