/* XPM */ 
static const unsigned char * oranges_xpm[] = {
"27 47 65 1",
" 	c None",
"!	c black",
"#	c #718B91",
"$	c #63757A",
"%	c #85A8B0",
"&	c #644A35",
"'	c #383637",
"(	c #85A7AF",
")	c #AC6C33",
"*	c #617378",
"+	c #90B8C1",
",	c #60605B",
"-	c #CC7B33",
".	c #6D858A",
"0	c #6C6C65",
"1	c #F58F32",
"2	c #818C86",
"3	c #C77933",
"4	c #7E786A",
"5	c #A4D5DF",
"6	c #7B5C40",
"7	c #9A6433",
"8	c #9AC6D0",
"9	c #F69033",
":	c #BB7333",
";	c #8AA5A8",
"<	c #7A979E",
"=	c #CE7E36",
">	c #6D6B61",
"?	c #6B8186",
"@	c #E88933",
"A	c #7A6D5B",
"B	c #87725A",
"C	c #EF8D33",
"D	c #C67933",
"E	c #586569",
"F	c #6C8288",
"G	c #4F4E4B",
"H	c #8F5E34",
"I	c #97C2CC",
"J	c #9F6633",
"K	c #F28E33",
"L	c #E98A33",
"M	c #F69032",
"N	c #93B8BF",
"O	c #A96B33",
"P	c #F68F33",
"Q	c #6F695D",
"R	c white",
"S	c #91B4B9",
"T	c #AD6D33",
"U	c #916035",
"V	c #716A5E",
"W	c #7F5938",
"X	c #A2D3DD",
"Y	c #7F7666",
"Z	c #ED8C33",
"[	c #F58F33",
"]	c #7F5A39",
"^	c #BC7738",
"_	c #80A0A7",
"`	c #606563",
"a	c #736859",
"b	c #7B7D74",
"c	c #A1D2DC",
"                           ",
"    #                 #    ",
"    $                 $    ",
"   %&'''''''''''''''''&%   ",
"   ()*++++++,-,++++++*)(   ",
"   ().      010      .)(   ",
"   234      010     5432   ",
"   6178     010     8796   ",
"   6178     010     8796   ",
"   61:;     010     ;:96   ",
"  <=11>     010     >99=<  ",
"  ?@11>     010     >99@?  ",
"  ?@11>     010     >99@?  ",
"  ?@11A5    010    5A99@?  ",
"  BC11DEFFFFGHGFFFFED99CB  ",
" IJ911KLLLLLLLLLLLLLK999JI ",
" IJM11911111111111199999JI ",
" IJ911911111111111199999JI ",
" IJ911911111111111199999JI ",
" NOP11911111111111199999ON ",
" Q99999999999999999999999Q ",
" Q99999999999999999999999Q ",
" Q1111111111!!!1111111111Q ",
" Q9999999999!R!9999999999Q ",
" Q9999999999!!!9999999999Q ",
" Q99999999999999999999999Q ",
" Q11111111111111111111111Q ",
" Q99999999999999999999999Q ",
" Q99999999999999999999999Q ",
" Q99999999999999999999999Q ",
" Q11111111111111111111111Q ",
" Q99999999999999999999999Q ",
" Q99999999999999999999999Q ",
" Q99999999999999999999999Q ",
" Q11111111111111111111111Q ",
" Q99999999999999999999999Q ",
" Q99999999999999999999999Q ",
" Q99999999999999999999999Q ",
" Q11111111111111111111111Q ",
" ST9999UVVVVVVVVVVVU9999TS ",
" IJ9999W           W9999JI ",
" IJ9999W           W9999JI ",
" IJ9999W           W9999JI ",
" XYZ99[]           ][99ZY  ",
"  (^99D_           _D99^(  ",
"   `aabc           cbaa`   ",
"                           "};