/* XPM */ 
static const unsigned char * redl_xpm[] = {
"37 67 90 1",
" 	c None",
"!	c black",
"#	c #A4D5DF",
"$	c #5F6F74",
"%	c #505A5D",
"&	c #738E94",
"'	c #98C3CD",
"(	c #4D5457",
")	c #373435",
"*	c #363334",
"+	c #7C9AA1",
",	c #A7363A",
"-	c #716B6F",
".	c #97C2CC",
"0	c #9BC8D2",
"1	c #813335",
"2	c #D63236",
"3	c #615559",
"4	c #759096",
"5	c #C93236",
"6	c #903335",
"7	c #99C6CF",
"8	c #ED3237",
"9	c #675A5E",
":	c #768D94",
";	c #CA3236",
"<	c #933236",
"=	c #98C2CC",
">	c #9DCCD6",
"?	c #8A3335",
"@	c #EC3136",
"A	c #68575B",
"B	c #707075",
"C	c #DB3236",
"D	c #B6383C",
"E	c #80A0A7",
"F	c #665D61",
"G	c #C63236",
"H	c #77939A",
"I	c #BE3337",
"J	c #EC3236",
"K	c #863437",
"L	c #A0CFD9",
"M	c #7B99A0",
"N	c #C03236",
"O	c #863335",
"P	c #9FCFD9",
"Q	c #91BAC2",
"R	c #9AC6D0",
"S	c #D43236",
"T	c #605558",
"U	c #B93236",
"V	c #913335",
"W	c #7C8389",
"X	c #803335",
"Y	c #86A3AB",
"Z	c #B03236",
"[	c #62666A",
"]	c white",
"^	c #A5D7E1",
"_	c #6C6064",
"`	c #81A2A9",
"a	c #B63236",
"b	c #A7DAE5",
"c	c #676367",
"d	c #ED3137",
"e	c #738288",
"f	c #D13236",
"g	c #D03236",
"h	c #BF3236",
"i	c #A3D5DF",
"j	c #CF3236",
"k	c #7D7378",
"l	c #7D9BA3",
"m	c #BD3236",
"n	c #7D9CA3",
"o	c #A8DBE6",
"p	c #7C8187",
"q	c #85A7AF",
"r	c #AD3B3F",
"s	c #72595D",
"t	c #A3D3DE",
"u	c #859BA3",
"v	c #B53236",
"w	c #B33236",
"x	c #869EA6",
"y	c #A9DCE7",
"z	c #859FA6",
"{	c #656367",
"|	c #86A0A8",
"                                     ",
"     #                         #     ",
"     $                         $     ",
"     %&'''''''''''''''''''''''&%     ",
"     ())))*))))))))))**********(     ",
"    +,-.000000001222300000000.-,+    ",
"    4567        18889        7654    ",
"    4567        18889        7654    ",
"    :;<=        18889        =<;:    ",
"   >?@8A        18889        A@@?>   ",
"   >?@8A        18889        A@@?>   ",
"   >?@8A        18889        A@@?>   ",
"   BC@8DE       18889       ED@@CB   ",
"   F8@8GH       18889       HG@@@F   ",
"   F8@8GH       18889       HG@@@F   ",
"   F8@8GH       18889       HG@@@F   ",
"  +I8@8JKL      18889      LKJ@@@I+  ",
"  MN8@88OP      18889      PO@@@@NM  ",
"  MN8@88OP      18889      PO@@@@NM  ",
"  MN8@88OQRRRRRR12SSTRRRRRRQO@@@@NM  ",
"  MN8888UVVVVVVVVVVVVVVVVVVVU8888NM  ",
"  W5888888888888888888888888888885W  ",
"  X@@@@@@@@@@@@@@@@@@@@@@@@@@@@@@@X  ",
"  X8888888888888888888888888888888X  ",
"  X8888888888888888888888888888888X  ",
"  X8888888888888888888888888888888X  ",
"  X@@@@@@@@@@@@@@@@@@@@@@@@@@@@@@@X  ",
" YZ8888888888888888888888888888888ZY ",
" [888888888888888888888888888888888[ ",
" [888888888888888888888888888888888[ ",
" [@@@@@@@@@@@@@@@@@@@@@@@@@@@@@@@@@[ ",
" [888888888888888888888888888888888[ ",
" [888888888888888!!!888888888888888[ ",
" [888888888888888!]!888888888888888[ ",
" [@@@@@@@@@@@@@@@!!!@@@@@@@@@@@@@@@[ ",
"^_888888888888888888888888888888888_^",
"`a888888888888888888888888888888888a`",
"`a888888888888888888888888888888888a`",
"`a@@@@@@@@@@@@@@@@@@@@@@@@@@@@@@@@@a`",
"`a888888888888888888888888888888888a`",
"`a888888888888888888888888888888888a`",
"`a888888888888888888888888888888888a`",
"`a888888888888888888888888888888888a`",
"`a888888888888888888888888888888888a`",
"`a888888888888888888888888888888888a`",
"`a888888888888888888888888888888888a`",
"`a888888888888888888888888888888888a`",
"`a888888888888888888888888888888888a`",
"bc888888888888888888888888888888888cb",
" [88888888888888888888888d888888888[ ",
" [888888888888888888888888888888888[ ",
" [888888888888888888888888888888888[ ",
" [888888888888888888888888888888888[ ",
" [888888888888888888888888888888888[ ",
" [888888888888888888888888888888888[ ",
" ef8888888ghhhhhhhhhhhhhhhg8888888fe ",
" iX888888jklllllllllllllllkj888888Xi ",
" iX888888mn               nm888888Xi ",
" iX888888mn               nm888888Xi ",
" iX888888mn               nm888888Xi ",
" op;88888mn               nm88888;po ",
"  MN88888mn               nm88888NM  ",
"  qr88888st               ts88888rq  ",
"   uv888wx                 xw888vu   ",
"   yz{{{|y                 y|{{{zy   ",
"                                     ",
"                                     "};