/* XPM */ 
static const unsigned char * reds_xpm[] = {
"27 47 64 1",
" 	c None",
"!	c black",
"#	c #718B91",
"$	c #63757A",
"%	c #85A8B0",
"&	c #623436",
"'	c #383637",
"(	c #85A7AF",
")	c #A63236",
"*	c #617378",
"+	c #90B8C1",
",	c #5F585B",
"-	c #C53236",
".	c #6D858A",
"0	c #6B6266",
"1	c #EC3136",
"2	c #808086",
"3	c #C03236",
"4	c #7C666B",
"5	c #783E41",
"6	c #963236",
"7	c #ED3237",
"8	c #B53236",
"9	c #89A1A8",
":	c #7A979E",
";	c #C73539",
"<	c #6C5E62",
"=	c #6B8186",
">	c #E03236",
"?	c #78585C",
"@	c #84575B",
"A	c #E73236",
"B	c #BF3236",
"C	c #586569",
"D	c #6C8288",
"E	c #4F494B",
"F	c #8A3335",
"G	c #9A3236",
"H	c #EC3137",
"I	c #EA3236",
"J	c #E13236",
"K	c #B23236",
"L	c #ED3236",
"M	c #C23236",
"N	c #CD3236",
"O	c #EC3237",
"P	c #6E5A5E",
"Q	c #DB3236",
"R	c #EC3236",
"S	c white",
"T	c #C13136",
"U	c #A83236",
"V	c #8D3336",
"W	c #6F5A5E",
"X	c #7B3739",
"Y	c #7D6367",
"Z	c #E53236",
"[	c #7B383B",
"]	c #B5373B",
"^	c #80A0A7",
"_	c #5F5F63",
"`	c #71565A",
"a	c #7A7075",
"b	c #A1D2DC",
"                           ",
"    #                 #    ",
"    $                 $    ",
"   %&'''''''''''''''''&%   ",
"   ()*++++++,-,++++++*)(   ",
"   ().      010      .)(   ",
"   234      010      432   ",
"   516      010      675   ",
"   516      010      675   ",
"   5189     010     9875   ",
"  :;11<     010     <77;:  ",
"  =>11<     010     <77>=  ",
"  =>11<     010     <77>=  ",
"  =>11?     010     ?77>=  ",
"  @A11BCDDDDEFEDDDDCB77A@  ",
"  GH11IJJJJJJJJJJJJJI777G  ",
"  KL11711111111111177777K  ",
"  M711711111111111177777M  ",
"  NO11711111111111177777N  ",
" PQR11711111111111177777QP ",
" P77777777777777777777777P ",
" P77777777777777777777777P ",
" P1111111111!!!1111111111P ",
" P7777777777!S!7777777777P ",
" P7777777777!!!7777777777P ",
" P77777777777777777777777P ",
" P11111111111111111111111P ",
" P77777777777777777777777P ",
" P77777777777777777777777P ",
" P77777777777777777777777P ",
" P11111111111111111111111P ",
" P77777777777777777777777P ",
" P77777777777777777777777P ",
" P77777777777777777777777P ",
" P11111111111111111111111P ",
" P77777777777777777777777P ",
" P77777777777777777777777P ",
" PQ777777777777777777777QP ",
" PT111111111111111111111TP ",
" PU7777VWWWWWWWWWWWV7777UP ",
" PG7777X           X7777GP ",
"  G7777X           X7777G  ",
"  G7777X           X7777G  ",
"  YZ77R[           [R77ZY  ",
"  (]77B^           ^B77](  ",
"   _``ab           ba``_   ",
"                           "};