/* XPM */ 
static const unsigned char * whites_xpm[] = {
"27 47 56 1",
" 	c None",
"!	c black",
"#	c #718B91",
"$	c #63757A",
"%	c #85A8B0",
"&	c #666465",
"'	c #383637",
"(	c #85A7AF",
")	c #B1AFB0",
"*	c #617378",
"+	c #90B8C1",
",	c #616A6D",
"-	c #D2D1D2",
".	c #6D858A",
"0	c #6C797C",
"1	c #FDFDFD",
"2	c #82999E",
"3	c #CDCCCD",
"4	c #808E92",
"5	c #7E7F81",
"6	c #9F9D9E",
"7	c #FEFEFE",
"8	c #C1C0C0",
"9	c #707A7D",
":	c #7A979E",
";	c #D4D4D5",
"<	c #6E7A7D",
"=	c #6B8186",
">	c #F0F0F0",
"?	c #7C8588",
"@	c #A4D5DF",
"A	c #899295",
"B	c #F7F7F7",
"C	c #CCCBCB",
"D	c #586569",
"E	c #6C8288",
"F	c #4F5356",
"G	c #929191",
"H	c #A3A2A2",
"I	c #FAFAFA",
"J	c #F1F1F1",
"K	c #ADACAD",
"L	c #DEE0E2",
"M	c #EDEEEF",
"N	c #B2B1B1",
"O	c #959394",
"P	c #727C80",
"Q	c #818182",
"R	c #808D91",
"S	c #F5F5F5",
"T	c #C1C2C2",
"U	c #80A0A7",
"V	c #606C6F",
"W	c #747D80",
"X	c #7C8D92",
"Y	c #A1D2DC",
"                           ",
"    #                 #    ",
"    $                 $    ",
"   %&'''''''''''''''''&%   ",
"   ()*++++++,-,++++++*)(   ",
"   ().      010      .)(   ",
"   234      010      432   ",
"   516      010      675   ",
"   516      010      675   ",
"   5189     010     9875   ",
"  :;11<     010     <77;:  ",
"  =>11<     010     <77>=  ",
"  =>11<     010     <77>=  ",
"  =>11?@    010    @?77>=  ",
"  AB11CDEEEEFGFEEEEDC77BA  ",
"  H711IJJJJJJJJJJJJJI777H  ",
"  H111711111111111177777H  ",
"  H711711111111111177777H  ",
"  H111711111111111177777H  ",
" 9K111711111111111177777K9 ",
" 9L777777777777777777777L9 ",
" 9M777777777777777777777M9 ",
" 91111111111!!!11111111119 ",
" 97777777777!7!77777777779 ",
" 97777777777!!!77777777779 ",
" 9777777777777777777777779 ",
" 9111111111111111111111119 ",
" 9777777777777777777777779 ",
" 9777777777777777777777779 ",
" 9777777777777777777777779 ",
" 9111111111111111111111119 ",
" 9777777777777777777777779 ",
" 9777777777777777777777779 ",
" 9777777777777777777777779 ",
" 9111111111111111111111119 ",
" 9777777777777777777777779 ",
" 9777777777777777777777779 ",
" 9777777777777777777777779 ",
" 9111111111111111111111119 ",
" 9N7777OPPPPPPPPPPPO7777N9 ",
"  H7777Q           Q7777H  ",
"  H7777Q           Q7777H  ",
"  H7777Q           Q7777H  ",
"  RS771Q           Q177SR  ",
"  (T77CU           UC77T(  ",
"   VWWXY           YXWWV   ",
"                           "};