/* XPM */ 
static const unsigned char * whitel_xpm[] = {
"37 67 86 1",
" 	c None",
"!	c black",
"#	c #A4D5DF",
"$	c #5F6F74",
"%	c #505A5D",
"&	c #738E94",
"'	c #98C3CD",
"(	c #4D5457",
")	c #373435",
"*	c #363334",
"+	c #7C9AA1",
",	c #B1B2B2",
"-	c #738286",
".	c #97C2CC",
"0	c #9BC8D2",
"1	c #697376",
"2	c #E4E4E4",
"3	c #636B6E",
"4	c #759096",
"5	c #D7D7D7",
"6	c #989797",
"7	c #99C6CF",
"8	c #FEFEFE",
"9	c #769096",
":	c #D8D8D8",
";	c #9B9A9A",
"<	c #9DCCD6",
"=	c #919090",
">	c #FDFDFD",
"?	c #6B7477",
"@	c #718287",
"A	c #EBEAEA",
"B	c #C1C2C3",
"C	c #80A0A7",
"D	c #687376",
"E	c #D4D3D3",
"F	c #77939A",
"G	c #CBCACA",
"H	c #8D8C8D",
"I	c #A0CFD9",
"J	c #7B99A0",
"K	c #CDCCCC",
"L	c #8E8C8D",
"M	c #9FCFD9",
"N	c #91BAC2",
"O	c #9AC6D0",
"P	c #E2E2E2",
"Q	c #626A6D",
"R	c #C5C4C5",
"S	c #999898",
"T	c #7E959A",
"U	c #D7D6D7",
"V	c #878586",
"W	c #87A8B0",
"X	c #BCBBBB",
"Y	c #637175",
"Z	c #A9DDE8",
"[	c #A5D7E1",
"]	c #6E7A7E",
"^	c #81A2A9",
"_	c #C2C1C2",
"`	c #A7DAE5",
"a	c #697679",
"b	c #738A90",
"c	c #E0DFDF",
"d	c #DFDEDE",
"e	c #CBCBCB",
"f	c #A3D5DF",
"g	c #DDDDDD",
"h	c #809296",
"i	c #7D9BA3",
"j	c #C9C8C9",
"k	c #7D9CA3",
"l	c #7E949A",
"m	c #D8D7D8",
"n	c #85A7AF",
"o	c #B8BABB",
"p	c #767F82",
"q	c #A3D3DE",
"r	c #86A5AC",
"s	c #C1C0C0",
"t	c #BFBEBE",
"u	c #86A6AD",
"v	c #A9DCE7",
"w	c #667377",
"x	c #87A7AF",
"                                     ",
"     #                         #     ",
"     $                         $     ",
"     %&'''''''''''''''''''''''&%     ",
"     ())))*))))))))))**********(     ",
"    +,-.000000001222300000000.-,+    ",
"    4567        18881        7654    ",
"    4567        18881        7654    ",
"    9:;'        18881        ';:9    ",
"   <=>8?        18881        ?>>=<   ",
"   <=>8?        18881        ?>>=<   ",
"   <=>8?        18881        ?>>=<   ",
"   @A>8BC       18881       CB>>A@   ",
"   D8>8EF       18881       FE>>>D   ",
"   D8>8EF       18881       FE>>>D   ",
"   D8>8EF       18881       FE>>>D   ",
"  +G8>8>HI      18881      IH>>>>G+  ",
"  JK8>88LM      18881      ML>>>>KJ  ",
"  JK8>88LM      18881      ML>>>>KJ  ",
"  JK8>88LNOOOOOO12PPQOOOOOONL>>>>KJ  ",
"  JK8888RSSSSSSSSSSSSSSSSSSSR8888KJ  ",
"  TU88888888888888888888888888888UT  ",
"  V>>>>>>>>>>>>>>>>>>>>>>>>>>>>>>>V  ",
"  V8888888888888888888888888888888V  ",
"  V8888888888888888888888888888888V  ",
"  V8888888888888888888888888888888V  ",
"  V>>>>>>>>>>>>>>>>>>>>>>>>>>>>>>>V  ",
" WX8888888888888888888888888888888XW ",
" Y888888888888888888888888888888888Y ",
" Y888888888888888888888888888888888Y ",
" Y>>>>>>>>>>>>>>>>>>>>>>>>>>>>>>>>>Y ",
" Y888888888888888888888888888888888Y ",
" Y888888888888888!!!888888888888888Y ",
" Y888888888888888!8!888888888888888Y ",
"ZY>>>>>>>>>>>>>>>!!!>>>>>>>>>>>>>>>YZ",
"[]888888888888888888888888888888888][",
"^_888888888888888888888888888888888_^",
"^_888888888888888888888888888888888_^",
"^_>>>>>>>>>>>>>>>>>>>>>>>>>>>>>>>>>_^",
"^_888888888888888888888888888888888_^",
"^_888888888888888888888888888888888_^",
"^_888888888888888888888888888888888_^",
"^_888888888888888888888888888888888_^",
"^_888888888888888888888888888888888_^",
"^_888888888888888888888888888888888_^",
"^_888888888888888888888888888888888_^",
"^_888888888888888888888888888888888_^",
"^_888888888888888888888888888888888_^",
"`a888888888888888888888888888888888a`",
" Y888888888888888888888888888888888Y ",
" Y888888888888888888888888888888888Y ",
" Y888888888888888888888888888888888Y ",
" Y888888888888888888888888888888888Y ",
" Y888888888888888888888888888888888Y ",
" Y888888888888888888888888888888888Y ",
" bc8888888deeeeeeeeeeeeeeed8888888cb ",
" fV888888ghiiiiiiiiiiiiiiihg888888Vf ",
" fV888888jk               kj888888Vf ",
" fV888888jk               kj888888Vf ",
" fV888888jk               kj888888Vf ",
"  lm88888jk               kj88888ml  ",
"  JK88888jk               kj88888KJ  ",
"  no88888pq               qp88888on  ",
"   rs888tu                 ut888sr   ",
"   vuwwwxv                 vxwwwuv   ",
"                                     ",
"                                     "};