/* XPM */ 
static const unsigned char * yellowl_xpm[] = {
"37 67 96 2",
"  	c None",
"! 	c black",
"# 	c #A4D5DF",
"$ 	c #5F6F74",
"% 	c #505A5D",
"& 	c #738E94",
"' 	c #98C3CD",
"( 	c #4D5457",
") 	c #373435",
"* 	c #363334",
"+ 	c #7C9AA1",
", 	c #B0A32C",
"- 	c #737F6D",
". 	c #97C2CC",
"0 	c #9BC8D2",
"1 	c #8FB6BE",
"2 	c #887D2B",
"3 	c #E3CE21",
"4 	c #636856",
"5 	c #759096",
"6 	c #D5C223",
"7 	c #978A2A",
"8 	c #99C6CF",
"9 	c #9BC9D2",
": 	c #94872A",
"; 	c #FCE51F",
"< 	c #69705B",
"= 	c #769093",
"> 	c #D7C323",
"? 	c #9A8D29",
"@ 	c #98C3CC",
"A 	c #9DCCD6",
"B 	c #90842A",
"C 	c #FBE41E",
"D 	c #6A7057",
"E 	c #718073",
"F 	c #E9D421",
"G 	c #C0B12C",
"H 	c #80A0A7",
"I 	c #67705E",
"J 	c #D2BF23",
"K 	c #77939A",
"L 	c #AADDE9",
"M 	c #A9DEE8",
"N 	c #C9B825",
"O 	c #FBE41F",
"P 	c #8C812D",
"Q 	c #A0CFD9",
"R 	c #7B99A0",
"S 	c #CBB924",
"T 	c #8D812B",
"U 	c #9FCFD9",
"V 	c #91BAC2",
"W 	c #9AC6D0",
"X 	c #8EB4BD",
"Y 	c #877C2B",
"Z 	c #E1CC21",
"[ 	c #626856",
"] 	c #C4B225",
"^ 	c #988B2A",
"_ 	c #7D9287",
"` 	c #867B2C",
"a 	c #87A7AA",
"b 	c #BAAA26",
"c 	c #637069",
"d 	c white",
"e 	c #A5D7E1",
"f 	c #6E7761",
"g 	c #81A2A9",
"h 	c #C1B025",
"i 	c #A7DAE5",
"j 	c #697365",
"k 	c #738987",
"l 	c #DECA22",
"m 	c #DDC922",
"n 	c #CAB824",
"o 	c #A3D5DF",
"p 	c #DCC822",
"q 	c #7F8E75",
"r 	c #7D9BA3",
"s 	c #C8B624",
"t 	c #7D9CA3",
"u 	c #A8DBE6",
"v 	c #7E9285",
"w 	c #D6C323",
"x 	c #85A7AF",
"y 	c #B7AA30",
"z 	c #757B58",
"{ 	c #A3D3DE",
"| 	c #86A4A1",
"} 	c #BFAE25",
"~ 	c #BDAD25",
" !	c #86A5A5",
"!!	c #A9DCE7",
"#!	c #667165",
"$!	c #87A7A7",
"                                                                          ",
"          #                                                   #           ",
"          $                                                   $           ",
"          % & ' ' ' ' ' ' ' ' ' ' ' ' ' ' ' ' ' ' ' ' ' ' ' & %           ",
"          ( ) ) ) ) * ) ) ) ) ) ) ) ) ) ) * * * * * * * * * * (           ",
"        + , - . 0 0 0 0 0 0 0 0 1 2 3 3 4 0 0 0 0 0 0 0 0 . - , +         ",
"        5 6 7 8                 9 : ; ; <                 8 7 6 5         ",
"        5 6 7 8                 9 : ; ; <                 8 7 6 5         ",
"        = > ? @                 9 : ; ; <                 @ ? > =         ",
"      A B C ; D                 9 : ; ; <                 D C C B A       ",
"      A B C ; D                 9 : ; ; <                 D C C B A       ",
"      A B C ; D                 9 : ; ; <                 D C C B A       ",
"      E F C ; G H               9 : ; ; <               H G C C F E       ",
"      I ; C ; J K               9 : ; ; <               K J C C C I       ",
"    L I ; C ; J K               9 : ; ; <               K J C C C I       ",
"    M I ; C ; J K               9 : ; ; <               K J C C C I       ",
"    + N ; C ; O P Q             9 : ; ; <             Q P O C C C N +     ",
"    R S ; C ; ; T U             9 : ; ; <             U T C C C C S R     ",
"    R S ; C ; ; T U             9 : ; ; <             U T C C C C S R     ",
"    R S ; C ; ; T V W W W W W W X Y Z Z [ W W W W W W V T C C C C S R     ",
"    R S ; ; ; ; ] ^ ^ ^ ^ ^ ^ ^ ^ ^ ^ ^ ^ ^ ^ ^ ^ ^ ^ ^ ] ; ; ; ; S R     ",
"    _ 6 ; ; ; ; ; ; ; ; ; ; ; ; ; ; ; ; ; ; ; ; ; ; ; ; ; ; ; ; ; 6 _     ",
"    ` C C C C C C C C C C C C C C C C C C C C C C C C C C C C C C C `     ",
"    ` ; ; ; ; ; ; ; ; ; ; ; ; ; ; ; ; ; ; ; ; ; ; ; ; ; ; ; ; ; ; ; `     ",
"    ` ; ; ; ; ; ; ; ; ; ; ; ; ; ; ; ; ; ; ; ; ; ; ; ; ; ; ; ; ; ; ; `     ",
"    ` ; ; ; ; ; ; ; ; ; ; ; ; ; ; ; ; ; ; ; ; ; ; ; ; ; ; ; ; ; ; ; `     ",
"    ` C C C C C C C C C C C C C C C C C C C C C C C C C C C C C C C `     ",
"  a b ; ; ; ; ; ; ; ; ; ; ; ; ; ; ; ; ; ; ; ; ; ; ; ; ; ; ; ; ; ; ; b a   ",
"  c ; ; ; ; ; ; ; ; ; ; ; ; ; ; ; ; ; ; ; ; ; ; ; ; ; ; ; ; ; ; ; ; ; c   ",
"  c ; ; ; ; ; ; ; ; ; ; ; ; ; ; ; ; ; ; ; ; ; ; ; ; ; ; ; ; ; ; ; ; ; c   ",
"  c C C C C C C C C C C C C C C C C C C C C C C C C C C C C C C C C C c   ",
"  c ; ; ; ; ; ; ; ; ; ; ; ; ; ; ; ; ; ; ; ; ; ; ; ; ; ; ; ; ; ; ; ; ; c   ",
"  c ; ; ; ; ; ; ; ; ; ; ; ; ; ; ; ! ! ! ; ; ; ; ; ; ; ; ; ; ; ; ; ; ; c   ",
"  c ; ; ; ; ; ; ; ; ; ; ; ; ; ; ; ! d ! ; ; ; ; ; ; ; ; ; ; ; ; ; ; ; c   ",
"  c C C C C C C C C C C C C C C C ! ! ! C C C C C C C C C C C C C C C c   ",
"e f ; ; ; ; ; ; ; ; ; ; ; ; ; ; ; ; ; ; ; ; ; ; ; ; ; ; ; ; ; ; ; ; ; f e ",
"g h ; ; ; ; ; ; ; ; ; ; ; ; ; ; ; ; ; ; ; ; ; ; ; ; ; ; ; ; ; ; ; ; ; h g ",
"g h ; ; ; ; ; ; ; ; ; ; ; ; ; ; ; ; ; ; ; ; ; ; ; ; ; ; ; ; ; ; ; ; ; h g ",
"g h C C C C C C C C C C C C C C C C C C C C C C C C C C C C C C C C C h g ",
"g h ; ; ; ; ; ; ; ; ; ; ; ; ; ; ; ; ; ; ; ; ; ; ; ; ; ; ; ; ; ; ; ; ; h g ",
"g h ; ; ; ; ; ; ; ; ; ; ; ; ; ; ; ; ; ; ; ; ; ; ; ; ; ; ; ; ; ; ; ; ; h g ",
"g h ; ; ; ; ; ; ; ; ; ; ; ; ; ; ; ; ; ; ; ; ; ; ; ; ; ; ; ; ; ; ; ; ; h g ",
"g h ; ; ; ; ; ; ; ; ; ; ; ; ; ; ; ; ; ; ; ; ; ; ; ; ; ; ; ; ; ; ; ; ; h g ",
"g h ; ; ; ; ; ; ; ; ; ; ; ; ; ; ; ; ; ; ; ; ; ; ; ; ; ; ; ; ; ; ; ; ; h g ",
"g h ; ; ; ; ; ; ; ; ; ; ; ; ; ; ; ; ; ; ; ; ; ; ; ; ; ; ; ; ; ; ; ; ; h g ",
"g h ; ; ; ; ; ; ; ; ; ; ; ; ; ; ; ; ; ; ; ; ; ; ; ; ; ; ; ; ; ; ; ; ; h g ",
"g h ; ; ; ; ; ; ; ; ; ; ; ; ; ; ; ; ; ; ; ; ; ; ; ; ; ; ; ; ; ; ; ; ; h g ",
"g h ; ; ; ; ; ; ; ; ; ; ; ; ; ; ; ; ; ; ; ; ; ; ; ; ; ; ; ; ; ; ; ; ; h g ",
"i j ; ; ; ; ; ; ; ; ; ; ; ; ; ; ; ; ; ; ; ; ; ; ; ; ; ; ; ; ; ; ; ; ; j i ",
"  c ; ; ; ; ; ; ; ; ; ; ; ; ; ; ; ; ; ; ; ; ; ; ; ; ; ; ; ; ; ; ; ; ; c   ",
"  c ; ; ; ; ; ; ; ; ; ; ; ; ; ; ; ; ; ; ; ; ; ; ; ; ; ; ; ; ; ; ; ; ; c   ",
"  c ; ; ; ; ; ; ; ; ; ; ; ; ; ; ; ; ; ; ; ; ; ; ; ; ; ; ; ; ; ; ; ; ; c   ",
"  c ; ; ; ; ; ; ; ; ; ; ; ; ; ; ; ; ; ; ; ; ; ; ; ; ; ; ; ; ; ; ; ; ; c   ",
"  c ; ; ; ; ; ; ; ; ; ; ; ; ; ; ; ; ; ; ; ; ; ; ; ; ; ; ; ; ; ; ; ; ; c   ",
"  c ; ; ; ; ; ; ; ; ; ; ; ; ; ; ; ; ; ; ; ; ; ; ; ; ; ; ; ; ; ; ; ; ; c   ",
"  k l ; ; ; ; ; ; ; m n n n n n n n n n n n n n n n m ; ; ; ; ; ; ; l k   ",
"  o ` ; ; ; ; ; ; p q r r r r r r r r r r r r r r r q p ; ; ; ; ; ; ` o   ",
"  o ` ; ; ; ; ; ; s t                               t s ; ; ; ; ; ; ` o   ",
"  o ` ; ; ; ; ; ; s t                               t s ; ; ; ; ; ; ` o   ",
"  o ` ; ; ; ; ; ; s t                               t s ; ; ; ; ; ; ` o   ",
"  u v w ; ; ; ; ; s t                               t s ; ; ; ; ; w v u   ",
"    R S ; ; ; ; ; s t                               t s ; ; ; ; ; S R     ",
"    x y ; ; ; ; ; z {                               { z ; ; ; ; ; y x     ",
"      | } ; ; ; ~  !                                   !~ ; ; ; } |       ",
"      !! !#!#!#!$!!!                                  !!$!#!#!#! !!!      ",
"                                                                          ",
"                                                                          "};