/* XPM */ 
static const unsigned char * yellows_xpm[] = {
"27 47 62 1",
" 	c None",
"!	c black",
"#	c #718B91",
"$	c #63757A",
"%	c #665E30",
"&	c #383637",
"'	c #AFA027",
"(	c #617378",
")	c #90B8C1",
"*	c #616759",
"+	c #D1BE23",
",	c #6D858A",
"-	c #6C7663",
".	c #FBE41E",
"0	c #829684",
"1	c #CCBA24",
"2	c #7F8966",
"3	c #7D773A",
"4	c #9D9029",
"5	c #FCE51F",
"6	c #BFAE25",
"7	c #6E765F",
"8	c #7A979E",
"9	c #D3C126",
":	c #6B8186",
";	c #EED820",
"<	c #7B7F56",
"=	c #888B54",
">	c #F5DF1F",
"?	c #CAB824",
"@	c #586569",
"A	c #6C8288",
"B	c #4F524A",
"C	c #91852A",
"D	c #A29429",
"E	c #FCE51E",
"F	c #F8E21F",
"G	c #EFD920",
"H	c #FCE41F",
"I	c #6E765C",
"J	c #6F765B",
"K	c #AC9D27",
"L	c #70765A",
"M	c #DEC921",
"N	c #F0DA20",
"O	c white",
"P	c #DDC921",
"Q	c #B1A127",
"R	c #94882B",
"S	c #72785A",
"T	c #817831",
"U	c #808862",
"V	c #F3DD1F",
"W	c #FBE41F",
"X	c #817832",
"Y	c #85A7AF",
"Z	c #C0B12B",
"[	c #80A0A7",
"]	c #606A62",
"^	c #747855",
"_	c #7C8A71",
"`	c #A1D2DC",
"                           ",
"    #                 #    ",
"    $                 $    ",
"    %&&&&&&&&&&&&&&&&&%    ",
"    '())))))*+*))))))('    ",
"    ',      -.-      ,'    ",
"   012      -.-      210   ",
"   3.4      -.-      453   ",
"   3.4      -.-      453   ",
"   3.67     -.-     7653   ",
"  89..7     -.-     75598  ",
"  :;..7     -.-     755;:  ",
"  :;..7     -.-     755;:  ",
"  :;..<     -.-     <55;:  ",
"  =>..?@AAAABCBAAAA@?55>=  ",
"  DE..FGGGGGGGGGGGGGF555D  ",
"  DH..5............55555D  ",
" ID5..5............55555DI ",
" JD5..5............55555DJ ",
" JKH..5............55555KJ ",
" LM555555555555555555555ML ",
" LN555555555555555555555NL ",
" L..........!!!..........L ",
" L5555555555!O!5555555555L ",
" L5555555555!!!5555555555L ",
" L55555555555555555555555L ",
" L.......................L ",
" L55555555555555555555555L ",
" L55555555555555555555555L ",
" L55555555555555555555555L ",
" L.......................L ",
" L55555555555555555555555L ",
" L55555555555555555555555L ",
" L55555555555555555555555L ",
" L.......................L ",
" L55555555555555555555555L ",
" L55555555555555555555555L ",
" LN555555555555555555555NL ",
" LP.....................PL ",
" LQ5555RSSSSSSSSSSSR5555QL ",
" LD5555T           T5555DL ",
"  D5555T           T5555D  ",
"  D5555T           T5555D  ",
"  UV55WX           XW55VU  ",
"  YZ55?[           [?55ZY  ",
"   ]^^_`           `_^^]   ",
"                           "};